<?xml version="1.0" encoding="UTF-8" standalone="no"?>
<svg
   xmlns:dc="http://purl.org/dc/elements/1.1/"
   xmlns:cc="http://creativecommons.org/ns#"
   xmlns:rdf="http://www.w3.org/1999/02/22-rdf-syntax-ns#"
   xmlns:svg="http://www.w3.org/2000/svg"
   xmlns="http://www.w3.org/2000/svg"
   xmlns:sodipodi="http://sodipodi.sourceforge.net/DTD/sodipodi-0.dtd"
   xmlns:inkscape="http://www.inkscape.org/namespaces/inkscape"
   height="100%"
   version="1.2"
   width="100%"
   id="svg2417"
   sodipodi:docname="_draftYass_v5_Cut.svg"
   inkscape:version="0.92.4 (5da689c313, 2019-01-14)">
  <metadata
     id="metadata2421">
    <rdf:RDF>
      <cc:Work
         rdf:about="">
        <dc:format>image/svg+xml</dc:format>
        <dc:type
           rdf:resource="http://purl.org/dc/dcmitype/StillImage" />
        <dc:title></dc:title>
      </cc:Work>
    </rdf:RDF>
  </metadata>
  <sodipodi:namedview
     pagecolor="#ffffff"
     bordercolor="#666666"
     borderopacity="1"
     objecttolerance="10"
     gridtolerance="10"
     guidetolerance="10"
     inkscape:pageopacity="0"
     inkscape:pageshadow="2"
     inkscape:window-width="1370"
     inkscape:window-height="836"
     id="namedview2419"
     showgrid="false"
     inkscape:zoom="1.2415307"
     inkscape:cx="275.28945"
     inkscape:cy="182.55719"
     inkscape:window-x="70"
     inkscape:window-y="27"
     inkscape:window-maximized="1"
     inkscape:current-layer="svg2417"
     inkscape:snap-text-baseline="true" />
  <defs
     id="defs2315" />
  <path
     style="fill:none;stroke:#000000;stroke-width:0.37761909"
     d="M -84.44965,-432.87653 H 634.8239 c 7.96955,0 14.38547,6.41754 14.38547,14.38911 V 51.556637 c 0,7.971563 -6.41592,14.389103 -14.38547,14.389103 H -84.44965 c -7.969551,0 -14.385471,-6.41754 -14.385471,-14.389103 V -418.48742 c 0,-7.97157 6.41592,-14.38911 14.385471,-14.38911 z"
     id="rect2317" />
  <path
     style="fill:none;stroke:#000000;stroke-width:0.37761909"
     d="m -4.3705411,-181.0672 a 5.754189,5.7556415 0 0 1 -5.7541889,5.75564 5.754189,5.7556415 0 0 1 -5.754189,-5.75564 5.754189,5.7556415 0 0 1 5.754189,-5.75564 5.754189,5.7556415 0 0 1 5.7541889,5.75564 z"
     id="circle2319" />
  <path
     style="fill:none;stroke:#000000;stroke-width:0.37761909"
     d="m 29.195557,-181.0672 a 5.754189,5.7556415 0 0 1 -5.754189,5.75564 5.754189,5.7556415 0 0 1 -5.754189,-5.75564 5.754189,5.7556415 0 0 1 5.754189,-5.75564 5.754189,5.7556415 0 0 1 5.754189,5.75564 z"
     id="circle2321" />
  <path
     style="fill:none;stroke:#000000;stroke-width:0.37761909"
     d="m 62.76167,-181.0672 a 5.754189,5.7556415 0 0 1 -5.754189,5.75564 5.754189,5.7556415 0 0 1 -5.754189,-5.75564 5.754189,5.7556415 0 0 1 5.754189,-5.75564 5.754189,5.7556415 0 0 1 5.754189,5.75564 z"
     id="circle2323" />
  <path
     style="fill:none;stroke:#000000;stroke-width:0.37761909"
     d="m 96.327767,-181.0672 a 5.754189,5.7556415 0 0 1 -5.754189,5.75564 5.754189,5.7556415 0 0 1 -5.754189,-5.75564 5.754189,5.7556415 0 0 1 5.754189,-5.75564 5.754189,5.7556415 0 0 1 5.754189,5.75564 z"
     id="circle2325" />
  <path
     style="fill:none;stroke:#000000;stroke-width:0.37761909"
     d="m 129.89387,-181.0672 a 5.754189,5.7556415 0 0 1 -5.75419,5.75564 5.754189,5.7556415 0 0 1 -5.75419,-5.75564 5.754189,5.7556415 0 0 1 5.75419,-5.75564 5.754189,5.7556415 0 0 1 5.75419,5.75564 z"
     id="circle2327" />
  <path
     style="fill:none;stroke:#000000;stroke-width:0.37761909"
     d="m 163.45997,-181.0672 a 5.754189,5.7556415 0 0 1 -5.75419,5.75564 5.754189,5.7556415 0 0 1 -5.75419,-5.75564 5.754189,5.7556415 0 0 1 5.75419,-5.75564 5.754189,5.7556415 0 0 1 5.75419,5.75564 z"
     id="circle2329" />
  <path
     style="fill:none;stroke:#000000;stroke-width:0.37761909"
     d="m 197.02607,-181.0672 a 5.754189,5.7556415 0 0 1 -5.75419,5.75564 5.754189,5.7556415 0 0 1 -5.75419,-5.75564 5.754189,5.7556415 0 0 1 5.75419,-5.75564 5.754189,5.7556415 0 0 1 5.75419,5.75564 z"
     id="circle2331" />
  <path
     style="fill:none;stroke:#000000;stroke-width:0.37761909"
     d="m 230.59217,-181.0672 a 5.754189,5.7556415 0 0 1 -5.75419,5.75564 5.754189,5.7556415 0 0 1 -5.75419,-5.75564 5.754189,5.7556415 0 0 1 5.75419,-5.75564 5.754189,5.7556415 0 0 1 5.75419,5.75564 z"
     id="circle2333" />
  <path
     style="fill:none;stroke:#000000;stroke-width:0.37761909"
     d="m 264.15827,-181.0672 a 5.754189,5.7556415 0 0 1 -5.75419,5.75564 5.754189,5.7556415 0 0 1 -5.75419,-5.75564 5.754189,5.7556415 0 0 1 5.75419,-5.75564 5.754189,5.7556415 0 0 1 5.75419,5.75564 z"
     id="circle2335" />
  <path
     style="fill:none;stroke:#000000;stroke-width:0.37761909"
     d="m 297.72437,-181.0672 a 5.754189,5.7556415 0 0 1 -5.75419,5.75564 5.754189,5.7556415 0 0 1 -5.75418,-5.75564 5.754189,5.7556415 0 0 1 5.75418,-5.75564 5.754189,5.7556415 0 0 1 5.75419,5.75564 z"
     id="circle2337" />
  <path
     style="fill:none;stroke:#000000;stroke-width:0.37761909"
     d="m 331.29047,-181.0672 a 5.754189,5.7556415 0 0 1 -5.75418,5.75564 5.754189,5.7556415 0 0 1 -5.75419,-5.75564 5.754189,5.7556415 0 0 1 5.75419,-5.75564 5.754189,5.7556415 0 0 1 5.75418,5.75564 z"
     id="circle2339" />
  <path
     style="fill:none;stroke:#000000;stroke-width:0.37761909"
     d="m 364.85658,-181.0672 a 5.754189,5.7556415 0 0 1 -5.75419,5.75564 5.754189,5.7556415 0 0 1 -5.75419,-5.75564 5.754189,5.7556415 0 0 1 5.75419,-5.75564 5.754189,5.7556415 0 0 1 5.75419,5.75564 z"
     id="circle2341" />
  <path
     style="fill:none;stroke:#000000;stroke-width:0.37761909"
     d="m 398.42268,-181.0672 a 5.754189,5.7556415 0 0 1 -5.75419,5.75564 5.754189,5.7556415 0 0 1 -5.75419,-5.75564 5.754189,5.7556415 0 0 1 5.75419,-5.75564 5.754189,5.7556415 0 0 1 5.75419,5.75564 z"
     id="circle2343" />
  <path
     style="fill:none;stroke:#000000;stroke-width:0.37761909"
     d="m 431.98878,-181.0672 a 5.754189,5.7556415 0 0 1 -5.75419,5.75564 5.754189,5.7556415 0 0 1 -5.75419,-5.75564 5.754189,5.7556415 0 0 1 5.75419,-5.75564 5.754189,5.7556415 0 0 1 5.75419,5.75564 z"
     id="circle2345" />
  <path
     style="fill:none;stroke:#000000;stroke-width:0.37761909"
     d="m 465.55488,-181.0672 a 5.754189,5.7556415 0 0 1 -5.75419,5.75564 5.754189,5.7556415 0 0 1 -5.75419,-5.75564 5.754189,5.7556415 0 0 1 5.75419,-5.75564 5.754189,5.7556415 0 0 1 5.75419,5.75564 z"
     id="circle2347" />
  <path
     style="fill:none;stroke:#000000;stroke-width:0.37761909"
     d="m 499.12098,-181.0672 a 5.754189,5.7556415 0 0 1 -5.75419,5.75564 5.754189,5.7556415 0 0 1 -5.75419,-5.75564 5.754189,5.7556415 0 0 1 5.75419,-5.75564 5.754189,5.7556415 0 0 1 5.75419,5.75564 z"
     id="circle2349" />
  <path
     style="fill:none;stroke:#000000;stroke-width:0.37761909"
     d="m -4.3705411,-49.167084 a 5.754189,5.7556415 0 0 1 -5.7541889,5.755642 5.754189,5.7556415 0 0 1 -5.754189,-5.755642 5.754189,5.7556415 0 0 1 5.754189,-5.755641 5.754189,5.7556415 0 0 1 5.7541889,5.755641 z"
     id="circle2351" />
  <path
     style="fill:none;stroke:#000000;stroke-width:0.37761909"
     d="m 197.02607,-49.167084 a 5.754189,5.7556415 0 0 1 -5.75419,5.755642 5.754189,5.7556415 0 0 1 -5.75419,-5.755642 5.754189,5.7556415 0 0 1 5.75419,-5.755641 5.754189,5.7556415 0 0 1 5.75419,5.755641 z"
     id="circle2353" />
  <path
     style="fill:none;stroke:#000000;stroke-width:0.37761909"
     d="m 297.72437,-49.167084 a 5.754189,5.7556415 0 0 1 -5.75419,5.755642 5.754189,5.7556415 0 0 1 -5.75418,-5.755642 5.754189,5.7556415 0 0 1 5.75418,-5.755641 5.754189,5.7556415 0 0 1 5.75419,5.755641 z"
     id="circle2355" />
  <path
     style="fill:none;stroke:#000000;stroke-width:0.37761909"
     d="m 364.85658,-49.167084 a 5.754189,5.7556415 0 0 1 -5.75419,5.755642 5.754189,5.7556415 0 0 1 -5.75419,-5.755642 5.754189,5.7556415 0 0 1 5.75419,-5.755641 5.754189,5.7556415 0 0 1 5.75419,5.755641 z"
     id="circle2357" />
  <path
     style="fill:none;stroke:#000000;stroke-width:0.37761909"
     d="m 431.98878,-49.167084 a 5.754189,5.7556415 0 0 1 -5.75419,5.755642 5.754189,5.7556415 0 0 1 -5.75419,-5.755642 5.754189,5.7556415 0 0 1 5.75419,-5.755641 5.754189,5.7556415 0 0 1 5.75419,5.755641 z"
     id="circle2359" />
  <path
     style="fill:none;stroke:#000000;stroke-width:0.37761909"
     d="m 499.12098,-49.167084 a 5.754189,5.7556415 0 0 1 -5.75419,5.755642 5.754189,5.7556415 0 0 1 -5.75419,-5.755642 5.754189,5.7556415 0 0 1 5.75419,-5.755641 5.754189,5.7556415 0 0 1 5.75419,5.755641 z"
     id="circle2361" />
  <path
     style="fill:none;stroke:#000000;stroke-width:0.37761909"
     d="m 566.25315,-49.167084 a 5.754189,5.7556415 0 0 1 -5.75419,5.755642 5.754189,5.7556415 0 0 1 -5.75419,-5.755642 5.754189,5.7556415 0 0 1 5.75419,-5.755641 5.754189,5.7556415 0 0 1 5.75419,5.755641 z"
     id="circle2363" />
  <path
     style="fill:none;stroke:#000000;stroke-width:0.37761909"
     d="m 566.25315,-154.68718 a 5.754189,5.7556415 0 0 1 -5.75419,5.75564 5.754189,5.7556415 0 0 1 -5.75419,-5.75564 5.754189,5.7556415 0 0 1 5.75419,-5.75564 5.754189,5.7556415 0 0 1 5.75419,5.75564 z"
     id="circle2365" />
  <path
     style="fill:none;stroke:#000000;stroke-width:0.37761909"
     d="m 566.25315,-260.20728 a 5.754189,5.7556415 0 0 1 -5.75419,5.75565 5.754189,5.7556415 0 0 1 -5.75419,-5.75565 5.754189,5.7556415 0 0 1 5.75419,-5.75564 5.754189,5.7556415 0 0 1 5.75419,5.75564 z"
     id="circle2367" />
  <path
     style="fill:none;stroke:#000000;stroke-width:0.37761909"
     d="m -4.3705411,-365.72736 a 5.754189,5.7556415 0 0 1 -5.7541889,5.75565 5.754189,5.7556415 0 0 1 -5.754189,-5.75565 5.754189,5.7556415 0 0 1 5.754189,-5.75564 5.754189,5.7556415 0 0 1 5.7541889,5.75564 z"
     id="circle2369" />
  <path
     style="fill:none;stroke:#000000;stroke-width:0.37761909"
     d="m 62.76167,-365.72736 a 5.754189,5.7556415 0 0 1 -5.754189,5.75565 5.754189,5.7556415 0 0 1 -5.754189,-5.75565 5.754189,5.7556415 0 0 1 5.754189,-5.75564 5.754189,5.7556415 0 0 1 5.754189,5.75564 z"
     id="circle2371" />
  <path
     style="fill:none;stroke:#000000;stroke-width:0.37761909"
     d="m 129.89387,-365.72736 a 5.754189,5.7556415 0 0 1 -5.75419,5.75565 5.754189,5.7556415 0 0 1 -5.75419,-5.75565 5.754189,5.7556415 0 0 1 5.75419,-5.75564 5.754189,5.7556415 0 0 1 5.75419,5.75564 z"
     id="circle2373" />
  <path
     style="fill:none;stroke:#000000;stroke-width:0.37761909"
     d="M 14.474432,-14.1536 A 22.201576,22.207182 0 0 1 -7.7271438,8.0535822 22.201576,22.207182 0 0 1 -29.92872,-14.1536 22.201576,22.207182 0 0 1 -7.7271438,-36.360782 22.201576,22.207182 0 0 1 14.474432,-14.1536 Z"
     id="circle2375" />
  <path
     style="fill:none;stroke:#000000;stroke-width:0.37761909"
     d="M 81.606628,-14.1536 A 22.201576,22.207182 0 0 1 59.405052,8.0535822 22.201576,22.207182 0 0 1 37.203476,-14.1536 22.201576,22.207182 0 0 1 59.405052,-36.360782 22.201576,22.207182 0 0 1 81.606628,-14.1536 Z"
     id="circle2377" />
  <path
     style="fill:none;stroke:#000000;stroke-width:0.37761909"
     d="M 148.73884,-14.1536 A 22.201576,22.207182 0 0 1 126.53726,8.0535822 22.201576,22.207182 0 0 1 104.33569,-14.1536 22.201576,22.207182 0 0 1 126.53726,-36.360782 22.201576,22.207182 0 0 1 148.73884,-14.1536 Z"
     id="circle2379" />
  <path
     style="fill:none;stroke:#000000;stroke-width:0.37761909"
     d="M 215.87104,-14.1536 A 22.201576,22.207182 0 0 1 193.66946,8.0535822 22.201576,22.207182 0 0 1 171.46789,-14.1536 22.201576,22.207182 0 0 1 193.66946,-36.360782 22.201576,22.207182 0 0 1 215.87104,-14.1536 Z"
     id="circle2381" />
  <path
     style="fill:none;stroke:#000000;stroke-width:0.37761909"
     d="M 316.56934,-14.1536 A 22.201576,22.207182 0 0 1 294.36777,8.0535822 22.201576,22.207182 0 0 1 272.16619,-14.1536 22.201576,22.207182 0 0 1 294.36777,-36.360782 22.201576,22.207182 0 0 1 316.56934,-14.1536 Z"
     id="circle2383" />
  <path
     style="fill:none;stroke:#000000;stroke-width:0.37761909"
     d="M 383.70155,-14.1536 A 22.201576,22.207182 0 0 1 361.49997,8.0535822 22.201576,22.207182 0 0 1 339.29839,-14.1536 22.201576,22.207182 0 0 1 361.49997,-36.360782 22.201576,22.207182 0 0 1 383.70155,-14.1536 Z"
     id="circle2385" />
  <path
     style="fill:none;stroke:#000000;stroke-width:0.37761909"
     d="M 450.83375,-14.1536 A 22.201576,22.207182 0 0 1 428.63217,8.0535822 22.201576,22.207182 0 0 1 406.4306,-14.1536 22.201576,22.207182 0 0 1 428.63217,-36.360782 22.201576,22.207182 0 0 1 450.83375,-14.1536 Z"
     id="circle2387" />
  <path
     style="fill:none;stroke:#000000;stroke-width:0.37761909"
     d="M 517.96592,-14.1536 A 22.201576,22.207182 0 0 1 495.76434,8.0535822 22.201576,22.207182 0 0 1 473.56277,-14.1536 22.201576,22.207182 0 0 1 495.76434,-36.360782 22.201576,22.207182 0 0 1 517.96592,-14.1536 Z"
     id="circle2389" />
  <path
     style="fill:none;stroke:#000000;stroke-width:0.37761909"
     d="M 585.09812,-14.1536 A 22.201576,22.207182 0 0 1 562.89655,8.0535822 22.201576,22.207182 0 0 1 540.69497,-14.1536 22.201576,22.207182 0 0 1 562.89655,-36.360782 22.201576,22.207182 0 0 1 585.09812,-14.1536 Z"
     id="circle2391" />
  <path
     style="fill:none;stroke:#000000;stroke-width:0.37761909"
     d="m 585.09812,-119.6737 a 22.201576,22.207182 0 0 1 -22.20157,22.207184 22.201576,22.207182 0 0 1 -22.20158,-22.207184 22.201576,22.207182 0 0 1 22.20158,-22.20718 22.201576,22.207182 0 0 1 22.20157,22.20718 z"
     id="circle2393" />
  <path
     style="fill:none;stroke:#000000;stroke-width:0.37761909"
     d="m 585.09812,-225.19379 a 22.201576,22.207182 0 0 1 -22.20157,22.20719 22.201576,22.207182 0 0 1 -22.20158,-22.20719 22.201576,22.207182 0 0 1 22.20158,-22.20718 22.201576,22.207182 0 0 1 22.20157,22.20718 z"
     id="circle2395" />
  <path
     style="fill:none;stroke:#000000;stroke-width:0.37761909"
     d="m 585.09812,-330.71387 a 22.201576,22.207182 0 0 1 -22.20157,22.20718 22.201576,22.207182 0 0 1 -22.20158,-22.20718 22.201576,22.207182 0 0 1 22.20158,-22.20718 22.201576,22.207182 0 0 1 22.20157,22.20718 z"
     id="circle2397" />
  <path
     style="fill:none;stroke:#000000;stroke-width:0.37761909"
     d="m 14.474432,-330.71387 a 22.201576,22.207182 0 0 1 -22.2015758,22.20718 22.201576,22.207182 0 0 1 -22.2015762,-22.20718 22.201576,22.207182 0 0 1 22.2015762,-22.20718 22.201576,22.207182 0 0 1 22.2015758,22.20718 z"
     id="circle2399" />
  <path
     style="fill:none;stroke:#000000;stroke-width:0.37761909"
     d="m 81.606628,-330.71387 a 22.201576,22.207182 0 0 1 -22.201576,22.20718 22.201576,22.207182 0 0 1 -22.201576,-22.20718 22.201576,22.207182 0 0 1 22.201576,-22.20718 22.201576,22.207182 0 0 1 22.201576,22.20718 z"
     id="circle2401" />
  <path
     style="fill:none;stroke:#000000;stroke-width:0.37761909"
     d="m 148.73884,-330.71387 a 22.201576,22.207182 0 0 1 -22.20158,22.20718 22.201576,22.207182 0 0 1 -22.20157,-22.20718 22.201576,22.207182 0 0 1 22.20157,-22.20718 22.201576,22.207182 0 0 1 22.20158,22.20718 z"
     id="circle2403" />
  <path
     style="fill:none;stroke:#000000;stroke-width:0.37761909"
     d="m 218.50838,-353.25681 h 151.71878 v 47.96368 H 218.50838 Z"
     id="rect2405" />
  <path
     style="fill:none;stroke:#000000;stroke-width:0.37761909"
     d="m 484.19939,-327.35608 a 27.811913,27.818933 0 0 1 -27.81191,27.81893 27.811913,27.818933 0 0 1 -27.81191,-27.81893 27.811913,27.818933 0 0 1 27.81191,-27.81893 27.811913,27.818933 0 0 1 27.81191,27.81893 z"
     id="circle2407" />
  <path
     style="fill:none;stroke:#000000;stroke-width:0.37761909"
     d="m -11.563272,-260.20728 a 5.754189,5.7556415 0 0 1 -5.754189,5.75565 5.754189,5.7556415 0 0 1 -5.754189,-5.75565 5.754189,5.7556415 0 0 1 5.754189,-5.75564 5.754189,5.7556415 0 0 1 5.754189,5.75564 z"
     id="circle2409" />
  <path
     style="fill:none;stroke:#000000;stroke-width:0.37761909"
     d="m 583.03623,-279.39273 a 5.754189,5.7556415 0 0 1 -5.75419,5.75564 5.754189,5.7556415 0 0 1 -5.75419,-5.75564 5.754189,5.7556415 0 0 1 5.75419,-5.75564 5.754189,5.7556415 0 0 1 5.75419,5.75564 z"
     id="circle2413" />
  <path
     style="fill:none;stroke:#000000;stroke-width:0.37761909"
     d="m 583.03623,-68.352562 a 5.754189,5.7556415 0 0 1 -5.75419,5.755642 5.754189,5.7556415 0 0 1 -5.75419,-5.755642 5.754189,5.7556415 0 0 1 5.75419,-5.755641 5.754189,5.7556415 0 0 1 5.75419,5.755641 z"
     id="circle2415" />
  <g
     transform="scale(0.99987378,1.0001262)"
     style="font-style:normal;font-weight:normal;font-size:151.04763794px;line-height:125%;font-family:sans-serif;text-align:center;letter-spacing:0px;word-spacing:0px;text-anchor:middle;fill:#000000;fill-opacity:1;stroke:none;stroke-width:3.776191px;stroke-linecap:butt;stroke-linejoin:miter;stroke-opacity:1"
     id="text2431" />
  <g
     transform="scale(0.99987378,1.0001262)"
     style="font-style:normal;font-weight:normal;font-size:151.04763794px;line-height:125%;font-family:sans-serif;text-align:center;letter-spacing:0px;word-spacing:0px;text-anchor:middle;fill:#000000;fill-opacity:1;stroke:none;stroke-width:3.776191px;stroke-linecap:butt;stroke-linejoin:miter;stroke-opacity:1"
     id="text2435" />
  <g
     transform="scale(0.99987378,1.0001262)"
     style="font-style:normal;font-variant:normal;font-weight:normal;font-stretch:normal;font-size:30.20952797px;line-height:125%;font-family:sans-serif;-inkscape-font-specification:'sans-serif, Normal';font-variant-ligatures:normal;font-variant-caps:normal;font-variant-numeric:normal;font-feature-settings:normal;text-align:center;letter-spacing:0px;word-spacing:0px;writing-mode:lr-tb;text-anchor:middle;fill:#000000;fill-opacity:1;stroke:none;stroke-width:3.776191px;stroke-linecap:butt;stroke-linejoin:miter;stroke-opacity:1"
     id="text2443" />
  <g
     transform="scale(0.99987378,1.0001262)"
     style="font-style:normal;font-variant:normal;font-weight:normal;font-stretch:normal;font-size:20.13968468px;line-height:125%;font-family:sans-serif;-inkscape-font-specification:'sans-serif, Normal';font-variant-ligatures:normal;font-variant-caps:normal;font-variant-numeric:normal;font-feature-settings:normal;text-align:center;letter-spacing:0px;word-spacing:0px;writing-mode:lr-tb;text-anchor:middle;fill:#000000;fill-opacity:1;stroke:none;stroke-width:3.776191px;stroke-linecap:butt;stroke-linejoin:miter;stroke-opacity:1"
     id="text2471" />
  <g
     transform="matrix(3.7757143,0,0,3.7766676,275.18713,-183.46539)"
     style="font-style:normal;font-variant:normal;font-weight:normal;font-stretch:normal;font-size:8px;line-height:125%;font-family:sans-serif;-inkscape-font-specification:'sans-serif, Normal';font-variant-ligatures:normal;font-variant-caps:normal;font-variant-numeric:normal;font-feature-settings:normal;text-align:center;letter-spacing:0px;word-spacing:0px;writing-mode:lr-tb;text-anchor:middle;fill:#000000;fill-opacity:1;stroke:none;stroke-width:1px;stroke-linecap:butt;stroke-linejoin:miter;stroke-opacity:1"
     id="flowRoot2493" />
  <g
     transform="scale(0.99987378,1.0001262)"
     style="font-style:normal;font-variant:normal;font-weight:normal;font-stretch:normal;font-size:60.41905594px;line-height:125%;font-family:sans-serif;-inkscape-font-specification:'sans-serif, Normal';font-variant-ligatures:normal;font-variant-caps:normal;font-variant-numeric:normal;font-feature-settings:normal;text-align:center;letter-spacing:0px;word-spacing:0px;writing-mode:lr-tb;text-anchor:middle;fill:#000000;fill-opacity:1;stroke:none;stroke-width:3.776191px;stroke-linecap:butt;stroke-linejoin:miter;stroke-opacity:1"
     id="text2577" />
  <g
     transform="matrix(0,-3.7766676,3.7757143,0,275.18713,-183.46539)"
     style="font-style:normal;font-variant:normal;font-weight:normal;font-stretch:normal;font-size:3.33333325px;line-height:1.25;font-family:sans-serif;-inkscape-font-specification:'sans-serif, Normal';font-variant-ligatures:normal;font-variant-caps:normal;font-variant-numeric:normal;font-feature-settings:normal;text-align:end;letter-spacing:0px;word-spacing:0px;writing-mode:lr-tb;text-anchor:end;fill:#000000;fill-opacity:1;stroke:none"
     id="flowRoot1074" />
</svg>
