  0
SECTION
  2
HEADER
  9
$ACADVER
  1
AC1014
  9
$HANDSEED
  5
FFFF
  9
$MEASUREMENT
 70
     1
  0
ENDSEC
  0
SECTION
  2
TABLES
  0
TABLE
  2
VPORT
  5
8
330
0
100
AcDbSymbolTable
 70
     4
  0
VPORT
  5
2E
330
8
100
AcDbSymbolTableRecord
100
AcDbViewportTableRecord
  2
*ACTIVE
 70
     0
 10
0.0
 20
0.0
 11
1.0
 21
1.0
 12
210.0
 22
148.5
 13
0.0
 23
0.0
 14
10.0
 24
10.0
 15
10.0
 25
10.0
 16
0.0
 26
0.0
 36
1.0
 17
0.0
 27
0.0
 37
0.0
 40
341.0
 41
1.24
 42
50.0
 43
0.0
 44
0.0
 50
0.0
 51
0.0
 71
     0
 72
   100
 73
     1
 74
     3
 75
     0
 76
     0
 77
     0
 78
     0
  0
ENDTAB
  0
TABLE
  2
LTYPE
  5
5
330
0
100
AcDbSymbolTable
 70
     1
  0
LTYPE
  5
14
330
5
100
AcDbSymbolTableRecord
100
AcDbLinetypeTableRecord
  2
BYBLOCK
 70
     0
  3

 72
    65
 73
     0
 40
0.0
  0
LTYPE
  5
15
330
5
100
AcDbSymbolTableRecord
100
AcDbLinetypeTableRecord
  2
BYLAYER
 70
     0
  3

 72
    65
 73
     0
 40
0.0
  0
LTYPE
  5
16
330
5
100
AcDbSymbolTableRecord
100
AcDbLinetypeTableRecord
  2
CONTINUOUS
 70
     0
  3
Solid line
 72
    65
 73
     0
 40
0.0
  0
ENDTAB
  0
TABLE
  2
LAYER
  5
2
100
AcDbSymbolTable
 70
1
  0
LAYER
  5
50
100
AcDbSymbolTableRecord
100
AcDbLayerTableRecord
  2
0
 70
0
  6
CONTINUOUS
  0
ENDTAB
  0
TABLE
  2
STYLE
  5
3
330
0
100
AcDbSymbolTable
 70
     1
  0
STYLE
  5
11
330
3
100
AcDbSymbolTableRecord
100
AcDbTextStyleTableRecord
  2
STANDARD
 70
     0
 40
0.0
 41
1.0
 50
0.0
 71
     0
 42
2.5
  3
txt
  4

  0
ENDTAB
  0
TABLE
  2
VIEW
  5
6
330
0
100
AcDbSymbolTable
 70
     0
  0
ENDTAB
  0
TABLE
  2
UCS
  5
7
330
0
100
AcDbSymbolTable
 70
     0
  0
ENDTAB
  0
TABLE
  2
APPID
  5
9
330
0
100
AcDbSymbolTable
 70
     2
  0
APPID
  5
12
330
9
100
AcDbSymbolTableRecord
100
AcDbRegAppTableRecord
  2
ACAD
 70
     0
  0
ENDTAB
  0
TABLE
  2
DIMSTYLE
  5
A
330
0
100
AcDbSymbolTable
 70
     1
  0
DIMSTYLE
105
27
330
A
100
AcDbSymbolTableRecord
100
AcDbDimStyleTableRecord
  2
ISO-25
 70
     0
  3

  4

  5

  6

  7

 40
1.0
 41
2.5
 42
0.625
 43
3.75
 44
1.25
 45
0.0
 46
0.0
 47
0.0
 48
0.0
140
2.5
141
2.5
142
0.0
143
0.03937007874016
144
1.0
145
0.0
146
1.0
147
0.625
 71
     0
 72
     0
 73
     0
 74
     0
 75
     0
 76
     0
 77
     1
 78
     8
170
     0
171
     3
172
     1
173
     0
174
     0
175
     0
176
     0
177
     0
178
     0
270
     2
271
     2
272
     2
273
     2
274
     3
340
11
275
     0
280
     0
281
     0
282
     0
283
     0
284
     8
285
     0
286
     0
287
     3
288
     0
  0
ENDTAB
  0
TABLE
  2
BLOCK_RECORD
  5
1
330
0
100
AcDbSymbolTable
 70
     1
  0
BLOCK_RECORD
  5
1F
330
1
100
AcDbSymbolTableRecord
100
AcDbBlockTableRecord
  2
*MODEL_SPACE
  0
BLOCK_RECORD
  5
1B
330
1
100
AcDbSymbolTableRecord
100
AcDbBlockTableRecord
  2
*PAPER_SPACE
  0
ENDTAB
  0
ENDSEC
  0
SECTION
  2
BLOCKS
  0
BLOCK
  5
20
330
1F
100
AcDbEntity
  8
0
100
AcDbBlockBegin
  2
*MODEL_SPACE
 70
     0
 10
0.0
 20
0.0
 30
0.0
  3
*MODEL_SPACE
  1

  0
ENDBLK
  5
21
330
1F
100
AcDbEntity
  8
0
100
AcDbBlockEnd
  0
BLOCK
  5
1C
330
1B
100
AcDbEntity
 67
     1
  8
0
100
AcDbBlockBegin
  2
*PAPER_SPACE
  1

  0
ENDBLK
  5
1D
330
1B
100
AcDbEntity
 67
     1
  8
0
100
AcDbBlockEnd
  0
ENDSEC
  0
SECTION
  2
ENTITIES
  0
SPLINE
  5
100
100
AcDbEntity
  8
0
 62
7
100
AcDbSpline
 70
8
 71
3
 72
8
 73
4
 74
0
 40
0
 40
0
 40
0
 40
0
 40
1
 40
1
 40
1
 40
1
 10
-19.590015
 20
26.290323
 30
0.0
 10
-19.590015
 20
26.146264
 30
0.0
 10
-19.666869
 20
26.013149
 30
0.0
 10
-19.791627
 20
25.941120
 30
0.0
  0
SPLINE
  5
101
100
AcDbEntity
  8
0
 62
7
100
AcDbSpline
 70
8
 71
3
 72
8
 73
4
 74
0
 40
0
 40
0
 40
0
 40
0
 40
1
 40
1
 40
1
 40
1
 10
-19.791627
 20
25.941120
 30
0.0
 10
-19.916385
 20
25.869091
 30
0.0
 10
-20.070094
 20
25.869091
 30
0.0
 10
-20.194852
 20
25.941120
 30
0.0
  0
SPLINE
  5
102
100
AcDbEntity
  8
0
 62
7
100
AcDbSpline
 70
8
 71
3
 72
8
 73
4
 74
0
 40
0
 40
0
 40
0
 40
0
 40
1
 40
1
 40
1
 40
1
 10
-20.194852
 20
25.941120
 30
0.0
 10
-20.319610
 20
26.013149
 30
0.0
 10
-20.396465
 20
26.146264
 30
0.0
 10
-20.396465
 20
26.290323
 30
0.0
  0
SPLINE
  5
103
100
AcDbEntity
  8
0
 62
7
100
AcDbSpline
 70
8
 71
3
 72
8
 73
4
 74
0
 40
0
 40
0
 40
0
 40
0
 40
1
 40
1
 40
1
 40
1
 10
-20.396465
 20
26.290323
 30
0.0
 10
-20.396465
 20
26.434381
 30
0.0
 10
-20.319610
 20
26.567497
 30
0.0
 10
-20.194852
 20
26.639526
 30
0.0
  0
SPLINE
  5
104
100
AcDbEntity
  8
0
 62
7
100
AcDbSpline
 70
8
 71
3
 72
8
 73
4
 74
0
 40
0
 40
0
 40
0
 40
0
 40
1
 40
1
 40
1
 40
1
 10
-20.194852
 20
26.639526
 30
0.0
 10
-20.070094
 20
26.711555
 30
0.0
 10
-19.916385
 20
26.711555
 30
0.0
 10
-19.791627
 20
26.639526
 30
0.0
  0
SPLINE
  5
105
100
AcDbEntity
  8
0
 62
7
100
AcDbSpline
 70
8
 71
3
 72
8
 73
4
 74
0
 40
0
 40
0
 40
0
 40
0
 40
1
 40
1
 40
1
 40
1
 10
-19.791627
 20
26.639526
 30
0.0
 10
-19.666869
 20
26.567497
 30
0.0
 10
-19.590015
 20
26.434381
 30
0.0
 10
-19.590015
 20
26.290323
 30
0.0
  0
LWPOLYLINE
  5
106
100
AcDbEntity
  8
0
 62
7
100
AcDbPolyline
 90
4
 70
1
 10
-26.209625
 20
43.931417
 30
0.0
 10
26.209625
 20
43.931417
 30
0.0
 10
26.209625
 20
8.985250
 30
0.0
 10
-26.209625
 20
8.985250
 30
0.0
  0
SPLINE
  5
107
100
AcDbEntity
  8
0
 62
7
100
AcDbSpline
 70
8
 71
3
 72
8
 73
4
 74
0
 40
0
 40
0
 40
0
 40
0
 40
1
 40
1
 40
1
 40
1
 10
-17.237869
 20
26.290323
 30
0.0
 10
-17.237869
 20
26.146264
 30
0.0
 10
-17.314723
 20
26.013149
 30
0.0
 10
-17.439481
 20
25.941120
 30
0.0
  0
SPLINE
  5
108
100
AcDbEntity
  8
0
 62
7
100
AcDbSpline
 70
8
 71
3
 72
8
 73
4
 74
0
 40
0
 40
0
 40
0
 40
0
 40
1
 40
1
 40
1
 40
1
 10
-17.439481
 20
25.941120
 30
0.0
 10
-17.564239
 20
25.869091
 30
0.0
 10
-17.717948
 20
25.869091
 30
0.0
 10
-17.842706
 20
25.941120
 30
0.0
  0
SPLINE
  5
109
100
AcDbEntity
  8
0
 62
7
100
AcDbSpline
 70
8
 71
3
 72
8
 73
4
 74
0
 40
0
 40
0
 40
0
 40
0
 40
1
 40
1
 40
1
 40
1
 10
-17.842706
 20
25.941120
 30
0.0
 10
-17.967464
 20
26.013149
 30
0.0
 10
-18.044319
 20
26.146264
 30
0.0
 10
-18.044319
 20
26.290323
 30
0.0
  0
SPLINE
  5
10a
100
AcDbEntity
  8
0
 62
7
100
AcDbSpline
 70
8
 71
3
 72
8
 73
4
 74
0
 40
0
 40
0
 40
0
 40
0
 40
1
 40
1
 40
1
 40
1
 10
-18.044319
 20
26.290323
 30
0.0
 10
-18.044319
 20
26.434381
 30
0.0
 10
-17.967464
 20
26.567497
 30
0.0
 10
-17.842706
 20
26.639526
 30
0.0
  0
SPLINE
  5
10b
100
AcDbEntity
  8
0
 62
7
100
AcDbSpline
 70
8
 71
3
 72
8
 73
4
 74
0
 40
0
 40
0
 40
0
 40
0
 40
1
 40
1
 40
1
 40
1
 10
-17.842706
 20
26.639526
 30
0.0
 10
-17.717948
 20
26.711555
 30
0.0
 10
-17.564239
 20
26.711555
 30
0.0
 10
-17.439481
 20
26.639526
 30
0.0
  0
SPLINE
  5
10c
100
AcDbEntity
  8
0
 62
7
100
AcDbSpline
 70
8
 71
3
 72
8
 73
4
 74
0
 40
0
 40
0
 40
0
 40
0
 40
1
 40
1
 40
1
 40
1
 10
-17.439481
 20
26.639526
 30
0.0
 10
-17.314723
 20
26.567497
 30
0.0
 10
-17.237869
 20
26.434381
 30
0.0
 10
-17.237869
 20
26.290323
 30
0.0
  0
LWPOLYLINE
  5
10d
100
AcDbEntity
  8
0
 62
7
100
AcDbPolyline
 90
1
 70
1
 10
-19.590015
 20
26.290323
 30
0.0
  0
SPLINE
  5
10e
100
AcDbEntity
  8
0
 62
7
100
AcDbSpline
 70
8
 71
3
 72
8
 73
4
 74
0
 40
0
 40
0
 40
0
 40
0
 40
1
 40
1
 40
1
 40
1
 10
-14.885723
 20
26.290323
 30
0.0
 10
-14.885723
 20
26.146264
 30
0.0
 10
-14.962577
 20
26.013149
 30
0.0
 10
-15.087335
 20
25.941120
 30
0.0
  0
SPLINE
  5
10f
100
AcDbEntity
  8
0
 62
7
100
AcDbSpline
 70
8
 71
3
 72
8
 73
4
 74
0
 40
0
 40
0
 40
0
 40
0
 40
1
 40
1
 40
1
 40
1
 10
-15.087335
 20
25.941120
 30
0.0
 10
-15.212094
 20
25.869091
 30
0.0
 10
-15.365802
 20
25.869091
 30
0.0
 10
-15.490560
 20
25.941120
 30
0.0
  0
SPLINE
  5
110
100
AcDbEntity
  8
0
 62
7
100
AcDbSpline
 70
8
 71
3
 72
8
 73
4
 74
0
 40
0
 40
0
 40
0
 40
0
 40
1
 40
1
 40
1
 40
1
 10
-15.490560
 20
25.941120
 30
0.0
 10
-15.615319
 20
26.013149
 30
0.0
 10
-15.692173
 20
26.146264
 30
0.0
 10
-15.692173
 20
26.290323
 30
0.0
  0
SPLINE
  5
111
100
AcDbEntity
  8
0
 62
7
100
AcDbSpline
 70
8
 71
3
 72
8
 73
4
 74
0
 40
0
 40
0
 40
0
 40
0
 40
1
 40
1
 40
1
 40
1
 10
-15.692173
 20
26.290323
 30
0.0
 10
-15.692173
 20
26.434381
 30
0.0
 10
-15.615319
 20
26.567497
 30
0.0
 10
-15.490560
 20
26.639526
 30
0.0
  0
SPLINE
  5
112
100
AcDbEntity
  8
0
 62
7
100
AcDbSpline
 70
8
 71
3
 72
8
 73
4
 74
0
 40
0
 40
0
 40
0
 40
0
 40
1
 40
1
 40
1
 40
1
 10
-15.490560
 20
26.639526
 30
0.0
 10
-15.365802
 20
26.711555
 30
0.0
 10
-15.212094
 20
26.711555
 30
0.0
 10
-15.087335
 20
26.639526
 30
0.0
  0
SPLINE
  5
113
100
AcDbEntity
  8
0
 62
7
100
AcDbSpline
 70
8
 71
3
 72
8
 73
4
 74
0
 40
0
 40
0
 40
0
 40
0
 40
1
 40
1
 40
1
 40
1
 10
-15.087335
 20
26.639526
 30
0.0
 10
-14.962577
 20
26.567497
 30
0.0
 10
-14.885723
 20
26.434381
 30
0.0
 10
-14.885723
 20
26.290323
 30
0.0
  0
LWPOLYLINE
  5
114
100
AcDbEntity
  8
0
 62
7
100
AcDbPolyline
 90
1
 70
1
 10
-17.237869
 20
26.290323
 30
0.0
  0
SPLINE
  5
115
100
AcDbEntity
  8
0
 62
7
100
AcDbSpline
 70
8
 71
3
 72
8
 73
4
 74
0
 40
0
 40
0
 40
0
 40
0
 40
1
 40
1
 40
1
 40
1
 10
-12.533577
 20
26.290323
 30
0.0
 10
-12.533577
 20
26.146264
 30
0.0
 10
-12.610431
 20
26.013149
 30
0.0
 10
-12.735190
 20
25.941120
 30
0.0
  0
SPLINE
  5
116
100
AcDbEntity
  8
0
 62
7
100
AcDbSpline
 70
8
 71
3
 72
8
 73
4
 74
0
 40
0
 40
0
 40
0
 40
0
 40
1
 40
1
 40
1
 40
1
 10
-12.735190
 20
25.941120
 30
0.0
 10
-12.859948
 20
25.869091
 30
0.0
 10
-13.013656
 20
25.869091
 30
0.0
 10
-13.138415
 20
25.941120
 30
0.0
  0
SPLINE
  5
117
100
AcDbEntity
  8
0
 62
7
100
AcDbSpline
 70
8
 71
3
 72
8
 73
4
 74
0
 40
0
 40
0
 40
0
 40
0
 40
1
 40
1
 40
1
 40
1
 10
-13.138415
 20
25.941120
 30
0.0
 10
-13.263173
 20
26.013149
 30
0.0
 10
-13.340027
 20
26.146264
 30
0.0
 10
-13.340027
 20
26.290323
 30
0.0
  0
SPLINE
  5
118
100
AcDbEntity
  8
0
 62
7
100
AcDbSpline
 70
8
 71
3
 72
8
 73
4
 74
0
 40
0
 40
0
 40
0
 40
0
 40
1
 40
1
 40
1
 40
1
 10
-13.340027
 20
26.290323
 30
0.0
 10
-13.340027
 20
26.434381
 30
0.0
 10
-13.263173
 20
26.567497
 30
0.0
 10
-13.138415
 20
26.639526
 30
0.0
  0
SPLINE
  5
119
100
AcDbEntity
  8
0
 62
7
100
AcDbSpline
 70
8
 71
3
 72
8
 73
4
 74
0
 40
0
 40
0
 40
0
 40
0
 40
1
 40
1
 40
1
 40
1
 10
-13.138415
 20
26.639526
 30
0.0
 10
-13.013656
 20
26.711555
 30
0.0
 10
-12.859948
 20
26.711555
 30
0.0
 10
-12.735190
 20
26.639526
 30
0.0
  0
SPLINE
  5
11a
100
AcDbEntity
  8
0
 62
7
100
AcDbSpline
 70
8
 71
3
 72
8
 73
4
 74
0
 40
0
 40
0
 40
0
 40
0
 40
1
 40
1
 40
1
 40
1
 10
-12.735190
 20
26.639526
 30
0.0
 10
-12.610431
 20
26.567497
 30
0.0
 10
-12.533577
 20
26.434381
 30
0.0
 10
-12.533577
 20
26.290323
 30
0.0
  0
LWPOLYLINE
  5
11b
100
AcDbEntity
  8
0
 62
7
100
AcDbPolyline
 90
1
 70
1
 10
-14.885723
 20
26.290323
 30
0.0
  0
SPLINE
  5
11c
100
AcDbEntity
  8
0
 62
7
100
AcDbSpline
 70
8
 71
3
 72
8
 73
4
 74
0
 40
0
 40
0
 40
0
 40
0
 40
1
 40
1
 40
1
 40
1
 10
-10.181431
 20
26.290323
 30
0.0
 10
-10.181431
 20
26.146264
 30
0.0
 10
-10.258286
 20
26.013149
 30
0.0
 10
-10.383044
 20
25.941120
 30
0.0
  0
SPLINE
  5
11d
100
AcDbEntity
  8
0
 62
7
100
AcDbSpline
 70
8
 71
3
 72
8
 73
4
 74
0
 40
0
 40
0
 40
0
 40
0
 40
1
 40
1
 40
1
 40
1
 10
-10.383044
 20
25.941120
 30
0.0
 10
-10.507802
 20
25.869091
 30
0.0
 10
-10.661511
 20
25.869091
 30
0.0
 10
-10.786269
 20
25.941120
 30
0.0
  0
SPLINE
  5
11e
100
AcDbEntity
  8
0
 62
7
100
AcDbSpline
 70
8
 71
3
 72
8
 73
4
 74
0
 40
0
 40
0
 40
0
 40
0
 40
1
 40
1
 40
1
 40
1
 10
-10.786269
 20
25.941120
 30
0.0
 10
-10.911027
 20
26.013149
 30
0.0
 10
-10.987881
 20
26.146264
 30
0.0
 10
-10.987881
 20
26.290323
 30
0.0
  0
SPLINE
  5
11f
100
AcDbEntity
  8
0
 62
7
100
AcDbSpline
 70
8
 71
3
 72
8
 73
4
 74
0
 40
0
 40
0
 40
0
 40
0
 40
1
 40
1
 40
1
 40
1
 10
-10.987881
 20
26.290323
 30
0.0
 10
-10.987881
 20
26.434381
 30
0.0
 10
-10.911027
 20
26.567497
 30
0.0
 10
-10.786269
 20
26.639526
 30
0.0
  0
SPLINE
  5
120
100
AcDbEntity
  8
0
 62
7
100
AcDbSpline
 70
8
 71
3
 72
8
 73
4
 74
0
 40
0
 40
0
 40
0
 40
0
 40
1
 40
1
 40
1
 40
1
 10
-10.786269
 20
26.639526
 30
0.0
 10
-10.661511
 20
26.711555
 30
0.0
 10
-10.507802
 20
26.711555
 30
0.0
 10
-10.383044
 20
26.639526
 30
0.0
  0
SPLINE
  5
121
100
AcDbEntity
  8
0
 62
7
100
AcDbSpline
 70
8
 71
3
 72
8
 73
4
 74
0
 40
0
 40
0
 40
0
 40
0
 40
1
 40
1
 40
1
 40
1
 10
-10.383044
 20
26.639526
 30
0.0
 10
-10.258286
 20
26.567497
 30
0.0
 10
-10.181431
 20
26.434381
 30
0.0
 10
-10.181431
 20
26.290323
 30
0.0
  0
LWPOLYLINE
  5
122
100
AcDbEntity
  8
0
 62
7
100
AcDbPolyline
 90
1
 70
1
 10
-12.533577
 20
26.290323
 30
0.0
  0
SPLINE
  5
123
100
AcDbEntity
  8
0
 62
7
100
AcDbSpline
 70
8
 71
3
 72
8
 73
4
 74
0
 40
0
 40
0
 40
0
 40
0
 40
1
 40
1
 40
1
 40
1
 10
-7.829285
 20
26.290323
 30
0.0
 10
-7.829285
 20
26.146264
 30
0.0
 10
-7.906140
 20
26.013149
 30
0.0
 10
-8.030898
 20
25.941120
 30
0.0
  0
SPLINE
  5
124
100
AcDbEntity
  8
0
 62
7
100
AcDbSpline
 70
8
 71
3
 72
8
 73
4
 74
0
 40
0
 40
0
 40
0
 40
0
 40
1
 40
1
 40
1
 40
1
 10
-8.030898
 20
25.941120
 30
0.0
 10
-8.155656
 20
25.869091
 30
0.0
 10
-8.309365
 20
25.869091
 30
0.0
 10
-8.434123
 20
25.941120
 30
0.0
  0
SPLINE
  5
125
100
AcDbEntity
  8
0
 62
7
100
AcDbSpline
 70
8
 71
3
 72
8
 73
4
 74
0
 40
0
 40
0
 40
0
 40
0
 40
1
 40
1
 40
1
 40
1
 10
-8.434123
 20
25.941120
 30
0.0
 10
-8.558881
 20
26.013149
 30
0.0
 10
-8.635735
 20
26.146264
 30
0.0
 10
-8.635735
 20
26.290323
 30
0.0
  0
SPLINE
  5
126
100
AcDbEntity
  8
0
 62
7
100
AcDbSpline
 70
8
 71
3
 72
8
 73
4
 74
0
 40
0
 40
0
 40
0
 40
0
 40
1
 40
1
 40
1
 40
1
 10
-8.635735
 20
26.290323
 30
0.0
 10
-8.635735
 20
26.434381
 30
0.0
 10
-8.558881
 20
26.567497
 30
0.0
 10
-8.434123
 20
26.639526
 30
0.0
  0
SPLINE
  5
127
100
AcDbEntity
  8
0
 62
7
100
AcDbSpline
 70
8
 71
3
 72
8
 73
4
 74
0
 40
0
 40
0
 40
0
 40
0
 40
1
 40
1
 40
1
 40
1
 10
-8.434123
 20
26.639526
 30
0.0
 10
-8.309365
 20
26.711555
 30
0.0
 10
-8.155656
 20
26.711555
 30
0.0
 10
-8.030898
 20
26.639526
 30
0.0
  0
SPLINE
  5
128
100
AcDbEntity
  8
0
 62
7
100
AcDbSpline
 70
8
 71
3
 72
8
 73
4
 74
0
 40
0
 40
0
 40
0
 40
0
 40
1
 40
1
 40
1
 40
1
 10
-8.030898
 20
26.639526
 30
0.0
 10
-7.906140
 20
26.567497
 30
0.0
 10
-7.829285
 20
26.434381
 30
0.0
 10
-7.829285
 20
26.290323
 30
0.0
  0
LWPOLYLINE
  5
129
100
AcDbEntity
  8
0
 62
7
100
AcDbPolyline
 90
1
 70
1
 10
-10.181431
 20
26.290323
 30
0.0
  0
SPLINE
  5
12a
100
AcDbEntity
  8
0
 62
7
100
AcDbSpline
 70
8
 71
3
 72
8
 73
4
 74
0
 40
0
 40
0
 40
0
 40
0
 40
1
 40
1
 40
1
 40
1
 10
-5.477140
 20
26.290323
 30
0.0
 10
-5.477140
 20
26.146264
 30
0.0
 10
-5.553994
 20
26.013149
 30
0.0
 10
-5.678752
 20
25.941120
 30
0.0
  0
SPLINE
  5
12b
100
AcDbEntity
  8
0
 62
7
100
AcDbSpline
 70
8
 71
3
 72
8
 73
4
 74
0
 40
0
 40
0
 40
0
 40
0
 40
1
 40
1
 40
1
 40
1
 10
-5.678752
 20
25.941120
 30
0.0
 10
-5.803510
 20
25.869091
 30
0.0
 10
-5.957219
 20
25.869091
 30
0.0
 10
-6.081977
 20
25.941120
 30
0.0
  0
SPLINE
  5
12c
100
AcDbEntity
  8
0
 62
7
100
AcDbSpline
 70
8
 71
3
 72
8
 73
4
 74
0
 40
0
 40
0
 40
0
 40
0
 40
1
 40
1
 40
1
 40
1
 10
-6.081977
 20
25.941120
 30
0.0
 10
-6.206735
 20
26.013149
 30
0.0
 10
-6.283590
 20
26.146264
 30
0.0
 10
-6.283590
 20
26.290323
 30
0.0
  0
SPLINE
  5
12d
100
AcDbEntity
  8
0
 62
7
100
AcDbSpline
 70
8
 71
3
 72
8
 73
4
 74
0
 40
0
 40
0
 40
0
 40
0
 40
1
 40
1
 40
1
 40
1
 10
-6.283590
 20
26.290323
 30
0.0
 10
-6.283590
 20
26.434381
 30
0.0
 10
-6.206735
 20
26.567497
 30
0.0
 10
-6.081977
 20
26.639526
 30
0.0
  0
SPLINE
  5
12e
100
AcDbEntity
  8
0
 62
7
100
AcDbSpline
 70
8
 71
3
 72
8
 73
4
 74
0
 40
0
 40
0
 40
0
 40
0
 40
1
 40
1
 40
1
 40
1
 10
-6.081977
 20
26.639526
 30
0.0
 10
-5.957219
 20
26.711555
 30
0.0
 10
-5.803510
 20
26.711555
 30
0.0
 10
-5.678752
 20
26.639526
 30
0.0
  0
SPLINE
  5
12f
100
AcDbEntity
  8
0
 62
7
100
AcDbSpline
 70
8
 71
3
 72
8
 73
4
 74
0
 40
0
 40
0
 40
0
 40
0
 40
1
 40
1
 40
1
 40
1
 10
-5.678752
 20
26.639526
 30
0.0
 10
-5.553994
 20
26.567497
 30
0.0
 10
-5.477140
 20
26.434381
 30
0.0
 10
-5.477140
 20
26.290323
 30
0.0
  0
LWPOLYLINE
  5
130
100
AcDbEntity
  8
0
 62
7
100
AcDbPolyline
 90
1
 70
1
 10
-7.829285
 20
26.290323
 30
0.0
  0
SPLINE
  5
131
100
AcDbEntity
  8
0
 62
7
100
AcDbSpline
 70
8
 71
3
 72
8
 73
4
 74
0
 40
0
 40
0
 40
0
 40
0
 40
1
 40
1
 40
1
 40
1
 10
-3.124994
 20
26.290323
 30
0.0
 10
-3.124994
 20
26.146264
 30
0.0
 10
-3.201848
 20
26.013149
 30
0.0
 10
-3.326606
 20
25.941120
 30
0.0
  0
SPLINE
  5
132
100
AcDbEntity
  8
0
 62
7
100
AcDbSpline
 70
8
 71
3
 72
8
 73
4
 74
0
 40
0
 40
0
 40
0
 40
0
 40
1
 40
1
 40
1
 40
1
 10
-3.326606
 20
25.941120
 30
0.0
 10
-3.451364
 20
25.869091
 30
0.0
 10
-3.605073
 20
25.869091
 30
0.0
 10
-3.729831
 20
25.941120
 30
0.0
  0
SPLINE
  5
133
100
AcDbEntity
  8
0
 62
7
100
AcDbSpline
 70
8
 71
3
 72
8
 73
4
 74
0
 40
0
 40
0
 40
0
 40
0
 40
1
 40
1
 40
1
 40
1
 10
-3.729831
 20
25.941120
 30
0.0
 10
-3.854589
 20
26.013149
 30
0.0
 10
-3.931444
 20
26.146264
 30
0.0
 10
-3.931444
 20
26.290323
 30
0.0
  0
SPLINE
  5
134
100
AcDbEntity
  8
0
 62
7
100
AcDbSpline
 70
8
 71
3
 72
8
 73
4
 74
0
 40
0
 40
0
 40
0
 40
0
 40
1
 40
1
 40
1
 40
1
 10
-3.931444
 20
26.290323
 30
0.0
 10
-3.931444
 20
26.434381
 30
0.0
 10
-3.854589
 20
26.567497
 30
0.0
 10
-3.729831
 20
26.639526
 30
0.0
  0
SPLINE
  5
135
100
AcDbEntity
  8
0
 62
7
100
AcDbSpline
 70
8
 71
3
 72
8
 73
4
 74
0
 40
0
 40
0
 40
0
 40
0
 40
1
 40
1
 40
1
 40
1
 10
-3.729831
 20
26.639526
 30
0.0
 10
-3.605073
 20
26.711555
 30
0.0
 10
-3.451364
 20
26.711555
 30
0.0
 10
-3.326606
 20
26.639526
 30
0.0
  0
SPLINE
  5
136
100
AcDbEntity
  8
0
 62
7
100
AcDbSpline
 70
8
 71
3
 72
8
 73
4
 74
0
 40
0
 40
0
 40
0
 40
0
 40
1
 40
1
 40
1
 40
1
 10
-3.326606
 20
26.639526
 30
0.0
 10
-3.201848
 20
26.567497
 30
0.0
 10
-3.124994
 20
26.434381
 30
0.0
 10
-3.124994
 20
26.290323
 30
0.0
  0
LWPOLYLINE
  5
137
100
AcDbEntity
  8
0
 62
7
100
AcDbPolyline
 90
1
 70
1
 10
-5.477140
 20
26.290323
 30
0.0
  0
SPLINE
  5
138
100
AcDbEntity
  8
0
 62
7
100
AcDbSpline
 70
8
 71
3
 72
8
 73
4
 74
0
 40
0
 40
0
 40
0
 40
0
 40
1
 40
1
 40
1
 40
1
 10
-0.772848
 20
26.290323
 30
0.0
 10
-0.772848
 20
26.146264
 30
0.0
 10
-0.849702
 20
26.013149
 30
0.0
 10
-0.974460
 20
25.941120
 30
0.0
  0
SPLINE
  5
139
100
AcDbEntity
  8
0
 62
7
100
AcDbSpline
 70
8
 71
3
 72
8
 73
4
 74
0
 40
0
 40
0
 40
0
 40
0
 40
1
 40
1
 40
1
 40
1
 10
-0.974460
 20
25.941120
 30
0.0
 10
-1.099219
 20
25.869091
 30
0.0
 10
-1.252927
 20
25.869091
 30
0.0
 10
-1.377685
 20
25.941120
 30
0.0
  0
SPLINE
  5
13a
100
AcDbEntity
  8
0
 62
7
100
AcDbSpline
 70
8
 71
3
 72
8
 73
4
 74
0
 40
0
 40
0
 40
0
 40
0
 40
1
 40
1
 40
1
 40
1
 10
-1.377685
 20
25.941120
 30
0.0
 10
-1.502444
 20
26.013149
 30
0.0
 10
-1.579298
 20
26.146264
 30
0.0
 10
-1.579298
 20
26.290323
 30
0.0
  0
SPLINE
  5
13b
100
AcDbEntity
  8
0
 62
7
100
AcDbSpline
 70
8
 71
3
 72
8
 73
4
 74
0
 40
0
 40
0
 40
0
 40
0
 40
1
 40
1
 40
1
 40
1
 10
-1.579298
 20
26.290323
 30
0.0
 10
-1.579298
 20
26.434381
 30
0.0
 10
-1.502444
 20
26.567497
 30
0.0
 10
-1.377685
 20
26.639526
 30
0.0
  0
SPLINE
  5
13c
100
AcDbEntity
  8
0
 62
7
100
AcDbSpline
 70
8
 71
3
 72
8
 73
4
 74
0
 40
0
 40
0
 40
0
 40
0
 40
1
 40
1
 40
1
 40
1
 10
-1.377685
 20
26.639526
 30
0.0
 10
-1.252927
 20
26.711555
 30
0.0
 10
-1.099219
 20
26.711555
 30
0.0
 10
-0.974460
 20
26.639526
 30
0.0
  0
SPLINE
  5
13d
100
AcDbEntity
  8
0
 62
7
100
AcDbSpline
 70
8
 71
3
 72
8
 73
4
 74
0
 40
0
 40
0
 40
0
 40
0
 40
1
 40
1
 40
1
 40
1
 10
-0.974460
 20
26.639526
 30
0.0
 10
-0.849702
 20
26.567497
 30
0.0
 10
-0.772848
 20
26.434381
 30
0.0
 10
-0.772848
 20
26.290323
 30
0.0
  0
LWPOLYLINE
  5
13e
100
AcDbEntity
  8
0
 62
7
100
AcDbPolyline
 90
1
 70
1
 10
-3.124994
 20
26.290323
 30
0.0
  0
SPLINE
  5
13f
100
AcDbEntity
  8
0
 62
7
100
AcDbSpline
 70
8
 71
3
 72
8
 73
4
 74
0
 40
0
 40
0
 40
0
 40
0
 40
1
 40
1
 40
1
 40
1
 10
1.579298
 20
26.290323
 30
0.0
 10
1.579298
 20
26.146264
 30
0.0
 10
1.502444
 20
26.013149
 30
0.0
 10
1.377685
 20
25.941120
 30
0.0
  0
SPLINE
  5
140
100
AcDbEntity
  8
0
 62
7
100
AcDbSpline
 70
8
 71
3
 72
8
 73
4
 74
0
 40
0
 40
0
 40
0
 40
0
 40
1
 40
1
 40
1
 40
1
 10
1.377685
 20
25.941120
 30
0.0
 10
1.252927
 20
25.869091
 30
0.0
 10
1.099219
 20
25.869091
 30
0.0
 10
0.974460
 20
25.941120
 30
0.0
  0
SPLINE
  5
141
100
AcDbEntity
  8
0
 62
7
100
AcDbSpline
 70
8
 71
3
 72
8
 73
4
 74
0
 40
0
 40
0
 40
0
 40
0
 40
1
 40
1
 40
1
 40
1
 10
0.974460
 20
25.941120
 30
0.0
 10
0.849702
 20
26.013149
 30
0.0
 10
0.772848
 20
26.146264
 30
0.0
 10
0.772848
 20
26.290323
 30
0.0
  0
SPLINE
  5
142
100
AcDbEntity
  8
0
 62
7
100
AcDbSpline
 70
8
 71
3
 72
8
 73
4
 74
0
 40
0
 40
0
 40
0
 40
0
 40
1
 40
1
 40
1
 40
1
 10
0.772848
 20
26.290323
 30
0.0
 10
0.772848
 20
26.513018
 30
0.0
 10
0.953378
 20
26.693548
 30
0.0
 10
1.176073
 20
26.693548
 30
0.0
  0
SPLINE
  5
143
100
AcDbEntity
  8
0
 62
7
100
AcDbSpline
 70
8
 71
3
 72
8
 73
4
 74
0
 40
0
 40
0
 40
0
 40
0
 40
1
 40
1
 40
1
 40
1
 10
1.176073
 20
26.693548
 30
0.0
 10
1.398768
 20
26.693548
 30
0.0
 10
1.579298
 20
26.513018
 30
0.0
 10
1.579298
 20
26.290323
 30
0.0
  0
LWPOLYLINE
  5
144
100
AcDbEntity
  8
0
 62
7
100
AcDbPolyline
 90
1
 70
1
 10
-0.772848
 20
26.290323
 30
0.0
  0
SPLINE
  5
145
100
AcDbEntity
  8
0
 62
7
100
AcDbSpline
 70
8
 71
3
 72
8
 73
4
 74
0
 40
0
 40
0
 40
0
 40
0
 40
1
 40
1
 40
1
 40
1
 10
3.931444
 20
26.290323
 30
0.0
 10
3.931444
 20
26.146264
 30
0.0
 10
3.854589
 20
26.013149
 30
0.0
 10
3.729831
 20
25.941120
 30
0.0
  0
SPLINE
  5
146
100
AcDbEntity
  8
0
 62
7
100
AcDbSpline
 70
8
 71
3
 72
8
 73
4
 74
0
 40
0
 40
0
 40
0
 40
0
 40
1
 40
1
 40
1
 40
1
 10
3.729831
 20
25.941120
 30
0.0
 10
3.605073
 20
25.869091
 30
0.0
 10
3.451364
 20
25.869091
 30
0.0
 10
3.326606
 20
25.941120
 30
0.0
  0
SPLINE
  5
147
100
AcDbEntity
  8
0
 62
7
100
AcDbSpline
 70
8
 71
3
 72
8
 73
4
 74
0
 40
0
 40
0
 40
0
 40
0
 40
1
 40
1
 40
1
 40
1
 10
3.326606
 20
25.941120
 30
0.0
 10
3.201848
 20
26.013149
 30
0.0
 10
3.124994
 20
26.146264
 30
0.0
 10
3.124994
 20
26.290323
 30
0.0
  0
SPLINE
  5
148
100
AcDbEntity
  8
0
 62
7
100
AcDbSpline
 70
8
 71
3
 72
8
 73
4
 74
0
 40
0
 40
0
 40
0
 40
0
 40
1
 40
1
 40
1
 40
1
 10
3.124994
 20
26.290323
 30
0.0
 10
3.124994
 20
26.434381
 30
0.0
 10
3.201848
 20
26.567497
 30
0.0
 10
3.326606
 20
26.639526
 30
0.0
  0
SPLINE
  5
149
100
AcDbEntity
  8
0
 62
7
100
AcDbSpline
 70
8
 71
3
 72
8
 73
4
 74
0
 40
0
 40
0
 40
0
 40
0
 40
1
 40
1
 40
1
 40
1
 10
3.326606
 20
26.639526
 30
0.0
 10
3.451364
 20
26.711555
 30
0.0
 10
3.605073
 20
26.711555
 30
0.0
 10
3.729831
 20
26.639526
 30
0.0
  0
SPLINE
  5
14a
100
AcDbEntity
  8
0
 62
7
100
AcDbSpline
 70
8
 71
3
 72
8
 73
4
 74
0
 40
0
 40
0
 40
0
 40
0
 40
1
 40
1
 40
1
 40
1
 10
3.729831
 20
26.639526
 30
0.0
 10
3.854589
 20
26.567497
 30
0.0
 10
3.931444
 20
26.434381
 30
0.0
 10
3.931444
 20
26.290323
 30
0.0
  0
LWPOLYLINE
  5
14b
100
AcDbEntity
  8
0
 62
7
100
AcDbPolyline
 90
1
 70
1
 10
1.579298
 20
26.290323
 30
0.0
  0
SPLINE
  5
14c
100
AcDbEntity
  8
0
 62
7
100
AcDbSpline
 70
8
 71
3
 72
8
 73
4
 74
0
 40
0
 40
0
 40
0
 40
0
 40
1
 40
1
 40
1
 40
1
 10
6.283590
 20
26.290323
 30
0.0
 10
6.283590
 20
26.067628
 30
0.0
 10
6.103060
 20
25.887098
 30
0.0
 10
5.880365
 20
25.887098
 30
0.0
  0
SPLINE
  5
14d
100
AcDbEntity
  8
0
 62
7
100
AcDbSpline
 70
8
 71
3
 72
8
 73
4
 74
0
 40
0
 40
0
 40
0
 40
0
 40
1
 40
1
 40
1
 40
1
 10
5.880365
 20
25.887098
 30
0.0
 10
5.657670
 20
25.887098
 30
0.0
 10
5.477140
 20
26.067628
 30
0.0
 10
5.477140
 20
26.290323
 30
0.0
  0
SPLINE
  5
14e
100
AcDbEntity
  8
0
 62
7
100
AcDbSpline
 70
8
 71
3
 72
8
 73
4
 74
0
 40
0
 40
0
 40
0
 40
0
 40
1
 40
1
 40
1
 40
1
 10
5.477140
 20
26.290323
 30
0.0
 10
5.477140
 20
26.434381
 30
0.0
 10
5.553994
 20
26.567497
 30
0.0
 10
5.678752
 20
26.639526
 30
0.0
  0
SPLINE
  5
14f
100
AcDbEntity
  8
0
 62
7
100
AcDbSpline
 70
8
 71
3
 72
8
 73
4
 74
0
 40
0
 40
0
 40
0
 40
0
 40
1
 40
1
 40
1
 40
1
 10
5.678752
 20
26.639526
 30
0.0
 10
5.803510
 20
26.711555
 30
0.0
 10
5.957219
 20
26.711555
 30
0.0
 10
6.081977
 20
26.639526
 30
0.0
  0
SPLINE
  5
150
100
AcDbEntity
  8
0
 62
7
100
AcDbSpline
 70
8
 71
3
 72
8
 73
4
 74
0
 40
0
 40
0
 40
0
 40
0
 40
1
 40
1
 40
1
 40
1
 10
6.081977
 20
26.639526
 30
0.0
 10
6.206735
 20
26.567497
 30
0.0
 10
6.283590
 20
26.434381
 30
0.0
 10
6.283590
 20
26.290323
 30
0.0
  0
LWPOLYLINE
  5
151
100
AcDbEntity
  8
0
 62
7
100
AcDbPolyline
 90
1
 70
1
 10
3.931444
 20
26.290323
 30
0.0
  0
SPLINE
  5
152
100
AcDbEntity
  8
0
 62
7
100
AcDbSpline
 70
8
 71
3
 72
8
 73
4
 74
0
 40
0
 40
0
 40
0
 40
0
 40
1
 40
1
 40
1
 40
1
 10
8.635735
 20
26.290323
 30
0.0
 10
8.635735
 20
26.146264
 30
0.0
 10
8.558881
 20
26.013149
 30
0.0
 10
8.434123
 20
25.941120
 30
0.0
  0
SPLINE
  5
153
100
AcDbEntity
  8
0
 62
7
100
AcDbSpline
 70
8
 71
3
 72
8
 73
4
 74
0
 40
0
 40
0
 40
0
 40
0
 40
1
 40
1
 40
1
 40
1
 10
8.434123
 20
25.941120
 30
0.0
 10
8.309365
 20
25.869091
 30
0.0
 10
8.155656
 20
25.869091
 30
0.0
 10
8.030898
 20
25.941120
 30
0.0
  0
SPLINE
  5
154
100
AcDbEntity
  8
0
 62
7
100
AcDbSpline
 70
8
 71
3
 72
8
 73
4
 74
0
 40
0
 40
0
 40
0
 40
0
 40
1
 40
1
 40
1
 40
1
 10
8.030898
 20
25.941120
 30
0.0
 10
7.906140
 20
26.013149
 30
0.0
 10
7.829285
 20
26.146264
 30
0.0
 10
7.829285
 20
26.290323
 30
0.0
  0
SPLINE
  5
155
100
AcDbEntity
  8
0
 62
7
100
AcDbSpline
 70
8
 71
3
 72
8
 73
4
 74
0
 40
0
 40
0
 40
0
 40
0
 40
1
 40
1
 40
1
 40
1
 10
7.829285
 20
26.290323
 30
0.0
 10
7.829285
 20
26.434381
 30
0.0
 10
7.906140
 20
26.567497
 30
0.0
 10
8.030898
 20
26.639526
 30
0.0
  0
SPLINE
  5
156
100
AcDbEntity
  8
0
 62
7
100
AcDbSpline
 70
8
 71
3
 72
8
 73
4
 74
0
 40
0
 40
0
 40
0
 40
0
 40
1
 40
1
 40
1
 40
1
 10
8.030898
 20
26.639526
 30
0.0
 10
8.155656
 20
26.711555
 30
0.0
 10
8.309365
 20
26.711555
 30
0.0
 10
8.434123
 20
26.639526
 30
0.0
  0
SPLINE
  5
157
100
AcDbEntity
  8
0
 62
7
100
AcDbSpline
 70
8
 71
3
 72
8
 73
4
 74
0
 40
0
 40
0
 40
0
 40
0
 40
1
 40
1
 40
1
 40
1
 10
8.434123
 20
26.639526
 30
0.0
 10
8.558881
 20
26.567497
 30
0.0
 10
8.635735
 20
26.434381
 30
0.0
 10
8.635735
 20
26.290323
 30
0.0
  0
LWPOLYLINE
  5
158
100
AcDbEntity
  8
0
 62
7
100
AcDbPolyline
 90
1
 70
1
 10
6.283590
 20
26.290323
 30
0.0
  0
SPLINE
  5
159
100
AcDbEntity
  8
0
 62
7
100
AcDbSpline
 70
8
 71
3
 72
8
 73
4
 74
0
 40
0
 40
0
 40
0
 40
0
 40
1
 40
1
 40
1
 40
1
 10
10.987881
 20
26.290323
 30
0.0
 10
10.987881
 20
26.146264
 30
0.0
 10
10.911027
 20
26.013149
 30
0.0
 10
10.786269
 20
25.941120
 30
0.0
  0
SPLINE
  5
15a
100
AcDbEntity
  8
0
 62
7
100
AcDbSpline
 70
8
 71
3
 72
8
 73
4
 74
0
 40
0
 40
0
 40
0
 40
0
 40
1
 40
1
 40
1
 40
1
 10
10.786269
 20
25.941120
 30
0.0
 10
10.661511
 20
25.869091
 30
0.0
 10
10.507802
 20
25.869091
 30
0.0
 10
10.383044
 20
25.941120
 30
0.0
  0
SPLINE
  5
15b
100
AcDbEntity
  8
0
 62
7
100
AcDbSpline
 70
8
 71
3
 72
8
 73
4
 74
0
 40
0
 40
0
 40
0
 40
0
 40
1
 40
1
 40
1
 40
1
 10
10.383044
 20
25.941120
 30
0.0
 10
10.258286
 20
26.013149
 30
0.0
 10
10.181431
 20
26.146264
 30
0.0
 10
10.181431
 20
26.290323
 30
0.0
  0
SPLINE
  5
15c
100
AcDbEntity
  8
0
 62
7
100
AcDbSpline
 70
8
 71
3
 72
8
 73
4
 74
0
 40
0
 40
0
 40
0
 40
0
 40
1
 40
1
 40
1
 40
1
 10
10.181431
 20
26.290323
 30
0.0
 10
10.181431
 20
26.513018
 30
0.0
 10
10.361961
 20
26.693548
 30
0.0
 10
10.584656
 20
26.693548
 30
0.0
  0
SPLINE
  5
15d
100
AcDbEntity
  8
0
 62
7
100
AcDbSpline
 70
8
 71
3
 72
8
 73
4
 74
0
 40
0
 40
0
 40
0
 40
0
 40
1
 40
1
 40
1
 40
1
 10
10.584656
 20
26.693548
 30
0.0
 10
10.807351
 20
26.693548
 30
0.0
 10
10.987881
 20
26.513018
 30
0.0
 10
10.987881
 20
26.290323
 30
0.0
  0
LWPOLYLINE
  5
15e
100
AcDbEntity
  8
0
 62
7
100
AcDbPolyline
 90
1
 70
1
 10
8.635735
 20
26.290323
 30
0.0
  0
SPLINE
  5
15f
100
AcDbEntity
  8
0
 62
7
100
AcDbSpline
 70
8
 71
3
 72
8
 73
4
 74
0
 40
0
 40
0
 40
0
 40
0
 40
1
 40
1
 40
1
 40
1
 10
13.340027
 20
26.290323
 30
0.0
 10
13.340027
 20
26.146264
 30
0.0
 10
13.263173
 20
26.013149
 30
0.0
 10
13.138415
 20
25.941120
 30
0.0
  0
SPLINE
  5
160
100
AcDbEntity
  8
0
 62
7
100
AcDbSpline
 70
8
 71
3
 72
8
 73
4
 74
0
 40
0
 40
0
 40
0
 40
0
 40
1
 40
1
 40
1
 40
1
 10
13.138415
 20
25.941120
 30
0.0
 10
13.013656
 20
25.869091
 30
0.0
 10
12.859948
 20
25.869091
 30
0.0
 10
12.735190
 20
25.941120
 30
0.0
  0
SPLINE
  5
161
100
AcDbEntity
  8
0
 62
7
100
AcDbSpline
 70
8
 71
3
 72
8
 73
4
 74
0
 40
0
 40
0
 40
0
 40
0
 40
1
 40
1
 40
1
 40
1
 10
12.735190
 20
25.941120
 30
0.0
 10
12.610431
 20
26.013149
 30
0.0
 10
12.533577
 20
26.146264
 30
0.0
 10
12.533577
 20
26.290323
 30
0.0
  0
SPLINE
  5
162
100
AcDbEntity
  8
0
 62
7
100
AcDbSpline
 70
8
 71
3
 72
8
 73
4
 74
0
 40
0
 40
0
 40
0
 40
0
 40
1
 40
1
 40
1
 40
1
 10
12.533577
 20
26.290323
 30
0.0
 10
12.533577
 20
26.434381
 30
0.0
 10
12.610431
 20
26.567497
 30
0.0
 10
12.735190
 20
26.639526
 30
0.0
  0
SPLINE
  5
163
100
AcDbEntity
  8
0
 62
7
100
AcDbSpline
 70
8
 71
3
 72
8
 73
4
 74
0
 40
0
 40
0
 40
0
 40
0
 40
1
 40
1
 40
1
 40
1
 10
12.735190
 20
26.639526
 30
0.0
 10
12.859948
 20
26.711555
 30
0.0
 10
13.013656
 20
26.711555
 30
0.0
 10
13.138415
 20
26.639526
 30
0.0
  0
SPLINE
  5
164
100
AcDbEntity
  8
0
 62
7
100
AcDbSpline
 70
8
 71
3
 72
8
 73
4
 74
0
 40
0
 40
0
 40
0
 40
0
 40
1
 40
1
 40
1
 40
1
 10
13.138415
 20
26.639526
 30
0.0
 10
13.263173
 20
26.567497
 30
0.0
 10
13.340027
 20
26.434381
 30
0.0
 10
13.340027
 20
26.290323
 30
0.0
  0
LWPOLYLINE
  5
165
100
AcDbEntity
  8
0
 62
7
100
AcDbPolyline
 90
1
 70
1
 10
10.987881
 20
26.290323
 30
0.0
  0
SPLINE
  5
166
100
AcDbEntity
  8
0
 62
7
100
AcDbSpline
 70
8
 71
3
 72
8
 73
4
 74
0
 40
0
 40
0
 40
0
 40
0
 40
1
 40
1
 40
1
 40
1
 10
15.692173
 20
26.290323
 30
0.0
 10
15.692173
 20
26.146264
 30
0.0
 10
15.615319
 20
26.013149
 30
0.0
 10
15.490560
 20
25.941120
 30
0.0
  0
SPLINE
  5
167
100
AcDbEntity
  8
0
 62
7
100
AcDbSpline
 70
8
 71
3
 72
8
 73
4
 74
0
 40
0
 40
0
 40
0
 40
0
 40
1
 40
1
 40
1
 40
1
 10
15.490560
 20
25.941120
 30
0.0
 10
15.365802
 20
25.869091
 30
0.0
 10
15.212094
 20
25.869091
 30
0.0
 10
15.087335
 20
25.941120
 30
0.0
  0
SPLINE
  5
168
100
AcDbEntity
  8
0
 62
7
100
AcDbSpline
 70
8
 71
3
 72
8
 73
4
 74
0
 40
0
 40
0
 40
0
 40
0
 40
1
 40
1
 40
1
 40
1
 10
15.087335
 20
25.941120
 30
0.0
 10
14.962577
 20
26.013149
 30
0.0
 10
14.885723
 20
26.146264
 30
0.0
 10
14.885723
 20
26.290323
 30
0.0
  0
SPLINE
  5
169
100
AcDbEntity
  8
0
 62
7
100
AcDbSpline
 70
8
 71
3
 72
8
 73
4
 74
0
 40
0
 40
0
 40
0
 40
0
 40
1
 40
1
 40
1
 40
1
 10
14.885723
 20
26.290323
 30
0.0
 10
14.885723
 20
26.434381
 30
0.0
 10
14.962577
 20
26.567497
 30
0.0
 10
15.087335
 20
26.639526
 30
0.0
  0
SPLINE
  5
16a
100
AcDbEntity
  8
0
 62
7
100
AcDbSpline
 70
8
 71
3
 72
8
 73
4
 74
0
 40
0
 40
0
 40
0
 40
0
 40
1
 40
1
 40
1
 40
1
 10
15.087335
 20
26.639526
 30
0.0
 10
15.212094
 20
26.711555
 30
0.0
 10
15.365802
 20
26.711555
 30
0.0
 10
15.490560
 20
26.639526
 30
0.0
  0
SPLINE
  5
16b
100
AcDbEntity
  8
0
 62
7
100
AcDbSpline
 70
8
 71
3
 72
8
 73
4
 74
0
 40
0
 40
0
 40
0
 40
0
 40
1
 40
1
 40
1
 40
1
 10
15.490560
 20
26.639526
 30
0.0
 10
15.615319
 20
26.567497
 30
0.0
 10
15.692173
 20
26.434381
 30
0.0
 10
15.692173
 20
26.290323
 30
0.0
  0
LWPOLYLINE
  5
16c
100
AcDbEntity
  8
0
 62
7
100
AcDbPolyline
 90
1
 70
1
 10
13.340027
 20
26.290323
 30
0.0
  0
SPLINE
  5
16d
100
AcDbEntity
  8
0
 62
7
100
AcDbSpline
 70
8
 71
3
 72
8
 73
4
 74
0
 40
0
 40
0
 40
0
 40
0
 40
1
 40
1
 40
1
 40
1
 10
-19.590015
 20
17.049750
 30
0.0
 10
-19.590015
 20
16.905692
 30
0.0
 10
-19.666869
 20
16.772576
 30
0.0
 10
-19.791627
 20
16.700547
 30
0.0
  0
SPLINE
  5
16e
100
AcDbEntity
  8
0
 62
7
100
AcDbSpline
 70
8
 71
3
 72
8
 73
4
 74
0
 40
0
 40
0
 40
0
 40
0
 40
1
 40
1
 40
1
 40
1
 10
-19.791627
 20
16.700547
 30
0.0
 10
-19.916385
 20
16.628518
 30
0.0
 10
-20.070094
 20
16.628518
 30
0.0
 10
-20.194852
 20
16.700547
 30
0.0
  0
SPLINE
  5
16f
100
AcDbEntity
  8
0
 62
7
100
AcDbSpline
 70
8
 71
3
 72
8
 73
4
 74
0
 40
0
 40
0
 40
0
 40
0
 40
1
 40
1
 40
1
 40
1
 10
-20.194852
 20
16.700547
 30
0.0
 10
-20.319610
 20
16.772576
 30
0.0
 10
-20.396465
 20
16.905692
 30
0.0
 10
-20.396465
 20
17.049750
 30
0.0
  0
SPLINE
  5
170
100
AcDbEntity
  8
0
 62
7
100
AcDbSpline
 70
8
 71
3
 72
8
 73
4
 74
0
 40
0
 40
0
 40
0
 40
0
 40
1
 40
1
 40
1
 40
1
 10
-20.396465
 20
17.049750
 30
0.0
 10
-20.396465
 20
17.193808
 30
0.0
 10
-20.319610
 20
17.326924
 30
0.0
 10
-20.194852
 20
17.398953
 30
0.0
  0
SPLINE
  5
171
100
AcDbEntity
  8
0
 62
7
100
AcDbSpline
 70
8
 71
3
 72
8
 73
4
 74
0
 40
0
 40
0
 40
0
 40
0
 40
1
 40
1
 40
1
 40
1
 10
-20.194852
 20
17.398953
 30
0.0
 10
-20.070094
 20
17.470982
 30
0.0
 10
-19.916385
 20
17.470982
 30
0.0
 10
-19.791627
 20
17.398953
 30
0.0
  0
SPLINE
  5
172
100
AcDbEntity
  8
0
 62
7
100
AcDbSpline
 70
8
 71
3
 72
8
 73
4
 74
0
 40
0
 40
0
 40
0
 40
0
 40
1
 40
1
 40
1
 40
1
 10
-19.791627
 20
17.398953
 30
0.0
 10
-19.666869
 20
17.326924
 30
0.0
 10
-19.590015
 20
17.193808
 30
0.0
 10
-19.590015
 20
17.049750
 30
0.0
  0
LWPOLYLINE
  5
173
100
AcDbEntity
  8
0
 62
7
100
AcDbPolyline
 90
1
 70
1
 10
15.692173
 20
26.290323
 30
0.0
  0
SPLINE
  5
174
100
AcDbEntity
  8
0
 62
7
100
AcDbSpline
 70
8
 71
3
 72
8
 73
4
 74
0
 40
0
 40
0
 40
0
 40
0
 40
1
 40
1
 40
1
 40
1
 10
-5.477140
 20
17.049750
 30
0.0
 10
-5.477140
 20
16.905692
 30
0.0
 10
-5.553994
 20
16.772576
 30
0.0
 10
-5.678752
 20
16.700547
 30
0.0
  0
SPLINE
  5
175
100
AcDbEntity
  8
0
 62
7
100
AcDbSpline
 70
8
 71
3
 72
8
 73
4
 74
0
 40
0
 40
0
 40
0
 40
0
 40
1
 40
1
 40
1
 40
1
 10
-5.678752
 20
16.700547
 30
0.0
 10
-5.803510
 20
16.628518
 30
0.0
 10
-5.957219
 20
16.628518
 30
0.0
 10
-6.081977
 20
16.700547
 30
0.0
  0
SPLINE
  5
176
100
AcDbEntity
  8
0
 62
7
100
AcDbSpline
 70
8
 71
3
 72
8
 73
4
 74
0
 40
0
 40
0
 40
0
 40
0
 40
1
 40
1
 40
1
 40
1
 10
-6.081977
 20
16.700547
 30
0.0
 10
-6.206735
 20
16.772576
 30
0.0
 10
-6.283590
 20
16.905692
 30
0.0
 10
-6.283590
 20
17.049750
 30
0.0
  0
SPLINE
  5
177
100
AcDbEntity
  8
0
 62
7
100
AcDbSpline
 70
8
 71
3
 72
8
 73
4
 74
0
 40
0
 40
0
 40
0
 40
0
 40
1
 40
1
 40
1
 40
1
 10
-6.283590
 20
17.049750
 30
0.0
 10
-6.283590
 20
17.193808
 30
0.0
 10
-6.206735
 20
17.326924
 30
0.0
 10
-6.081977
 20
17.398953
 30
0.0
  0
SPLINE
  5
178
100
AcDbEntity
  8
0
 62
7
100
AcDbSpline
 70
8
 71
3
 72
8
 73
4
 74
0
 40
0
 40
0
 40
0
 40
0
 40
1
 40
1
 40
1
 40
1
 10
-6.081977
 20
17.398953
 30
0.0
 10
-5.957219
 20
17.470982
 30
0.0
 10
-5.803510
 20
17.470982
 30
0.0
 10
-5.678752
 20
17.398953
 30
0.0
  0
SPLINE
  5
179
100
AcDbEntity
  8
0
 62
7
100
AcDbSpline
 70
8
 71
3
 72
8
 73
4
 74
0
 40
0
 40
0
 40
0
 40
0
 40
1
 40
1
 40
1
 40
1
 10
-5.678752
 20
17.398953
 30
0.0
 10
-5.553994
 20
17.326924
 30
0.0
 10
-5.477140
 20
17.193808
 30
0.0
 10
-5.477140
 20
17.049750
 30
0.0
  0
LWPOLYLINE
  5
17a
100
AcDbEntity
  8
0
 62
7
100
AcDbPolyline
 90
1
 70
1
 10
-19.590015
 20
17.049750
 30
0.0
  0
SPLINE
  5
17b
100
AcDbEntity
  8
0
 62
7
100
AcDbSpline
 70
8
 71
3
 72
8
 73
4
 74
0
 40
0
 40
0
 40
0
 40
0
 40
1
 40
1
 40
1
 40
1
 10
1.579298
 20
17.049750
 30
0.0
 10
1.579298
 20
16.905692
 30
0.0
 10
1.502444
 20
16.772576
 30
0.0
 10
1.377685
 20
16.700547
 30
0.0
  0
SPLINE
  5
17c
100
AcDbEntity
  8
0
 62
7
100
AcDbSpline
 70
8
 71
3
 72
8
 73
4
 74
0
 40
0
 40
0
 40
0
 40
0
 40
1
 40
1
 40
1
 40
1
 10
1.377685
 20
16.700547
 30
0.0
 10
1.252927
 20
16.628518
 30
0.0
 10
1.099219
 20
16.628518
 30
0.0
 10
0.974460
 20
16.700547
 30
0.0
  0
SPLINE
  5
17d
100
AcDbEntity
  8
0
 62
7
100
AcDbSpline
 70
8
 71
3
 72
8
 73
4
 74
0
 40
0
 40
0
 40
0
 40
0
 40
1
 40
1
 40
1
 40
1
 10
0.974460
 20
16.700547
 30
0.0
 10
0.849702
 20
16.772576
 30
0.0
 10
0.772848
 20
16.905692
 30
0.0
 10
0.772848
 20
17.049750
 30
0.0
  0
SPLINE
  5
17e
100
AcDbEntity
  8
0
 62
7
100
AcDbSpline
 70
8
 71
3
 72
8
 73
4
 74
0
 40
0
 40
0
 40
0
 40
0
 40
1
 40
1
 40
1
 40
1
 10
0.772848
 20
17.049750
 30
0.0
 10
0.772848
 20
17.272445
 30
0.0
 10
0.953378
 20
17.452975
 30
0.0
 10
1.176073
 20
17.452975
 30
0.0
  0
SPLINE
  5
17f
100
AcDbEntity
  8
0
 62
7
100
AcDbSpline
 70
8
 71
3
 72
8
 73
4
 74
0
 40
0
 40
0
 40
0
 40
0
 40
1
 40
1
 40
1
 40
1
 10
1.176073
 20
17.452975
 30
0.0
 10
1.398768
 20
17.452975
 30
0.0
 10
1.579298
 20
17.272445
 30
0.0
 10
1.579298
 20
17.049750
 30
0.0
  0
LWPOLYLINE
  5
180
100
AcDbEntity
  8
0
 62
7
100
AcDbPolyline
 90
1
 70
1
 10
-5.477140
 20
17.049750
 30
0.0
  0
SPLINE
  5
181
100
AcDbEntity
  8
0
 62
7
100
AcDbSpline
 70
8
 71
3
 72
8
 73
4
 74
0
 40
0
 40
0
 40
0
 40
0
 40
1
 40
1
 40
1
 40
1
 10
6.283590
 20
17.049750
 30
0.0
 10
6.283590
 20
16.827055
 30
0.0
 10
6.103060
 20
16.646525
 30
0.0
 10
5.880365
 20
16.646525
 30
0.0
  0
SPLINE
  5
182
100
AcDbEntity
  8
0
 62
7
100
AcDbSpline
 70
8
 71
3
 72
8
 73
4
 74
0
 40
0
 40
0
 40
0
 40
0
 40
1
 40
1
 40
1
 40
1
 10
5.880365
 20
16.646525
 30
0.0
 10
5.657670
 20
16.646525
 30
0.0
 10
5.477140
 20
16.827055
 30
0.0
 10
5.477140
 20
17.049750
 30
0.0
  0
SPLINE
  5
183
100
AcDbEntity
  8
0
 62
7
100
AcDbSpline
 70
8
 71
3
 72
8
 73
4
 74
0
 40
0
 40
0
 40
0
 40
0
 40
1
 40
1
 40
1
 40
1
 10
5.477140
 20
17.049750
 30
0.0
 10
5.477140
 20
17.193808
 30
0.0
 10
5.553994
 20
17.326924
 30
0.0
 10
5.678752
 20
17.398953
 30
0.0
  0
SPLINE
  5
184
100
AcDbEntity
  8
0
 62
7
100
AcDbSpline
 70
8
 71
3
 72
8
 73
4
 74
0
 40
0
 40
0
 40
0
 40
0
 40
1
 40
1
 40
1
 40
1
 10
5.678752
 20
17.398953
 30
0.0
 10
5.803510
 20
17.470982
 30
0.0
 10
5.957219
 20
17.470982
 30
0.0
 10
6.081977
 20
17.398953
 30
0.0
  0
SPLINE
  5
185
100
AcDbEntity
  8
0
 62
7
100
AcDbSpline
 70
8
 71
3
 72
8
 73
4
 74
0
 40
0
 40
0
 40
0
 40
0
 40
1
 40
1
 40
1
 40
1
 10
6.081977
 20
17.398953
 30
0.0
 10
6.206735
 20
17.326924
 30
0.0
 10
6.283590
 20
17.193808
 30
0.0
 10
6.283590
 20
17.049750
 30
0.0
  0
LWPOLYLINE
  5
186
100
AcDbEntity
  8
0
 62
7
100
AcDbPolyline
 90
1
 70
1
 10
1.579298
 20
17.049750
 30
0.0
  0
SPLINE
  5
187
100
AcDbEntity
  8
0
 62
7
100
AcDbSpline
 70
8
 71
3
 72
8
 73
4
 74
0
 40
0
 40
0
 40
0
 40
0
 40
1
 40
1
 40
1
 40
1
 10
10.987881
 20
17.049750
 30
0.0
 10
10.987881
 20
16.905692
 30
0.0
 10
10.911027
 20
16.772576
 30
0.0
 10
10.786269
 20
16.700547
 30
0.0
  0
SPLINE
  5
188
100
AcDbEntity
  8
0
 62
7
100
AcDbSpline
 70
8
 71
3
 72
8
 73
4
 74
0
 40
0
 40
0
 40
0
 40
0
 40
1
 40
1
 40
1
 40
1
 10
10.786269
 20
16.700547
 30
0.0
 10
10.661511
 20
16.628518
 30
0.0
 10
10.507802
 20
16.628518
 30
0.0
 10
10.383044
 20
16.700547
 30
0.0
  0
SPLINE
  5
189
100
AcDbEntity
  8
0
 62
7
100
AcDbSpline
 70
8
 71
3
 72
8
 73
4
 74
0
 40
0
 40
0
 40
0
 40
0
 40
1
 40
1
 40
1
 40
1
 10
10.383044
 20
16.700547
 30
0.0
 10
10.258286
 20
16.772576
 30
0.0
 10
10.181431
 20
16.905692
 30
0.0
 10
10.181431
 20
17.049750
 30
0.0
  0
SPLINE
  5
18a
100
AcDbEntity
  8
0
 62
7
100
AcDbSpline
 70
8
 71
3
 72
8
 73
4
 74
0
 40
0
 40
0
 40
0
 40
0
 40
1
 40
1
 40
1
 40
1
 10
10.181431
 20
17.049750
 30
0.0
 10
10.181431
 20
17.272445
 30
0.0
 10
10.361961
 20
17.452975
 30
0.0
 10
10.584656
 20
17.452975
 30
0.0
  0
SPLINE
  5
18b
100
AcDbEntity
  8
0
 62
7
100
AcDbSpline
 70
8
 71
3
 72
8
 73
4
 74
0
 40
0
 40
0
 40
0
 40
0
 40
1
 40
1
 40
1
 40
1
 10
10.584656
 20
17.452975
 30
0.0
 10
10.807351
 20
17.452975
 30
0.0
 10
10.987881
 20
17.272445
 30
0.0
 10
10.987881
 20
17.049750
 30
0.0
  0
LWPOLYLINE
  5
18c
100
AcDbEntity
  8
0
 62
7
100
AcDbPolyline
 90
1
 70
1
 10
6.283590
 20
17.049750
 30
0.0
  0
SPLINE
  5
18d
100
AcDbEntity
  8
0
 62
7
100
AcDbSpline
 70
8
 71
3
 72
8
 73
4
 74
0
 40
0
 40
0
 40
0
 40
0
 40
1
 40
1
 40
1
 40
1
 10
15.692173
 20
17.049750
 30
0.0
 10
15.692173
 20
16.905692
 30
0.0
 10
15.615319
 20
16.772576
 30
0.0
 10
15.490560
 20
16.700547
 30
0.0
  0
SPLINE
  5
18e
100
AcDbEntity
  8
0
 62
7
100
AcDbSpline
 70
8
 71
3
 72
8
 73
4
 74
0
 40
0
 40
0
 40
0
 40
0
 40
1
 40
1
 40
1
 40
1
 10
15.490560
 20
16.700547
 30
0.0
 10
15.365802
 20
16.628518
 30
0.0
 10
15.212094
 20
16.628518
 30
0.0
 10
15.087335
 20
16.700547
 30
0.0
  0
SPLINE
  5
18f
100
AcDbEntity
  8
0
 62
7
100
AcDbSpline
 70
8
 71
3
 72
8
 73
4
 74
0
 40
0
 40
0
 40
0
 40
0
 40
1
 40
1
 40
1
 40
1
 10
15.087335
 20
16.700547
 30
0.0
 10
14.962577
 20
16.772576
 30
0.0
 10
14.885723
 20
16.905692
 30
0.0
 10
14.885723
 20
17.049750
 30
0.0
  0
SPLINE
  5
190
100
AcDbEntity
  8
0
 62
7
100
AcDbSpline
 70
8
 71
3
 72
8
 73
4
 74
0
 40
0
 40
0
 40
0
 40
0
 40
1
 40
1
 40
1
 40
1
 10
14.885723
 20
17.049750
 30
0.0
 10
14.885723
 20
17.193808
 30
0.0
 10
14.962577
 20
17.326924
 30
0.0
 10
15.087335
 20
17.398953
 30
0.0
  0
SPLINE
  5
191
100
AcDbEntity
  8
0
 62
7
100
AcDbSpline
 70
8
 71
3
 72
8
 73
4
 74
0
 40
0
 40
0
 40
0
 40
0
 40
1
 40
1
 40
1
 40
1
 10
15.087335
 20
17.398953
 30
0.0
 10
15.212094
 20
17.470982
 30
0.0
 10
15.365802
 20
17.470982
 30
0.0
 10
15.490560
 20
17.398953
 30
0.0
  0
SPLINE
  5
192
100
AcDbEntity
  8
0
 62
7
100
AcDbSpline
 70
8
 71
3
 72
8
 73
4
 74
0
 40
0
 40
0
 40
0
 40
0
 40
1
 40
1
 40
1
 40
1
 10
15.490560
 20
17.398953
 30
0.0
 10
15.615319
 20
17.326924
 30
0.0
 10
15.692173
 20
17.193808
 30
0.0
 10
15.692173
 20
17.049750
 30
0.0
  0
LWPOLYLINE
  5
193
100
AcDbEntity
  8
0
 62
7
100
AcDbPolyline
 90
1
 70
1
 10
10.987881
 20
17.049750
 30
0.0
  0
SPLINE
  5
194
100
AcDbEntity
  8
0
 62
7
100
AcDbSpline
 70
8
 71
3
 72
8
 73
4
 74
0
 40
0
 40
0
 40
0
 40
0
 40
1
 40
1
 40
1
 40
1
 10
20.396465
 20
17.049750
 30
0.0
 10
20.396465
 20
16.905692
 30
0.0
 10
20.319610
 20
16.772576
 30
0.0
 10
20.194852
 20
16.700547
 30
0.0
  0
SPLINE
  5
195
100
AcDbEntity
  8
0
 62
7
100
AcDbSpline
 70
8
 71
3
 72
8
 73
4
 74
0
 40
0
 40
0
 40
0
 40
0
 40
1
 40
1
 40
1
 40
1
 10
20.194852
 20
16.700547
 30
0.0
 10
20.070094
 20
16.628518
 30
0.0
 10
19.916385
 20
16.628518
 30
0.0
 10
19.791627
 20
16.700547
 30
0.0
  0
SPLINE
  5
196
100
AcDbEntity
  8
0
 62
7
100
AcDbSpline
 70
8
 71
3
 72
8
 73
4
 74
0
 40
0
 40
0
 40
0
 40
0
 40
1
 40
1
 40
1
 40
1
 10
19.791627
 20
16.700547
 30
0.0
 10
19.666869
 20
16.772576
 30
0.0
 10
19.590015
 20
16.905692
 30
0.0
 10
19.590015
 20
17.049750
 30
0.0
  0
SPLINE
  5
197
100
AcDbEntity
  8
0
 62
7
100
AcDbSpline
 70
8
 71
3
 72
8
 73
4
 74
0
 40
0
 40
0
 40
0
 40
0
 40
1
 40
1
 40
1
 40
1
 10
19.590015
 20
17.049750
 30
0.0
 10
19.590015
 20
17.272445
 30
0.0
 10
19.770545
 20
17.452975
 30
0.0
 10
19.993240
 20
17.452975
 30
0.0
  0
SPLINE
  5
198
100
AcDbEntity
  8
0
 62
7
100
AcDbSpline
 70
8
 71
3
 72
8
 73
4
 74
0
 40
0
 40
0
 40
0
 40
0
 40
1
 40
1
 40
1
 40
1
 10
19.993240
 20
17.452975
 30
0.0
 10
20.215935
 20
17.452975
 30
0.0
 10
20.396465
 20
17.272445
 30
0.0
 10
20.396465
 20
17.049750
 30
0.0
  0
LWPOLYLINE
  5
199
100
AcDbEntity
  8
0
 62
7
100
AcDbPolyline
 90
1
 70
1
 10
15.692173
 20
17.049750
 30
0.0
  0
SPLINE
  5
19a
100
AcDbEntity
  8
0
 62
7
100
AcDbSpline
 70
8
 71
3
 72
8
 73
4
 74
0
 40
0
 40
0
 40
0
 40
0
 40
1
 40
1
 40
1
 40
1
 10
20.396465
 20
24.442208
 30
0.0
 10
20.396465
 20
24.298150
 30
0.0
 10
20.319610
 20
24.165034
 30
0.0
 10
20.194852
 20
24.093005
 30
0.0
  0
SPLINE
  5
19b
100
AcDbEntity
  8
0
 62
7
100
AcDbSpline
 70
8
 71
3
 72
8
 73
4
 74
0
 40
0
 40
0
 40
0
 40
0
 40
1
 40
1
 40
1
 40
1
 10
20.194852
 20
24.093005
 30
0.0
 10
20.070094
 20
24.020976
 30
0.0
 10
19.916385
 20
24.020976
 30
0.0
 10
19.791627
 20
24.093005
 30
0.0
  0
SPLINE
  5
19c
100
AcDbEntity
  8
0
 62
7
100
AcDbSpline
 70
8
 71
3
 72
8
 73
4
 74
0
 40
0
 40
0
 40
0
 40
0
 40
1
 40
1
 40
1
 40
1
 10
19.791627
 20
24.093005
 30
0.0
 10
19.666869
 20
24.165034
 30
0.0
 10
19.590015
 20
24.298150
 30
0.0
 10
19.590015
 20
24.442208
 30
0.0
  0
SPLINE
  5
19d
100
AcDbEntity
  8
0
 62
7
100
AcDbSpline
 70
8
 71
3
 72
8
 73
4
 74
0
 40
0
 40
0
 40
0
 40
0
 40
1
 40
1
 40
1
 40
1
 10
19.590015
 20
24.442208
 30
0.0
 10
19.590015
 20
24.664903
 30
0.0
 10
19.770545
 20
24.845433
 30
0.0
 10
19.993240
 20
24.845433
 30
0.0
  0
SPLINE
  5
19e
100
AcDbEntity
  8
0
 62
7
100
AcDbSpline
 70
8
 71
3
 72
8
 73
4
 74
0
 40
0
 40
0
 40
0
 40
0
 40
1
 40
1
 40
1
 40
1
 10
19.993240
 20
24.845433
 30
0.0
 10
20.215935
 20
24.845433
 30
0.0
 10
20.396465
 20
24.664903
 30
0.0
 10
20.396465
 20
24.442208
 30
0.0
  0
LWPOLYLINE
  5
19f
100
AcDbEntity
  8
0
 62
7
100
AcDbPolyline
 90
1
 70
1
 10
20.396465
 20
17.049750
 30
0.0
  0
SPLINE
  5
1a0
100
AcDbEntity
  8
0
 62
7
100
AcDbSpline
 70
8
 71
3
 72
8
 73
4
 74
0
 40
0
 40
0
 40
0
 40
0
 40
1
 40
1
 40
1
 40
1
 10
20.396465
 20
31.834667
 30
0.0
 10
20.396465
 20
31.690608
 30
0.0
 10
20.319610
 20
31.557493
 30
0.0
 10
20.194852
 20
31.485464
 30
0.0
  0
SPLINE
  5
1a1
100
AcDbEntity
  8
0
 62
7
100
AcDbSpline
 70
8
 71
3
 72
8
 73
4
 74
0
 40
0
 40
0
 40
0
 40
0
 40
1
 40
1
 40
1
 40
1
 10
20.194852
 20
31.485464
 30
0.0
 10
20.070094
 20
31.413434
 30
0.0
 10
19.916385
 20
31.413434
 30
0.0
 10
19.791627
 20
31.485464
 30
0.0
  0
SPLINE
  5
1a2
100
AcDbEntity
  8
0
 62
7
100
AcDbSpline
 70
8
 71
3
 72
8
 73
4
 74
0
 40
0
 40
0
 40
0
 40
0
 40
1
 40
1
 40
1
 40
1
 10
19.791627
 20
31.485464
 30
0.0
 10
19.666869
 20
31.557493
 30
0.0
 10
19.590015
 20
31.690608
 30
0.0
 10
19.590015
 20
31.834667
 30
0.0
  0
SPLINE
  5
1a3
100
AcDbEntity
  8
0
 62
7
100
AcDbSpline
 70
8
 71
3
 72
8
 73
4
 74
0
 40
0
 40
0
 40
0
 40
0
 40
1
 40
1
 40
1
 40
1
 10
19.590015
 20
31.834667
 30
0.0
 10
19.590015
 20
32.057362
 30
0.0
 10
19.770545
 20
32.237892
 30
0.0
 10
19.993240
 20
32.237892
 30
0.0
  0
SPLINE
  5
1a4
100
AcDbEntity
  8
0
 62
7
100
AcDbSpline
 70
8
 71
3
 72
8
 73
4
 74
0
 40
0
 40
0
 40
0
 40
0
 40
1
 40
1
 40
1
 40
1
 10
19.993240
 20
32.237892
 30
0.0
 10
20.215935
 20
32.237892
 30
0.0
 10
20.396465
 20
32.057362
 30
0.0
 10
20.396465
 20
31.834667
 30
0.0
  0
LWPOLYLINE
  5
1a5
100
AcDbEntity
  8
0
 62
7
100
AcDbPolyline
 90
1
 70
1
 10
20.396465
 20
24.442208
 30
0.0
  0
SPLINE
  5
1a6
100
AcDbEntity
  8
0
 62
7
100
AcDbSpline
 70
8
 71
3
 72
8
 73
4
 74
0
 40
0
 40
0
 40
0
 40
0
 40
1
 40
1
 40
1
 40
1
 10
-19.590015
 20
39.227125
 30
0.0
 10
-19.590015
 20
39.083067
 30
0.0
 10
-19.666869
 20
38.949951
 30
0.0
 10
-19.791627
 20
38.877922
 30
0.0
  0
SPLINE
  5
1a7
100
AcDbEntity
  8
0
 62
7
100
AcDbSpline
 70
8
 71
3
 72
8
 73
4
 74
0
 40
0
 40
0
 40
0
 40
0
 40
1
 40
1
 40
1
 40
1
 10
-19.791627
 20
38.877922
 30
0.0
 10
-19.916385
 20
38.805893
 30
0.0
 10
-20.070094
 20
38.805893
 30
0.0
 10
-20.194852
 20
38.877922
 30
0.0
  0
SPLINE
  5
1a8
100
AcDbEntity
  8
0
 62
7
100
AcDbSpline
 70
8
 71
3
 72
8
 73
4
 74
0
 40
0
 40
0
 40
0
 40
0
 40
1
 40
1
 40
1
 40
1
 10
-20.194852
 20
38.877922
 30
0.0
 10
-20.319610
 20
38.949951
 30
0.0
 10
-20.396465
 20
39.083067
 30
0.0
 10
-20.396465
 20
39.227125
 30
0.0
  0
SPLINE
  5
1a9
100
AcDbEntity
  8
0
 62
7
100
AcDbSpline
 70
8
 71
3
 72
8
 73
4
 74
0
 40
0
 40
0
 40
0
 40
0
 40
1
 40
1
 40
1
 40
1
 10
-20.396465
 20
39.227125
 30
0.0
 10
-20.396465
 20
39.371183
 30
0.0
 10
-20.319610
 20
39.504299
 30
0.0
 10
-20.194852
 20
39.576328
 30
0.0
  0
SPLINE
  5
1aa
100
AcDbEntity
  8
0
 62
7
100
AcDbSpline
 70
8
 71
3
 72
8
 73
4
 74
0
 40
0
 40
0
 40
0
 40
0
 40
1
 40
1
 40
1
 40
1
 10
-20.194852
 20
39.576328
 30
0.0
 10
-20.070094
 20
39.648357
 30
0.0
 10
-19.916385
 20
39.648357
 30
0.0
 10
-19.791627
 20
39.576328
 30
0.0
  0
SPLINE
  5
1ab
100
AcDbEntity
  8
0
 62
7
100
AcDbSpline
 70
8
 71
3
 72
8
 73
4
 74
0
 40
0
 40
0
 40
0
 40
0
 40
1
 40
1
 40
1
 40
1
 10
-19.791627
 20
39.576328
 30
0.0
 10
-19.666869
 20
39.504299
 30
0.0
 10
-19.590015
 20
39.371183
 30
0.0
 10
-19.590015
 20
39.227125
 30
0.0
  0
LWPOLYLINE
  5
1ac
100
AcDbEntity
  8
0
 62
7
100
AcDbPolyline
 90
1
 70
1
 10
20.396465
 20
31.834667
 30
0.0
  0
SPLINE
  5
1ad
100
AcDbEntity
  8
0
 62
7
100
AcDbSpline
 70
8
 71
3
 72
8
 73
4
 74
0
 40
0
 40
0
 40
0
 40
0
 40
1
 40
1
 40
1
 40
1
 10
-14.885723
 20
39.227125
 30
0.0
 10
-14.885723
 20
39.083067
 30
0.0
 10
-14.962577
 20
38.949951
 30
0.0
 10
-15.087335
 20
38.877922
 30
0.0
  0
SPLINE
  5
1ae
100
AcDbEntity
  8
0
 62
7
100
AcDbSpline
 70
8
 71
3
 72
8
 73
4
 74
0
 40
0
 40
0
 40
0
 40
0
 40
1
 40
1
 40
1
 40
1
 10
-15.087335
 20
38.877922
 30
0.0
 10
-15.212094
 20
38.805893
 30
0.0
 10
-15.365802
 20
38.805893
 30
0.0
 10
-15.490560
 20
38.877922
 30
0.0
  0
SPLINE
  5
1af
100
AcDbEntity
  8
0
 62
7
100
AcDbSpline
 70
8
 71
3
 72
8
 73
4
 74
0
 40
0
 40
0
 40
0
 40
0
 40
1
 40
1
 40
1
 40
1
 10
-15.490560
 20
38.877922
 30
0.0
 10
-15.615319
 20
38.949951
 30
0.0
 10
-15.692173
 20
39.083067
 30
0.0
 10
-15.692173
 20
39.227125
 30
0.0
  0
SPLINE
  5
1b0
100
AcDbEntity
  8
0
 62
7
100
AcDbSpline
 70
8
 71
3
 72
8
 73
4
 74
0
 40
0
 40
0
 40
0
 40
0
 40
1
 40
1
 40
1
 40
1
 10
-15.692173
 20
39.227125
 30
0.0
 10
-15.692173
 20
39.371183
 30
0.0
 10
-15.615319
 20
39.504299
 30
0.0
 10
-15.490560
 20
39.576328
 30
0.0
  0
SPLINE
  5
1b1
100
AcDbEntity
  8
0
 62
7
100
AcDbSpline
 70
8
 71
3
 72
8
 73
4
 74
0
 40
0
 40
0
 40
0
 40
0
 40
1
 40
1
 40
1
 40
1
 10
-15.490560
 20
39.576328
 30
0.0
 10
-15.365802
 20
39.648357
 30
0.0
 10
-15.212094
 20
39.648357
 30
0.0
 10
-15.087335
 20
39.576328
 30
0.0
  0
SPLINE
  5
1b2
100
AcDbEntity
  8
0
 62
7
100
AcDbSpline
 70
8
 71
3
 72
8
 73
4
 74
0
 40
0
 40
0
 40
0
 40
0
 40
1
 40
1
 40
1
 40
1
 10
-15.087335
 20
39.576328
 30
0.0
 10
-14.962577
 20
39.504299
 30
0.0
 10
-14.885723
 20
39.371183
 30
0.0
 10
-14.885723
 20
39.227125
 30
0.0
  0
LWPOLYLINE
  5
1b3
100
AcDbEntity
  8
0
 62
7
100
AcDbPolyline
 90
1
 70
1
 10
-19.590015
 20
39.227125
 30
0.0
  0
SPLINE
  5
1b4
100
AcDbEntity
  8
0
 62
7
100
AcDbSpline
 70
8
 71
3
 72
8
 73
4
 74
0
 40
0
 40
0
 40
0
 40
0
 40
1
 40
1
 40
1
 40
1
 10
-10.181431
 20
39.227125
 30
0.0
 10
-10.181431
 20
39.083067
 30
0.0
 10
-10.258286
 20
38.949951
 30
0.0
 10
-10.383044
 20
38.877922
 30
0.0
  0
SPLINE
  5
1b5
100
AcDbEntity
  8
0
 62
7
100
AcDbSpline
 70
8
 71
3
 72
8
 73
4
 74
0
 40
0
 40
0
 40
0
 40
0
 40
1
 40
1
 40
1
 40
1
 10
-10.383044
 20
38.877922
 30
0.0
 10
-10.507802
 20
38.805893
 30
0.0
 10
-10.661511
 20
38.805893
 30
0.0
 10
-10.786269
 20
38.877922
 30
0.0
  0
SPLINE
  5
1b6
100
AcDbEntity
  8
0
 62
7
100
AcDbSpline
 70
8
 71
3
 72
8
 73
4
 74
0
 40
0
 40
0
 40
0
 40
0
 40
1
 40
1
 40
1
 40
1
 10
-10.786269
 20
38.877922
 30
0.0
 10
-10.911027
 20
38.949951
 30
0.0
 10
-10.987881
 20
39.083067
 30
0.0
 10
-10.987881
 20
39.227125
 30
0.0
  0
SPLINE
  5
1b7
100
AcDbEntity
  8
0
 62
7
100
AcDbSpline
 70
8
 71
3
 72
8
 73
4
 74
0
 40
0
 40
0
 40
0
 40
0
 40
1
 40
1
 40
1
 40
1
 10
-10.987881
 20
39.227125
 30
0.0
 10
-10.987881
 20
39.371183
 30
0.0
 10
-10.911027
 20
39.504299
 30
0.0
 10
-10.786269
 20
39.576328
 30
0.0
  0
SPLINE
  5
1b8
100
AcDbEntity
  8
0
 62
7
100
AcDbSpline
 70
8
 71
3
 72
8
 73
4
 74
0
 40
0
 40
0
 40
0
 40
0
 40
1
 40
1
 40
1
 40
1
 10
-10.786269
 20
39.576328
 30
0.0
 10
-10.661511
 20
39.648357
 30
0.0
 10
-10.507802
 20
39.648357
 30
0.0
 10
-10.383044
 20
39.576328
 30
0.0
  0
SPLINE
  5
1b9
100
AcDbEntity
  8
0
 62
7
100
AcDbSpline
 70
8
 71
3
 72
8
 73
4
 74
0
 40
0
 40
0
 40
0
 40
0
 40
1
 40
1
 40
1
 40
1
 10
-10.383044
 20
39.576328
 30
0.0
 10
-10.258286
 20
39.504299
 30
0.0
 10
-10.181431
 20
39.371183
 30
0.0
 10
-10.181431
 20
39.227125
 30
0.0
  0
LWPOLYLINE
  5
1ba
100
AcDbEntity
  8
0
 62
7
100
AcDbPolyline
 90
1
 70
1
 10
-14.885723
 20
39.227125
 30
0.0
  0
SPLINE
  5
1bb
100
AcDbEntity
  8
0
 62
7
100
AcDbSpline
 70
8
 71
3
 72
8
 73
4
 74
0
 40
0
 40
0
 40
0
 40
0
 40
1
 40
1
 40
1
 40
1
 10
-18.269453
 20
14.596798
 30
0.0
 10
-18.269453
 20
14.040973
 30
0.0
 10
-18.565982
 20
13.527369
 30
0.0
 10
-19.047341
 20
13.249456
 30
0.0
  0
SPLINE
  5
1bc
100
AcDbEntity
  8
0
 62
7
100
AcDbSpline
 70
8
 71
3
 72
8
 73
4
 74
0
 40
0
 40
0
 40
0
 40
0
 40
1
 40
1
 40
1
 40
1
 10
-19.047341
 20
13.249456
 30
0.0
 10
-19.528700
 20
12.971543
 30
0.0
 10
-20.121758
 20
12.971543
 30
0.0
 10
-20.603117
 20
13.249456
 30
0.0
  0
SPLINE
  5
1bd
100
AcDbEntity
  8
0
 62
7
100
AcDbSpline
 70
8
 71
3
 72
8
 73
4
 74
0
 40
0
 40
0
 40
0
 40
0
 40
1
 40
1
 40
1
 40
1
 10
-20.603117
 20
13.249456
 30
0.0
 10
-21.084476
 20
13.527369
 30
0.0
 10
-21.381006
 20
14.040973
 30
0.0
 10
-21.381006
 20
14.596798
 30
0.0
  0
SPLINE
  5
1be
100
AcDbEntity
  8
0
 62
7
100
AcDbSpline
 70
8
 71
3
 72
8
 73
4
 74
0
 40
0
 40
0
 40
0
 40
0
 40
1
 40
1
 40
1
 40
1
 10
-21.381006
 20
14.596798
 30
0.0
 10
-21.381006
 20
15.152623
 30
0.0
 10
-21.084476
 20
15.666227
 30
0.0
 10
-20.603117
 20
15.944140
 30
0.0
  0
SPLINE
  5
1bf
100
AcDbEntity
  8
0
 62
7
100
AcDbSpline
 70
8
 71
3
 72
8
 73
4
 74
0
 40
0
 40
0
 40
0
 40
0
 40
1
 40
1
 40
1
 40
1
 10
-20.603117
 20
15.944140
 30
0.0
 10
-20.121758
 20
16.222053
 30
0.0
 10
-19.528700
 20
16.222053
 30
0.0
 10
-19.047341
 20
15.944140
 30
0.0
  0
SPLINE
  5
1c0
100
AcDbEntity
  8
0
 62
7
100
AcDbSpline
 70
8
 71
3
 72
8
 73
4
 74
0
 40
0
 40
0
 40
0
 40
0
 40
1
 40
1
 40
1
 40
1
 10
-19.047341
 20
15.944140
 30
0.0
 10
-18.565982
 20
15.666227
 30
0.0
 10
-18.269453
 20
15.152623
 30
0.0
 10
-18.269453
 20
14.596798
 30
0.0
  0
LWPOLYLINE
  5
1c1
100
AcDbEntity
  8
0
 62
7
100
AcDbPolyline
 90
1
 70
1
 10
-10.181431
 20
39.227125
 30
0.0
  0
SPLINE
  5
1c2
100
AcDbEntity
  8
0
 62
7
100
AcDbSpline
 70
8
 71
3
 72
8
 73
4
 74
0
 40
0
 40
0
 40
0
 40
0
 40
1
 40
1
 40
1
 40
1
 10
-13.565161
 20
14.596798
 30
0.0
 10
-13.565161
 20
14.040973
 30
0.0
 10
-13.861690
 20
13.527369
 30
0.0
 10
-14.343049
 20
13.249456
 30
0.0
  0
SPLINE
  5
1c3
100
AcDbEntity
  8
0
 62
7
100
AcDbSpline
 70
8
 71
3
 72
8
 73
4
 74
0
 40
0
 40
0
 40
0
 40
0
 40
1
 40
1
 40
1
 40
1
 10
-14.343049
 20
13.249456
 30
0.0
 10
-14.824408
 20
12.971543
 30
0.0
 10
-15.417467
 20
12.971543
 30
0.0
 10
-15.898826
 20
13.249456
 30
0.0
  0
SPLINE
  5
1c4
100
AcDbEntity
  8
0
 62
7
100
AcDbSpline
 70
8
 71
3
 72
8
 73
4
 74
0
 40
0
 40
0
 40
0
 40
0
 40
1
 40
1
 40
1
 40
1
 10
-15.898826
 20
13.249456
 30
0.0
 10
-16.380185
 20
13.527369
 30
0.0
 10
-16.676714
 20
14.040973
 30
0.0
 10
-16.676714
 20
14.596798
 30
0.0
  0
SPLINE
  5
1c5
100
AcDbEntity
  8
0
 62
7
100
AcDbSpline
 70
8
 71
3
 72
8
 73
4
 74
0
 40
0
 40
0
 40
0
 40
0
 40
1
 40
1
 40
1
 40
1
 10
-16.676714
 20
14.596798
 30
0.0
 10
-16.676714
 20
15.152623
 30
0.0
 10
-16.380185
 20
15.666227
 30
0.0
 10
-15.898826
 20
15.944140
 30
0.0
  0
SPLINE
  5
1c6
100
AcDbEntity
  8
0
 62
7
100
AcDbSpline
 70
8
 71
3
 72
8
 73
4
 74
0
 40
0
 40
0
 40
0
 40
0
 40
1
 40
1
 40
1
 40
1
 10
-15.898826
 20
15.944140
 30
0.0
 10
-15.417467
 20
16.222053
 30
0.0
 10
-14.824408
 20
16.222053
 30
0.0
 10
-14.343049
 20
15.944140
 30
0.0
  0
SPLINE
  5
1c7
100
AcDbEntity
  8
0
 62
7
100
AcDbSpline
 70
8
 71
3
 72
8
 73
4
 74
0
 40
0
 40
0
 40
0
 40
0
 40
1
 40
1
 40
1
 40
1
 10
-14.343049
 20
15.944140
 30
0.0
 10
-13.861690
 20
15.666227
 30
0.0
 10
-13.565161
 20
15.152623
 30
0.0
 10
-13.565161
 20
14.596798
 30
0.0
  0
LWPOLYLINE
  5
1c8
100
AcDbEntity
  8
0
 62
7
100
AcDbPolyline
 90
1
 70
1
 10
-18.269453
 20
14.596798
 30
0.0
  0
SPLINE
  5
1c9
100
AcDbEntity
  8
0
 62
7
100
AcDbSpline
 70
8
 71
3
 72
8
 73
4
 74
0
 40
0
 40
0
 40
0
 40
0
 40
1
 40
1
 40
1
 40
1
 10
-8.860869
 20
14.596798
 30
0.0
 10
-8.860869
 20
13.737566
 30
0.0
 10
-9.557414
 20
13.041022
 30
0.0
 10
-10.416646
 20
13.041022
 30
0.0
  0
SPLINE
  5
1ca
100
AcDbEntity
  8
0
 62
7
100
AcDbSpline
 70
8
 71
3
 72
8
 73
4
 74
0
 40
0
 40
0
 40
0
 40
0
 40
1
 40
1
 40
1
 40
1
 10
-10.416646
 20
13.041022
 30
0.0
 10
-11.275877
 20
13.041022
 30
0.0
 10
-11.972422
 20
13.737566
 30
0.0
 10
-11.972422
 20
14.596798
 30
0.0
  0
SPLINE
  5
1cb
100
AcDbEntity
  8
0
 62
7
100
AcDbSpline
 70
8
 71
3
 72
8
 73
4
 74
0
 40
0
 40
0
 40
0
 40
0
 40
1
 40
1
 40
1
 40
1
 10
-11.972422
 20
14.596798
 30
0.0
 10
-11.972422
 20
15.456030
 30
0.0
 10
-11.275877
 20
16.152574
 30
0.0
 10
-10.416646
 20
16.152574
 30
0.0
  0
SPLINE
  5
1cc
100
AcDbEntity
  8
0
 62
7
100
AcDbSpline
 70
8
 71
3
 72
8
 73
4
 74
0
 40
0
 40
0
 40
0
 40
0
 40
1
 40
1
 40
1
 40
1
 10
-10.416646
 20
16.152574
 30
0.0
 10
-9.557414
 20
16.152574
 30
0.0
 10
-8.860869
 20
15.456030
 30
0.0
 10
-8.860869
 20
14.596798
 30
0.0
  0
LWPOLYLINE
  5
1cd
100
AcDbEntity
  8
0
 62
7
100
AcDbPolyline
 90
1
 70
1
 10
-13.565161
 20
14.596798
 30
0.0
  0
SPLINE
  5
1ce
100
AcDbEntity
  8
0
 62
7
100
AcDbSpline
 70
8
 71
3
 72
8
 73
4
 74
0
 40
0
 40
0
 40
0
 40
0
 40
1
 40
1
 40
1
 40
1
 10
-4.156578
 20
14.596798
 30
0.0
 10
-4.156578
 20
13.737566
 30
0.0
 10
-4.853123
 20
13.041021
 30
0.0
 10
-5.712354
 20
13.041021
 30
0.0
  0
SPLINE
  5
1cf
100
AcDbEntity
  8
0
 62
7
100
AcDbSpline
 70
8
 71
3
 72
8
 73
4
 74
0
 40
0
 40
0
 40
0
 40
0
 40
1
 40
1
 40
1
 40
1
 10
-5.712354
 20
13.041021
 30
0.0
 10
-6.571586
 20
13.041021
 30
0.0
 10
-7.268131
 20
13.737566
 30
0.0
 10
-7.268131
 20
14.596798
 30
0.0
  0
SPLINE
  5
1d0
100
AcDbEntity
  8
0
 62
7
100
AcDbSpline
 70
8
 71
3
 72
8
 73
4
 74
0
 40
0
 40
0
 40
0
 40
0
 40
1
 40
1
 40
1
 40
1
 10
-7.268131
 20
14.596798
 30
0.0
 10
-7.268131
 20
15.456030
 30
0.0
 10
-6.571586
 20
16.152574
 30
0.0
 10
-5.712354
 20
16.152574
 30
0.0
  0
SPLINE
  5
1d1
100
AcDbEntity
  8
0
 62
7
100
AcDbSpline
 70
8
 71
3
 72
8
 73
4
 74
0
 40
0
 40
0
 40
0
 40
0
 40
1
 40
1
 40
1
 40
1
 10
-5.712354
 20
16.152574
 30
0.0
 10
-4.853123
 20
16.152574
 30
0.0
 10
-4.156578
 20
15.456030
 30
0.0
 10
-4.156578
 20
14.596798
 30
0.0
  0
LWPOLYLINE
  5
1d2
100
AcDbEntity
  8
0
 62
7
100
AcDbPolyline
 90
1
 70
1
 10
-8.860869
 20
14.596798
 30
0.0
  0
SPLINE
  5
1d3
100
AcDbEntity
  8
0
 62
7
100
AcDbSpline
 70
8
 71
3
 72
8
 73
4
 74
0
 40
0
 40
0
 40
0
 40
0
 40
1
 40
1
 40
1
 40
1
 10
2.899860
 20
14.596798
 30
0.0
 10
2.899860
 20
14.040973
 30
0.0
 10
2.603330
 20
13.527369
 30
0.0
 10
2.121972
 20
13.249456
 30
0.0
  0
SPLINE
  5
1d4
100
AcDbEntity
  8
0
 62
7
100
AcDbSpline
 70
8
 71
3
 72
8
 73
4
 74
0
 40
0
 40
0
 40
0
 40
0
 40
1
 40
1
 40
1
 40
1
 10
2.121972
 20
13.249456
 30
0.0
 10
1.640613
 20
12.971543
 30
0.0
 10
1.047554
 20
12.971543
 30
0.0
 10
0.566195
 20
13.249456
 30
0.0
  0
SPLINE
  5
1d5
100
AcDbEntity
  8
0
 62
7
100
AcDbSpline
 70
8
 71
3
 72
8
 73
4
 74
0
 40
0
 40
0
 40
0
 40
0
 40
1
 40
1
 40
1
 40
1
 10
0.566195
 20
13.249456
 30
0.0
 10
0.084836
 20
13.527369
 30
0.0
 10
-0.211693
 20
14.040973
 30
0.0
 10
-0.211693
 20
14.596798
 30
0.0
  0
SPLINE
  5
1d6
100
AcDbEntity
  8
0
 62
7
100
AcDbSpline
 70
8
 71
3
 72
8
 73
4
 74
0
 40
0
 40
0
 40
0
 40
0
 40
1
 40
1
 40
1
 40
1
 10
-0.211693
 20
14.596798
 30
0.0
 10
-0.211693
 20
15.152623
 30
0.0
 10
0.084836
 20
15.666227
 30
0.0
 10
0.566195
 20
15.944140
 30
0.0
  0
SPLINE
  5
1d7
100
AcDbEntity
  8
0
 62
7
100
AcDbSpline
 70
8
 71
3
 72
8
 73
4
 74
0
 40
0
 40
0
 40
0
 40
0
 40
1
 40
1
 40
1
 40
1
 10
0.566195
 20
15.944140
 30
0.0
 10
1.047554
 20
16.222053
 30
0.0
 10
1.640613
 20
16.222053
 30
0.0
 10
2.121972
 20
15.944140
 30
0.0
  0
SPLINE
  5
1d8
100
AcDbEntity
  8
0
 62
7
100
AcDbSpline
 70
8
 71
3
 72
8
 73
4
 74
0
 40
0
 40
0
 40
0
 40
0
 40
1
 40
1
 40
1
 40
1
 10
2.121972
 20
15.944140
 30
0.0
 10
2.603330
 20
15.666227
 30
0.0
 10
2.899860
 20
15.152623
 30
0.0
 10
2.899860
 20
14.596798
 30
0.0
  0
LWPOLYLINE
  5
1d9
100
AcDbEntity
  8
0
 62
7
100
AcDbPolyline
 90
1
 70
1
 10
-4.156578
 20
14.596798
 30
0.0
  0
SPLINE
  5
1da
100
AcDbEntity
  8
0
 62
7
100
AcDbSpline
 70
8
 71
3
 72
8
 73
4
 74
0
 40
0
 40
0
 40
0
 40
0
 40
1
 40
1
 40
1
 40
1
 10
7.604151
 20
14.596798
 30
0.0
 10
7.604151
 20
14.040973
 30
0.0
 10
7.307622
 20
13.527369
 30
0.0
 10
6.826263
 20
13.249456
 30
0.0
  0
SPLINE
  5
1db
100
AcDbEntity
  8
0
 62
7
100
AcDbSpline
 70
8
 71
3
 72
8
 73
4
 74
0
 40
0
 40
0
 40
0
 40
0
 40
1
 40
1
 40
1
 40
1
 10
6.826263
 20
13.249456
 30
0.0
 10
6.344904
 20
12.971543
 30
0.0
 10
5.751846
 20
12.971543
 30
0.0
 10
5.270487
 20
13.249456
 30
0.0
  0
SPLINE
  5
1dc
100
AcDbEntity
  8
0
 62
7
100
AcDbSpline
 70
8
 71
3
 72
8
 73
4
 74
0
 40
0
 40
0
 40
0
 40
0
 40
1
 40
1
 40
1
 40
1
 10
5.270487
 20
13.249456
 30
0.0
 10
4.789128
 20
13.527369
 30
0.0
 10
4.492599
 20
14.040973
 30
0.0
 10
4.492599
 20
14.596798
 30
0.0
  0
SPLINE
  5
1dd
100
AcDbEntity
  8
0
 62
7
100
AcDbSpline
 70
8
 71
3
 72
8
 73
4
 74
0
 40
0
 40
0
 40
0
 40
0
 40
1
 40
1
 40
1
 40
1
 10
4.492599
 20
14.596798
 30
0.0
 10
4.492599
 20
15.456030
 30
0.0
 10
5.189143
 20
16.152574
 30
0.0
 10
6.048375
 20
16.152574
 30
0.0
  0
SPLINE
  5
1de
100
AcDbEntity
  8
0
 62
7
100
AcDbSpline
 70
8
 71
3
 72
8
 73
4
 74
0
 40
0
 40
0
 40
0
 40
0
 40
1
 40
1
 40
1
 40
1
 10
6.048375
 20
16.152574
 30
0.0
 10
6.907607
 20
16.152574
 30
0.0
 10
7.604151
 20
15.456030
 30
0.0
 10
7.604151
 20
14.596798
 30
0.0
  0
LWPOLYLINE
  5
1df
100
AcDbEntity
  8
0
 62
7
100
AcDbPolyline
 90
1
 70
1
 10
2.899860
 20
14.596798
 30
0.0
  0
SPLINE
  5
1e0
100
AcDbEntity
  8
0
 62
7
100
AcDbSpline
 70
8
 71
3
 72
8
 73
4
 74
0
 40
0
 40
0
 40
0
 40
0
 40
1
 40
1
 40
1
 40
1
 10
12.308443
 20
14.596798
 30
0.0
 10
12.308443
 20
14.040973
 30
0.0
 10
12.011914
 20
13.527369
 30
0.0
 10
11.530555
 20
13.249456
 30
0.0
  0
SPLINE
  5
1e1
100
AcDbEntity
  8
0
 62
7
100
AcDbSpline
 70
8
 71
3
 72
8
 73
4
 74
0
 40
0
 40
0
 40
0
 40
0
 40
1
 40
1
 40
1
 40
1
 10
11.530555
 20
13.249456
 30
0.0
 10
11.049196
 20
12.971543
 30
0.0
 10
10.456137
 20
12.971543
 30
0.0
 10
9.974778
 20
13.249456
 30
0.0
  0
SPLINE
  5
1e2
100
AcDbEntity
  8
0
 62
7
100
AcDbSpline
 70
8
 71
3
 72
8
 73
4
 74
0
 40
0
 40
0
 40
0
 40
0
 40
1
 40
1
 40
1
 40
1
 10
9.974778
 20
13.249456
 30
0.0
 10
9.493420
 20
13.527369
 30
0.0
 10
9.196890
 20
14.040973
 30
0.0
 10
9.196890
 20
14.596798
 30
0.0
  0
SPLINE
  5
1e3
100
AcDbEntity
  8
0
 62
7
100
AcDbSpline
 70
8
 71
3
 72
8
 73
4
 74
0
 40
0
 40
0
 40
0
 40
0
 40
1
 40
1
 40
1
 40
1
 10
9.196890
 20
14.596798
 30
0.0
 10
9.196890
 20
15.152623
 30
0.0
 10
9.493420
 20
15.666227
 30
0.0
 10
9.974778
 20
15.944140
 30
0.0
  0
SPLINE
  5
1e4
100
AcDbEntity
  8
0
 62
7
100
AcDbSpline
 70
8
 71
3
 72
8
 73
4
 74
0
 40
0
 40
0
 40
0
 40
0
 40
1
 40
1
 40
1
 40
1
 10
9.974778
 20
15.944140
 30
0.0
 10
10.456137
 20
16.222053
 30
0.0
 10
11.049196
 20
16.222053
 30
0.0
 10
11.530555
 20
15.944140
 30
0.0
  0
SPLINE
  5
1e5
100
AcDbEntity
  8
0
 62
7
100
AcDbSpline
 70
8
 71
3
 72
8
 73
4
 74
0
 40
0
 40
0
 40
0
 40
0
 40
1
 40
1
 40
1
 40
1
 10
11.530555
 20
15.944140
 30
0.0
 10
12.011914
 20
15.666227
 30
0.0
 10
12.308443
 20
15.152623
 30
0.0
 10
12.308443
 20
14.596798
 30
0.0
  0
LWPOLYLINE
  5
1e6
100
AcDbEntity
  8
0
 62
7
100
AcDbPolyline
 90
1
 70
1
 10
7.604151
 20
14.596798
 30
0.0
  0
SPLINE
  5
1e7
100
AcDbEntity
  8
0
 62
7
100
AcDbSpline
 70
8
 71
3
 72
8
 73
4
 74
0
 40
0
 40
0
 40
0
 40
0
 40
1
 40
1
 40
1
 40
1
 10
17.012735
 20
14.596798
 30
0.0
 10
17.012735
 20
14.040973
 30
0.0
 10
16.716205
 20
13.527369
 30
0.0
 10
16.234847
 20
13.249456
 30
0.0
  0
SPLINE
  5
1e8
100
AcDbEntity
  8
0
 62
7
100
AcDbSpline
 70
8
 71
3
 72
8
 73
4
 74
0
 40
0
 40
0
 40
0
 40
0
 40
1
 40
1
 40
1
 40
1
 10
16.234847
 20
13.249456
 30
0.0
 10
15.753488
 20
12.971543
 30
0.0
 10
15.160429
 20
12.971543
 30
0.0
 10
14.679070
 20
13.249456
 30
0.0
  0
SPLINE
  5
1e9
100
AcDbEntity
  8
0
 62
7
100
AcDbSpline
 70
8
 71
3
 72
8
 73
4
 74
0
 40
0
 40
0
 40
0
 40
0
 40
1
 40
1
 40
1
 40
1
 10
14.679070
 20
13.249456
 30
0.0
 10
14.197711
 20
13.527369
 30
0.0
 10
13.901182
 20
14.040973
 30
0.0
 10
13.901182
 20
14.596798
 30
0.0
  0
SPLINE
  5
1ea
100
AcDbEntity
  8
0
 62
7
100
AcDbSpline
 70
8
 71
3
 72
8
 73
4
 74
0
 40
0
 40
0
 40
0
 40
0
 40
1
 40
1
 40
1
 40
1
 10
13.901182
 20
14.596798
 30
0.0
 10
13.901182
 20
15.152623
 30
0.0
 10
14.197711
 20
15.666227
 30
0.0
 10
14.679070
 20
15.944140
 30
0.0
  0
SPLINE
  5
1eb
100
AcDbEntity
  8
0
 62
7
100
AcDbSpline
 70
8
 71
3
 72
8
 73
4
 74
0
 40
0
 40
0
 40
0
 40
0
 40
1
 40
1
 40
1
 40
1
 10
14.679070
 20
15.944140
 30
0.0
 10
15.160429
 20
16.222053
 30
0.0
 10
15.753488
 20
16.222053
 30
0.0
 10
16.234847
 20
15.944140
 30
0.0
  0
SPLINE
  5
1ec
100
AcDbEntity
  8
0
 62
7
100
AcDbSpline
 70
8
 71
3
 72
8
 73
4
 74
0
 40
0
 40
0
 40
0
 40
0
 40
1
 40
1
 40
1
 40
1
 10
16.234847
 20
15.944140
 30
0.0
 10
16.716205
 20
15.666227
 30
0.0
 10
17.012735
 20
15.152623
 30
0.0
 10
17.012735
 20
14.596798
 30
0.0
  0
LWPOLYLINE
  5
1ed
100
AcDbEntity
  8
0
 62
7
100
AcDbPolyline
 90
1
 70
1
 10
12.308443
 20
14.596798
 30
0.0
  0
SPLINE
  5
1ee
100
AcDbEntity
  8
0
 62
7
100
AcDbSpline
 70
8
 71
3
 72
8
 73
4
 74
0
 40
0
 40
0
 40
0
 40
0
 40
1
 40
1
 40
1
 40
1
 10
21.717026
 20
14.596798
 30
0.0
 10
21.717026
 20
14.040973
 30
0.0
 10
21.420497
 20
13.527369
 30
0.0
 10
20.939138
 20
13.249456
 30
0.0
  0
SPLINE
  5
1ef
100
AcDbEntity
  8
0
 62
7
100
AcDbSpline
 70
8
 71
3
 72
8
 73
4
 74
0
 40
0
 40
0
 40
0
 40
0
 40
1
 40
1
 40
1
 40
1
 10
20.939138
 20
13.249456
 30
0.0
 10
20.457779
 20
12.971543
 30
0.0
 10
19.864721
 20
12.971543
 30
0.0
 10
19.383362
 20
13.249456
 30
0.0
  0
SPLINE
  5
1f0
100
AcDbEntity
  8
0
 62
7
100
AcDbSpline
 70
8
 71
3
 72
8
 73
4
 74
0
 40
0
 40
0
 40
0
 40
0
 40
1
 40
1
 40
1
 40
1
 10
19.383362
 20
13.249456
 30
0.0
 10
18.902003
 20
13.527369
 30
0.0
 10
18.605474
 20
14.040973
 30
0.0
 10
18.605474
 20
14.596798
 30
0.0
  0
SPLINE
  5
1f1
100
AcDbEntity
  8
0
 62
7
100
AcDbSpline
 70
8
 71
3
 72
8
 73
4
 74
0
 40
0
 40
0
 40
0
 40
0
 40
1
 40
1
 40
1
 40
1
 10
18.605474
 20
14.596798
 30
0.0
 10
18.605474
 20
15.152623
 30
0.0
 10
18.902003
 20
15.666227
 30
0.0
 10
19.383362
 20
15.944140
 30
0.0
  0
SPLINE
  5
1f2
100
AcDbEntity
  8
0
 62
7
100
AcDbSpline
 70
8
 71
3
 72
8
 73
4
 74
0
 40
0
 40
0
 40
0
 40
0
 40
1
 40
1
 40
1
 40
1
 10
19.383362
 20
15.944140
 30
0.0
 10
19.864721
 20
16.222053
 30
0.0
 10
20.457779
 20
16.222053
 30
0.0
 10
20.939138
 20
15.944140
 30
0.0
  0
SPLINE
  5
1f3
100
AcDbEntity
  8
0
 62
7
100
AcDbSpline
 70
8
 71
3
 72
8
 73
4
 74
0
 40
0
 40
0
 40
0
 40
0
 40
1
 40
1
 40
1
 40
1
 10
20.939138
 20
15.944140
 30
0.0
 10
21.420497
 20
15.666227
 30
0.0
 10
21.717026
 20
15.152623
 30
0.0
 10
21.717026
 20
14.596798
 30
0.0
  0
LWPOLYLINE
  5
1f4
100
AcDbEntity
  8
0
 62
7
100
AcDbPolyline
 90
1
 70
1
 10
17.012735
 20
14.596798
 30
0.0
  0
SPLINE
  5
1f5
100
AcDbEntity
  8
0
 62
7
100
AcDbSpline
 70
8
 71
3
 72
8
 73
4
 74
0
 40
0
 40
0
 40
0
 40
0
 40
1
 40
1
 40
1
 40
1
 10
21.717026
 20
21.989256
 30
0.0
 10
21.717026
 20
21.433431
 30
0.0
 10
21.420497
 20
20.919827
 30
0.0
 10
20.939138
 20
20.641914
 30
0.0
  0
SPLINE
  5
1f6
100
AcDbEntity
  8
0
 62
7
100
AcDbSpline
 70
8
 71
3
 72
8
 73
4
 74
0
 40
0
 40
0
 40
0
 40
0
 40
1
 40
1
 40
1
 40
1
 10
20.939138
 20
20.641914
 30
0.0
 10
20.457779
 20
20.364002
 30
0.0
 10
19.864721
 20
20.364002
 30
0.0
 10
19.383362
 20
20.641914
 30
0.0
  0
SPLINE
  5
1f7
100
AcDbEntity
  8
0
 62
7
100
AcDbSpline
 70
8
 71
3
 72
8
 73
4
 74
0
 40
0
 40
0
 40
0
 40
0
 40
1
 40
1
 40
1
 40
1
 10
19.383362
 20
20.641914
 30
0.0
 10
18.902003
 20
20.919827
 30
0.0
 10
18.605474
 20
21.433431
 30
0.0
 10
18.605474
 20
21.989256
 30
0.0
  0
SPLINE
  5
1f8
100
AcDbEntity
  8
0
 62
7
100
AcDbSpline
 70
8
 71
3
 72
8
 73
4
 74
0
 40
0
 40
0
 40
0
 40
0
 40
1
 40
1
 40
1
 40
1
 10
18.605474
 20
21.989256
 30
0.0
 10
18.605474
 20
22.545082
 30
0.0
 10
18.902003
 20
23.058685
 30
0.0
 10
19.383362
 20
23.336598
 30
0.0
  0
SPLINE
  5
1f9
100
AcDbEntity
  8
0
 62
7
100
AcDbSpline
 70
8
 71
3
 72
8
 73
4
 74
0
 40
0
 40
0
 40
0
 40
0
 40
1
 40
1
 40
1
 40
1
 10
19.383362
 20
23.336598
 30
0.0
 10
19.864721
 20
23.614511
 30
0.0
 10
20.457779
 20
23.614511
 30
0.0
 10
20.939138
 20
23.336598
 30
0.0
  0
SPLINE
  5
1fa
100
AcDbEntity
  8
0
 62
7
100
AcDbSpline
 70
8
 71
3
 72
8
 73
4
 74
0
 40
0
 40
0
 40
0
 40
0
 40
1
 40
1
 40
1
 40
1
 10
20.939138
 20
23.336598
 30
0.0
 10
21.420497
 20
23.058685
 30
0.0
 10
21.717026
 20
22.545082
 30
0.0
 10
21.717026
 20
21.989256
 30
0.0
  0
LWPOLYLINE
  5
1fb
100
AcDbEntity
  8
0
 62
7
100
AcDbPolyline
 90
1
 70
1
 10
21.717026
 20
14.596798
 30
0.0
  0
SPLINE
  5
1fc
100
AcDbEntity
  8
0
 62
7
100
AcDbSpline
 70
8
 71
3
 72
8
 73
4
 74
0
 40
0
 40
0
 40
0
 40
0
 40
1
 40
1
 40
1
 40
1
 10
21.717026
 20
29.381715
 30
0.0
 10
21.717026
 20
28.825889
 30
0.0
 10
21.420497
 20
28.312285
 30
0.0
 10
20.939138
 20
28.034373
 30
0.0
  0
SPLINE
  5
1fd
100
AcDbEntity
  8
0
 62
7
100
AcDbSpline
 70
8
 71
3
 72
8
 73
4
 74
0
 40
0
 40
0
 40
0
 40
0
 40
1
 40
1
 40
1
 40
1
 10
20.939138
 20
28.034373
 30
0.0
 10
20.457779
 20
27.756460
 30
0.0
 10
19.864721
 20
27.756460
 30
0.0
 10
19.383362
 20
28.034373
 30
0.0
  0
SPLINE
  5
1fe
100
AcDbEntity
  8
0
 62
7
100
AcDbSpline
 70
8
 71
3
 72
8
 73
4
 74
0
 40
0
 40
0
 40
0
 40
0
 40
1
 40
1
 40
1
 40
1
 10
19.383362
 20
28.034373
 30
0.0
 10
18.902003
 20
28.312285
 30
0.0
 10
18.605474
 20
28.825889
 30
0.0
 10
18.605474
 20
29.381715
 30
0.0
  0
SPLINE
  5
1ff
100
AcDbEntity
  8
0
 62
7
100
AcDbSpline
 70
8
 71
3
 72
8
 73
4
 74
0
 40
0
 40
0
 40
0
 40
0
 40
1
 40
1
 40
1
 40
1
 10
18.605474
 20
29.381715
 30
0.0
 10
18.605474
 20
29.937540
 30
0.0
 10
18.902003
 20
30.451144
 30
0.0
 10
19.383362
 20
30.729057
 30
0.0
  0
SPLINE
  5
200
100
AcDbEntity
  8
0
 62
7
100
AcDbSpline
 70
8
 71
3
 72
8
 73
4
 74
0
 40
0
 40
0
 40
0
 40
0
 40
1
 40
1
 40
1
 40
1
 10
19.383362
 20
30.729057
 30
0.0
 10
19.864721
 20
31.006969
 30
0.0
 10
20.457779
 20
31.006969
 30
0.0
 10
20.939138
 20
30.729057
 30
0.0
  0
SPLINE
  5
201
100
AcDbEntity
  8
0
 62
7
100
AcDbSpline
 70
8
 71
3
 72
8
 73
4
 74
0
 40
0
 40
0
 40
0
 40
0
 40
1
 40
1
 40
1
 40
1
 10
20.939138
 20
30.729057
 30
0.0
 10
21.420497
 20
30.451144
 30
0.0
 10
21.717026
 20
29.937540
 30
0.0
 10
21.717026
 20
29.381715
 30
0.0
  0
LWPOLYLINE
  5
202
100
AcDbEntity
  8
0
 62
7
100
AcDbPolyline
 90
1
 70
1
 10
21.717026
 20
21.989256
 30
0.0
  0
SPLINE
  5
203
100
AcDbEntity
  8
0
 62
7
100
AcDbSpline
 70
8
 71
3
 72
8
 73
4
 74
0
 40
0
 40
0
 40
0
 40
0
 40
1
 40
1
 40
1
 40
1
 10
21.717026
 20
36.774173
 30
0.0
 10
21.717026
 20
36.218348
 30
0.0
 10
21.420497
 20
35.704744
 30
0.0
 10
20.939138
 20
35.426831
 30
0.0
  0
SPLINE
  5
204
100
AcDbEntity
  8
0
 62
7
100
AcDbSpline
 70
8
 71
3
 72
8
 73
4
 74
0
 40
0
 40
0
 40
0
 40
0
 40
1
 40
1
 40
1
 40
1
 10
20.939138
 20
35.426831
 30
0.0
 10
20.457779
 20
35.148918
 30
0.0
 10
19.864721
 20
35.148918
 30
0.0
 10
19.383362
 20
35.426831
 30
0.0
  0
SPLINE
  5
205
100
AcDbEntity
  8
0
 62
7
100
AcDbSpline
 70
8
 71
3
 72
8
 73
4
 74
0
 40
0
 40
0
 40
0
 40
0
 40
1
 40
1
 40
1
 40
1
 10
19.383362
 20
35.426831
 30
0.0
 10
18.902003
 20
35.704744
 30
0.0
 10
18.605474
 20
36.218348
 30
0.0
 10
18.605474
 20
36.774173
 30
0.0
  0
SPLINE
  5
206
100
AcDbEntity
  8
0
 62
7
100
AcDbSpline
 70
8
 71
3
 72
8
 73
4
 74
0
 40
0
 40
0
 40
0
 40
0
 40
1
 40
1
 40
1
 40
1
 10
18.605474
 20
36.774173
 30
0.0
 10
18.605474
 20
37.329998
 30
0.0
 10
18.902003
 20
37.843602
 30
0.0
 10
19.383362
 20
38.121515
 30
0.0
  0
SPLINE
  5
207
100
AcDbEntity
  8
0
 62
7
100
AcDbSpline
 70
8
 71
3
 72
8
 73
4
 74
0
 40
0
 40
0
 40
0
 40
0
 40
1
 40
1
 40
1
 40
1
 10
19.383362
 20
38.121515
 30
0.0
 10
19.864721
 20
38.399428
 30
0.0
 10
20.457779
 20
38.399428
 30
0.0
 10
20.939138
 20
38.121515
 30
0.0
  0
SPLINE
  5
208
100
AcDbEntity
  8
0
 62
7
100
AcDbSpline
 70
8
 71
3
 72
8
 73
4
 74
0
 40
0
 40
0
 40
0
 40
0
 40
1
 40
1
 40
1
 40
1
 10
20.939138
 20
38.121515
 30
0.0
 10
21.420497
 20
37.843602
 30
0.0
 10
21.717026
 20
37.329998
 30
0.0
 10
21.717026
 20
36.774173
 30
0.0
  0
LWPOLYLINE
  5
209
100
AcDbEntity
  8
0
 62
7
100
AcDbPolyline
 90
1
 70
1
 10
21.717026
 20
29.381715
 30
0.0
  0
SPLINE
  5
20a
100
AcDbEntity
  8
0
 62
7
100
AcDbSpline
 70
8
 71
3
 72
8
 73
4
 74
0
 40
0
 40
0
 40
0
 40
0
 40
1
 40
1
 40
1
 40
1
 10
-18.269453
 20
36.774173
 30
0.0
 10
-18.269453
 20
36.218348
 30
0.0
 10
-18.565982
 20
35.704744
 30
0.0
 10
-19.047341
 20
35.426831
 30
0.0
  0
SPLINE
  5
20b
100
AcDbEntity
  8
0
 62
7
100
AcDbSpline
 70
8
 71
3
 72
8
 73
4
 74
0
 40
0
 40
0
 40
0
 40
0
 40
1
 40
1
 40
1
 40
1
 10
-19.047341
 20
35.426831
 30
0.0
 10
-19.528700
 20
35.148918
 30
0.0
 10
-20.121758
 20
35.148918
 30
0.0
 10
-20.603117
 20
35.426831
 30
0.0
  0
SPLINE
  5
20c
100
AcDbEntity
  8
0
 62
7
100
AcDbSpline
 70
8
 71
3
 72
8
 73
4
 74
0
 40
0
 40
0
 40
0
 40
0
 40
1
 40
1
 40
1
 40
1
 10
-20.603117
 20
35.426831
 30
0.0
 10
-21.084476
 20
35.704744
 30
0.0
 10
-21.381006
 20
36.218348
 30
0.0
 10
-21.381006
 20
36.774173
 30
0.0
  0
SPLINE
  5
20d
100
AcDbEntity
  8
0
 62
7
100
AcDbSpline
 70
8
 71
3
 72
8
 73
4
 74
0
 40
0
 40
0
 40
0
 40
0
 40
1
 40
1
 40
1
 40
1
 10
-21.381006
 20
36.774173
 30
0.0
 10
-21.381006
 20
37.329998
 30
0.0
 10
-21.084476
 20
37.843602
 30
0.0
 10
-20.603117
 20
38.121515
 30
0.0
  0
SPLINE
  5
20e
100
AcDbEntity
  8
0
 62
7
100
AcDbSpline
 70
8
 71
3
 72
8
 73
4
 74
0
 40
0
 40
0
 40
0
 40
0
 40
1
 40
1
 40
1
 40
1
 10
-20.603117
 20
38.121515
 30
0.0
 10
-20.121758
 20
38.399428
 30
0.0
 10
-19.528700
 20
38.399428
 30
0.0
 10
-19.047341
 20
38.121515
 30
0.0
  0
SPLINE
  5
20f
100
AcDbEntity
  8
0
 62
7
100
AcDbSpline
 70
8
 71
3
 72
8
 73
4
 74
0
 40
0
 40
0
 40
0
 40
0
 40
1
 40
1
 40
1
 40
1
 10
-19.047341
 20
38.121515
 30
0.0
 10
-18.565982
 20
37.843602
 30
0.0
 10
-18.269453
 20
37.329998
 30
0.0
 10
-18.269453
 20
36.774173
 30
0.0
  0
LWPOLYLINE
  5
210
100
AcDbEntity
  8
0
 62
7
100
AcDbPolyline
 90
1
 70
1
 10
21.717026
 20
36.774173
 30
0.0
  0
SPLINE
  5
211
100
AcDbEntity
  8
0
 62
7
100
AcDbSpline
 70
8
 71
3
 72
8
 73
4
 74
0
 40
0
 40
0
 40
0
 40
0
 40
1
 40
1
 40
1
 40
1
 10
-13.565161
 20
36.774173
 30
0.0
 10
-13.565161
 20
36.218348
 30
0.0
 10
-13.861690
 20
35.704744
 30
0.0
 10
-14.343049
 20
35.426831
 30
0.0
  0
SPLINE
  5
212
100
AcDbEntity
  8
0
 62
7
100
AcDbSpline
 70
8
 71
3
 72
8
 73
4
 74
0
 40
0
 40
0
 40
0
 40
0
 40
1
 40
1
 40
1
 40
1
 10
-14.343049
 20
35.426831
 30
0.0
 10
-14.824408
 20
35.148918
 30
0.0
 10
-15.417467
 20
35.148918
 30
0.0
 10
-15.898826
 20
35.426831
 30
0.0
  0
SPLINE
  5
213
100
AcDbEntity
  8
0
 62
7
100
AcDbSpline
 70
8
 71
3
 72
8
 73
4
 74
0
 40
0
 40
0
 40
0
 40
0
 40
1
 40
1
 40
1
 40
1
 10
-15.898826
 20
35.426831
 30
0.0
 10
-16.380185
 20
35.704744
 30
0.0
 10
-16.676714
 20
36.218348
 30
0.0
 10
-16.676714
 20
36.774173
 30
0.0
  0
SPLINE
  5
214
100
AcDbEntity
  8
0
 62
7
100
AcDbSpline
 70
8
 71
3
 72
8
 73
4
 74
0
 40
0
 40
0
 40
0
 40
0
 40
1
 40
1
 40
1
 40
1
 10
-16.676714
 20
36.774173
 30
0.0
 10
-16.676714
 20
37.329998
 30
0.0
 10
-16.380185
 20
37.843602
 30
0.0
 10
-15.898826
 20
38.121515
 30
0.0
  0
SPLINE
  5
215
100
AcDbEntity
  8
0
 62
7
100
AcDbSpline
 70
8
 71
3
 72
8
 73
4
 74
0
 40
0
 40
0
 40
0
 40
0
 40
1
 40
1
 40
1
 40
1
 10
-15.898826
 20
38.121515
 30
0.0
 10
-15.417467
 20
38.399428
 30
0.0
 10
-14.824408
 20
38.399428
 30
0.0
 10
-14.343049
 20
38.121515
 30
0.0
  0
SPLINE
  5
216
100
AcDbEntity
  8
0
 62
7
100
AcDbSpline
 70
8
 71
3
 72
8
 73
4
 74
0
 40
0
 40
0
 40
0
 40
0
 40
1
 40
1
 40
1
 40
1
 10
-14.343049
 20
38.121515
 30
0.0
 10
-13.861690
 20
37.843602
 30
0.0
 10
-13.565161
 20
37.329998
 30
0.0
 10
-13.565161
 20
36.774173
 30
0.0
  0
LWPOLYLINE
  5
217
100
AcDbEntity
  8
0
 62
7
100
AcDbPolyline
 90
1
 70
1
 10
-18.269453
 20
36.774173
 30
0.0
  0
SPLINE
  5
218
100
AcDbEntity
  8
0
 62
7
100
AcDbSpline
 70
8
 71
3
 72
8
 73
4
 74
0
 40
0
 40
0
 40
0
 40
0
 40
1
 40
1
 40
1
 40
1
 10
-8.860869
 20
36.774173
 30
0.0
 10
-8.860869
 20
35.914941
 30
0.0
 10
-9.557414
 20
35.218397
 30
0.0
 10
-10.416646
 20
35.218397
 30
0.0
  0
SPLINE
  5
219
100
AcDbEntity
  8
0
 62
7
100
AcDbSpline
 70
8
 71
3
 72
8
 73
4
 74
0
 40
0
 40
0
 40
0
 40
0
 40
1
 40
1
 40
1
 40
1
 10
-10.416646
 20
35.218397
 30
0.0
 10
-11.275877
 20
35.218397
 30
0.0
 10
-11.972422
 20
35.914941
 30
0.0
 10
-11.972422
 20
36.774173
 30
0.0
  0
SPLINE
  5
21a
100
AcDbEntity
  8
0
 62
7
100
AcDbSpline
 70
8
 71
3
 72
8
 73
4
 74
0
 40
0
 40
0
 40
0
 40
0
 40
1
 40
1
 40
1
 40
1
 10
-11.972422
 20
36.774173
 30
0.0
 10
-11.972422
 20
37.633405
 30
0.0
 10
-11.275877
 20
38.329949
 30
0.0
 10
-10.416646
 20
38.329949
 30
0.0
  0
SPLINE
  5
21b
100
AcDbEntity
  8
0
 62
7
100
AcDbSpline
 70
8
 71
3
 72
8
 73
4
 74
0
 40
0
 40
0
 40
0
 40
0
 40
1
 40
1
 40
1
 40
1
 10
-10.416646
 20
38.329949
 30
0.0
 10
-9.557414
 20
38.329949
 30
0.0
 10
-8.860869
 20
37.633405
 30
0.0
 10
-8.860869
 20
36.774173
 30
0.0
  0
LWPOLYLINE
  5
21c
100
AcDbEntity
  8
0
 62
7
100
AcDbPolyline
 90
1
 70
1
 10
-13.565161
 20
36.774173
 30
0.0
  0
LWPOLYLINE
  5
21d
100
AcDbEntity
  8
0
 62
7
100
AcDbPolyline
 90
1
 70
1
 10
-8.860869
 20
36.774173
 30
0.0
  0
SPLINE
  5
21e
100
AcDbEntity
  8
0
 62
7
100
AcDbSpline
 70
8
 71
3
 72
8
 73
4
 74
0
 40
0
 40
0
 40
0
 40
0
 40
1
 40
1
 40
1
 40
1
 10
14.381692
 20
36.538958
 30
0.0
 10
14.381692
 20
35.842676
 30
0.0
 10
14.010229
 20
35.199285
 30
0.0
 10
13.407231
 20
34.851143
 30
0.0
  0
SPLINE
  5
21f
100
AcDbEntity
  8
0
 62
7
100
AcDbSpline
 70
8
 71
3
 72
8
 73
4
 74
0
 40
0
 40
0
 40
0
 40
0
 40
1
 40
1
 40
1
 40
1
 10
13.407231
 20
34.851143
 30
0.0
 10
12.804233
 20
34.503002
 30
0.0
 10
12.061309
 20
34.503002
 30
0.0
 10
11.458310
 20
34.851143
 30
0.0
  0
SPLINE
  5
220
100
AcDbEntity
  8
0
 62
7
100
AcDbSpline
 70
8
 71
3
 72
8
 73
4
 74
0
 40
0
 40
0
 40
0
 40
0
 40
1
 40
1
 40
1
 40
1
 10
11.458310
 20
34.851143
 30
0.0
 10
10.855312
 20
35.199285
 30
0.0
 10
10.483850
 20
35.842676
 30
0.0
 10
10.483850
 20
36.538958
 30
0.0
  0
SPLINE
  5
221
100
AcDbEntity
  8
0
 62
7
100
AcDbSpline
 70
8
 71
3
 72
8
 73
4
 74
0
 40
0
 40
0
 40
0
 40
0
 40
1
 40
1
 40
1
 40
1
 10
10.483850
 20
36.538958
 30
0.0
 10
10.483850
 20
37.235241
 30
0.0
 10
10.855312
 20
37.878632
 30
0.0
 10
11.458310
 20
38.226773
 30
0.0
  0
SPLINE
  5
222
100
AcDbEntity
  8
0
 62
7
100
AcDbSpline
 70
8
 71
3
 72
8
 73
4
 74
0
 40
0
 40
0
 40
0
 40
0
 40
1
 40
1
 40
1
 40
1
 10
11.458310
 20
38.226773
 30
0.0
 10
12.061309
 20
38.574914
 30
0.0
 10
12.804233
 20
38.574914
 30
0.0
 10
13.407231
 20
38.226773
 30
0.0
  0
SPLINE
  5
223
100
AcDbEntity
  8
0
 62
7
100
AcDbSpline
 70
8
 71
3
 72
8
 73
4
 74
0
 40
0
 40
0
 40
0
 40
0
 40
1
 40
1
 40
1
 40
1
 10
13.407231
 20
38.226773
 30
0.0
 10
14.010229
 20
37.878632
 30
0.0
 10
14.381692
 20
37.235241
 30
0.0
 10
14.381692
 20
36.538958
 30
0.0
  0
LWPOLYLINE
  5
224
100
AcDbEntity
  8
0
 62
7
100
AcDbPolyline
 90
4
 70
1
 10
-3.971766
 20
38.353471
 30
0.0
 10
6.659933
 20
38.353471
 30
0.0
 10
6.659933
 20
34.993263
 30
0.0
 10
-3.971766
 20
34.993263
 30
0.0
  0
SPLINE
  5
225
100
AcDbEntity
  8
0
 62
7
100
AcDbSpline
 70
8
 71
3
 72
8
 73
4
 74
0
 40
0
 40
0
 40
0
 40
0
 40
1
 40
1
 40
1
 40
1
 10
-20.094046
 20
31.834667
 30
0.0
 10
-20.094046
 20
31.690608
 30
0.0
 10
-20.170900
 20
31.557493
 30
0.0
 10
-20.295658
 20
31.485464
 30
0.0
  0
SPLINE
  5
226
100
AcDbEntity
  8
0
 62
7
100
AcDbSpline
 70
8
 71
3
 72
8
 73
4
 74
0
 40
0
 40
0
 40
0
 40
0
 40
1
 40
1
 40
1
 40
1
 10
-20.295658
 20
31.485464
 30
0.0
 10
-20.420417
 20
31.413434
 30
0.0
 10
-20.574125
 20
31.413434
 30
0.0
 10
-20.698883
 20
31.485464
 30
0.0
  0
SPLINE
  5
227
100
AcDbEntity
  8
0
 62
7
100
AcDbSpline
 70
8
 71
3
 72
8
 73
4
 74
0
 40
0
 40
0
 40
0
 40
0
 40
1
 40
1
 40
1
 40
1
 10
-20.698883
 20
31.485464
 30
0.0
 10
-20.823642
 20
31.557493
 30
0.0
 10
-20.900496
 20
31.690608
 30
0.0
 10
-20.900496
 20
31.834667
 30
0.0
  0
SPLINE
  5
228
100
AcDbEntity
  8
0
 62
7
100
AcDbSpline
 70
8
 71
3
 72
8
 73
4
 74
0
 40
0
 40
0
 40
0
 40
0
 40
1
 40
1
 40
1
 40
1
 10
-20.900496
 20
31.834667
 30
0.0
 10
-20.900496
 20
31.978725
 30
0.0
 10
-20.823642
 20
32.111841
 30
0.0
 10
-20.698883
 20
32.183870
 30
0.0
  0
SPLINE
  5
229
100
AcDbEntity
  8
0
 62
7
100
AcDbSpline
 70
8
 71
3
 72
8
 73
4
 74
0
 40
0
 40
0
 40
0
 40
0
 40
1
 40
1
 40
1
 40
1
 10
-20.698883
 20
32.183870
 30
0.0
 10
-20.574125
 20
32.255899
 30
0.0
 10
-20.420417
 20
32.255899
 30
0.0
 10
-20.295658
 20
32.183870
 30
0.0
  0
SPLINE
  5
22a
100
AcDbEntity
  8
0
 62
7
100
AcDbSpline
 70
8
 71
3
 72
8
 73
4
 74
0
 40
0
 40
0
 40
0
 40
0
 40
1
 40
1
 40
1
 40
1
 10
-20.295658
 20
32.183870
 30
0.0
 10
-20.170900
 20
32.111841
 30
0.0
 10
-20.094046
 20
31.978725
 30
0.0
 10
-20.094046
 20
31.834667
 30
0.0
  0
LWPOLYLINE
  5
22b
100
AcDbEntity
  8
0
 62
7
100
AcDbPolyline
 90
1
 70
1
 10
14.381692
 20
36.538958
 30
0.0
  0
SPLINE
  5
22c
100
AcDbEntity
  8
0
 62
7
100
AcDbSpline
 70
8
 71
3
 72
8
 73
4
 74
0
 40
0
 40
0
 40
0
 40
0
 40
1
 40
1
 40
1
 40
1
 10
-20.094046
 20
19.065875
 30
0.0
 10
-20.094046
 20
18.921817
 30
0.0
 10
-20.170900
 20
18.788701
 30
0.0
 10
-20.295658
 20
18.716672
 30
0.0
  0
SPLINE
  5
22d
100
AcDbEntity
  8
0
 62
7
100
AcDbSpline
 70
8
 71
3
 72
8
 73
4
 74
0
 40
0
 40
0
 40
0
 40
0
 40
1
 40
1
 40
1
 40
1
 10
-20.295658
 20
18.716672
 30
0.0
 10
-20.420417
 20
18.644643
 30
0.0
 10
-20.574125
 20
18.644643
 30
0.0
 10
-20.698883
 20
18.716672
 30
0.0
  0
SPLINE
  5
22e
100
AcDbEntity
  8
0
 62
7
100
AcDbSpline
 70
8
 71
3
 72
8
 73
4
 74
0
 40
0
 40
0
 40
0
 40
0
 40
1
 40
1
 40
1
 40
1
 10
-20.698883
 20
18.716672
 30
0.0
 10
-20.823642
 20
18.788701
 30
0.0
 10
-20.900496
 20
18.921817
 30
0.0
 10
-20.900496
 20
19.065875
 30
0.0
  0
SPLINE
  5
22f
100
AcDbEntity
  8
0
 62
7
100
AcDbSpline
 70
8
 71
3
 72
8
 73
4
 74
0
 40
0
 40
0
 40
0
 40
0
 40
1
 40
1
 40
1
 40
1
 10
-20.900496
 20
19.065875
 30
0.0
 10
-20.900496
 20
19.209933
 30
0.0
 10
-20.823642
 20
19.343049
 30
0.0
 10
-20.698883
 20
19.415078
 30
0.0
  0
SPLINE
  5
230
100
AcDbEntity
  8
0
 62
7
100
AcDbSpline
 70
8
 71
3
 72
8
 73
4
 74
0
 40
0
 40
0
 40
0
 40
0
 40
1
 40
1
 40
1
 40
1
 10
-20.698883
 20
19.415078
 30
0.0
 10
-20.574125
 20
19.487107
 30
0.0
 10
-20.420417
 20
19.487107
 30
0.0
 10
-20.295658
 20
19.415078
 30
0.0
  0
SPLINE
  5
231
100
AcDbEntity
  8
0
 62
7
100
AcDbSpline
 70
8
 71
3
 72
8
 73
4
 74
0
 40
0
 40
0
 40
0
 40
0
 40
1
 40
1
 40
1
 40
1
 10
-20.295658
 20
19.415078
 30
0.0
 10
-20.170900
 20
19.343049
 30
0.0
 10
-20.094046
 20
19.209933
 30
0.0
 10
-20.094046
 20
19.065875
 30
0.0
  0
LWPOLYLINE
  5
232
100
AcDbEntity
  8
0
 62
7
100
AcDbPolyline
 90
1
 70
1
 10
-20.094046
 20
31.834667
 30
0.0
  0
SPLINE
  5
233
100
AcDbEntity
  8
0
 62
7
100
AcDbSpline
 70
8
 71
3
 72
8
 73
4
 74
0
 40
0
 40
0
 40
0
 40
0
 40
1
 40
1
 40
1
 40
1
 10
21.572538
 20
33.178750
 30
0.0
 10
21.572538
 20
33.034692
 30
0.0
 10
21.495683
 20
32.901576
 30
0.0
 10
21.370925
 20
32.829547
 30
0.0
  0
SPLINE
  5
234
100
AcDbEntity
  8
0
 62
7
100
AcDbSpline
 70
8
 71
3
 72
8
 73
4
 74
0
 40
0
 40
0
 40
0
 40
0
 40
1
 40
1
 40
1
 40
1
 10
21.370925
 20
32.829547
 30
0.0
 10
21.246167
 20
32.757518
 30
0.0
 10
21.092458
 20
32.757518
 30
0.0
 10
20.967700
 20
32.829547
 30
0.0
  0
SPLINE
  5
235
100
AcDbEntity
  8
0
 62
7
100
AcDbSpline
 70
8
 71
3
 72
8
 73
4
 74
0
 40
0
 40
0
 40
0
 40
0
 40
1
 40
1
 40
1
 40
1
 10
20.967700
 20
32.829547
 30
0.0
 10
20.842942
 20
32.901576
 30
0.0
 10
20.766088
 20
33.034692
 30
0.0
 10
20.766088
 20
33.178750
 30
0.0
  0
SPLINE
  5
236
100
AcDbEntity
  8
0
 62
7
100
AcDbSpline
 70
8
 71
3
 72
8
 73
4
 74
0
 40
0
 40
0
 40
0
 40
0
 40
1
 40
1
 40
1
 40
1
 10
20.766088
 20
33.178750
 30
0.0
 10
20.766088
 20
33.401445
 30
0.0
 10
20.946617
 20
33.581975
 30
0.0
 10
21.169313
 20
33.581975
 30
0.0
  0
SPLINE
  5
237
100
AcDbEntity
  8
0
 62
7
100
AcDbSpline
 70
8
 71
3
 72
8
 73
4
 74
0
 40
0
 40
0
 40
0
 40
0
 40
1
 40
1
 40
1
 40
1
 10
21.169313
 20
33.581975
 30
0.0
 10
21.392008
 20
33.581975
 30
0.0
 10
21.572537
 20
33.401445
 30
0.0
 10
21.572538
 20
33.178750
 30
0.0
  0
LWPOLYLINE
  5
238
100
AcDbEntity
  8
0
 62
7
100
AcDbPolyline
 90
1
 70
1
 10
-20.094046
 20
19.065875
 30
0.0
  0
SPLINE
  5
239
100
AcDbEntity
  8
0
 62
7
100
AcDbSpline
 70
8
 71
3
 72
8
 73
4
 74
0
 40
0
 40
0
 40
0
 40
0
 40
1
 40
1
 40
1
 40
1
 10
21.572538
 20
18.393833
 30
0.0
 10
21.572538
 20
18.249775
 30
0.0
 10
21.495683
 20
18.116659
 30
0.0
 10
21.370925
 20
18.044630
 30
0.0
  0
SPLINE
  5
23a
100
AcDbEntity
  8
0
 62
7
100
AcDbSpline
 70
8
 71
3
 72
8
 73
4
 74
0
 40
0
 40
0
 40
0
 40
0
 40
1
 40
1
 40
1
 40
1
 10
21.370925
 20
18.044630
 30
0.0
 10
21.246167
 20
17.972601
 30
0.0
 10
21.092458
 20
17.972601
 30
0.0
 10
20.967700
 20
18.044630
 30
0.0
  0
SPLINE
  5
23b
100
AcDbEntity
  8
0
 62
7
100
AcDbSpline
 70
8
 71
3
 72
8
 73
4
 74
0
 40
0
 40
0
 40
0
 40
0
 40
1
 40
1
 40
1
 40
1
 10
20.967700
 20
18.044630
 30
0.0
 10
20.842942
 20
18.116659
 30
0.0
 10
20.766088
 20
18.249775
 30
0.0
 10
20.766088
 20
18.393833
 30
0.0
  0
SPLINE
  5
23c
100
AcDbEntity
  8
0
 62
7
100
AcDbSpline
 70
8
 71
3
 72
8
 73
4
 74
0
 40
0
 40
0
 40
0
 40
0
 40
1
 40
1
 40
1
 40
1
 10
20.766088
 20
18.393833
 30
0.0
 10
20.766088
 20
18.616528
 30
0.0
 10
20.946617
 20
18.797058
 30
0.0
 10
21.169313
 20
18.797058
 30
0.0
  0
SPLINE
  5
23d
100
AcDbEntity
  8
0
 62
7
100
AcDbSpline
 70
8
 71
3
 72
8
 73
4
 74
0
 40
0
 40
0
 40
0
 40
0
 40
1
 40
1
 40
1
 40
1
 10
21.169313
 20
18.797058
 30
0.0
 10
21.392008
 20
18.797058
 30
0.0
 10
21.572537
 20
18.616528
 30
0.0
 10
21.572538
 20
18.393833
 30
0.0
  0
LWPOLYLINE
  5
23e
100
AcDbEntity
  8
0
 62
7
100
AcDbPolyline
 90
1
 70
1
 10
21.572538
 20
33.178750
 30
0.0
  0
LWPOLYLINE
  5
23f
100
AcDbEntity
  8
0
 62
7
100
AcDbPolyline
 90
1
 70
1
 10
21.572538
 20
18.393833
 30
0.0
  0
ENDSEC
  0
SECTION
  2
OBJECTS
  0
DICTIONARY
  5
C
330
0
100
AcDbDictionary
  3
ACAD_GROUP
350
D
  3
ACAD_MLINESTYLE
350
17
  0
DICTIONARY
  5
D
330
C
100
AcDbDictionary
  0
DICTIONARY
  5
1A
330
C
100
AcDbDictionary
  0
DICTIONARY
  5
17
330
C
100
AcDbDictionary
  3
STANDARD
350
18
  0
DICTIONARY
  5
19
330
C
100
AcDbDictionary
  0
ENDSEC
  0
EOF
