  0
SECTION
  2
HEADER
  9
$ACADVER
  1
AC1014
  9
$HANDSEED
  5
FFFF
  9
$MEASUREMENT
 70
     1
  0
ENDSEC
  0
SECTION
  2
TABLES
  0
TABLE
  2
VPORT
  5
8
330
0
100
AcDbSymbolTable
 70
     4
  0
VPORT
  5
2E
330
8
100
AcDbSymbolTableRecord
100
AcDbViewportTableRecord
  2
*ACTIVE
 70
     0
 10
0.0
 20
0.0
 11
1.0
 21
1.0
 12
210.0
 22
148.5
 13
0.0
 23
0.0
 14
10.0
 24
10.0
 15
10.0
 25
10.0
 16
0.0
 26
0.0
 36
1.0
 17
0.0
 27
0.0
 37
0.0
 40
341.0
 41
1.24
 42
50.0
 43
0.0
 44
0.0
 50
0.0
 51
0.0
 71
     0
 72
   100
 73
     1
 74
     3
 75
     0
 76
     0
 77
     0
 78
     0
  0
ENDTAB
  0
TABLE
  2
LTYPE
  5
5
330
0
100
AcDbSymbolTable
 70
     1
  0
LTYPE
  5
14
330
5
100
AcDbSymbolTableRecord
100
AcDbLinetypeTableRecord
  2
BYBLOCK
 70
     0
  3

 72
    65
 73
     0
 40
0.0
  0
LTYPE
  5
15
330
5
100
AcDbSymbolTableRecord
100
AcDbLinetypeTableRecord
  2
BYLAYER
 70
     0
  3

 72
    65
 73
     0
 40
0.0
  0
LTYPE
  5
16
330
5
100
AcDbSymbolTableRecord
100
AcDbLinetypeTableRecord
  2
CONTINUOUS
 70
     0
  3
Solid line
 72
    65
 73
     0
 40
0.0
  0
ENDTAB
  0
TABLE
  2
LAYER
  5
2
100
AcDbSymbolTable
 70
1
  0
LAYER
  5
50
100
AcDbSymbolTableRecord
100
AcDbLayerTableRecord
  2
0
 70
0
  6
CONTINUOUS
  0
ENDTAB
  0
TABLE
  2
STYLE
  5
3
330
0
100
AcDbSymbolTable
 70
     1
  0
STYLE
  5
11
330
3
100
AcDbSymbolTableRecord
100
AcDbTextStyleTableRecord
  2
STANDARD
 70
     0
 40
0.0
 41
1.0
 50
0.0
 71
     0
 42
2.5
  3
txt
  4

  0
ENDTAB
  0
TABLE
  2
VIEW
  5
6
330
0
100
AcDbSymbolTable
 70
     0
  0
ENDTAB
  0
TABLE
  2
UCS
  5
7
330
0
100
AcDbSymbolTable
 70
     0
  0
ENDTAB
  0
TABLE
  2
APPID
  5
9
330
0
100
AcDbSymbolTable
 70
     2
  0
APPID
  5
12
330
9
100
AcDbSymbolTableRecord
100
AcDbRegAppTableRecord
  2
ACAD
 70
     0
  0
ENDTAB
  0
TABLE
  2
DIMSTYLE
  5
A
330
0
100
AcDbSymbolTable
 70
     1
  0
DIMSTYLE
105
27
330
A
100
AcDbSymbolTableRecord
100
AcDbDimStyleTableRecord
  2
ISO-25
 70
     0
  3

  4

  5

  6

  7

 40
1.0
 41
2.5
 42
0.625
 43
3.75
 44
1.25
 45
0.0
 46
0.0
 47
0.0
 48
0.0
140
2.5
141
2.5
142
0.0
143
0.03937007874016
144
1.0
145
0.0
146
1.0
147
0.625
 71
     0
 72
     0
 73
     0
 74
     0
 75
     0
 76
     0
 77
     1
 78
     8
170
     0
171
     3
172
     1
173
     0
174
     0
175
     0
176
     0
177
     0
178
     0
270
     2
271
     2
272
     2
273
     2
274
     3
340
11
275
     0
280
     0
281
     0
282
     0
283
     0
284
     8
285
     0
286
     0
287
     3
288
     0
  0
ENDTAB
  0
TABLE
  2
BLOCK_RECORD
  5
1
330
0
100
AcDbSymbolTable
 70
     1
  0
BLOCK_RECORD
  5
1F
330
1
100
AcDbSymbolTableRecord
100
AcDbBlockTableRecord
  2
*MODEL_SPACE
  0
BLOCK_RECORD
  5
1B
330
1
100
AcDbSymbolTableRecord
100
AcDbBlockTableRecord
  2
*PAPER_SPACE
  0
ENDTAB
  0
ENDSEC
  0
SECTION
  2
BLOCKS
  0
BLOCK
  5
20
330
1F
100
AcDbEntity
  8
0
100
AcDbBlockBegin
  2
*MODEL_SPACE
 70
     0
 10
0.0
 20
0.0
 30
0.0
  3
*MODEL_SPACE
  1

  0
ENDBLK
  5
21
330
1F
100
AcDbEntity
  8
0
100
AcDbBlockEnd
  0
BLOCK
  5
1C
330
1B
100
AcDbEntity
 67
     1
  8
0
100
AcDbBlockBegin
  2
*PAPER_SPACE
  1

  0
ENDBLK
  5
1D
330
1B
100
AcDbEntity
 67
     1
  8
0
100
AcDbBlockEnd
  0
ENDSEC
  0
SECTION
  2
ENTITIES
  0
SPLINE
  5
100
100
AcDbEntity
  8
0
 62
7
100
AcDbSpline
 70
8
 71
3
 72
8
 73
4
 74
0
 40
0
 40
0
 40
0
 40
0
 40
1
 40
1
 40
1
 40
1
 10
25.201562
 20
43.931417
 30
0.0
 10
25.760029
 20
43.931417
 30
0.0
 10
26.209624
 20
43.481821
 30
0.0
 10
26.209624
 20
42.923354
 30
0.0
  0
LWPOLYLINE
  5
101
100
AcDbEntity
  8
0
 62
7
100
AcDbPolyline
 90
2
 70
0
 10
-25.201562
 20
43.931417
 30
0.0
 10
25.201562
 20
43.931417
 30
0.0
  0
SPLINE
  5
102
100
AcDbEntity
  8
0
 62
7
100
AcDbSpline
 70
8
 71
3
 72
8
 73
4
 74
0
 40
0
 40
0
 40
0
 40
0
 40
1
 40
1
 40
1
 40
1
 10
26.209624
 20
9.993312
 30
0.0
 10
26.209624
 20
9.434846
 30
0.0
 10
25.760029
 20
8.985250
 30
0.0
 10
25.201562
 20
8.985250
 30
0.0
  0
LWPOLYLINE
  5
103
100
AcDbEntity
  8
0
 62
7
100
AcDbPolyline
 90
2
 70
0
 10
26.209624
 20
42.923354
 30
0.0
 10
26.209624
 20
9.993312
 30
0.0
  0
SPLINE
  5
104
100
AcDbEntity
  8
0
 62
7
100
AcDbSpline
 70
8
 71
3
 72
8
 73
4
 74
0
 40
0
 40
0
 40
0
 40
0
 40
1
 40
1
 40
1
 40
1
 10
-25.201562
 20
8.985250
 30
0.0
 10
-25.760029
 20
8.985250
 30
0.0
 10
-26.209624
 20
9.434846
 30
0.0
 10
-26.209624
 20
9.993312
 30
0.0
  0
LWPOLYLINE
  5
105
100
AcDbEntity
  8
0
 62
7
100
AcDbPolyline
 90
2
 70
0
 10
25.201562
 20
8.985250
 30
0.0
 10
-25.201562
 20
8.985250
 30
0.0
  0
SPLINE
  5
106
100
AcDbEntity
  8
0
 62
7
100
AcDbSpline
 70
8
 71
3
 72
8
 73
4
 74
0
 40
0
 40
0
 40
0
 40
0
 40
1
 40
1
 40
1
 40
1
 10
-26.209624
 20
42.923354
 30
0.0
 10
-26.209624
 20
43.481821
 30
0.0
 10
-25.760029
 20
43.931417
 30
0.0
 10
-25.201562
 20
43.931417
 30
0.0
  0
LWPOLYLINE
  5
107
100
AcDbEntity
  8
0
 62
7
100
AcDbPolyline
 90
2
 70
0
 10
-26.209624
 20
9.993312
 30
0.0
 10
-26.209624
 20
42.923354
 30
0.0
  0
SPLINE
  5
108
100
AcDbEntity
  8
0
 62
7
100
AcDbSpline
 70
8
 71
3
 72
8
 73
4
 74
0
 40
0
 40
0
 40
0
 40
0
 40
1
 40
1
 40
1
 40
1
 10
-19.590015
 20
26.290323
 30
0.0
 10
-19.590015
 20
26.183381
 30
0.0
 10
-19.632498
 20
26.080819
 30
0.0
 10
-19.708117
 20
26.005200
 30
0.0
  0
SPLINE
  5
109
100
AcDbEntity
  8
0
 62
7
100
AcDbSpline
 70
8
 71
3
 72
8
 73
4
 74
0
 40
0
 40
0
 40
0
 40
0
 40
1
 40
1
 40
1
 40
1
 10
-19.708117
 20
26.005200
 30
0.0
 10
-19.783736
 20
25.929580
 30
0.0
 10
-19.886298
 20
25.887098
 30
0.0
 10
-19.993240
 20
25.887098
 30
0.0
  0
SPLINE
  5
10a
100
AcDbEntity
  8
0
 62
7
100
AcDbSpline
 70
8
 71
3
 72
8
 73
4
 74
0
 40
0
 40
0
 40
0
 40
0
 40
1
 40
1
 40
1
 40
1
 10
-19.993240
 20
25.887098
 30
0.0
 10
-20.100182
 20
25.887098
 30
0.0
 10
-20.202744
 20
25.929580
 30
0.0
 10
-20.278363
 20
26.005200
 30
0.0
  0
SPLINE
  5
10b
100
AcDbEntity
  8
0
 62
7
100
AcDbSpline
 70
8
 71
3
 72
8
 73
4
 74
0
 40
0
 40
0
 40
0
 40
0
 40
1
 40
1
 40
1
 40
1
 10
-20.278363
 20
26.005200
 30
0.0
 10
-20.353983
 20
26.080819
 30
0.0
 10
-20.396465
 20
26.183381
 30
0.0
 10
-20.396465
 20
26.290323
 30
0.0
  0
SPLINE
  5
10c
100
AcDbEntity
  8
0
 62
7
100
AcDbSpline
 70
8
 71
3
 72
8
 73
4
 74
0
 40
0
 40
0
 40
0
 40
0
 40
1
 40
1
 40
1
 40
1
 10
-20.396465
 20
26.290323
 30
0.0
 10
-20.396465
 20
26.397265
 30
0.0
 10
-20.353983
 20
26.499827
 30
0.0
 10
-20.278363
 20
26.575446
 30
0.0
  0
SPLINE
  5
10d
100
AcDbEntity
  8
0
 62
7
100
AcDbSpline
 70
8
 71
3
 72
8
 73
4
 74
0
 40
0
 40
0
 40
0
 40
0
 40
1
 40
1
 40
1
 40
1
 10
-20.278363
 20
26.575446
 30
0.0
 10
-20.202744
 20
26.651065
 30
0.0
 10
-20.100182
 20
26.693548
 30
0.0
 10
-19.993240
 20
26.693548
 30
0.0
  0
SPLINE
  5
10e
100
AcDbEntity
  8
0
 62
7
100
AcDbSpline
 70
8
 71
3
 72
8
 73
4
 74
0
 40
0
 40
0
 40
0
 40
0
 40
1
 40
1
 40
1
 40
1
 10
-19.993240
 20
26.693548
 30
0.0
 10
-19.886298
 20
26.693548
 30
0.0
 10
-19.783736
 20
26.651065
 30
0.0
 10
-19.708117
 20
26.575446
 30
0.0
  0
SPLINE
  5
10f
100
AcDbEntity
  8
0
 62
7
100
AcDbSpline
 70
8
 71
3
 72
8
 73
4
 74
0
 40
0
 40
0
 40
0
 40
0
 40
1
 40
1
 40
1
 40
1
 10
-19.708117
 20
26.575446
 30
0.0
 10
-19.632498
 20
26.499827
 30
0.0
 10
-19.590015
 20
26.397265
 30
0.0
 10
-19.590015
 20
26.290323
 30
0.0
  0
LWPOLYLINE
  5
110
100
AcDbEntity
  8
0
 62
7
100
AcDbPolyline
 90
1
 70
1
 10
-25.201562
 20
43.931417
 30
0.0
  0
SPLINE
  5
111
100
AcDbEntity
  8
0
 62
7
100
AcDbSpline
 70
8
 71
3
 72
8
 73
4
 74
0
 40
0
 40
0
 40
0
 40
0
 40
1
 40
1
 40
1
 40
1
 10
-17.237870
 20
26.290323
 30
0.0
 10
-17.237870
 20
26.183381
 30
0.0
 10
-17.280352
 20
26.080819
 30
0.0
 10
-17.355971
 20
26.005200
 30
0.0
  0
SPLINE
  5
112
100
AcDbEntity
  8
0
 62
7
100
AcDbSpline
 70
8
 71
3
 72
8
 73
4
 74
0
 40
0
 40
0
 40
0
 40
0
 40
1
 40
1
 40
1
 40
1
 10
-17.355971
 20
26.005200
 30
0.0
 10
-17.431591
 20
25.929580
 30
0.0
 10
-17.534153
 20
25.887098
 30
0.0
 10
-17.641095
 20
25.887098
 30
0.0
  0
SPLINE
  5
113
100
AcDbEntity
  8
0
 62
7
100
AcDbSpline
 70
8
 71
3
 72
8
 73
4
 74
0
 40
0
 40
0
 40
0
 40
0
 40
1
 40
1
 40
1
 40
1
 10
-17.641095
 20
25.887098
 30
0.0
 10
-17.748036
 20
25.887098
 30
0.0
 10
-17.850598
 20
25.929580
 30
0.0
 10
-17.926218
 20
26.005200
 30
0.0
  0
SPLINE
  5
114
100
AcDbEntity
  8
0
 62
7
100
AcDbSpline
 70
8
 71
3
 72
8
 73
4
 74
0
 40
0
 40
0
 40
0
 40
0
 40
1
 40
1
 40
1
 40
1
 10
-17.926218
 20
26.005200
 30
0.0
 10
-18.001837
 20
26.080819
 30
0.0
 10
-18.044320
 20
26.183381
 30
0.0
 10
-18.044320
 20
26.290323
 30
0.0
  0
SPLINE
  5
115
100
AcDbEntity
  8
0
 62
7
100
AcDbSpline
 70
8
 71
3
 72
8
 73
4
 74
0
 40
0
 40
0
 40
0
 40
0
 40
1
 40
1
 40
1
 40
1
 10
-18.044320
 20
26.290323
 30
0.0
 10
-18.044320
 20
26.397265
 30
0.0
 10
-18.001837
 20
26.499827
 30
0.0
 10
-17.926218
 20
26.575446
 30
0.0
  0
SPLINE
  5
116
100
AcDbEntity
  8
0
 62
7
100
AcDbSpline
 70
8
 71
3
 72
8
 73
4
 74
0
 40
0
 40
0
 40
0
 40
0
 40
1
 40
1
 40
1
 40
1
 10
-17.926218
 20
26.575446
 30
0.0
 10
-17.850598
 20
26.651065
 30
0.0
 10
-17.748036
 20
26.693548
 30
0.0
 10
-17.641095
 20
26.693548
 30
0.0
  0
SPLINE
  5
117
100
AcDbEntity
  8
0
 62
7
100
AcDbSpline
 70
8
 71
3
 72
8
 73
4
 74
0
 40
0
 40
0
 40
0
 40
0
 40
1
 40
1
 40
1
 40
1
 10
-17.641095
 20
26.693548
 30
0.0
 10
-17.534153
 20
26.693548
 30
0.0
 10
-17.431591
 20
26.651065
 30
0.0
 10
-17.355971
 20
26.575446
 30
0.0
  0
SPLINE
  5
118
100
AcDbEntity
  8
0
 62
7
100
AcDbSpline
 70
8
 71
3
 72
8
 73
4
 74
0
 40
0
 40
0
 40
0
 40
0
 40
1
 40
1
 40
1
 40
1
 10
-17.355971
 20
26.575446
 30
0.0
 10
-17.280352
 20
26.499827
 30
0.0
 10
-17.237870
 20
26.397265
 30
0.0
 10
-17.237870
 20
26.290323
 30
0.0
  0
LWPOLYLINE
  5
119
100
AcDbEntity
  8
0
 62
7
100
AcDbPolyline
 90
1
 70
1
 10
-19.590015
 20
26.290323
 30
0.0
  0
SPLINE
  5
11a
100
AcDbEntity
  8
0
 62
7
100
AcDbSpline
 70
8
 71
3
 72
8
 73
4
 74
0
 40
0
 40
0
 40
0
 40
0
 40
1
 40
1
 40
1
 40
1
 10
-14.885723
 20
26.290323
 30
0.0
 10
-14.885723
 20
26.067628
 30
0.0
 10
-15.066253
 20
25.887098
 30
0.0
 10
-15.288948
 20
25.887098
 30
0.0
  0
SPLINE
  5
11b
100
AcDbEntity
  8
0
 62
7
100
AcDbSpline
 70
8
 71
3
 72
8
 73
4
 74
0
 40
0
 40
0
 40
0
 40
0
 40
1
 40
1
 40
1
 40
1
 10
-15.288948
 20
25.887098
 30
0.0
 10
-15.395890
 20
25.887098
 30
0.0
 10
-15.498452
 20
25.929580
 30
0.0
 10
-15.574071
 20
26.005200
 30
0.0
  0
SPLINE
  5
11c
100
AcDbEntity
  8
0
 62
7
100
AcDbSpline
 70
8
 71
3
 72
8
 73
4
 74
0
 40
0
 40
0
 40
0
 40
0
 40
1
 40
1
 40
1
 40
1
 10
-15.574071
 20
26.005200
 30
0.0
 10
-15.649690
 20
26.080819
 30
0.0
 10
-15.692173
 20
26.183381
 30
0.0
 10
-15.692173
 20
26.290323
 30
0.0
  0
SPLINE
  5
11d
100
AcDbEntity
  8
0
 62
7
100
AcDbSpline
 70
8
 71
3
 72
8
 73
4
 74
0
 40
0
 40
0
 40
0
 40
0
 40
1
 40
1
 40
1
 40
1
 10
-15.692173
 20
26.290323
 30
0.0
 10
-15.692173
 20
26.397265
 30
0.0
 10
-15.649690
 20
26.499827
 30
0.0
 10
-15.574071
 20
26.575446
 30
0.0
  0
SPLINE
  5
11e
100
AcDbEntity
  8
0
 62
7
100
AcDbSpline
 70
8
 71
3
 72
8
 73
4
 74
0
 40
0
 40
0
 40
0
 40
0
 40
1
 40
1
 40
1
 40
1
 10
-15.574071
 20
26.575446
 30
0.0
 10
-15.498452
 20
26.651065
 30
0.0
 10
-15.395890
 20
26.693548
 30
0.0
 10
-15.288948
 20
26.693548
 30
0.0
  0
SPLINE
  5
11f
100
AcDbEntity
  8
0
 62
7
100
AcDbSpline
 70
8
 71
3
 72
8
 73
4
 74
0
 40
0
 40
0
 40
0
 40
0
 40
1
 40
1
 40
1
 40
1
 10
-15.288948
 20
26.693548
 30
0.0
 10
-15.182006
 20
26.693548
 30
0.0
 10
-15.079444
 20
26.651065
 30
0.0
 10
-15.003825
 20
26.575446
 30
0.0
  0
SPLINE
  5
120
100
AcDbEntity
  8
0
 62
7
100
AcDbSpline
 70
8
 71
3
 72
8
 73
4
 74
0
 40
0
 40
0
 40
0
 40
0
 40
1
 40
1
 40
1
 40
1
 10
-15.003825
 20
26.575446
 30
0.0
 10
-14.928205
 20
26.499827
 30
0.0
 10
-14.885723
 20
26.397265
 30
0.0
 10
-14.885723
 20
26.290323
 30
0.0
  0
LWPOLYLINE
  5
121
100
AcDbEntity
  8
0
 62
7
100
AcDbPolyline
 90
1
 70
1
 10
-17.237870
 20
26.290323
 30
0.0
  0
SPLINE
  5
122
100
AcDbEntity
  8
0
 62
7
100
AcDbSpline
 70
8
 71
3
 72
8
 73
4
 74
0
 40
0
 40
0
 40
0
 40
0
 40
1
 40
1
 40
1
 40
1
 10
-12.533577
 20
26.290323
 30
0.0
 10
-12.533577
 20
26.183381
 30
0.0
 10
-12.576060
 20
26.080819
 30
0.0
 10
-12.651679
 20
26.005200
 30
0.0
  0
SPLINE
  5
123
100
AcDbEntity
  8
0
 62
7
100
AcDbSpline
 70
8
 71
3
 72
8
 73
4
 74
0
 40
0
 40
0
 40
0
 40
0
 40
1
 40
1
 40
1
 40
1
 10
-12.651679
 20
26.005200
 30
0.0
 10
-12.727298
 20
25.929580
 30
0.0
 10
-12.829860
 20
25.887098
 30
0.0
 10
-12.936802
 20
25.887098
 30
0.0
  0
SPLINE
  5
124
100
AcDbEntity
  8
0
 62
7
100
AcDbSpline
 70
8
 71
3
 72
8
 73
4
 74
0
 40
0
 40
0
 40
0
 40
0
 40
1
 40
1
 40
1
 40
1
 10
-12.936802
 20
25.887098
 30
0.0
 10
-13.043744
 20
25.887098
 30
0.0
 10
-13.146306
 20
25.929580
 30
0.0
 10
-13.221925
 20
26.005200
 30
0.0
  0
SPLINE
  5
125
100
AcDbEntity
  8
0
 62
7
100
AcDbSpline
 70
8
 71
3
 72
8
 73
4
 74
0
 40
0
 40
0
 40
0
 40
0
 40
1
 40
1
 40
1
 40
1
 10
-13.221925
 20
26.005200
 30
0.0
 10
-13.297545
 20
26.080819
 30
0.0
 10
-13.340027
 20
26.183381
 30
0.0
 10
-13.340027
 20
26.290323
 30
0.0
  0
SPLINE
  5
126
100
AcDbEntity
  8
0
 62
7
100
AcDbSpline
 70
8
 71
3
 72
8
 73
4
 74
0
 40
0
 40
0
 40
0
 40
0
 40
1
 40
1
 40
1
 40
1
 10
-13.340027
 20
26.290323
 30
0.0
 10
-13.340027
 20
26.397265
 30
0.0
 10
-13.297545
 20
26.499827
 30
0.0
 10
-13.221925
 20
26.575446
 30
0.0
  0
SPLINE
  5
127
100
AcDbEntity
  8
0
 62
7
100
AcDbSpline
 70
8
 71
3
 72
8
 73
4
 74
0
 40
0
 40
0
 40
0
 40
0
 40
1
 40
1
 40
1
 40
1
 10
-13.221925
 20
26.575446
 30
0.0
 10
-13.146306
 20
26.651066
 30
0.0
 10
-13.043744
 20
26.693548
 30
0.0
 10
-12.936802
 20
26.693548
 30
0.0
  0
SPLINE
  5
128
100
AcDbEntity
  8
0
 62
7
100
AcDbSpline
 70
8
 71
3
 72
8
 73
4
 74
0
 40
0
 40
0
 40
0
 40
0
 40
1
 40
1
 40
1
 40
1
 10
-12.936802
 20
26.693548
 30
0.0
 10
-12.829860
 20
26.693548
 30
0.0
 10
-12.727298
 20
26.651065
 30
0.0
 10
-12.651679
 20
26.575446
 30
0.0
  0
SPLINE
  5
129
100
AcDbEntity
  8
0
 62
7
100
AcDbSpline
 70
8
 71
3
 72
8
 73
4
 74
0
 40
0
 40
0
 40
0
 40
0
 40
1
 40
1
 40
1
 40
1
 10
-12.651679
 20
26.575446
 30
0.0
 10
-12.576060
 20
26.499827
 30
0.0
 10
-12.533577
 20
26.397265
 30
0.0
 10
-12.533577
 20
26.290323
 30
0.0
  0
LWPOLYLINE
  5
12a
100
AcDbEntity
  8
0
 62
7
100
AcDbPolyline
 90
1
 70
1
 10
-14.885723
 20
26.290323
 30
0.0
  0
SPLINE
  5
12b
100
AcDbEntity
  8
0
 62
7
100
AcDbSpline
 70
8
 71
3
 72
8
 73
4
 74
0
 40
0
 40
0
 40
0
 40
0
 40
1
 40
1
 40
1
 40
1
 10
-10.181432
 20
26.290323
 30
0.0
 10
-10.181432
 20
26.183381
 30
0.0
 10
-10.223914
 20
26.080819
 30
0.0
 10
-10.299533
 20
26.005200
 30
0.0
  0
SPLINE
  5
12c
100
AcDbEntity
  8
0
 62
7
100
AcDbSpline
 70
8
 71
3
 72
8
 73
4
 74
0
 40
0
 40
0
 40
0
 40
0
 40
1
 40
1
 40
1
 40
1
 10
-10.299533
 20
26.005200
 30
0.0
 10
-10.375153
 20
25.929580
 30
0.0
 10
-10.477715
 20
25.887098
 30
0.0
 10
-10.584657
 20
25.887098
 30
0.0
  0
SPLINE
  5
12d
100
AcDbEntity
  8
0
 62
7
100
AcDbSpline
 70
8
 71
3
 72
8
 73
4
 74
0
 40
0
 40
0
 40
0
 40
0
 40
1
 40
1
 40
1
 40
1
 10
-10.584657
 20
25.887098
 30
0.0
 10
-10.691598
 20
25.887098
 30
0.0
 10
-10.794160
 20
25.929580
 30
0.0
 10
-10.869780
 20
26.005200
 30
0.0
  0
SPLINE
  5
12e
100
AcDbEntity
  8
0
 62
7
100
AcDbSpline
 70
8
 71
3
 72
8
 73
4
 74
0
 40
0
 40
0
 40
0
 40
0
 40
1
 40
1
 40
1
 40
1
 10
-10.869780
 20
26.005200
 30
0.0
 10
-10.945399
 20
26.080819
 30
0.0
 10
-10.987882
 20
26.183381
 30
0.0
 10
-10.987882
 20
26.290323
 30
0.0
  0
SPLINE
  5
12f
100
AcDbEntity
  8
0
 62
7
100
AcDbSpline
 70
8
 71
3
 72
8
 73
4
 74
0
 40
0
 40
0
 40
0
 40
0
 40
1
 40
1
 40
1
 40
1
 10
-10.987882
 20
26.290323
 30
0.0
 10
-10.987882
 20
26.397265
 30
0.0
 10
-10.945399
 20
26.499827
 30
0.0
 10
-10.869780
 20
26.575446
 30
0.0
  0
SPLINE
  5
130
100
AcDbEntity
  8
0
 62
7
100
AcDbSpline
 70
8
 71
3
 72
8
 73
4
 74
0
 40
0
 40
0
 40
0
 40
0
 40
1
 40
1
 40
1
 40
1
 10
-10.869780
 20
26.575446
 30
0.0
 10
-10.794160
 20
26.651065
 30
0.0
 10
-10.691598
 20
26.693548
 30
0.0
 10
-10.584657
 20
26.693548
 30
0.0
  0
SPLINE
  5
131
100
AcDbEntity
  8
0
 62
7
100
AcDbSpline
 70
8
 71
3
 72
8
 73
4
 74
0
 40
0
 40
0
 40
0
 40
0
 40
1
 40
1
 40
1
 40
1
 10
-10.584657
 20
26.693548
 30
0.0
 10
-10.477715
 20
26.693548
 30
0.0
 10
-10.375153
 20
26.651065
 30
0.0
 10
-10.299533
 20
26.575446
 30
0.0
  0
SPLINE
  5
132
100
AcDbEntity
  8
0
 62
7
100
AcDbSpline
 70
8
 71
3
 72
8
 73
4
 74
0
 40
0
 40
0
 40
0
 40
0
 40
1
 40
1
 40
1
 40
1
 10
-10.299533
 20
26.575446
 30
0.0
 10
-10.223914
 20
26.499827
 30
0.0
 10
-10.181432
 20
26.397265
 30
0.0
 10
-10.181432
 20
26.290323
 30
0.0
  0
LWPOLYLINE
  5
133
100
AcDbEntity
  8
0
 62
7
100
AcDbPolyline
 90
1
 70
1
 10
-12.533577
 20
26.290323
 30
0.0
  0
SPLINE
  5
134
100
AcDbEntity
  8
0
 62
7
100
AcDbSpline
 70
8
 71
3
 72
8
 73
4
 74
0
 40
0
 40
0
 40
0
 40
0
 40
1
 40
1
 40
1
 40
1
 10
-7.829285
 20
26.290323
 30
0.0
 10
-7.829285
 20
26.183381
 30
0.0
 10
-7.871768
 20
26.080819
 30
0.0
 10
-7.947387
 20
26.005200
 30
0.0
  0
SPLINE
  5
135
100
AcDbEntity
  8
0
 62
7
100
AcDbSpline
 70
8
 71
3
 72
8
 73
4
 74
0
 40
0
 40
0
 40
0
 40
0
 40
1
 40
1
 40
1
 40
1
 10
-7.947387
 20
26.005200
 30
0.0
 10
-8.023007
 20
25.929580
 30
0.0
 10
-8.125568
 20
25.887098
 30
0.0
 10
-8.232510
 20
25.887098
 30
0.0
  0
SPLINE
  5
136
100
AcDbEntity
  8
0
 62
7
100
AcDbSpline
 70
8
 71
3
 72
8
 73
4
 74
0
 40
0
 40
0
 40
0
 40
0
 40
1
 40
1
 40
1
 40
1
 10
-8.232510
 20
25.887098
 30
0.0
 10
-8.455205
 20
25.887098
 30
0.0
 10
-8.635735
 20
26.067628
 30
0.0
 10
-8.635735
 20
26.290323
 30
0.0
  0
SPLINE
  5
137
100
AcDbEntity
  8
0
 62
7
100
AcDbSpline
 70
8
 71
3
 72
8
 73
4
 74
0
 40
0
 40
0
 40
0
 40
0
 40
1
 40
1
 40
1
 40
1
 10
-8.635735
 20
26.290323
 30
0.0
 10
-8.635735
 20
26.397265
 30
0.0
 10
-8.593253
 20
26.499827
 30
0.0
 10
-8.517634
 20
26.575446
 30
0.0
  0
SPLINE
  5
138
100
AcDbEntity
  8
0
 62
7
100
AcDbSpline
 70
8
 71
3
 72
8
 73
4
 74
0
 40
0
 40
0
 40
0
 40
0
 40
1
 40
1
 40
1
 40
1
 10
-8.517634
 20
26.575446
 30
0.0
 10
-8.442014
 20
26.651065
 30
0.0
 10
-8.339452
 20
26.693548
 30
0.0
 10
-8.232510
 20
26.693548
 30
0.0
  0
SPLINE
  5
139
100
AcDbEntity
  8
0
 62
7
100
AcDbSpline
 70
8
 71
3
 72
8
 73
4
 74
0
 40
0
 40
0
 40
0
 40
0
 40
1
 40
1
 40
1
 40
1
 10
-8.232510
 20
26.693548
 30
0.0
 10
-8.125568
 20
26.693548
 30
0.0
 10
-8.023007
 20
26.651065
 30
0.0
 10
-7.947387
 20
26.575446
 30
0.0
  0
SPLINE
  5
13a
100
AcDbEntity
  8
0
 62
7
100
AcDbSpline
 70
8
 71
3
 72
8
 73
4
 74
0
 40
0
 40
0
 40
0
 40
0
 40
1
 40
1
 40
1
 40
1
 10
-7.947387
 20
26.575446
 30
0.0
 10
-7.871768
 20
26.499827
 30
0.0
 10
-7.829285
 20
26.397265
 30
0.0
 10
-7.829285
 20
26.290323
 30
0.0
  0
LWPOLYLINE
  5
13b
100
AcDbEntity
  8
0
 62
7
100
AcDbPolyline
 90
1
 70
1
 10
-10.181432
 20
26.290323
 30
0.0
  0
SPLINE
  5
13c
100
AcDbEntity
  8
0
 62
7
100
AcDbSpline
 70
8
 71
3
 72
8
 73
4
 74
0
 40
0
 40
0
 40
0
 40
0
 40
1
 40
1
 40
1
 40
1
 10
-5.477140
 20
26.290323
 30
0.0
 10
-5.477140
 20
26.183381
 30
0.0
 10
-5.519622
 20
26.080819
 30
0.0
 10
-5.595241
 20
26.005200
 30
0.0
  0
SPLINE
  5
13d
100
AcDbEntity
  8
0
 62
7
100
AcDbSpline
 70
8
 71
3
 72
8
 73
4
 74
0
 40
0
 40
0
 40
0
 40
0
 40
1
 40
1
 40
1
 40
1
 10
-5.595241
 20
26.005200
 30
0.0
 10
-5.670861
 20
25.929580
 30
0.0
 10
-5.773423
 20
25.887098
 30
0.0
 10
-5.880365
 20
25.887098
 30
0.0
  0
SPLINE
  5
13e
100
AcDbEntity
  8
0
 62
7
100
AcDbSpline
 70
8
 71
3
 72
8
 73
4
 74
0
 40
0
 40
0
 40
0
 40
0
 40
1
 40
1
 40
1
 40
1
 10
-5.880365
 20
25.887098
 30
0.0
 10
-5.987307
 20
25.887098
 30
0.0
 10
-6.089868
 20
25.929580
 30
0.0
 10
-6.165488
 20
26.005200
 30
0.0
  0
SPLINE
  5
13f
100
AcDbEntity
  8
0
 62
7
100
AcDbSpline
 70
8
 71
3
 72
8
 73
4
 74
0
 40
0
 40
0
 40
0
 40
0
 40
1
 40
1
 40
1
 40
1
 10
-6.165488
 20
26.005200
 30
0.0
 10
-6.241107
 20
26.080819
 30
0.0
 10
-6.283590
 20
26.183381
 30
0.0
 10
-6.283590
 20
26.290323
 30
0.0
  0
SPLINE
  5
140
100
AcDbEntity
  8
0
 62
7
100
AcDbSpline
 70
8
 71
3
 72
8
 73
4
 74
0
 40
0
 40
0
 40
0
 40
0
 40
1
 40
1
 40
1
 40
1
 10
-6.283590
 20
26.290323
 30
0.0
 10
-6.283590
 20
26.397265
 30
0.0
 10
-6.241107
 20
26.499827
 30
0.0
 10
-6.165488
 20
26.575446
 30
0.0
  0
SPLINE
  5
141
100
AcDbEntity
  8
0
 62
7
100
AcDbSpline
 70
8
 71
3
 72
8
 73
4
 74
0
 40
0
 40
0
 40
0
 40
0
 40
1
 40
1
 40
1
 40
1
 10
-6.165488
 20
26.575446
 30
0.0
 10
-6.089868
 20
26.651065
 30
0.0
 10
-5.987307
 20
26.693548
 30
0.0
 10
-5.880365
 20
26.693548
 30
0.0
  0
SPLINE
  5
142
100
AcDbEntity
  8
0
 62
7
100
AcDbSpline
 70
8
 71
3
 72
8
 73
4
 74
0
 40
0
 40
0
 40
0
 40
0
 40
1
 40
1
 40
1
 40
1
 10
-5.880365
 20
26.693548
 30
0.0
 10
-5.773423
 20
26.693548
 30
0.0
 10
-5.670861
 20
26.651065
 30
0.0
 10
-5.595241
 20
26.575446
 30
0.0
  0
SPLINE
  5
143
100
AcDbEntity
  8
0
 62
7
100
AcDbSpline
 70
8
 71
3
 72
8
 73
4
 74
0
 40
0
 40
0
 40
0
 40
0
 40
1
 40
1
 40
1
 40
1
 10
-5.595241
 20
26.575446
 30
0.0
 10
-5.519622
 20
26.499827
 30
0.0
 10
-5.477140
 20
26.397265
 30
0.0
 10
-5.477140
 20
26.290323
 30
0.0
  0
LWPOLYLINE
  5
144
100
AcDbEntity
  8
0
 62
7
100
AcDbPolyline
 90
1
 70
1
 10
-7.829285
 20
26.290323
 30
0.0
  0
SPLINE
  5
145
100
AcDbEntity
  8
0
 62
7
100
AcDbSpline
 70
8
 71
3
 72
8
 73
4
 74
0
 40
0
 40
0
 40
0
 40
0
 40
1
 40
1
 40
1
 40
1
 10
-3.124994
 20
26.290323
 30
0.0
 10
-3.124994
 20
26.183381
 30
0.0
 10
-3.167476
 20
26.080819
 30
0.0
 10
-3.243096
 20
26.005200
 30
0.0
  0
SPLINE
  5
146
100
AcDbEntity
  8
0
 62
7
100
AcDbSpline
 70
8
 71
3
 72
8
 73
4
 74
0
 40
0
 40
0
 40
0
 40
0
 40
1
 40
1
 40
1
 40
1
 10
-3.243096
 20
26.005200
 30
0.0
 10
-3.318715
 20
25.929580
 30
0.0
 10
-3.421277
 20
25.887098
 30
0.0
 10
-3.528219
 20
25.887098
 30
0.0
  0
SPLINE
  5
147
100
AcDbEntity
  8
0
 62
7
100
AcDbSpline
 70
8
 71
3
 72
8
 73
4
 74
0
 40
0
 40
0
 40
0
 40
0
 40
1
 40
1
 40
1
 40
1
 10
-3.528219
 20
25.887098
 30
0.0
 10
-3.635161
 20
25.887098
 30
0.0
 10
-3.737723
 20
25.929580
 30
0.0
 10
-3.813342
 20
26.005200
 30
0.0
  0
SPLINE
  5
148
100
AcDbEntity
  8
0
 62
7
100
AcDbSpline
 70
8
 71
3
 72
8
 73
4
 74
0
 40
0
 40
0
 40
0
 40
0
 40
1
 40
1
 40
1
 40
1
 10
-3.813342
 20
26.005200
 30
0.0
 10
-3.888961
 20
26.080819
 30
0.0
 10
-3.931444
 20
26.183381
 30
0.0
 10
-3.931444
 20
26.290323
 30
0.0
  0
SPLINE
  5
149
100
AcDbEntity
  8
0
 62
7
100
AcDbSpline
 70
8
 71
3
 72
8
 73
4
 74
0
 40
0
 40
0
 40
0
 40
0
 40
1
 40
1
 40
1
 40
1
 10
-3.931444
 20
26.290323
 30
0.0
 10
-3.931444
 20
26.397265
 30
0.0
 10
-3.888961
 20
26.499827
 30
0.0
 10
-3.813342
 20
26.575446
 30
0.0
  0
SPLINE
  5
14a
100
AcDbEntity
  8
0
 62
7
100
AcDbSpline
 70
8
 71
3
 72
8
 73
4
 74
0
 40
0
 40
0
 40
0
 40
0
 40
1
 40
1
 40
1
 40
1
 10
-3.813342
 20
26.575446
 30
0.0
 10
-3.737723
 20
26.651065
 30
0.0
 10
-3.635161
 20
26.693548
 30
0.0
 10
-3.528219
 20
26.693548
 30
0.0
  0
SPLINE
  5
14b
100
AcDbEntity
  8
0
 62
7
100
AcDbSpline
 70
8
 71
3
 72
8
 73
4
 74
0
 40
0
 40
0
 40
0
 40
0
 40
1
 40
1
 40
1
 40
1
 10
-3.528219
 20
26.693548
 30
0.0
 10
-3.421277
 20
26.693548
 30
0.0
 10
-3.318715
 20
26.651065
 30
0.0
 10
-3.243096
 20
26.575446
 30
0.0
  0
SPLINE
  5
14c
100
AcDbEntity
  8
0
 62
7
100
AcDbSpline
 70
8
 71
3
 72
8
 73
4
 74
0
 40
0
 40
0
 40
0
 40
0
 40
1
 40
1
 40
1
 40
1
 10
-3.243096
 20
26.575446
 30
0.0
 10
-3.167476
 20
26.499827
 30
0.0
 10
-3.124994
 20
26.397265
 30
0.0
 10
-3.124994
 20
26.290323
 30
0.0
  0
LWPOLYLINE
  5
14d
100
AcDbEntity
  8
0
 62
7
100
AcDbPolyline
 90
1
 70
1
 10
-5.477140
 20
26.290323
 30
0.0
  0
SPLINE
  5
14e
100
AcDbEntity
  8
0
 62
7
100
AcDbSpline
 70
8
 71
3
 72
8
 73
4
 74
0
 40
0
 40
0
 40
0
 40
0
 40
1
 40
1
 40
1
 40
1
 10
-0.772848
 20
26.290323
 30
0.0
 10
-0.772848
 20
26.183381
 30
0.0
 10
-0.815330
 20
26.080819
 30
0.0
 10
-0.890950
 20
26.005200
 30
0.0
  0
SPLINE
  5
14f
100
AcDbEntity
  8
0
 62
7
100
AcDbSpline
 70
8
 71
3
 72
8
 73
4
 74
0
 40
0
 40
0
 40
0
 40
0
 40
1
 40
1
 40
1
 40
1
 10
-0.890950
 20
26.005200
 30
0.0
 10
-0.966569
 20
25.929580
 30
0.0
 10
-1.069131
 20
25.887098
 30
0.0
 10
-1.176073
 20
25.887098
 30
0.0
  0
SPLINE
  5
150
100
AcDbEntity
  8
0
 62
7
100
AcDbSpline
 70
8
 71
3
 72
8
 73
4
 74
0
 40
0
 40
0
 40
0
 40
0
 40
1
 40
1
 40
1
 40
1
 10
-1.176073
 20
25.887098
 30
0.0
 10
-1.283015
 20
25.887098
 30
0.0
 10
-1.385577
 20
25.929580
 30
0.0
 10
-1.461196
 20
26.005200
 30
0.0
  0
SPLINE
  5
151
100
AcDbEntity
  8
0
 62
7
100
AcDbSpline
 70
8
 71
3
 72
8
 73
4
 74
0
 40
0
 40
0
 40
0
 40
0
 40
1
 40
1
 40
1
 40
1
 10
-1.461196
 20
26.005200
 30
0.0
 10
-1.536815
 20
26.080819
 30
0.0
 10
-1.579298
 20
26.183381
 30
0.0
 10
-1.579298
 20
26.290323
 30
0.0
  0
SPLINE
  5
152
100
AcDbEntity
  8
0
 62
7
100
AcDbSpline
 70
8
 71
3
 72
8
 73
4
 74
0
 40
0
 40
0
 40
0
 40
0
 40
1
 40
1
 40
1
 40
1
 10
-1.579298
 20
26.290323
 30
0.0
 10
-1.579298
 20
26.397265
 30
0.0
 10
-1.536815
 20
26.499827
 30
0.0
 10
-1.461196
 20
26.575446
 30
0.0
  0
SPLINE
  5
153
100
AcDbEntity
  8
0
 62
7
100
AcDbSpline
 70
8
 71
3
 72
8
 73
4
 74
0
 40
0
 40
0
 40
0
 40
0
 40
1
 40
1
 40
1
 40
1
 10
-1.461196
 20
26.575446
 30
0.0
 10
-1.385577
 20
26.651065
 30
0.0
 10
-1.283015
 20
26.693548
 30
0.0
 10
-1.176073
 20
26.693548
 30
0.0
  0
SPLINE
  5
154
100
AcDbEntity
  8
0
 62
7
100
AcDbSpline
 70
8
 71
3
 72
8
 73
4
 74
0
 40
0
 40
0
 40
0
 40
0
 40
1
 40
1
 40
1
 40
1
 10
-1.176073
 20
26.693548
 30
0.0
 10
-1.069131
 20
26.693548
 30
0.0
 10
-0.966569
 20
26.651065
 30
0.0
 10
-0.890950
 20
26.575446
 30
0.0
  0
SPLINE
  5
155
100
AcDbEntity
  8
0
 62
7
100
AcDbSpline
 70
8
 71
3
 72
8
 73
4
 74
0
 40
0
 40
0
 40
0
 40
0
 40
1
 40
1
 40
1
 40
1
 10
-0.890950
 20
26.575446
 30
0.0
 10
-0.815330
 20
26.499827
 30
0.0
 10
-0.772848
 20
26.397265
 30
0.0
 10
-0.772848
 20
26.290323
 30
0.0
  0
LWPOLYLINE
  5
156
100
AcDbEntity
  8
0
 62
7
100
AcDbPolyline
 90
1
 70
1
 10
-3.124994
 20
26.290323
 30
0.0
  0
SPLINE
  5
157
100
AcDbEntity
  8
0
 62
7
100
AcDbSpline
 70
8
 71
3
 72
8
 73
4
 74
0
 40
0
 40
0
 40
0
 40
0
 40
1
 40
1
 40
1
 40
1
 10
1.579298
 20
26.290323
 30
0.0
 10
1.579298
 20
26.183381
 30
0.0
 10
1.536815
 20
26.080819
 30
0.0
 10
1.461196
 20
26.005200
 30
0.0
  0
SPLINE
  5
158
100
AcDbEntity
  8
0
 62
7
100
AcDbSpline
 70
8
 71
3
 72
8
 73
4
 74
0
 40
0
 40
0
 40
0
 40
0
 40
1
 40
1
 40
1
 40
1
 10
1.461196
 20
26.005200
 30
0.0
 10
1.385577
 20
25.929580
 30
0.0
 10
1.283015
 20
25.887098
 30
0.0
 10
1.176073
 20
25.887098
 30
0.0
  0
SPLINE
  5
159
100
AcDbEntity
  8
0
 62
7
100
AcDbSpline
 70
8
 71
3
 72
8
 73
4
 74
0
 40
0
 40
0
 40
0
 40
0
 40
1
 40
1
 40
1
 40
1
 10
1.176073
 20
25.887098
 30
0.0
 10
1.069131
 20
25.887098
 30
0.0
 10
0.966569
 20
25.929580
 30
0.0
 10
0.890950
 20
26.005200
 30
0.0
  0
SPLINE
  5
15a
100
AcDbEntity
  8
0
 62
7
100
AcDbSpline
 70
8
 71
3
 72
8
 73
4
 74
0
 40
0
 40
0
 40
0
 40
0
 40
1
 40
1
 40
1
 40
1
 10
0.890950
 20
26.005200
 30
0.0
 10
0.815330
 20
26.080819
 30
0.0
 10
0.772848
 20
26.183381
 30
0.0
 10
0.772848
 20
26.290323
 30
0.0
  0
SPLINE
  5
15b
100
AcDbEntity
  8
0
 62
7
100
AcDbSpline
 70
8
 71
3
 72
8
 73
4
 74
0
 40
0
 40
0
 40
0
 40
0
 40
1
 40
1
 40
1
 40
1
 10
0.772848
 20
26.290323
 30
0.0
 10
0.772848
 20
26.397265
 30
0.0
 10
0.815330
 20
26.499827
 30
0.0
 10
0.890950
 20
26.575446
 30
0.0
  0
SPLINE
  5
15c
100
AcDbEntity
  8
0
 62
7
100
AcDbSpline
 70
8
 71
3
 72
8
 73
4
 74
0
 40
0
 40
0
 40
0
 40
0
 40
1
 40
1
 40
1
 40
1
 10
0.890950
 20
26.575446
 30
0.0
 10
0.966569
 20
26.651065
 30
0.0
 10
1.069131
 20
26.693548
 30
0.0
 10
1.176073
 20
26.693548
 30
0.0
  0
SPLINE
  5
15d
100
AcDbEntity
  8
0
 62
7
100
AcDbSpline
 70
8
 71
3
 72
8
 73
4
 74
0
 40
0
 40
0
 40
0
 40
0
 40
1
 40
1
 40
1
 40
1
 10
1.176073
 20
26.693548
 30
0.0
 10
1.283015
 20
26.693548
 30
0.0
 10
1.385577
 20
26.651065
 30
0.0
 10
1.461196
 20
26.575446
 30
0.0
  0
SPLINE
  5
15e
100
AcDbEntity
  8
0
 62
7
100
AcDbSpline
 70
8
 71
3
 72
8
 73
4
 74
0
 40
0
 40
0
 40
0
 40
0
 40
1
 40
1
 40
1
 40
1
 10
1.461196
 20
26.575446
 30
0.0
 10
1.536815
 20
26.499827
 30
0.0
 10
1.579298
 20
26.397265
 30
0.0
 10
1.579298
 20
26.290323
 30
0.0
  0
LWPOLYLINE
  5
15f
100
AcDbEntity
  8
0
 62
7
100
AcDbPolyline
 90
1
 70
1
 10
-0.772848
 20
26.290323
 30
0.0
  0
SPLINE
  5
160
100
AcDbEntity
  8
0
 62
7
100
AcDbSpline
 70
8
 71
3
 72
8
 73
4
 74
0
 40
0
 40
0
 40
0
 40
0
 40
1
 40
1
 40
1
 40
1
 10
3.931444
 20
26.290323
 30
0.0
 10
3.931444
 20
26.183381
 30
0.0
 10
3.888961
 20
26.080819
 30
0.0
 10
3.813342
 20
26.005200
 30
0.0
  0
SPLINE
  5
161
100
AcDbEntity
  8
0
 62
7
100
AcDbSpline
 70
8
 71
3
 72
8
 73
4
 74
0
 40
0
 40
0
 40
0
 40
0
 40
1
 40
1
 40
1
 40
1
 10
3.813342
 20
26.005200
 30
0.0
 10
3.737723
 20
25.929580
 30
0.0
 10
3.635161
 20
25.887098
 30
0.0
 10
3.528219
 20
25.887098
 30
0.0
  0
SPLINE
  5
162
100
AcDbEntity
  8
0
 62
7
100
AcDbSpline
 70
8
 71
3
 72
8
 73
4
 74
0
 40
0
 40
0
 40
0
 40
0
 40
1
 40
1
 40
1
 40
1
 10
3.528219
 20
25.887098
 30
0.0
 10
3.421277
 20
25.887098
 30
0.0
 10
3.318715
 20
25.929580
 30
0.0
 10
3.243096
 20
26.005200
 30
0.0
  0
SPLINE
  5
163
100
AcDbEntity
  8
0
 62
7
100
AcDbSpline
 70
8
 71
3
 72
8
 73
4
 74
0
 40
0
 40
0
 40
0
 40
0
 40
1
 40
1
 40
1
 40
1
 10
3.243096
 20
26.005200
 30
0.0
 10
3.167476
 20
26.080819
 30
0.0
 10
3.124994
 20
26.183381
 30
0.0
 10
3.124994
 20
26.290323
 30
0.0
  0
SPLINE
  5
164
100
AcDbEntity
  8
0
 62
7
100
AcDbSpline
 70
8
 71
3
 72
8
 73
4
 74
0
 40
0
 40
0
 40
0
 40
0
 40
1
 40
1
 40
1
 40
1
 10
3.124994
 20
26.290323
 30
0.0
 10
3.124994
 20
26.397265
 30
0.0
 10
3.167476
 20
26.499827
 30
0.0
 10
3.243096
 20
26.575446
 30
0.0
  0
SPLINE
  5
165
100
AcDbEntity
  8
0
 62
7
100
AcDbSpline
 70
8
 71
3
 72
8
 73
4
 74
0
 40
0
 40
0
 40
0
 40
0
 40
1
 40
1
 40
1
 40
1
 10
3.243096
 20
26.575446
 30
0.0
 10
3.318715
 20
26.651065
 30
0.0
 10
3.421277
 20
26.693548
 30
0.0
 10
3.528219
 20
26.693548
 30
0.0
  0
SPLINE
  5
166
100
AcDbEntity
  8
0
 62
7
100
AcDbSpline
 70
8
 71
3
 72
8
 73
4
 74
0
 40
0
 40
0
 40
0
 40
0
 40
1
 40
1
 40
1
 40
1
 10
3.528219
 20
26.693548
 30
0.0
 10
3.635161
 20
26.693548
 30
0.0
 10
3.737723
 20
26.651065
 30
0.0
 10
3.813342
 20
26.575446
 30
0.0
  0
SPLINE
  5
167
100
AcDbEntity
  8
0
 62
7
100
AcDbSpline
 70
8
 71
3
 72
8
 73
4
 74
0
 40
0
 40
0
 40
0
 40
0
 40
1
 40
1
 40
1
 40
1
 10
3.813342
 20
26.575446
 30
0.0
 10
3.888961
 20
26.499827
 30
0.0
 10
3.931444
 20
26.397265
 30
0.0
 10
3.931444
 20
26.290323
 30
0.0
  0
LWPOLYLINE
  5
168
100
AcDbEntity
  8
0
 62
7
100
AcDbPolyline
 90
1
 70
1
 10
1.579298
 20
26.290323
 30
0.0
  0
SPLINE
  5
169
100
AcDbEntity
  8
0
 62
7
100
AcDbSpline
 70
8
 71
3
 72
8
 73
4
 74
0
 40
0
 40
0
 40
0
 40
0
 40
1
 40
1
 40
1
 40
1
 10
6.283590
 20
26.290323
 30
0.0
 10
6.283590
 20
26.067628
 30
0.0
 10
6.103060
 20
25.887098
 30
0.0
 10
5.880365
 20
25.887098
 30
0.0
  0
SPLINE
  5
16a
100
AcDbEntity
  8
0
 62
7
100
AcDbSpline
 70
8
 71
3
 72
8
 73
4
 74
0
 40
0
 40
0
 40
0
 40
0
 40
1
 40
1
 40
1
 40
1
 10
5.880365
 20
25.887098
 30
0.0
 10
5.773423
 20
25.887098
 30
0.0
 10
5.670861
 20
25.929580
 30
0.0
 10
5.595241
 20
26.005200
 30
0.0
  0
SPLINE
  5
16b
100
AcDbEntity
  8
0
 62
7
100
AcDbSpline
 70
8
 71
3
 72
8
 73
4
 74
0
 40
0
 40
0
 40
0
 40
0
 40
1
 40
1
 40
1
 40
1
 10
5.595241
 20
26.005200
 30
0.0
 10
5.519622
 20
26.080819
 30
0.0
 10
5.477140
 20
26.183381
 30
0.0
 10
5.477140
 20
26.290323
 30
0.0
  0
SPLINE
  5
16c
100
AcDbEntity
  8
0
 62
7
100
AcDbSpline
 70
8
 71
3
 72
8
 73
4
 74
0
 40
0
 40
0
 40
0
 40
0
 40
1
 40
1
 40
1
 40
1
 10
5.477140
 20
26.290323
 30
0.0
 10
5.477140
 20
26.397265
 30
0.0
 10
5.519622
 20
26.499827
 30
0.0
 10
5.595241
 20
26.575446
 30
0.0
  0
SPLINE
  5
16d
100
AcDbEntity
  8
0
 62
7
100
AcDbSpline
 70
8
 71
3
 72
8
 73
4
 74
0
 40
0
 40
0
 40
0
 40
0
 40
1
 40
1
 40
1
 40
1
 10
5.595241
 20
26.575446
 30
0.0
 10
5.670861
 20
26.651065
 30
0.0
 10
5.773423
 20
26.693548
 30
0.0
 10
5.880365
 20
26.693548
 30
0.0
  0
SPLINE
  5
16e
100
AcDbEntity
  8
0
 62
7
100
AcDbSpline
 70
8
 71
3
 72
8
 73
4
 74
0
 40
0
 40
0
 40
0
 40
0
 40
1
 40
1
 40
1
 40
1
 10
5.880365
 20
26.693548
 30
0.0
 10
5.987307
 20
26.693548
 30
0.0
 10
6.089868
 20
26.651065
 30
0.0
 10
6.165488
 20
26.575446
 30
0.0
  0
SPLINE
  5
16f
100
AcDbEntity
  8
0
 62
7
100
AcDbSpline
 70
8
 71
3
 72
8
 73
4
 74
0
 40
0
 40
0
 40
0
 40
0
 40
1
 40
1
 40
1
 40
1
 10
6.165488
 20
26.575446
 30
0.0
 10
6.241107
 20
26.499827
 30
0.0
 10
6.283590
 20
26.397265
 30
0.0
 10
6.283590
 20
26.290323
 30
0.0
  0
LWPOLYLINE
  5
170
100
AcDbEntity
  8
0
 62
7
100
AcDbPolyline
 90
1
 70
1
 10
3.931444
 20
26.290323
 30
0.0
  0
SPLINE
  5
171
100
AcDbEntity
  8
0
 62
7
100
AcDbSpline
 70
8
 71
3
 72
8
 73
4
 74
0
 40
0
 40
0
 40
0
 40
0
 40
1
 40
1
 40
1
 40
1
 10
8.635735
 20
26.290323
 30
0.0
 10
8.635735
 20
26.183381
 30
0.0
 10
8.593253
 20
26.080819
 30
0.0
 10
8.517634
 20
26.005200
 30
0.0
  0
SPLINE
  5
172
100
AcDbEntity
  8
0
 62
7
100
AcDbSpline
 70
8
 71
3
 72
8
 73
4
 74
0
 40
0
 40
0
 40
0
 40
0
 40
1
 40
1
 40
1
 40
1
 10
8.517634
 20
26.005200
 30
0.0
 10
8.442014
 20
25.929580
 30
0.0
 10
8.339452
 20
25.887098
 30
0.0
 10
8.232510
 20
25.887098
 30
0.0
  0
SPLINE
  5
173
100
AcDbEntity
  8
0
 62
7
100
AcDbSpline
 70
8
 71
3
 72
8
 73
4
 74
0
 40
0
 40
0
 40
0
 40
0
 40
1
 40
1
 40
1
 40
1
 10
8.232510
 20
25.887098
 30
0.0
 10
8.125568
 20
25.887098
 30
0.0
 10
8.023007
 20
25.929580
 30
0.0
 10
7.947387
 20
26.005200
 30
0.0
  0
SPLINE
  5
174
100
AcDbEntity
  8
0
 62
7
100
AcDbSpline
 70
8
 71
3
 72
8
 73
4
 74
0
 40
0
 40
0
 40
0
 40
0
 40
1
 40
1
 40
1
 40
1
 10
7.947387
 20
26.005200
 30
0.0
 10
7.871768
 20
26.080819
 30
0.0
 10
7.829285
 20
26.183381
 30
0.0
 10
7.829285
 20
26.290323
 30
0.0
  0
SPLINE
  5
175
100
AcDbEntity
  8
0
 62
7
100
AcDbSpline
 70
8
 71
3
 72
8
 73
4
 74
0
 40
0
 40
0
 40
0
 40
0
 40
1
 40
1
 40
1
 40
1
 10
7.829285
 20
26.290323
 30
0.0
 10
7.829285
 20
26.397265
 30
0.0
 10
7.871768
 20
26.499827
 30
0.0
 10
7.947387
 20
26.575446
 30
0.0
  0
SPLINE
  5
176
100
AcDbEntity
  8
0
 62
7
100
AcDbSpline
 70
8
 71
3
 72
8
 73
4
 74
0
 40
0
 40
0
 40
0
 40
0
 40
1
 40
1
 40
1
 40
1
 10
7.947387
 20
26.575446
 30
0.0
 10
8.023007
 20
26.651065
 30
0.0
 10
8.125568
 20
26.693548
 30
0.0
 10
8.232510
 20
26.693548
 30
0.0
  0
SPLINE
  5
177
100
AcDbEntity
  8
0
 62
7
100
AcDbSpline
 70
8
 71
3
 72
8
 73
4
 74
0
 40
0
 40
0
 40
0
 40
0
 40
1
 40
1
 40
1
 40
1
 10
8.232510
 20
26.693548
 30
0.0
 10
8.339452
 20
26.693548
 30
0.0
 10
8.442014
 20
26.651065
 30
0.0
 10
8.517634
 20
26.575446
 30
0.0
  0
SPLINE
  5
178
100
AcDbEntity
  8
0
 62
7
100
AcDbSpline
 70
8
 71
3
 72
8
 73
4
 74
0
 40
0
 40
0
 40
0
 40
0
 40
1
 40
1
 40
1
 40
1
 10
8.517634
 20
26.575446
 30
0.0
 10
8.593253
 20
26.499827
 30
0.0
 10
8.635735
 20
26.397265
 30
0.0
 10
8.635735
 20
26.290323
 30
0.0
  0
LWPOLYLINE
  5
179
100
AcDbEntity
  8
0
 62
7
100
AcDbPolyline
 90
1
 70
1
 10
6.283590
 20
26.290323
 30
0.0
  0
SPLINE
  5
17a
100
AcDbEntity
  8
0
 62
7
100
AcDbSpline
 70
8
 71
3
 72
8
 73
4
 74
0
 40
0
 40
0
 40
0
 40
0
 40
1
 40
1
 40
1
 40
1
 10
10.987882
 20
26.290323
 30
0.0
 10
10.987882
 20
26.183381
 30
0.0
 10
10.945399
 20
26.080819
 30
0.0
 10
10.869780
 20
26.005200
 30
0.0
  0
SPLINE
  5
17b
100
AcDbEntity
  8
0
 62
7
100
AcDbSpline
 70
8
 71
3
 72
8
 73
4
 74
0
 40
0
 40
0
 40
0
 40
0
 40
1
 40
1
 40
1
 40
1
 10
10.869780
 20
26.005200
 30
0.0
 10
10.794160
 20
25.929580
 30
0.0
 10
10.691598
 20
25.887098
 30
0.0
 10
10.584657
 20
25.887098
 30
0.0
  0
SPLINE
  5
17c
100
AcDbEntity
  8
0
 62
7
100
AcDbSpline
 70
8
 71
3
 72
8
 73
4
 74
0
 40
0
 40
0
 40
0
 40
0
 40
1
 40
1
 40
1
 40
1
 10
10.584657
 20
25.887098
 30
0.0
 10
10.477715
 20
25.887098
 30
0.0
 10
10.375153
 20
25.929580
 30
0.0
 10
10.299533
 20
26.005200
 30
0.0
  0
SPLINE
  5
17d
100
AcDbEntity
  8
0
 62
7
100
AcDbSpline
 70
8
 71
3
 72
8
 73
4
 74
0
 40
0
 40
0
 40
0
 40
0
 40
1
 40
1
 40
1
 40
1
 10
10.299533
 20
26.005200
 30
0.0
 10
10.223914
 20
26.080819
 30
0.0
 10
10.181432
 20
26.183381
 30
0.0
 10
10.181432
 20
26.290323
 30
0.0
  0
SPLINE
  5
17e
100
AcDbEntity
  8
0
 62
7
100
AcDbSpline
 70
8
 71
3
 72
8
 73
4
 74
0
 40
0
 40
0
 40
0
 40
0
 40
1
 40
1
 40
1
 40
1
 10
10.181432
 20
26.290323
 30
0.0
 10
10.181432
 20
26.397265
 30
0.0
 10
10.223914
 20
26.499827
 30
0.0
 10
10.299533
 20
26.575446
 30
0.0
  0
SPLINE
  5
17f
100
AcDbEntity
  8
0
 62
7
100
AcDbSpline
 70
8
 71
3
 72
8
 73
4
 74
0
 40
0
 40
0
 40
0
 40
0
 40
1
 40
1
 40
1
 40
1
 10
10.299533
 20
26.575446
 30
0.0
 10
10.375153
 20
26.651065
 30
0.0
 10
10.477715
 20
26.693548
 30
0.0
 10
10.584657
 20
26.693548
 30
0.0
  0
SPLINE
  5
180
100
AcDbEntity
  8
0
 62
7
100
AcDbSpline
 70
8
 71
3
 72
8
 73
4
 74
0
 40
0
 40
0
 40
0
 40
0
 40
1
 40
1
 40
1
 40
1
 10
10.584657
 20
26.693548
 30
0.0
 10
10.691598
 20
26.693548
 30
0.0
 10
10.794160
 20
26.651065
 30
0.0
 10
10.869780
 20
26.575446
 30
0.0
  0
SPLINE
  5
181
100
AcDbEntity
  8
0
 62
7
100
AcDbSpline
 70
8
 71
3
 72
8
 73
4
 74
0
 40
0
 40
0
 40
0
 40
0
 40
1
 40
1
 40
1
 40
1
 10
10.869780
 20
26.575446
 30
0.0
 10
10.945399
 20
26.499827
 30
0.0
 10
10.987882
 20
26.397265
 30
0.0
 10
10.987882
 20
26.290323
 30
0.0
  0
LWPOLYLINE
  5
182
100
AcDbEntity
  8
0
 62
7
100
AcDbPolyline
 90
1
 70
1
 10
8.635735
 20
26.290323
 30
0.0
  0
SPLINE
  5
183
100
AcDbEntity
  8
0
 62
7
100
AcDbSpline
 70
8
 71
3
 72
8
 73
4
 74
0
 40
0
 40
0
 40
0
 40
0
 40
1
 40
1
 40
1
 40
1
 10
13.340027
 20
26.290323
 30
0.0
 10
13.340027
 20
26.183381
 30
0.0
 10
13.297545
 20
26.080819
 30
0.0
 10
13.221925
 20
26.005200
 30
0.0
  0
SPLINE
  5
184
100
AcDbEntity
  8
0
 62
7
100
AcDbSpline
 70
8
 71
3
 72
8
 73
4
 74
0
 40
0
 40
0
 40
0
 40
0
 40
1
 40
1
 40
1
 40
1
 10
13.221925
 20
26.005200
 30
0.0
 10
13.146306
 20
25.929580
 30
0.0
 10
13.043744
 20
25.887098
 30
0.0
 10
12.936802
 20
25.887098
 30
0.0
  0
SPLINE
  5
185
100
AcDbEntity
  8
0
 62
7
100
AcDbSpline
 70
8
 71
3
 72
8
 73
4
 74
0
 40
0
 40
0
 40
0
 40
0
 40
1
 40
1
 40
1
 40
1
 10
12.936802
 20
25.887098
 30
0.0
 10
12.829860
 20
25.887098
 30
0.0
 10
12.727298
 20
25.929580
 30
0.0
 10
12.651679
 20
26.005200
 30
0.0
  0
SPLINE
  5
186
100
AcDbEntity
  8
0
 62
7
100
AcDbSpline
 70
8
 71
3
 72
8
 73
4
 74
0
 40
0
 40
0
 40
0
 40
0
 40
1
 40
1
 40
1
 40
1
 10
12.651679
 20
26.005200
 30
0.0
 10
12.576060
 20
26.080819
 30
0.0
 10
12.533577
 20
26.183381
 30
0.0
 10
12.533577
 20
26.290323
 30
0.0
  0
SPLINE
  5
187
100
AcDbEntity
  8
0
 62
7
100
AcDbSpline
 70
8
 71
3
 72
8
 73
4
 74
0
 40
0
 40
0
 40
0
 40
0
 40
1
 40
1
 40
1
 40
1
 10
12.533577
 20
26.290323
 30
0.0
 10
12.533577
 20
26.397265
 30
0.0
 10
12.576060
 20
26.499827
 30
0.0
 10
12.651679
 20
26.575446
 30
0.0
  0
SPLINE
  5
188
100
AcDbEntity
  8
0
 62
7
100
AcDbSpline
 70
8
 71
3
 72
8
 73
4
 74
0
 40
0
 40
0
 40
0
 40
0
 40
1
 40
1
 40
1
 40
1
 10
12.651679
 20
26.575446
 30
0.0
 10
12.727298
 20
26.651065
 30
0.0
 10
12.829860
 20
26.693548
 30
0.0
 10
12.936802
 20
26.693548
 30
0.0
  0
SPLINE
  5
189
100
AcDbEntity
  8
0
 62
7
100
AcDbSpline
 70
8
 71
3
 72
8
 73
4
 74
0
 40
0
 40
0
 40
0
 40
0
 40
1
 40
1
 40
1
 40
1
 10
12.936802
 20
26.693548
 30
0.0
 10
13.043744
 20
26.693548
 30
0.0
 10
13.146306
 20
26.651066
 30
0.0
 10
13.221925
 20
26.575446
 30
0.0
  0
SPLINE
  5
18a
100
AcDbEntity
  8
0
 62
7
100
AcDbSpline
 70
8
 71
3
 72
8
 73
4
 74
0
 40
0
 40
0
 40
0
 40
0
 40
1
 40
1
 40
1
 40
1
 10
13.221925
 20
26.575446
 30
0.0
 10
13.297545
 20
26.499827
 30
0.0
 10
13.340027
 20
26.397265
 30
0.0
 10
13.340027
 20
26.290323
 30
0.0
  0
LWPOLYLINE
  5
18b
100
AcDbEntity
  8
0
 62
7
100
AcDbPolyline
 90
1
 70
1
 10
10.987882
 20
26.290323
 30
0.0
  0
SPLINE
  5
18c
100
AcDbEntity
  8
0
 62
7
100
AcDbSpline
 70
8
 71
3
 72
8
 73
4
 74
0
 40
0
 40
0
 40
0
 40
0
 40
1
 40
1
 40
1
 40
1
 10
15.692173
 20
26.290323
 30
0.0
 10
15.692173
 20
26.183381
 30
0.0
 10
15.649690
 20
26.080819
 30
0.0
 10
15.574071
 20
26.005200
 30
0.0
  0
SPLINE
  5
18d
100
AcDbEntity
  8
0
 62
7
100
AcDbSpline
 70
8
 71
3
 72
8
 73
4
 74
0
 40
0
 40
0
 40
0
 40
0
 40
1
 40
1
 40
1
 40
1
 10
15.574071
 20
26.005200
 30
0.0
 10
15.498452
 20
25.929580
 30
0.0
 10
15.395890
 20
25.887098
 30
0.0
 10
15.288948
 20
25.887098
 30
0.0
  0
SPLINE
  5
18e
100
AcDbEntity
  8
0
 62
7
100
AcDbSpline
 70
8
 71
3
 72
8
 73
4
 74
0
 40
0
 40
0
 40
0
 40
0
 40
1
 40
1
 40
1
 40
1
 10
15.288948
 20
25.887098
 30
0.0
 10
15.066253
 20
25.887098
 30
0.0
 10
14.885723
 20
26.067628
 30
0.0
 10
14.885723
 20
26.290323
 30
0.0
  0
SPLINE
  5
18f
100
AcDbEntity
  8
0
 62
7
100
AcDbSpline
 70
8
 71
3
 72
8
 73
4
 74
0
 40
0
 40
0
 40
0
 40
0
 40
1
 40
1
 40
1
 40
1
 10
14.885723
 20
26.290323
 30
0.0
 10
14.885723
 20
26.397265
 30
0.0
 10
14.928205
 20
26.499827
 30
0.0
 10
15.003825
 20
26.575446
 30
0.0
  0
SPLINE
  5
190
100
AcDbEntity
  8
0
 62
7
100
AcDbSpline
 70
8
 71
3
 72
8
 73
4
 74
0
 40
0
 40
0
 40
0
 40
0
 40
1
 40
1
 40
1
 40
1
 10
15.003825
 20
26.575446
 30
0.0
 10
15.079444
 20
26.651065
 30
0.0
 10
15.182006
 20
26.693548
 30
0.0
 10
15.288948
 20
26.693548
 30
0.0
  0
SPLINE
  5
191
100
AcDbEntity
  8
0
 62
7
100
AcDbSpline
 70
8
 71
3
 72
8
 73
4
 74
0
 40
0
 40
0
 40
0
 40
0
 40
1
 40
1
 40
1
 40
1
 10
15.288948
 20
26.693548
 30
0.0
 10
15.395890
 20
26.693548
 30
0.0
 10
15.498452
 20
26.651065
 30
0.0
 10
15.574071
 20
26.575446
 30
0.0
  0
SPLINE
  5
192
100
AcDbEntity
  8
0
 62
7
100
AcDbSpline
 70
8
 71
3
 72
8
 73
4
 74
0
 40
0
 40
0
 40
0
 40
0
 40
1
 40
1
 40
1
 40
1
 10
15.574071
 20
26.575446
 30
0.0
 10
15.649690
 20
26.499827
 30
0.0
 10
15.692173
 20
26.397265
 30
0.0
 10
15.692173
 20
26.290323
 30
0.0
  0
LWPOLYLINE
  5
193
100
AcDbEntity
  8
0
 62
7
100
AcDbPolyline
 90
1
 70
1
 10
13.340027
 20
26.290323
 30
0.0
  0
SPLINE
  5
194
100
AcDbEntity
  8
0
 62
7
100
AcDbSpline
 70
8
 71
3
 72
8
 73
4
 74
0
 40
0
 40
0
 40
0
 40
0
 40
1
 40
1
 40
1
 40
1
 10
-19.590015
 20
17.049750
 30
0.0
 10
-19.590015
 20
16.942808
 30
0.0
 10
-19.632498
 20
16.840246
 30
0.0
 10
-19.708117
 20
16.764627
 30
0.0
  0
SPLINE
  5
195
100
AcDbEntity
  8
0
 62
7
100
AcDbSpline
 70
8
 71
3
 72
8
 73
4
 74
0
 40
0
 40
0
 40
0
 40
0
 40
1
 40
1
 40
1
 40
1
 10
-19.708117
 20
16.764627
 30
0.0
 10
-19.783736
 20
16.689007
 30
0.0
 10
-19.886298
 20
16.646525
 30
0.0
 10
-19.993240
 20
16.646525
 30
0.0
  0
SPLINE
  5
196
100
AcDbEntity
  8
0
 62
7
100
AcDbSpline
 70
8
 71
3
 72
8
 73
4
 74
0
 40
0
 40
0
 40
0
 40
0
 40
1
 40
1
 40
1
 40
1
 10
-19.993240
 20
16.646525
 30
0.0
 10
-20.100182
 20
16.646525
 30
0.0
 10
-20.202744
 20
16.689007
 30
0.0
 10
-20.278363
 20
16.764627
 30
0.0
  0
SPLINE
  5
197
100
AcDbEntity
  8
0
 62
7
100
AcDbSpline
 70
8
 71
3
 72
8
 73
4
 74
0
 40
0
 40
0
 40
0
 40
0
 40
1
 40
1
 40
1
 40
1
 10
-20.278363
 20
16.764627
 30
0.0
 10
-20.353983
 20
16.840246
 30
0.0
 10
-20.396465
 20
16.942808
 30
0.0
 10
-20.396465
 20
17.049750
 30
0.0
  0
SPLINE
  5
198
100
AcDbEntity
  8
0
 62
7
100
AcDbSpline
 70
8
 71
3
 72
8
 73
4
 74
0
 40
0
 40
0
 40
0
 40
0
 40
1
 40
1
 40
1
 40
1
 10
-20.396465
 20
17.049750
 30
0.0
 10
-20.396465
 20
17.156692
 30
0.0
 10
-20.353983
 20
17.259254
 30
0.0
 10
-20.278363
 20
17.334873
 30
0.0
  0
SPLINE
  5
199
100
AcDbEntity
  8
0
 62
7
100
AcDbSpline
 70
8
 71
3
 72
8
 73
4
 74
0
 40
0
 40
0
 40
0
 40
0
 40
1
 40
1
 40
1
 40
1
 10
-20.278363
 20
17.334873
 30
0.0
 10
-20.202744
 20
17.410492
 30
0.0
 10
-20.100182
 20
17.452975
 30
0.0
 10
-19.993240
 20
17.452975
 30
0.0
  0
SPLINE
  5
19a
100
AcDbEntity
  8
0
 62
7
100
AcDbSpline
 70
8
 71
3
 72
8
 73
4
 74
0
 40
0
 40
0
 40
0
 40
0
 40
1
 40
1
 40
1
 40
1
 10
-19.993240
 20
17.452975
 30
0.0
 10
-19.886298
 20
17.452975
 30
0.0
 10
-19.783736
 20
17.410492
 30
0.0
 10
-19.708117
 20
17.334873
 30
0.0
  0
SPLINE
  5
19b
100
AcDbEntity
  8
0
 62
7
100
AcDbSpline
 70
8
 71
3
 72
8
 73
4
 74
0
 40
0
 40
0
 40
0
 40
0
 40
1
 40
1
 40
1
 40
1
 10
-19.708117
 20
17.334873
 30
0.0
 10
-19.632498
 20
17.259254
 30
0.0
 10
-19.590015
 20
17.156692
 30
0.0
 10
-19.590015
 20
17.049750
 30
0.0
  0
LWPOLYLINE
  5
19c
100
AcDbEntity
  8
0
 62
7
100
AcDbPolyline
 90
1
 70
1
 10
15.692173
 20
26.290323
 30
0.0
  0
SPLINE
  5
19d
100
AcDbEntity
  8
0
 62
7
100
AcDbSpline
 70
8
 71
3
 72
8
 73
4
 74
0
 40
0
 40
0
 40
0
 40
0
 40
1
 40
1
 40
1
 40
1
 10
-5.477140
 20
17.049750
 30
0.0
 10
-5.477140
 20
16.942808
 30
0.0
 10
-5.519622
 20
16.840246
 30
0.0
 10
-5.595241
 20
16.764627
 30
0.0
  0
SPLINE
  5
19e
100
AcDbEntity
  8
0
 62
7
100
AcDbSpline
 70
8
 71
3
 72
8
 73
4
 74
0
 40
0
 40
0
 40
0
 40
0
 40
1
 40
1
 40
1
 40
1
 10
-5.595241
 20
16.764627
 30
0.0
 10
-5.670861
 20
16.689007
 30
0.0
 10
-5.773423
 20
16.646525
 30
0.0
 10
-5.880365
 20
16.646525
 30
0.0
  0
SPLINE
  5
19f
100
AcDbEntity
  8
0
 62
7
100
AcDbSpline
 70
8
 71
3
 72
8
 73
4
 74
0
 40
0
 40
0
 40
0
 40
0
 40
1
 40
1
 40
1
 40
1
 10
-5.880365
 20
16.646525
 30
0.0
 10
-5.987307
 20
16.646525
 30
0.0
 10
-6.089868
 20
16.689007
 30
0.0
 10
-6.165488
 20
16.764627
 30
0.0
  0
SPLINE
  5
1a0
100
AcDbEntity
  8
0
 62
7
100
AcDbSpline
 70
8
 71
3
 72
8
 73
4
 74
0
 40
0
 40
0
 40
0
 40
0
 40
1
 40
1
 40
1
 40
1
 10
-6.165488
 20
16.764627
 30
0.0
 10
-6.241107
 20
16.840246
 30
0.0
 10
-6.283590
 20
16.942808
 30
0.0
 10
-6.283590
 20
17.049750
 30
0.0
  0
SPLINE
  5
1a1
100
AcDbEntity
  8
0
 62
7
100
AcDbSpline
 70
8
 71
3
 72
8
 73
4
 74
0
 40
0
 40
0
 40
0
 40
0
 40
1
 40
1
 40
1
 40
1
 10
-6.283590
 20
17.049750
 30
0.0
 10
-6.283590
 20
17.156692
 30
0.0
 10
-6.241107
 20
17.259254
 30
0.0
 10
-6.165488
 20
17.334873
 30
0.0
  0
SPLINE
  5
1a2
100
AcDbEntity
  8
0
 62
7
100
AcDbSpline
 70
8
 71
3
 72
8
 73
4
 74
0
 40
0
 40
0
 40
0
 40
0
 40
1
 40
1
 40
1
 40
1
 10
-6.165488
 20
17.334873
 30
0.0
 10
-6.089868
 20
17.410492
 30
0.0
 10
-5.987307
 20
17.452975
 30
0.0
 10
-5.880365
 20
17.452975
 30
0.0
  0
SPLINE
  5
1a3
100
AcDbEntity
  8
0
 62
7
100
AcDbSpline
 70
8
 71
3
 72
8
 73
4
 74
0
 40
0
 40
0
 40
0
 40
0
 40
1
 40
1
 40
1
 40
1
 10
-5.880365
 20
17.452975
 30
0.0
 10
-5.773423
 20
17.452975
 30
0.0
 10
-5.670861
 20
17.410492
 30
0.0
 10
-5.595241
 20
17.334873
 30
0.0
  0
SPLINE
  5
1a4
100
AcDbEntity
  8
0
 62
7
100
AcDbSpline
 70
8
 71
3
 72
8
 73
4
 74
0
 40
0
 40
0
 40
0
 40
0
 40
1
 40
1
 40
1
 40
1
 10
-5.595241
 20
17.334873
 30
0.0
 10
-5.519622
 20
17.259254
 30
0.0
 10
-5.477140
 20
17.156692
 30
0.0
 10
-5.477140
 20
17.049750
 30
0.0
  0
LWPOLYLINE
  5
1a5
100
AcDbEntity
  8
0
 62
7
100
AcDbPolyline
 90
1
 70
1
 10
-19.590015
 20
17.049750
 30
0.0
  0
SPLINE
  5
1a6
100
AcDbEntity
  8
0
 62
7
100
AcDbSpline
 70
8
 71
3
 72
8
 73
4
 74
0
 40
0
 40
0
 40
0
 40
0
 40
1
 40
1
 40
1
 40
1
 10
1.579298
 20
17.049750
 30
0.0
 10
1.579298
 20
16.942808
 30
0.0
 10
1.536815
 20
16.840246
 30
0.0
 10
1.461196
 20
16.764627
 30
0.0
  0
SPLINE
  5
1a7
100
AcDbEntity
  8
0
 62
7
100
AcDbSpline
 70
8
 71
3
 72
8
 73
4
 74
0
 40
0
 40
0
 40
0
 40
0
 40
1
 40
1
 40
1
 40
1
 10
1.461196
 20
16.764627
 30
0.0
 10
1.385577
 20
16.689007
 30
0.0
 10
1.283015
 20
16.646525
 30
0.0
 10
1.176073
 20
16.646525
 30
0.0
  0
SPLINE
  5
1a8
100
AcDbEntity
  8
0
 62
7
100
AcDbSpline
 70
8
 71
3
 72
8
 73
4
 74
0
 40
0
 40
0
 40
0
 40
0
 40
1
 40
1
 40
1
 40
1
 10
1.176073
 20
16.646525
 30
0.0
 10
1.069131
 20
16.646525
 30
0.0
 10
0.966569
 20
16.689007
 30
0.0
 10
0.890950
 20
16.764627
 30
0.0
  0
SPLINE
  5
1a9
100
AcDbEntity
  8
0
 62
7
100
AcDbSpline
 70
8
 71
3
 72
8
 73
4
 74
0
 40
0
 40
0
 40
0
 40
0
 40
1
 40
1
 40
1
 40
1
 10
0.890950
 20
16.764627
 30
0.0
 10
0.815330
 20
16.840246
 30
0.0
 10
0.772848
 20
16.942808
 30
0.0
 10
0.772848
 20
17.049750
 30
0.0
  0
SPLINE
  5
1aa
100
AcDbEntity
  8
0
 62
7
100
AcDbSpline
 70
8
 71
3
 72
8
 73
4
 74
0
 40
0
 40
0
 40
0
 40
0
 40
1
 40
1
 40
1
 40
1
 10
0.772848
 20
17.049750
 30
0.0
 10
0.772848
 20
17.156692
 30
0.0
 10
0.815330
 20
17.259254
 30
0.0
 10
0.890950
 20
17.334873
 30
0.0
  0
SPLINE
  5
1ab
100
AcDbEntity
  8
0
 62
7
100
AcDbSpline
 70
8
 71
3
 72
8
 73
4
 74
0
 40
0
 40
0
 40
0
 40
0
 40
1
 40
1
 40
1
 40
1
 10
0.890950
 20
17.334873
 30
0.0
 10
0.966569
 20
17.410492
 30
0.0
 10
1.069131
 20
17.452975
 30
0.0
 10
1.176073
 20
17.452975
 30
0.0
  0
SPLINE
  5
1ac
100
AcDbEntity
  8
0
 62
7
100
AcDbSpline
 70
8
 71
3
 72
8
 73
4
 74
0
 40
0
 40
0
 40
0
 40
0
 40
1
 40
1
 40
1
 40
1
 10
1.176073
 20
17.452975
 30
0.0
 10
1.283015
 20
17.452975
 30
0.0
 10
1.385577
 20
17.410492
 30
0.0
 10
1.461196
 20
17.334873
 30
0.0
  0
SPLINE
  5
1ad
100
AcDbEntity
  8
0
 62
7
100
AcDbSpline
 70
8
 71
3
 72
8
 73
4
 74
0
 40
0
 40
0
 40
0
 40
0
 40
1
 40
1
 40
1
 40
1
 10
1.461196
 20
17.334873
 30
0.0
 10
1.536815
 20
17.259254
 30
0.0
 10
1.579298
 20
17.156692
 30
0.0
 10
1.579298
 20
17.049750
 30
0.0
  0
LWPOLYLINE
  5
1ae
100
AcDbEntity
  8
0
 62
7
100
AcDbPolyline
 90
1
 70
1
 10
-5.477140
 20
17.049750
 30
0.0
  0
SPLINE
  5
1af
100
AcDbEntity
  8
0
 62
7
100
AcDbSpline
 70
8
 71
3
 72
8
 73
4
 74
0
 40
0
 40
0
 40
0
 40
0
 40
1
 40
1
 40
1
 40
1
 10
6.283590
 20
17.049750
 30
0.0
 10
6.283590
 20
16.942808
 30
0.0
 10
6.241107
 20
16.840246
 30
0.0
 10
6.165488
 20
16.764627
 30
0.0
  0
SPLINE
  5
1b0
100
AcDbEntity
  8
0
 62
7
100
AcDbSpline
 70
8
 71
3
 72
8
 73
4
 74
0
 40
0
 40
0
 40
0
 40
0
 40
1
 40
1
 40
1
 40
1
 10
6.165488
 20
16.764627
 30
0.0
 10
6.089868
 20
16.689007
 30
0.0
 10
5.987307
 20
16.646525
 30
0.0
 10
5.880365
 20
16.646525
 30
0.0
  0
SPLINE
  5
1b1
100
AcDbEntity
  8
0
 62
7
100
AcDbSpline
 70
8
 71
3
 72
8
 73
4
 74
0
 40
0
 40
0
 40
0
 40
0
 40
1
 40
1
 40
1
 40
1
 10
5.880365
 20
16.646525
 30
0.0
 10
5.773423
 20
16.646525
 30
0.0
 10
5.670861
 20
16.689007
 30
0.0
 10
5.595241
 20
16.764627
 30
0.0
  0
SPLINE
  5
1b2
100
AcDbEntity
  8
0
 62
7
100
AcDbSpline
 70
8
 71
3
 72
8
 73
4
 74
0
 40
0
 40
0
 40
0
 40
0
 40
1
 40
1
 40
1
 40
1
 10
5.595241
 20
16.764627
 30
0.0
 10
5.519622
 20
16.840246
 30
0.0
 10
5.477140
 20
16.942808
 30
0.0
 10
5.477140
 20
17.049750
 30
0.0
  0
SPLINE
  5
1b3
100
AcDbEntity
  8
0
 62
7
100
AcDbSpline
 70
8
 71
3
 72
8
 73
4
 74
0
 40
0
 40
0
 40
0
 40
0
 40
1
 40
1
 40
1
 40
1
 10
5.477140
 20
17.049750
 30
0.0
 10
5.477140
 20
17.156692
 30
0.0
 10
5.519622
 20
17.259254
 30
0.0
 10
5.595241
 20
17.334873
 30
0.0
  0
SPLINE
  5
1b4
100
AcDbEntity
  8
0
 62
7
100
AcDbSpline
 70
8
 71
3
 72
8
 73
4
 74
0
 40
0
 40
0
 40
0
 40
0
 40
1
 40
1
 40
1
 40
1
 10
5.595241
 20
17.334873
 30
0.0
 10
5.670861
 20
17.410492
 30
0.0
 10
5.773423
 20
17.452975
 30
0.0
 10
5.880365
 20
17.452975
 30
0.0
  0
SPLINE
  5
1b5
100
AcDbEntity
  8
0
 62
7
100
AcDbSpline
 70
8
 71
3
 72
8
 73
4
 74
0
 40
0
 40
0
 40
0
 40
0
 40
1
 40
1
 40
1
 40
1
 10
5.880365
 20
17.452975
 30
0.0
 10
5.987307
 20
17.452975
 30
0.0
 10
6.089868
 20
17.410492
 30
0.0
 10
6.165488
 20
17.334873
 30
0.0
  0
SPLINE
  5
1b6
100
AcDbEntity
  8
0
 62
7
100
AcDbSpline
 70
8
 71
3
 72
8
 73
4
 74
0
 40
0
 40
0
 40
0
 40
0
 40
1
 40
1
 40
1
 40
1
 10
6.165488
 20
17.334873
 30
0.0
 10
6.241107
 20
17.259254
 30
0.0
 10
6.283590
 20
17.156692
 30
0.0
 10
6.283590
 20
17.049750
 30
0.0
  0
LWPOLYLINE
  5
1b7
100
AcDbEntity
  8
0
 62
7
100
AcDbPolyline
 90
1
 70
1
 10
1.579298
 20
17.049750
 30
0.0
  0
SPLINE
  5
1b8
100
AcDbEntity
  8
0
 62
7
100
AcDbSpline
 70
8
 71
3
 72
8
 73
4
 74
0
 40
0
 40
0
 40
0
 40
0
 40
1
 40
1
 40
1
 40
1
 10
10.987882
 20
17.049750
 30
0.0
 10
10.987882
 20
16.942808
 30
0.0
 10
10.945399
 20
16.840246
 30
0.0
 10
10.869780
 20
16.764627
 30
0.0
  0
SPLINE
  5
1b9
100
AcDbEntity
  8
0
 62
7
100
AcDbSpline
 70
8
 71
3
 72
8
 73
4
 74
0
 40
0
 40
0
 40
0
 40
0
 40
1
 40
1
 40
1
 40
1
 10
10.869780
 20
16.764627
 30
0.0
 10
10.794160
 20
16.689007
 30
0.0
 10
10.691598
 20
16.646525
 30
0.0
 10
10.584657
 20
16.646525
 30
0.0
  0
SPLINE
  5
1ba
100
AcDbEntity
  8
0
 62
7
100
AcDbSpline
 70
8
 71
3
 72
8
 73
4
 74
0
 40
0
 40
0
 40
0
 40
0
 40
1
 40
1
 40
1
 40
1
 10
10.584657
 20
16.646525
 30
0.0
 10
10.477715
 20
16.646525
 30
0.0
 10
10.375153
 20
16.689007
 30
0.0
 10
10.299533
 20
16.764627
 30
0.0
  0
SPLINE
  5
1bb
100
AcDbEntity
  8
0
 62
7
100
AcDbSpline
 70
8
 71
3
 72
8
 73
4
 74
0
 40
0
 40
0
 40
0
 40
0
 40
1
 40
1
 40
1
 40
1
 10
10.299533
 20
16.764627
 30
0.0
 10
10.223914
 20
16.840246
 30
0.0
 10
10.181432
 20
16.942808
 30
0.0
 10
10.181432
 20
17.049750
 30
0.0
  0
SPLINE
  5
1bc
100
AcDbEntity
  8
0
 62
7
100
AcDbSpline
 70
8
 71
3
 72
8
 73
4
 74
0
 40
0
 40
0
 40
0
 40
0
 40
1
 40
1
 40
1
 40
1
 10
10.181432
 20
17.049750
 30
0.0
 10
10.181432
 20
17.156692
 30
0.0
 10
10.223914
 20
17.259254
 30
0.0
 10
10.299533
 20
17.334873
 30
0.0
  0
SPLINE
  5
1bd
100
AcDbEntity
  8
0
 62
7
100
AcDbSpline
 70
8
 71
3
 72
8
 73
4
 74
0
 40
0
 40
0
 40
0
 40
0
 40
1
 40
1
 40
1
 40
1
 10
10.299533
 20
17.334873
 30
0.0
 10
10.375153
 20
17.410492
 30
0.0
 10
10.477715
 20
17.452975
 30
0.0
 10
10.584657
 20
17.452975
 30
0.0
  0
SPLINE
  5
1be
100
AcDbEntity
  8
0
 62
7
100
AcDbSpline
 70
8
 71
3
 72
8
 73
4
 74
0
 40
0
 40
0
 40
0
 40
0
 40
1
 40
1
 40
1
 40
1
 10
10.584657
 20
17.452975
 30
0.0
 10
10.691598
 20
17.452975
 30
0.0
 10
10.794160
 20
17.410492
 30
0.0
 10
10.869780
 20
17.334873
 30
0.0
  0
SPLINE
  5
1bf
100
AcDbEntity
  8
0
 62
7
100
AcDbSpline
 70
8
 71
3
 72
8
 73
4
 74
0
 40
0
 40
0
 40
0
 40
0
 40
1
 40
1
 40
1
 40
1
 10
10.869780
 20
17.334873
 30
0.0
 10
10.945399
 20
17.259254
 30
0.0
 10
10.987882
 20
17.156692
 30
0.0
 10
10.987882
 20
17.049750
 30
0.0
  0
LWPOLYLINE
  5
1c0
100
AcDbEntity
  8
0
 62
7
100
AcDbPolyline
 90
1
 70
1
 10
6.283590
 20
17.049750
 30
0.0
  0
SPLINE
  5
1c1
100
AcDbEntity
  8
0
 62
7
100
AcDbSpline
 70
8
 71
3
 72
8
 73
4
 74
0
 40
0
 40
0
 40
0
 40
0
 40
1
 40
1
 40
1
 40
1
 10
15.692173
 20
17.049750
 30
0.0
 10
15.692173
 20
16.942808
 30
0.0
 10
15.649690
 20
16.840246
 30
0.0
 10
15.574071
 20
16.764627
 30
0.0
  0
SPLINE
  5
1c2
100
AcDbEntity
  8
0
 62
7
100
AcDbSpline
 70
8
 71
3
 72
8
 73
4
 74
0
 40
0
 40
0
 40
0
 40
0
 40
1
 40
1
 40
1
 40
1
 10
15.574071
 20
16.764627
 30
0.0
 10
15.498452
 20
16.689007
 30
0.0
 10
15.395890
 20
16.646525
 30
0.0
 10
15.288948
 20
16.646525
 30
0.0
  0
SPLINE
  5
1c3
100
AcDbEntity
  8
0
 62
7
100
AcDbSpline
 70
8
 71
3
 72
8
 73
4
 74
0
 40
0
 40
0
 40
0
 40
0
 40
1
 40
1
 40
1
 40
1
 10
15.288948
 20
16.646525
 30
0.0
 10
15.182006
 20
16.646525
 30
0.0
 10
15.079444
 20
16.689007
 30
0.0
 10
15.003825
 20
16.764627
 30
0.0
  0
SPLINE
  5
1c4
100
AcDbEntity
  8
0
 62
7
100
AcDbSpline
 70
8
 71
3
 72
8
 73
4
 74
0
 40
0
 40
0
 40
0
 40
0
 40
1
 40
1
 40
1
 40
1
 10
15.003825
 20
16.764627
 30
0.0
 10
14.928205
 20
16.840246
 30
0.0
 10
14.885723
 20
16.942808
 30
0.0
 10
14.885723
 20
17.049750
 30
0.0
  0
SPLINE
  5
1c5
100
AcDbEntity
  8
0
 62
7
100
AcDbSpline
 70
8
 71
3
 72
8
 73
4
 74
0
 40
0
 40
0
 40
0
 40
0
 40
1
 40
1
 40
1
 40
1
 10
14.885723
 20
17.049750
 30
0.0
 10
14.885723
 20
17.156692
 30
0.0
 10
14.928205
 20
17.259254
 30
0.0
 10
15.003825
 20
17.334873
 30
0.0
  0
SPLINE
  5
1c6
100
AcDbEntity
  8
0
 62
7
100
AcDbSpline
 70
8
 71
3
 72
8
 73
4
 74
0
 40
0
 40
0
 40
0
 40
0
 40
1
 40
1
 40
1
 40
1
 10
15.003825
 20
17.334873
 30
0.0
 10
15.079444
 20
17.410492
 30
0.0
 10
15.182006
 20
17.452975
 30
0.0
 10
15.288948
 20
17.452975
 30
0.0
  0
SPLINE
  5
1c7
100
AcDbEntity
  8
0
 62
7
100
AcDbSpline
 70
8
 71
3
 72
8
 73
4
 74
0
 40
0
 40
0
 40
0
 40
0
 40
1
 40
1
 40
1
 40
1
 10
15.288948
 20
17.452975
 30
0.0
 10
15.395890
 20
17.452975
 30
0.0
 10
15.498452
 20
17.410492
 30
0.0
 10
15.574071
 20
17.334873
 30
0.0
  0
SPLINE
  5
1c8
100
AcDbEntity
  8
0
 62
7
100
AcDbSpline
 70
8
 71
3
 72
8
 73
4
 74
0
 40
0
 40
0
 40
0
 40
0
 40
1
 40
1
 40
1
 40
1
 10
15.574071
 20
17.334873
 30
0.0
 10
15.649690
 20
17.259254
 30
0.0
 10
15.692173
 20
17.156692
 30
0.0
 10
15.692173
 20
17.049750
 30
0.0
  0
LWPOLYLINE
  5
1c9
100
AcDbEntity
  8
0
 62
7
100
AcDbPolyline
 90
1
 70
1
 10
10.987882
 20
17.049750
 30
0.0
  0
SPLINE
  5
1ca
100
AcDbEntity
  8
0
 62
7
100
AcDbSpline
 70
8
 71
3
 72
8
 73
4
 74
0
 40
0
 40
0
 40
0
 40
0
 40
1
 40
1
 40
1
 40
1
 10
20.396465
 20
17.049750
 30
0.0
 10
20.396465
 20
16.942808
 30
0.0
 10
20.353983
 20
16.840246
 30
0.0
 10
20.278363
 20
16.764627
 30
0.0
  0
SPLINE
  5
1cb
100
AcDbEntity
  8
0
 62
7
100
AcDbSpline
 70
8
 71
3
 72
8
 73
4
 74
0
 40
0
 40
0
 40
0
 40
0
 40
1
 40
1
 40
1
 40
1
 10
20.278363
 20
16.764627
 30
0.0
 10
20.202744
 20
16.689007
 30
0.0
 10
20.100182
 20
16.646525
 30
0.0
 10
19.993240
 20
16.646525
 30
0.0
  0
SPLINE
  5
1cc
100
AcDbEntity
  8
0
 62
7
100
AcDbSpline
 70
8
 71
3
 72
8
 73
4
 74
0
 40
0
 40
0
 40
0
 40
0
 40
1
 40
1
 40
1
 40
1
 10
19.993240
 20
16.646525
 30
0.0
 10
19.886298
 20
16.646525
 30
0.0
 10
19.783736
 20
16.689007
 30
0.0
 10
19.708117
 20
16.764627
 30
0.0
  0
SPLINE
  5
1cd
100
AcDbEntity
  8
0
 62
7
100
AcDbSpline
 70
8
 71
3
 72
8
 73
4
 74
0
 40
0
 40
0
 40
0
 40
0
 40
1
 40
1
 40
1
 40
1
 10
19.708117
 20
16.764627
 30
0.0
 10
19.632498
 20
16.840246
 30
0.0
 10
19.590015
 20
16.942808
 30
0.0
 10
19.590015
 20
17.049750
 30
0.0
  0
SPLINE
  5
1ce
100
AcDbEntity
  8
0
 62
7
100
AcDbSpline
 70
8
 71
3
 72
8
 73
4
 74
0
 40
0
 40
0
 40
0
 40
0
 40
1
 40
1
 40
1
 40
1
 10
19.590015
 20
17.049750
 30
0.0
 10
19.590015
 20
17.156692
 30
0.0
 10
19.632498
 20
17.259254
 30
0.0
 10
19.708117
 20
17.334873
 30
0.0
  0
SPLINE
  5
1cf
100
AcDbEntity
  8
0
 62
7
100
AcDbSpline
 70
8
 71
3
 72
8
 73
4
 74
0
 40
0
 40
0
 40
0
 40
0
 40
1
 40
1
 40
1
 40
1
 10
19.708117
 20
17.334873
 30
0.0
 10
19.783736
 20
17.410492
 30
0.0
 10
19.886298
 20
17.452975
 30
0.0
 10
19.993240
 20
17.452975
 30
0.0
  0
SPLINE
  5
1d0
100
AcDbEntity
  8
0
 62
7
100
AcDbSpline
 70
8
 71
3
 72
8
 73
4
 74
0
 40
0
 40
0
 40
0
 40
0
 40
1
 40
1
 40
1
 40
1
 10
19.993240
 20
17.452975
 30
0.0
 10
20.100182
 20
17.452975
 30
0.0
 10
20.202744
 20
17.410492
 30
0.0
 10
20.278363
 20
17.334873
 30
0.0
  0
SPLINE
  5
1d1
100
AcDbEntity
  8
0
 62
7
100
AcDbSpline
 70
8
 71
3
 72
8
 73
4
 74
0
 40
0
 40
0
 40
0
 40
0
 40
1
 40
1
 40
1
 40
1
 10
20.278363
 20
17.334873
 30
0.0
 10
20.353983
 20
17.259254
 30
0.0
 10
20.396465
 20
17.156692
 30
0.0
 10
20.396465
 20
17.049750
 30
0.0
  0
LWPOLYLINE
  5
1d2
100
AcDbEntity
  8
0
 62
7
100
AcDbPolyline
 90
1
 70
1
 10
15.692173
 20
17.049750
 30
0.0
  0
SPLINE
  5
1d3
100
AcDbEntity
  8
0
 62
7
100
AcDbSpline
 70
8
 71
3
 72
8
 73
4
 74
0
 40
0
 40
0
 40
0
 40
0
 40
1
 40
1
 40
1
 40
1
 10
20.396465
 20
24.442208
 30
0.0
 10
20.396465
 20
24.335266
 30
0.0
 10
20.353983
 20
24.232705
 30
0.0
 10
20.278363
 20
24.157085
 30
0.0
  0
SPLINE
  5
1d4
100
AcDbEntity
  8
0
 62
7
100
AcDbSpline
 70
8
 71
3
 72
8
 73
4
 74
0
 40
0
 40
0
 40
0
 40
0
 40
1
 40
1
 40
1
 40
1
 10
20.278363
 20
24.157085
 30
0.0
 10
20.202744
 20
24.081466
 30
0.0
 10
20.100182
 20
24.038983
 30
0.0
 10
19.993240
 20
24.038983
 30
0.0
  0
SPLINE
  5
1d5
100
AcDbEntity
  8
0
 62
7
100
AcDbSpline
 70
8
 71
3
 72
8
 73
4
 74
0
 40
0
 40
0
 40
0
 40
0
 40
1
 40
1
 40
1
 40
1
 10
19.993240
 20
24.038983
 30
0.0
 10
19.886298
 20
24.038983
 30
0.0
 10
19.783736
 20
24.081466
 30
0.0
 10
19.708117
 20
24.157085
 30
0.0
  0
SPLINE
  5
1d6
100
AcDbEntity
  8
0
 62
7
100
AcDbSpline
 70
8
 71
3
 72
8
 73
4
 74
0
 40
0
 40
0
 40
0
 40
0
 40
1
 40
1
 40
1
 40
1
 10
19.708117
 20
24.157085
 30
0.0
 10
19.632498
 20
24.232705
 30
0.0
 10
19.590015
 20
24.335266
 30
0.0
 10
19.590015
 20
24.442208
 30
0.0
  0
SPLINE
  5
1d7
100
AcDbEntity
  8
0
 62
7
100
AcDbSpline
 70
8
 71
3
 72
8
 73
4
 74
0
 40
0
 40
0
 40
0
 40
0
 40
1
 40
1
 40
1
 40
1
 10
19.590015
 20
24.442208
 30
0.0
 10
19.590015
 20
24.549150
 30
0.0
 10
19.632498
 20
24.651712
 30
0.0
 10
19.708117
 20
24.727332
 30
0.0
  0
SPLINE
  5
1d8
100
AcDbEntity
  8
0
 62
7
100
AcDbSpline
 70
8
 71
3
 72
8
 73
4
 74
0
 40
0
 40
0
 40
0
 40
0
 40
1
 40
1
 40
1
 40
1
 10
19.708117
 20
24.727332
 30
0.0
 10
19.783736
 20
24.802951
 30
0.0
 10
19.886298
 20
24.845433
 30
0.0
 10
19.993240
 20
24.845433
 30
0.0
  0
SPLINE
  5
1d9
100
AcDbEntity
  8
0
 62
7
100
AcDbSpline
 70
8
 71
3
 72
8
 73
4
 74
0
 40
0
 40
0
 40
0
 40
0
 40
1
 40
1
 40
1
 40
1
 10
19.993240
 20
24.845433
 30
0.0
 10
20.100182
 20
24.845433
 30
0.0
 10
20.202744
 20
24.802951
 30
0.0
 10
20.278363
 20
24.727332
 30
0.0
  0
SPLINE
  5
1da
100
AcDbEntity
  8
0
 62
7
100
AcDbSpline
 70
8
 71
3
 72
8
 73
4
 74
0
 40
0
 40
0
 40
0
 40
0
 40
1
 40
1
 40
1
 40
1
 10
20.278363
 20
24.727332
 30
0.0
 10
20.353983
 20
24.651712
 30
0.0
 10
20.396465
 20
24.549150
 30
0.0
 10
20.396465
 20
24.442208
 30
0.0
  0
LWPOLYLINE
  5
1db
100
AcDbEntity
  8
0
 62
7
100
AcDbPolyline
 90
1
 70
1
 10
20.396465
 20
17.049750
 30
0.0
  0
SPLINE
  5
1dc
100
AcDbEntity
  8
0
 62
7
100
AcDbSpline
 70
8
 71
3
 72
8
 73
4
 74
0
 40
0
 40
0
 40
0
 40
0
 40
1
 40
1
 40
1
 40
1
 10
20.396465
 20
31.834667
 30
0.0
 10
20.396465
 20
31.727725
 30
0.0
 10
20.353983
 20
31.625163
 30
0.0
 10
20.278363
 20
31.549544
 30
0.0
  0
SPLINE
  5
1dd
100
AcDbEntity
  8
0
 62
7
100
AcDbSpline
 70
8
 71
3
 72
8
 73
4
 74
0
 40
0
 40
0
 40
0
 40
0
 40
1
 40
1
 40
1
 40
1
 10
20.278363
 20
31.549544
 30
0.0
 10
20.202744
 20
31.473924
 30
0.0
 10
20.100182
 20
31.431442
 30
0.0
 10
19.993240
 20
31.431442
 30
0.0
  0
SPLINE
  5
1de
100
AcDbEntity
  8
0
 62
7
100
AcDbSpline
 70
8
 71
3
 72
8
 73
4
 74
0
 40
0
 40
0
 40
0
 40
0
 40
1
 40
1
 40
1
 40
1
 10
19.993240
 20
31.431442
 30
0.0
 10
19.886298
 20
31.431442
 30
0.0
 10
19.783736
 20
31.473924
 30
0.0
 10
19.708117
 20
31.549544
 30
0.0
  0
SPLINE
  5
1df
100
AcDbEntity
  8
0
 62
7
100
AcDbSpline
 70
8
 71
3
 72
8
 73
4
 74
0
 40
0
 40
0
 40
0
 40
0
 40
1
 40
1
 40
1
 40
1
 10
19.708117
 20
31.549544
 30
0.0
 10
19.632498
 20
31.625163
 30
0.0
 10
19.590015
 20
31.727725
 30
0.0
 10
19.590015
 20
31.834667
 30
0.0
  0
SPLINE
  5
1e0
100
AcDbEntity
  8
0
 62
7
100
AcDbSpline
 70
8
 71
3
 72
8
 73
4
 74
0
 40
0
 40
0
 40
0
 40
0
 40
1
 40
1
 40
1
 40
1
 10
19.590015
 20
31.834667
 30
0.0
 10
19.590015
 20
31.941609
 30
0.0
 10
19.632498
 20
32.044170
 30
0.0
 10
19.708117
 20
32.119790
 30
0.0
  0
SPLINE
  5
1e1
100
AcDbEntity
  8
0
 62
7
100
AcDbSpline
 70
8
 71
3
 72
8
 73
4
 74
0
 40
0
 40
0
 40
0
 40
0
 40
1
 40
1
 40
1
 40
1
 10
19.708117
 20
32.119790
 30
0.0
 10
19.783736
 20
32.195409
 30
0.0
 10
19.886298
 20
32.237892
 30
0.0
 10
19.993240
 20
32.237892
 30
0.0
  0
SPLINE
  5
1e2
100
AcDbEntity
  8
0
 62
7
100
AcDbSpline
 70
8
 71
3
 72
8
 73
4
 74
0
 40
0
 40
0
 40
0
 40
0
 40
1
 40
1
 40
1
 40
1
 10
19.993240
 20
32.237892
 30
0.0
 10
20.100182
 20
32.237892
 30
0.0
 10
20.202744
 20
32.195409
 30
0.0
 10
20.278363
 20
32.119790
 30
0.0
  0
SPLINE
  5
1e3
100
AcDbEntity
  8
0
 62
7
100
AcDbSpline
 70
8
 71
3
 72
8
 73
4
 74
0
 40
0
 40
0
 40
0
 40
0
 40
1
 40
1
 40
1
 40
1
 10
20.278363
 20
32.119790
 30
0.0
 10
20.353983
 20
32.044170
 30
0.0
 10
20.396465
 20
31.941609
 30
0.0
 10
20.396465
 20
31.834667
 30
0.0
  0
LWPOLYLINE
  5
1e4
100
AcDbEntity
  8
0
 62
7
100
AcDbPolyline
 90
1
 70
1
 10
20.396465
 20
24.442208
 30
0.0
  0
SPLINE
  5
1e5
100
AcDbEntity
  8
0
 62
7
100
AcDbSpline
 70
8
 71
3
 72
8
 73
4
 74
0
 40
0
 40
0
 40
0
 40
0
 40
1
 40
1
 40
1
 40
1
 10
-19.590015
 20
39.227124
 30
0.0
 10
-19.590015
 20
39.120183
 30
0.0
 10
-19.632498
 20
39.017621
 30
0.0
 10
-19.708117
 20
38.942001
 30
0.0
  0
SPLINE
  5
1e6
100
AcDbEntity
  8
0
 62
7
100
AcDbSpline
 70
8
 71
3
 72
8
 73
4
 74
0
 40
0
 40
0
 40
0
 40
0
 40
1
 40
1
 40
1
 40
1
 10
-19.708117
 20
38.942001
 30
0.0
 10
-19.783736
 20
38.866382
 30
0.0
 10
-19.886298
 20
38.823899
 30
0.0
 10
-19.993240
 20
38.823899
 30
0.0
  0
SPLINE
  5
1e7
100
AcDbEntity
  8
0
 62
7
100
AcDbSpline
 70
8
 71
3
 72
8
 73
4
 74
0
 40
0
 40
0
 40
0
 40
0
 40
1
 40
1
 40
1
 40
1
 10
-19.993240
 20
38.823899
 30
0.0
 10
-20.100182
 20
38.823899
 30
0.0
 10
-20.202744
 20
38.866382
 30
0.0
 10
-20.278363
 20
38.942001
 30
0.0
  0
SPLINE
  5
1e8
100
AcDbEntity
  8
0
 62
7
100
AcDbSpline
 70
8
 71
3
 72
8
 73
4
 74
0
 40
0
 40
0
 40
0
 40
0
 40
1
 40
1
 40
1
 40
1
 10
-20.278363
 20
38.942001
 30
0.0
 10
-20.353983
 20
39.017621
 30
0.0
 10
-20.396465
 20
39.120183
 30
0.0
 10
-20.396465
 20
39.227124
 30
0.0
  0
SPLINE
  5
1e9
100
AcDbEntity
  8
0
 62
7
100
AcDbSpline
 70
8
 71
3
 72
8
 73
4
 74
0
 40
0
 40
0
 40
0
 40
0
 40
1
 40
1
 40
1
 40
1
 10
-20.396465
 20
39.227124
 30
0.0
 10
-20.396465
 20
39.334066
 30
0.0
 10
-20.353983
 20
39.436628
 30
0.0
 10
-20.278363
 20
39.512248
 30
0.0
  0
SPLINE
  5
1ea
100
AcDbEntity
  8
0
 62
7
100
AcDbSpline
 70
8
 71
3
 72
8
 73
4
 74
0
 40
0
 40
0
 40
0
 40
0
 40
1
 40
1
 40
1
 40
1
 10
-20.278363
 20
39.512248
 30
0.0
 10
-20.202744
 20
39.587867
 30
0.0
 10
-20.100182
 20
39.630349
 30
0.0
 10
-19.993240
 20
39.630349
 30
0.0
  0
SPLINE
  5
1eb
100
AcDbEntity
  8
0
 62
7
100
AcDbSpline
 70
8
 71
3
 72
8
 73
4
 74
0
 40
0
 40
0
 40
0
 40
0
 40
1
 40
1
 40
1
 40
1
 10
-19.993240
 20
39.630349
 30
0.0
 10
-19.886298
 20
39.630349
 30
0.0
 10
-19.783736
 20
39.587867
 30
0.0
 10
-19.708117
 20
39.512248
 30
0.0
  0
SPLINE
  5
1ec
100
AcDbEntity
  8
0
 62
7
100
AcDbSpline
 70
8
 71
3
 72
8
 73
4
 74
0
 40
0
 40
0
 40
0
 40
0
 40
1
 40
1
 40
1
 40
1
 10
-19.708117
 20
39.512248
 30
0.0
 10
-19.632498
 20
39.436628
 30
0.0
 10
-19.590015
 20
39.334066
 30
0.0
 10
-19.590015
 20
39.227124
 30
0.0
  0
LWPOLYLINE
  5
1ed
100
AcDbEntity
  8
0
 62
7
100
AcDbPolyline
 90
1
 70
1
 10
20.396465
 20
31.834667
 30
0.0
  0
SPLINE
  5
1ee
100
AcDbEntity
  8
0
 62
7
100
AcDbSpline
 70
8
 71
3
 72
8
 73
4
 74
0
 40
0
 40
0
 40
0
 40
0
 40
1
 40
1
 40
1
 40
1
 10
-14.885723
 20
39.227124
 30
0.0
 10
-14.885723
 20
39.120183
 30
0.0
 10
-14.928205
 20
39.017621
 30
0.0
 10
-15.003825
 20
38.942001
 30
0.0
  0
SPLINE
  5
1ef
100
AcDbEntity
  8
0
 62
7
100
AcDbSpline
 70
8
 71
3
 72
8
 73
4
 74
0
 40
0
 40
0
 40
0
 40
0
 40
1
 40
1
 40
1
 40
1
 10
-15.003825
 20
38.942001
 30
0.0
 10
-15.079444
 20
38.866382
 30
0.0
 10
-15.182006
 20
38.823899
 30
0.0
 10
-15.288948
 20
38.823899
 30
0.0
  0
SPLINE
  5
1f0
100
AcDbEntity
  8
0
 62
7
100
AcDbSpline
 70
8
 71
3
 72
8
 73
4
 74
0
 40
0
 40
0
 40
0
 40
0
 40
1
 40
1
 40
1
 40
1
 10
-15.288948
 20
38.823899
 30
0.0
 10
-15.395890
 20
38.823899
 30
0.0
 10
-15.498452
 20
38.866382
 30
0.0
 10
-15.574071
 20
38.942001
 30
0.0
  0
SPLINE
  5
1f1
100
AcDbEntity
  8
0
 62
7
100
AcDbSpline
 70
8
 71
3
 72
8
 73
4
 74
0
 40
0
 40
0
 40
0
 40
0
 40
1
 40
1
 40
1
 40
1
 10
-15.574071
 20
38.942001
 30
0.0
 10
-15.649690
 20
39.017621
 30
0.0
 10
-15.692173
 20
39.120183
 30
0.0
 10
-15.692173
 20
39.227124
 30
0.0
  0
SPLINE
  5
1f2
100
AcDbEntity
  8
0
 62
7
100
AcDbSpline
 70
8
 71
3
 72
8
 73
4
 74
0
 40
0
 40
0
 40
0
 40
0
 40
1
 40
1
 40
1
 40
1
 10
-15.692173
 20
39.227124
 30
0.0
 10
-15.692173
 20
39.334066
 30
0.0
 10
-15.649690
 20
39.436628
 30
0.0
 10
-15.574071
 20
39.512248
 30
0.0
  0
SPLINE
  5
1f3
100
AcDbEntity
  8
0
 62
7
100
AcDbSpline
 70
8
 71
3
 72
8
 73
4
 74
0
 40
0
 40
0
 40
0
 40
0
 40
1
 40
1
 40
1
 40
1
 10
-15.574071
 20
39.512248
 30
0.0
 10
-15.498452
 20
39.587867
 30
0.0
 10
-15.395890
 20
39.630349
 30
0.0
 10
-15.288948
 20
39.630349
 30
0.0
  0
SPLINE
  5
1f4
100
AcDbEntity
  8
0
 62
7
100
AcDbSpline
 70
8
 71
3
 72
8
 73
4
 74
0
 40
0
 40
0
 40
0
 40
0
 40
1
 40
1
 40
1
 40
1
 10
-15.288948
 20
39.630349
 30
0.0
 10
-15.182006
 20
39.630349
 30
0.0
 10
-15.079444
 20
39.587867
 30
0.0
 10
-15.003825
 20
39.512248
 30
0.0
  0
SPLINE
  5
1f5
100
AcDbEntity
  8
0
 62
7
100
AcDbSpline
 70
8
 71
3
 72
8
 73
4
 74
0
 40
0
 40
0
 40
0
 40
0
 40
1
 40
1
 40
1
 40
1
 10
-15.003825
 20
39.512248
 30
0.0
 10
-14.928205
 20
39.436628
 30
0.0
 10
-14.885723
 20
39.334066
 30
0.0
 10
-14.885723
 20
39.227124
 30
0.0
  0
LWPOLYLINE
  5
1f6
100
AcDbEntity
  8
0
 62
7
100
AcDbPolyline
 90
1
 70
1
 10
-19.590015
 20
39.227124
 30
0.0
  0
SPLINE
  5
1f7
100
AcDbEntity
  8
0
 62
7
100
AcDbSpline
 70
8
 71
3
 72
8
 73
4
 74
0
 40
0
 40
0
 40
0
 40
0
 40
1
 40
1
 40
1
 40
1
 10
-10.181432
 20
39.227124
 30
0.0
 10
-10.181432
 20
39.120183
 30
0.0
 10
-10.223914
 20
39.017621
 30
0.0
 10
-10.299533
 20
38.942001
 30
0.0
  0
SPLINE
  5
1f8
100
AcDbEntity
  8
0
 62
7
100
AcDbSpline
 70
8
 71
3
 72
8
 73
4
 74
0
 40
0
 40
0
 40
0
 40
0
 40
1
 40
1
 40
1
 40
1
 10
-10.299533
 20
38.942001
 30
0.0
 10
-10.375153
 20
38.866382
 30
0.0
 10
-10.477715
 20
38.823899
 30
0.0
 10
-10.584657
 20
38.823899
 30
0.0
  0
SPLINE
  5
1f9
100
AcDbEntity
  8
0
 62
7
100
AcDbSpline
 70
8
 71
3
 72
8
 73
4
 74
0
 40
0
 40
0
 40
0
 40
0
 40
1
 40
1
 40
1
 40
1
 10
-10.584657
 20
38.823899
 30
0.0
 10
-10.691598
 20
38.823899
 30
0.0
 10
-10.794160
 20
38.866382
 30
0.0
 10
-10.869780
 20
38.942001
 30
0.0
  0
SPLINE
  5
1fa
100
AcDbEntity
  8
0
 62
7
100
AcDbSpline
 70
8
 71
3
 72
8
 73
4
 74
0
 40
0
 40
0
 40
0
 40
0
 40
1
 40
1
 40
1
 40
1
 10
-10.869780
 20
38.942001
 30
0.0
 10
-10.945399
 20
39.017621
 30
0.0
 10
-10.987882
 20
39.120183
 30
0.0
 10
-10.987882
 20
39.227124
 30
0.0
  0
SPLINE
  5
1fb
100
AcDbEntity
  8
0
 62
7
100
AcDbSpline
 70
8
 71
3
 72
8
 73
4
 74
0
 40
0
 40
0
 40
0
 40
0
 40
1
 40
1
 40
1
 40
1
 10
-10.987882
 20
39.227124
 30
0.0
 10
-10.987882
 20
39.334066
 30
0.0
 10
-10.945399
 20
39.436628
 30
0.0
 10
-10.869780
 20
39.512248
 30
0.0
  0
SPLINE
  5
1fc
100
AcDbEntity
  8
0
 62
7
100
AcDbSpline
 70
8
 71
3
 72
8
 73
4
 74
0
 40
0
 40
0
 40
0
 40
0
 40
1
 40
1
 40
1
 40
1
 10
-10.869780
 20
39.512248
 30
0.0
 10
-10.794160
 20
39.587867
 30
0.0
 10
-10.691598
 20
39.630349
 30
0.0
 10
-10.584657
 20
39.630349
 30
0.0
  0
SPLINE
  5
1fd
100
AcDbEntity
  8
0
 62
7
100
AcDbSpline
 70
8
 71
3
 72
8
 73
4
 74
0
 40
0
 40
0
 40
0
 40
0
 40
1
 40
1
 40
1
 40
1
 10
-10.584657
 20
39.630349
 30
0.0
 10
-10.477715
 20
39.630349
 30
0.0
 10
-10.375153
 20
39.587867
 30
0.0
 10
-10.299533
 20
39.512248
 30
0.0
  0
SPLINE
  5
1fe
100
AcDbEntity
  8
0
 62
7
100
AcDbSpline
 70
8
 71
3
 72
8
 73
4
 74
0
 40
0
 40
0
 40
0
 40
0
 40
1
 40
1
 40
1
 40
1
 10
-10.299533
 20
39.512248
 30
0.0
 10
-10.223914
 20
39.436628
 30
0.0
 10
-10.181432
 20
39.334066
 30
0.0
 10
-10.181432
 20
39.227124
 30
0.0
  0
LWPOLYLINE
  5
1ff
100
AcDbEntity
  8
0
 62
7
100
AcDbPolyline
 90
1
 70
1
 10
-14.885723
 20
39.227124
 30
0.0
  0
SPLINE
  5
200
100
AcDbEntity
  8
0
 62
7
100
AcDbSpline
 70
8
 71
3
 72
8
 73
4
 74
0
 40
0
 40
0
 40
0
 40
0
 40
1
 40
1
 40
1
 40
1
 10
-18.269453
 20
14.596798
 30
0.0
 10
-18.269453
 20
13.737566
 30
0.0
 10
-18.965998
 20
13.041021
 30
0.0
 10
-19.825229
 20
13.041021
 30
0.0
  0
SPLINE
  5
201
100
AcDbEntity
  8
0
 62
7
100
AcDbSpline
 70
8
 71
3
 72
8
 73
4
 74
0
 40
0
 40
0
 40
0
 40
0
 40
1
 40
1
 40
1
 40
1
 10
-19.825229
 20
13.041021
 30
0.0
 10
-20.237847
 20
13.041021
 30
0.0
 10
-20.633565
 20
13.204933
 30
0.0
 10
-20.925329
 20
13.496698
 30
0.0
  0
SPLINE
  5
202
100
AcDbEntity
  8
0
 62
7
100
AcDbSpline
 70
8
 71
3
 72
8
 73
4
 74
0
 40
0
 40
0
 40
0
 40
0
 40
1
 40
1
 40
1
 40
1
 10
-20.925329
 20
13.496698
 30
0.0
 10
-21.217094
 20
13.788462
 30
0.0
 10
-21.381006
 20
14.184180
 30
0.0
 10
-21.381006
 20
14.596798
 30
0.0
  0
SPLINE
  5
203
100
AcDbEntity
  8
0
 62
7
100
AcDbSpline
 70
8
 71
3
 72
8
 73
4
 74
0
 40
0
 40
0
 40
0
 40
0
 40
1
 40
1
 40
1
 40
1
 10
-21.381006
 20
14.596798
 30
0.0
 10
-21.381006
 20
15.456029
 30
0.0
 10
-20.684461
 20
16.152574
 30
0.0
 10
-19.825229
 20
16.152574
 30
0.0
  0
SPLINE
  5
204
100
AcDbEntity
  8
0
 62
7
100
AcDbSpline
 70
8
 71
3
 72
8
 73
4
 74
0
 40
0
 40
0
 40
0
 40
0
 40
1
 40
1
 40
1
 40
1
 10
-19.825229
 20
16.152574
 30
0.0
 10
-18.965998
 20
16.152574
 30
0.0
 10
-18.269453
 20
15.456029
 30
0.0
 10
-18.269453
 20
14.596798
 30
0.0
  0
LWPOLYLINE
  5
205
100
AcDbEntity
  8
0
 62
7
100
AcDbPolyline
 90
1
 70
1
 10
-10.181432
 20
39.227124
 30
0.0
  0
SPLINE
  5
206
100
AcDbEntity
  8
0
 62
7
100
AcDbSpline
 70
8
 71
3
 72
8
 73
4
 74
0
 40
0
 40
0
 40
0
 40
0
 40
1
 40
1
 40
1
 40
1
 10
-13.565162
 20
14.596798
 30
0.0
 10
-13.565162
 20
14.184180
 30
0.0
 10
-13.729073
 20
13.788462
 30
0.0
 10
-14.020838
 20
13.496698
 30
0.0
  0
SPLINE
  5
207
100
AcDbEntity
  8
0
 62
7
100
AcDbSpline
 70
8
 71
3
 72
8
 73
4
 74
0
 40
0
 40
0
 40
0
 40
0
 40
1
 40
1
 40
1
 40
1
 10
-14.020838
 20
13.496698
 30
0.0
 10
-14.312603
 20
13.204933
 30
0.0
 10
-14.708320
 20
13.041021
 30
0.0
 10
-15.120938
 20
13.041021
 30
0.0
  0
SPLINE
  5
208
100
AcDbEntity
  8
0
 62
7
100
AcDbSpline
 70
8
 71
3
 72
8
 73
4
 74
0
 40
0
 40
0
 40
0
 40
0
 40
1
 40
1
 40
1
 40
1
 10
-15.120938
 20
13.041021
 30
0.0
 10
-15.980170
 20
13.041021
 30
0.0
 10
-16.676714
 20
13.737566
 30
0.0
 10
-16.676714
 20
14.596798
 30
0.0
  0
SPLINE
  5
209
100
AcDbEntity
  8
0
 62
7
100
AcDbSpline
 70
8
 71
3
 72
8
 73
4
 74
0
 40
0
 40
0
 40
0
 40
0
 40
1
 40
1
 40
1
 40
1
 10
-16.676714
 20
14.596798
 30
0.0
 10
-16.676714
 20
15.456029
 30
0.0
 10
-15.980169
 20
16.152574
 30
0.0
 10
-15.120938
 20
16.152574
 30
0.0
  0
SPLINE
  5
20a
100
AcDbEntity
  8
0
 62
7
100
AcDbSpline
 70
8
 71
3
 72
8
 73
4
 74
0
 40
0
 40
0
 40
0
 40
0
 40
1
 40
1
 40
1
 40
1
 10
-15.120938
 20
16.152574
 30
0.0
 10
-14.261707
 20
16.152574
 30
0.0
 10
-13.565162
 20
15.456029
 30
0.0
 10
-13.565162
 20
14.596798
 30
0.0
  0
LWPOLYLINE
  5
20b
100
AcDbEntity
  8
0
 62
7
100
AcDbPolyline
 90
1
 70
1
 10
-18.269453
 20
14.596798
 30
0.0
  0
SPLINE
  5
20c
100
AcDbEntity
  8
0
 62
7
100
AcDbSpline
 70
8
 71
3
 72
8
 73
4
 74
0
 40
0
 40
0
 40
0
 40
0
 40
1
 40
1
 40
1
 40
1
 10
-8.860869
 20
14.596798
 30
0.0
 10
-8.860869
 20
14.184180
 30
0.0
 10
-9.024781
 20
13.788462
 30
0.0
 10
-9.316545
 20
13.496698
 30
0.0
  0
SPLINE
  5
20d
100
AcDbEntity
  8
0
 62
7
100
AcDbSpline
 70
8
 71
3
 72
8
 73
4
 74
0
 40
0
 40
0
 40
0
 40
0
 40
1
 40
1
 40
1
 40
1
 10
-9.316545
 20
13.496698
 30
0.0
 10
-9.608310
 20
13.204933
 30
0.0
 10
-10.004028
 20
13.041021
 30
0.0
 10
-10.416646
 20
13.041021
 30
0.0
  0
SPLINE
  5
20e
100
AcDbEntity
  8
0
 62
7
100
AcDbSpline
 70
8
 71
3
 72
8
 73
4
 74
0
 40
0
 40
0
 40
0
 40
0
 40
1
 40
1
 40
1
 40
1
 10
-10.416646
 20
13.041021
 30
0.0
 10
-10.829263
 20
13.041021
 30
0.0
 10
-11.224981
 20
13.204933
 30
0.0
 10
-11.516746
 20
13.496698
 30
0.0
  0
SPLINE
  5
20f
100
AcDbEntity
  8
0
 62
7
100
AcDbSpline
 70
8
 71
3
 72
8
 73
4
 74
0
 40
0
 40
0
 40
0
 40
0
 40
1
 40
1
 40
1
 40
1
 10
-11.516746
 20
13.496698
 30
0.0
 10
-11.808510
 20
13.788462
 30
0.0
 10
-11.972422
 20
14.184180
 30
0.0
 10
-11.972422
 20
14.596798
 30
0.0
  0
SPLINE
  5
210
100
AcDbEntity
  8
0
 62
7
100
AcDbSpline
 70
8
 71
3
 72
8
 73
4
 74
0
 40
0
 40
0
 40
0
 40
0
 40
1
 40
1
 40
1
 40
1
 10
-11.972422
 20
14.596798
 30
0.0
 10
-11.972422
 20
15.456029
 30
0.0
 10
-11.275877
 20
16.152574
 30
0.0
 10
-10.416646
 20
16.152574
 30
0.0
  0
SPLINE
  5
211
100
AcDbEntity
  8
0
 62
7
100
AcDbSpline
 70
8
 71
3
 72
8
 73
4
 74
0
 40
0
 40
0
 40
0
 40
0
 40
1
 40
1
 40
1
 40
1
 10
-10.416646
 20
16.152574
 30
0.0
 10
-9.557414
 20
16.152574
 30
0.0
 10
-8.860869
 20
15.456029
 30
0.0
 10
-8.860869
 20
14.596798
 30
0.0
  0
LWPOLYLINE
  5
212
100
AcDbEntity
  8
0
 62
7
100
AcDbPolyline
 90
1
 70
1
 10
-13.565162
 20
14.596798
 30
0.0
  0
SPLINE
  5
213
100
AcDbEntity
  8
0
 62
7
100
AcDbSpline
 70
8
 71
3
 72
8
 73
4
 74
0
 40
0
 40
0
 40
0
 40
0
 40
1
 40
1
 40
1
 40
1
 10
-4.156578
 20
14.596798
 30
0.0
 10
-4.156578
 20
14.184180
 30
0.0
 10
-4.320489
 20
13.788462
 30
0.0
 10
-4.612254
 20
13.496698
 30
0.0
  0
SPLINE
  5
214
100
AcDbEntity
  8
0
 62
7
100
AcDbSpline
 70
8
 71
3
 72
8
 73
4
 74
0
 40
0
 40
0
 40
0
 40
0
 40
1
 40
1
 40
1
 40
1
 10
-4.612254
 20
13.496698
 30
0.0
 10
-4.904019
 20
13.204933
 30
0.0
 10
-5.299737
 20
13.041021
 30
0.0
 10
-5.712354
 20
13.041021
 30
0.0
  0
SPLINE
  5
215
100
AcDbEntity
  8
0
 62
7
100
AcDbSpline
 70
8
 71
3
 72
8
 73
4
 74
0
 40
0
 40
0
 40
0
 40
0
 40
1
 40
1
 40
1
 40
1
 10
-5.712354
 20
13.041021
 30
0.0
 10
-6.124972
 20
13.041021
 30
0.0
 10
-6.520690
 20
13.204933
 30
0.0
 10
-6.812454
 20
13.496698
 30
0.0
  0
SPLINE
  5
216
100
AcDbEntity
  8
0
 62
7
100
AcDbSpline
 70
8
 71
3
 72
8
 73
4
 74
0
 40
0
 40
0
 40
0
 40
0
 40
1
 40
1
 40
1
 40
1
 10
-6.812454
 20
13.496698
 30
0.0
 10
-7.104219
 20
13.788462
 30
0.0
 10
-7.268131
 20
14.184180
 30
0.0
 10
-7.268131
 20
14.596798
 30
0.0
  0
SPLINE
  5
217
100
AcDbEntity
  8
0
 62
7
100
AcDbSpline
 70
8
 71
3
 72
8
 73
4
 74
0
 40
0
 40
0
 40
0
 40
0
 40
1
 40
1
 40
1
 40
1
 10
-7.268131
 20
14.596798
 30
0.0
 10
-7.268131
 20
15.456029
 30
0.0
 10
-6.571586
 20
16.152574
 30
0.0
 10
-5.712354
 20
16.152574
 30
0.0
  0
SPLINE
  5
218
100
AcDbEntity
  8
0
 62
7
100
AcDbSpline
 70
8
 71
3
 72
8
 73
4
 74
0
 40
0
 40
0
 40
0
 40
0
 40
1
 40
1
 40
1
 40
1
 10
-5.712354
 20
16.152574
 30
0.0
 10
-4.853123
 20
16.152574
 30
0.0
 10
-4.156578
 20
15.456029
 30
0.0
 10
-4.156578
 20
14.596798
 30
0.0
  0
LWPOLYLINE
  5
219
100
AcDbEntity
  8
0
 62
7
100
AcDbPolyline
 90
1
 70
1
 10
-8.860869
 20
14.596798
 30
0.0
  0
SPLINE
  5
21a
100
AcDbEntity
  8
0
 62
7
100
AcDbSpline
 70
8
 71
3
 72
8
 73
4
 74
0
 40
0
 40
0
 40
0
 40
0
 40
1
 40
1
 40
1
 40
1
 10
2.899860
 20
14.596798
 30
0.0
 10
2.899860
 20
14.184180
 30
0.0
 10
2.735948
 20
13.788462
 30
0.0
 10
2.444183
 20
13.496698
 30
0.0
  0
SPLINE
  5
21b
100
AcDbEntity
  8
0
 62
7
100
AcDbSpline
 70
8
 71
3
 72
8
 73
4
 74
0
 40
0
 40
0
 40
0
 40
0
 40
1
 40
1
 40
1
 40
1
 10
2.444183
 20
13.496698
 30
0.0
 10
2.152419
 20
13.204933
 30
0.0
 10
1.756701
 20
13.041021
 30
0.0
 10
1.344083
 20
13.041021
 30
0.0
  0
SPLINE
  5
21c
100
AcDbEntity
  8
0
 62
7
100
AcDbSpline
 70
8
 71
3
 72
8
 73
4
 74
0
 40
0
 40
0
 40
0
 40
0
 40
1
 40
1
 40
1
 40
1
 10
1.344083
 20
13.041021
 30
0.0
 10
0.931466
 20
13.041021
 30
0.0
 10
0.535748
 20
13.204933
 30
0.0
 10
0.243983
 20
13.496698
 30
0.0
  0
SPLINE
  5
21d
100
AcDbEntity
  8
0
 62
7
100
AcDbSpline
 70
8
 71
3
 72
8
 73
4
 74
0
 40
0
 40
0
 40
0
 40
0
 40
1
 40
1
 40
1
 40
1
 10
0.243983
 20
13.496698
 30
0.0
 10
-0.047781
 20
13.788462
 30
0.0
 10
-0.211693
 20
14.184180
 30
0.0
 10
-0.211693
 20
14.596798
 30
0.0
  0
SPLINE
  5
21e
100
AcDbEntity
  8
0
 62
7
100
AcDbSpline
 70
8
 71
3
 72
8
 73
4
 74
0
 40
0
 40
0
 40
0
 40
0
 40
1
 40
1
 40
1
 40
1
 10
-0.211693
 20
14.596798
 30
0.0
 10
-0.211693
 20
15.456029
 30
0.0
 10
0.484852
 20
16.152574
 30
0.0
 10
1.344083
 20
16.152574
 30
0.0
  0
SPLINE
  5
21f
100
AcDbEntity
  8
0
 62
7
100
AcDbSpline
 70
8
 71
3
 72
8
 73
4
 74
0
 40
0
 40
0
 40
0
 40
0
 40
1
 40
1
 40
1
 40
1
 10
1.344083
 20
16.152574
 30
0.0
 10
2.203315
 20
16.152574
 30
0.0
 10
2.899860
 20
15.456029
 30
0.0
 10
2.899860
 20
14.596798
 30
0.0
  0
LWPOLYLINE
  5
220
100
AcDbEntity
  8
0
 62
7
100
AcDbPolyline
 90
1
 70
1
 10
-4.156578
 20
14.596798
 30
0.0
  0
SPLINE
  5
221
100
AcDbEntity
  8
0
 62
7
100
AcDbSpline
 70
8
 71
3
 72
8
 73
4
 74
0
 40
0
 40
0
 40
0
 40
0
 40
1
 40
1
 40
1
 40
1
 10
7.604151
 20
14.596798
 30
0.0
 10
7.604151
 20
13.737566
 30
0.0
 10
6.907607
 20
13.041021
 30
0.0
 10
6.048375
 20
13.041021
 30
0.0
  0
SPLINE
  5
222
100
AcDbEntity
  8
0
 62
7
100
AcDbSpline
 70
8
 71
3
 72
8
 73
4
 74
0
 40
0
 40
0
 40
0
 40
0
 40
1
 40
1
 40
1
 40
1
 10
6.048375
 20
13.041021
 30
0.0
 10
5.635758
 20
13.041021
 30
0.0
 10
5.240040
 20
13.204933
 30
0.0
 10
4.948275
 20
13.496698
 30
0.0
  0
SPLINE
  5
223
100
AcDbEntity
  8
0
 62
7
100
AcDbSpline
 70
8
 71
3
 72
8
 73
4
 74
0
 40
0
 40
0
 40
0
 40
0
 40
1
 40
1
 40
1
 40
1
 10
4.948275
 20
13.496698
 30
0.0
 10
4.656510
 20
13.788462
 30
0.0
 10
4.492599
 20
14.184180
 30
0.0
 10
4.492599
 20
14.596798
 30
0.0
  0
SPLINE
  5
224
100
AcDbEntity
  8
0
 62
7
100
AcDbSpline
 70
8
 71
3
 72
8
 73
4
 74
0
 40
0
 40
0
 40
0
 40
0
 40
1
 40
1
 40
1
 40
1
 10
4.492599
 20
14.596798
 30
0.0
 10
4.492599
 20
15.456029
 30
0.0
 10
5.189144
 20
16.152574
 30
0.0
 10
6.048375
 20
16.152574
 30
0.0
  0
SPLINE
  5
225
100
AcDbEntity
  8
0
 62
7
100
AcDbSpline
 70
8
 71
3
 72
8
 73
4
 74
0
 40
0
 40
0
 40
0
 40
0
 40
1
 40
1
 40
1
 40
1
 10
6.048375
 20
16.152574
 30
0.0
 10
6.907607
 20
16.152574
 30
0.0
 10
7.604151
 20
15.456029
 30
0.0
 10
7.604151
 20
14.596798
 30
0.0
  0
LWPOLYLINE
  5
226
100
AcDbEntity
  8
0
 62
7
100
AcDbPolyline
 90
1
 70
1
 10
2.899860
 20
14.596798
 30
0.0
  0
SPLINE
  5
227
100
AcDbEntity
  8
0
 62
7
100
AcDbSpline
 70
8
 71
3
 72
8
 73
4
 74
0
 40
0
 40
0
 40
0
 40
0
 40
1
 40
1
 40
1
 40
1
 10
12.308443
 20
14.596798
 30
0.0
 10
12.308443
 20
14.184180
 30
0.0
 10
12.144531
 20
13.788462
 30
0.0
 10
11.852766
 20
13.496698
 30
0.0
  0
SPLINE
  5
228
100
AcDbEntity
  8
0
 62
7
100
AcDbSpline
 70
8
 71
3
 72
8
 73
4
 74
0
 40
0
 40
0
 40
0
 40
0
 40
1
 40
1
 40
1
 40
1
 10
11.852766
 20
13.496698
 30
0.0
 10
11.561002
 20
13.204933
 30
0.0
 10
11.165284
 20
13.041021
 30
0.0
 10
10.752666
 20
13.041021
 30
0.0
  0
SPLINE
  5
229
100
AcDbEntity
  8
0
 62
7
100
AcDbSpline
 70
8
 71
3
 72
8
 73
4
 74
0
 40
0
 40
0
 40
0
 40
0
 40
1
 40
1
 40
1
 40
1
 10
10.752666
 20
13.041021
 30
0.0
 10
9.893435
 20
13.041021
 30
0.0
 10
9.196890
 20
13.737566
 30
0.0
 10
9.196890
 20
14.596798
 30
0.0
  0
SPLINE
  5
22a
100
AcDbEntity
  8
0
 62
7
100
AcDbSpline
 70
8
 71
3
 72
8
 73
4
 74
0
 40
0
 40
0
 40
0
 40
0
 40
1
 40
1
 40
1
 40
1
 10
9.196890
 20
14.596798
 30
0.0
 10
9.196890
 20
15.456029
 30
0.0
 10
9.893435
 20
16.152574
 30
0.0
 10
10.752666
 20
16.152574
 30
0.0
  0
SPLINE
  5
22b
100
AcDbEntity
  8
0
 62
7
100
AcDbSpline
 70
8
 71
3
 72
8
 73
4
 74
0
 40
0
 40
0
 40
0
 40
0
 40
1
 40
1
 40
1
 40
1
 10
10.752666
 20
16.152574
 30
0.0
 10
11.611898
 20
16.152574
 30
0.0
 10
12.308443
 20
15.456029
 30
0.0
 10
12.308443
 20
14.596798
 30
0.0
  0
LWPOLYLINE
  5
22c
100
AcDbEntity
  8
0
 62
7
100
AcDbPolyline
 90
1
 70
1
 10
7.604151
 20
14.596798
 30
0.0
  0
SPLINE
  5
22d
100
AcDbEntity
  8
0
 62
7
100
AcDbSpline
 70
8
 71
3
 72
8
 73
4
 74
0
 40
0
 40
0
 40
0
 40
0
 40
1
 40
1
 40
1
 40
1
 10
17.012734
 20
14.596798
 30
0.0
 10
17.012734
 20
14.184180
 30
0.0
 10
16.848823
 20
13.788462
 30
0.0
 10
16.557058
 20
13.496698
 30
0.0
  0
SPLINE
  5
22e
100
AcDbEntity
  8
0
 62
7
100
AcDbSpline
 70
8
 71
3
 72
8
 73
4
 74
0
 40
0
 40
0
 40
0
 40
0
 40
1
 40
1
 40
1
 40
1
 10
16.557058
 20
13.496698
 30
0.0
 10
16.265293
 20
13.204933
 30
0.0
 10
15.869575
 20
13.041021
 30
0.0
 10
15.456958
 20
13.041021
 30
0.0
  0
SPLINE
  5
22f
100
AcDbEntity
  8
0
 62
7
100
AcDbSpline
 70
8
 71
3
 72
8
 73
4
 74
0
 40
0
 40
0
 40
0
 40
0
 40
1
 40
1
 40
1
 40
1
 10
15.456958
 20
13.041021
 30
0.0
 10
15.044340
 20
13.041021
 30
0.0
 10
14.648622
 20
13.204933
 30
0.0
 10
14.356858
 20
13.496698
 30
0.0
  0
SPLINE
  5
230
100
AcDbEntity
  8
0
 62
7
100
AcDbSpline
 70
8
 71
3
 72
8
 73
4
 74
0
 40
0
 40
0
 40
0
 40
0
 40
1
 40
1
 40
1
 40
1
 10
14.356858
 20
13.496698
 30
0.0
 10
14.065093
 20
13.788462
 30
0.0
 10
13.901181
 20
14.184180
 30
0.0
 10
13.901181
 20
14.596798
 30
0.0
  0
SPLINE
  5
231
100
AcDbEntity
  8
0
 62
7
100
AcDbSpline
 70
8
 71
3
 72
8
 73
4
 74
0
 40
0
 40
0
 40
0
 40
0
 40
1
 40
1
 40
1
 40
1
 10
13.901181
 20
14.596798
 30
0.0
 10
13.901181
 20
15.456029
 30
0.0
 10
14.597726
 20
16.152574
 30
0.0
 10
15.456958
 20
16.152574
 30
0.0
  0
SPLINE
  5
232
100
AcDbEntity
  8
0
 62
7
100
AcDbSpline
 70
8
 71
3
 72
8
 73
4
 74
0
 40
0
 40
0
 40
0
 40
0
 40
1
 40
1
 40
1
 40
1
 10
15.456958
 20
16.152574
 30
0.0
 10
16.316189
 20
16.152574
 30
0.0
 10
17.012734
 20
15.456029
 30
0.0
 10
17.012734
 20
14.596798
 30
0.0
  0
LWPOLYLINE
  5
233
100
AcDbEntity
  8
0
 62
7
100
AcDbPolyline
 90
1
 70
1
 10
12.308443
 20
14.596798
 30
0.0
  0
SPLINE
  5
234
100
AcDbEntity
  8
0
 62
7
100
AcDbSpline
 70
8
 71
3
 72
8
 73
4
 74
0
 40
0
 40
0
 40
0
 40
0
 40
1
 40
1
 40
1
 40
1
 10
21.717026
 20
14.596798
 30
0.0
 10
21.717026
 20
14.184180
 30
0.0
 10
21.553114
 20
13.788462
 30
0.0
 10
21.261349
 20
13.496698
 30
0.0
  0
SPLINE
  5
235
100
AcDbEntity
  8
0
 62
7
100
AcDbSpline
 70
8
 71
3
 72
8
 73
4
 74
0
 40
0
 40
0
 40
0
 40
0
 40
1
 40
1
 40
1
 40
1
 10
21.261349
 20
13.496698
 30
0.0
 10
20.969585
 20
13.204933
 30
0.0
 10
20.573867
 20
13.041021
 30
0.0
 10
20.161249
 20
13.041021
 30
0.0
  0
SPLINE
  5
236
100
AcDbEntity
  8
0
 62
7
100
AcDbSpline
 70
8
 71
3
 72
8
 73
4
 74
0
 40
0
 40
0
 40
0
 40
0
 40
1
 40
1
 40
1
 40
1
 10
20.161249
 20
13.041021
 30
0.0
 10
19.748632
 20
13.041021
 30
0.0
 10
19.352914
 20
13.204933
 30
0.0
 10
19.061149
 20
13.496698
 30
0.0
  0
SPLINE
  5
237
100
AcDbEntity
  8
0
 62
7
100
AcDbSpline
 70
8
 71
3
 72
8
 73
4
 74
0
 40
0
 40
0
 40
0
 40
0
 40
1
 40
1
 40
1
 40
1
 10
19.061149
 20
13.496698
 30
0.0
 10
18.769384
 20
13.788462
 30
0.0
 10
18.605473
 20
14.184180
 30
0.0
 10
18.605473
 20
14.596798
 30
0.0
  0
SPLINE
  5
238
100
AcDbEntity
  8
0
 62
7
100
AcDbSpline
 70
8
 71
3
 72
8
 73
4
 74
0
 40
0
 40
0
 40
0
 40
0
 40
1
 40
1
 40
1
 40
1
 10
18.605473
 20
14.596798
 30
0.0
 10
18.605473
 20
15.456029
 30
0.0
 10
19.302018
 20
16.152574
 30
0.0
 10
20.161249
 20
16.152574
 30
0.0
  0
SPLINE
  5
239
100
AcDbEntity
  8
0
 62
7
100
AcDbSpline
 70
8
 71
3
 72
8
 73
4
 74
0
 40
0
 40
0
 40
0
 40
0
 40
1
 40
1
 40
1
 40
1
 10
20.161249
 20
16.152574
 30
0.0
 10
21.020481
 20
16.152574
 30
0.0
 10
21.717026
 20
15.456029
 30
0.0
 10
21.717026
 20
14.596798
 30
0.0
  0
LWPOLYLINE
  5
23a
100
AcDbEntity
  8
0
 62
7
100
AcDbPolyline
 90
1
 70
1
 10
17.012734
 20
14.596798
 30
0.0
  0
SPLINE
  5
23b
100
AcDbEntity
  8
0
 62
7
100
AcDbSpline
 70
8
 71
3
 72
8
 73
4
 74
0
 40
0
 40
0
 40
0
 40
0
 40
1
 40
1
 40
1
 40
1
 10
21.717026
 20
21.989256
 30
0.0
 10
21.717026
 20
21.576638
 30
0.0
 10
21.553114
 20
21.180921
 30
0.0
 10
21.261349
 20
20.889156
 30
0.0
  0
SPLINE
  5
23c
100
AcDbEntity
  8
0
 62
7
100
AcDbSpline
 70
8
 71
3
 72
8
 73
4
 74
0
 40
0
 40
0
 40
0
 40
0
 40
1
 40
1
 40
1
 40
1
 10
21.261349
 20
20.889156
 30
0.0
 10
20.969585
 20
20.597391
 30
0.0
 10
20.573867
 20
20.433480
 30
0.0
 10
20.161249
 20
20.433480
 30
0.0
  0
SPLINE
  5
23d
100
AcDbEntity
  8
0
 62
7
100
AcDbSpline
 70
8
 71
3
 72
8
 73
4
 74
0
 40
0
 40
0
 40
0
 40
0
 40
1
 40
1
 40
1
 40
1
 10
20.161249
 20
20.433480
 30
0.0
 10
19.748632
 20
20.433480
 30
0.0
 10
19.352914
 20
20.597391
 30
0.0
 10
19.061149
 20
20.889156
 30
0.0
  0
SPLINE
  5
23e
100
AcDbEntity
  8
0
 62
7
100
AcDbSpline
 70
8
 71
3
 72
8
 73
4
 74
0
 40
0
 40
0
 40
0
 40
0
 40
1
 40
1
 40
1
 40
1
 10
19.061149
 20
20.889156
 30
0.0
 10
18.769384
 20
21.180921
 30
0.0
 10
18.605473
 20
21.576638
 30
0.0
 10
18.605473
 20
21.989256
 30
0.0
  0
SPLINE
  5
23f
100
AcDbEntity
  8
0
 62
7
100
AcDbSpline
 70
8
 71
3
 72
8
 73
4
 74
0
 40
0
 40
0
 40
0
 40
0
 40
1
 40
1
 40
1
 40
1
 10
18.605473
 20
21.989256
 30
0.0
 10
18.605473
 20
22.401874
 30
0.0
 10
18.769384
 20
22.797591
 30
0.0
 10
19.061149
 20
23.089356
 30
0.0
  0
SPLINE
  5
240
100
AcDbEntity
  8
0
 62
7
100
AcDbSpline
 70
8
 71
3
 72
8
 73
4
 74
0
 40
0
 40
0
 40
0
 40
0
 40
1
 40
1
 40
1
 40
1
 10
19.061149
 20
23.089356
 30
0.0
 10
19.352914
 20
23.381121
 30
0.0
 10
19.748632
 20
23.545032
 30
0.0
 10
20.161249
 20
23.545032
 30
0.0
  0
SPLINE
  5
241
100
AcDbEntity
  8
0
 62
7
100
AcDbSpline
 70
8
 71
3
 72
8
 73
4
 74
0
 40
0
 40
0
 40
0
 40
0
 40
1
 40
1
 40
1
 40
1
 10
20.161249
 20
23.545032
 30
0.0
 10
20.573867
 20
23.545032
 30
0.0
 10
20.969585
 20
23.381121
 30
0.0
 10
21.261349
 20
23.089356
 30
0.0
  0
SPLINE
  5
242
100
AcDbEntity
  8
0
 62
7
100
AcDbSpline
 70
8
 71
3
 72
8
 73
4
 74
0
 40
0
 40
0
 40
0
 40
0
 40
1
 40
1
 40
1
 40
1
 10
21.261349
 20
23.089356
 30
0.0
 10
21.553114
 20
22.797591
 30
0.0
 10
21.717026
 20
22.401874
 30
0.0
 10
21.717026
 20
21.989256
 30
0.0
  0
LWPOLYLINE
  5
243
100
AcDbEntity
  8
0
 62
7
100
AcDbPolyline
 90
1
 70
1
 10
21.717026
 20
14.596798
 30
0.0
  0
SPLINE
  5
244
100
AcDbEntity
  8
0
 62
7
100
AcDbSpline
 70
8
 71
3
 72
8
 73
4
 74
0
 40
0
 40
0
 40
0
 40
0
 40
1
 40
1
 40
1
 40
1
 10
21.717026
 20
29.381715
 30
0.0
 10
21.717026
 20
28.969097
 30
0.0
 10
21.553114
 20
28.573379
 30
0.0
 10
21.261349
 20
28.281614
 30
0.0
  0
SPLINE
  5
245
100
AcDbEntity
  8
0
 62
7
100
AcDbSpline
 70
8
 71
3
 72
8
 73
4
 74
0
 40
0
 40
0
 40
0
 40
0
 40
1
 40
1
 40
1
 40
1
 10
21.261349
 20
28.281614
 30
0.0
 10
20.969585
 20
27.989850
 30
0.0
 10
20.573867
 20
27.825938
 30
0.0
 10
20.161249
 20
27.825938
 30
0.0
  0
SPLINE
  5
246
100
AcDbEntity
  8
0
 62
7
100
AcDbSpline
 70
8
 71
3
 72
8
 73
4
 74
0
 40
0
 40
0
 40
0
 40
0
 40
1
 40
1
 40
1
 40
1
 10
20.161249
 20
27.825938
 30
0.0
 10
19.748632
 20
27.825938
 30
0.0
 10
19.352914
 20
27.989850
 30
0.0
 10
19.061149
 20
28.281614
 30
0.0
  0
SPLINE
  5
247
100
AcDbEntity
  8
0
 62
7
100
AcDbSpline
 70
8
 71
3
 72
8
 73
4
 74
0
 40
0
 40
0
 40
0
 40
0
 40
1
 40
1
 40
1
 40
1
 10
19.061149
 20
28.281614
 30
0.0
 10
18.769384
 20
28.573379
 30
0.0
 10
18.605473
 20
28.969097
 30
0.0
 10
18.605473
 20
29.381715
 30
0.0
  0
SPLINE
  5
248
100
AcDbEntity
  8
0
 62
7
100
AcDbSpline
 70
8
 71
3
 72
8
 73
4
 74
0
 40
0
 40
0
 40
0
 40
0
 40
1
 40
1
 40
1
 40
1
 10
18.605473
 20
29.381715
 30
0.0
 10
18.605473
 20
29.794332
 30
0.0
 10
18.769384
 20
30.190050
 30
0.0
 10
19.061149
 20
30.481815
 30
0.0
  0
SPLINE
  5
249
100
AcDbEntity
  8
0
 62
7
100
AcDbSpline
 70
8
 71
3
 72
8
 73
4
 74
0
 40
0
 40
0
 40
0
 40
0
 40
1
 40
1
 40
1
 40
1
 10
19.061149
 20
30.481815
 30
0.0
 10
19.352914
 20
30.773579
 30
0.0
 10
19.748632
 20
30.937491
 30
0.0
 10
20.161249
 20
30.937491
 30
0.0
  0
SPLINE
  5
24a
100
AcDbEntity
  8
0
 62
7
100
AcDbSpline
 70
8
 71
3
 72
8
 73
4
 74
0
 40
0
 40
0
 40
0
 40
0
 40
1
 40
1
 40
1
 40
1
 10
20.161249
 20
30.937491
 30
0.0
 10
20.573867
 20
30.937491
 30
0.0
 10
20.969585
 20
30.773579
 30
0.0
 10
21.261349
 20
30.481815
 30
0.0
  0
SPLINE
  5
24b
100
AcDbEntity
  8
0
 62
7
100
AcDbSpline
 70
8
 71
3
 72
8
 73
4
 74
0
 40
0
 40
0
 40
0
 40
0
 40
1
 40
1
 40
1
 40
1
 10
21.261349
 20
30.481815
 30
0.0
 10
21.553114
 20
30.190050
 30
0.0
 10
21.717026
 20
29.794332
 30
0.0
 10
21.717026
 20
29.381715
 30
0.0
  0
LWPOLYLINE
  5
24c
100
AcDbEntity
  8
0
 62
7
100
AcDbPolyline
 90
1
 70
1
 10
21.717026
 20
21.989256
 30
0.0
  0
SPLINE
  5
24d
100
AcDbEntity
  8
0
 62
7
100
AcDbSpline
 70
8
 71
3
 72
8
 73
4
 74
0
 40
0
 40
0
 40
0
 40
0
 40
1
 40
1
 40
1
 40
1
 10
21.717026
 20
36.774172
 30
0.0
 10
21.717026
 20
35.914941
 30
0.0
 10
21.020481
 20
35.218396
 30
0.0
 10
20.161249
 20
35.218396
 30
0.0
  0
SPLINE
  5
24e
100
AcDbEntity
  8
0
 62
7
100
AcDbSpline
 70
8
 71
3
 72
8
 73
4
 74
0
 40
0
 40
0
 40
0
 40
0
 40
1
 40
1
 40
1
 40
1
 10
20.161249
 20
35.218396
 30
0.0
 10
19.302018
 20
35.218396
 30
0.0
 10
18.605473
 20
35.914941
 30
0.0
 10
18.605473
 20
36.774172
 30
0.0
  0
SPLINE
  5
24f
100
AcDbEntity
  8
0
 62
7
100
AcDbSpline
 70
8
 71
3
 72
8
 73
4
 74
0
 40
0
 40
0
 40
0
 40
0
 40
1
 40
1
 40
1
 40
1
 10
18.605473
 20
36.774172
 30
0.0
 10
18.605473
 20
37.186790
 30
0.0
 10
18.769384
 20
37.582508
 30
0.0
 10
19.061149
 20
37.874272
 30
0.0
  0
SPLINE
  5
250
100
AcDbEntity
  8
0
 62
7
100
AcDbSpline
 70
8
 71
3
 72
8
 73
4
 74
0
 40
0
 40
0
 40
0
 40
0
 40
1
 40
1
 40
1
 40
1
 10
19.061149
 20
37.874272
 30
0.0
 10
19.352914
 20
38.166037
 30
0.0
 10
19.748632
 20
38.329949
 30
0.0
 10
20.161249
 20
38.329949
 30
0.0
  0
SPLINE
  5
251
100
AcDbEntity
  8
0
 62
7
100
AcDbSpline
 70
8
 71
3
 72
8
 73
4
 74
0
 40
0
 40
0
 40
0
 40
0
 40
1
 40
1
 40
1
 40
1
 10
20.161249
 20
38.329949
 30
0.0
 10
20.573867
 20
38.329949
 30
0.0
 10
20.969585
 20
38.166037
 30
0.0
 10
21.261349
 20
37.874272
 30
0.0
  0
SPLINE
  5
252
100
AcDbEntity
  8
0
 62
7
100
AcDbSpline
 70
8
 71
3
 72
8
 73
4
 74
0
 40
0
 40
0
 40
0
 40
0
 40
1
 40
1
 40
1
 40
1
 10
21.261349
 20
37.874272
 30
0.0
 10
21.553114
 20
37.582508
 30
0.0
 10
21.717026
 20
37.186790
 30
0.0
 10
21.717026
 20
36.774172
 30
0.0
  0
LWPOLYLINE
  5
253
100
AcDbEntity
  8
0
 62
7
100
AcDbPolyline
 90
1
 70
1
 10
21.717026
 20
29.381715
 30
0.0
  0
SPLINE
  5
254
100
AcDbEntity
  8
0
 62
7
100
AcDbSpline
 70
8
 71
3
 72
8
 73
4
 74
0
 40
0
 40
0
 40
0
 40
0
 40
1
 40
1
 40
1
 40
1
 10
-18.269453
 20
36.774172
 30
0.0
 10
-18.269453
 20
35.914941
 30
0.0
 10
-18.965998
 20
35.218396
 30
0.0
 10
-19.825229
 20
35.218396
 30
0.0
  0
SPLINE
  5
255
100
AcDbEntity
  8
0
 62
7
100
AcDbSpline
 70
8
 71
3
 72
8
 73
4
 74
0
 40
0
 40
0
 40
0
 40
0
 40
1
 40
1
 40
1
 40
1
 10
-19.825229
 20
35.218396
 30
0.0
 10
-20.684461
 20
35.218396
 30
0.0
 10
-21.381006
 20
35.914941
 30
0.0
 10
-21.381006
 20
36.774172
 30
0.0
  0
SPLINE
  5
256
100
AcDbEntity
  8
0
 62
7
100
AcDbSpline
 70
8
 71
3
 72
8
 73
4
 74
0
 40
0
 40
0
 40
0
 40
0
 40
1
 40
1
 40
1
 40
1
 10
-21.381006
 20
36.774172
 30
0.0
 10
-21.381006
 20
37.186790
 30
0.0
 10
-21.217094
 20
37.582508
 30
0.0
 10
-20.925329
 20
37.874272
 30
0.0
  0
SPLINE
  5
257
100
AcDbEntity
  8
0
 62
7
100
AcDbSpline
 70
8
 71
3
 72
8
 73
4
 74
0
 40
0
 40
0
 40
0
 40
0
 40
1
 40
1
 40
1
 40
1
 10
-20.925329
 20
37.874272
 30
0.0
 10
-20.633565
 20
38.166037
 30
0.0
 10
-20.237847
 20
38.329949
 30
0.0
 10
-19.825229
 20
38.329949
 30
0.0
  0
SPLINE
  5
258
100
AcDbEntity
  8
0
 62
7
100
AcDbSpline
 70
8
 71
3
 72
8
 73
4
 74
0
 40
0
 40
0
 40
0
 40
0
 40
1
 40
1
 40
1
 40
1
 10
-19.825229
 20
38.329949
 30
0.0
 10
-18.965998
 20
38.329949
 30
0.0
 10
-18.269453
 20
37.633404
 30
0.0
 10
-18.269453
 20
36.774172
 30
0.0
  0
LWPOLYLINE
  5
259
100
AcDbEntity
  8
0
 62
7
100
AcDbPolyline
 90
1
 70
1
 10
21.717026
 20
36.774172
 30
0.0
  0
SPLINE
  5
25a
100
AcDbEntity
  8
0
 62
7
100
AcDbSpline
 70
8
 71
3
 72
8
 73
4
 74
0
 40
0
 40
0
 40
0
 40
0
 40
1
 40
1
 40
1
 40
1
 10
-13.565162
 20
36.774172
 30
0.0
 10
-13.565162
 20
35.914941
 30
0.0
 10
-14.261707
 20
35.218396
 30
0.0
 10
-15.120938
 20
35.218396
 30
0.0
  0
SPLINE
  5
25b
100
AcDbEntity
  8
0
 62
7
100
AcDbSpline
 70
8
 71
3
 72
8
 73
4
 74
0
 40
0
 40
0
 40
0
 40
0
 40
1
 40
1
 40
1
 40
1
 10
-15.120938
 20
35.218396
 30
0.0
 10
-15.980169
 20
35.218396
 30
0.0
 10
-16.676714
 20
35.914941
 30
0.0
 10
-16.676714
 20
36.774172
 30
0.0
  0
SPLINE
  5
25c
100
AcDbEntity
  8
0
 62
7
100
AcDbSpline
 70
8
 71
3
 72
8
 73
4
 74
0
 40
0
 40
0
 40
0
 40
0
 40
1
 40
1
 40
1
 40
1
 10
-16.676714
 20
36.774172
 30
0.0
 10
-16.676714
 20
37.633404
 30
0.0
 10
-15.980170
 20
38.329949
 30
0.0
 10
-15.120938
 20
38.329949
 30
0.0
  0
SPLINE
  5
25d
100
AcDbEntity
  8
0
 62
7
100
AcDbSpline
 70
8
 71
3
 72
8
 73
4
 74
0
 40
0
 40
0
 40
0
 40
0
 40
1
 40
1
 40
1
 40
1
 10
-15.120938
 20
38.329949
 30
0.0
 10
-14.708320
 20
38.329949
 30
0.0
 10
-14.312603
 20
38.166037
 30
0.0
 10
-14.020838
 20
37.874272
 30
0.0
  0
SPLINE
  5
25e
100
AcDbEntity
  8
0
 62
7
100
AcDbSpline
 70
8
 71
3
 72
8
 73
4
 74
0
 40
0
 40
0
 40
0
 40
0
 40
1
 40
1
 40
1
 40
1
 10
-14.020838
 20
37.874272
 30
0.0
 10
-13.729073
 20
37.582508
 30
0.0
 10
-13.565162
 20
37.186790
 30
0.0
 10
-13.565162
 20
36.774172
 30
0.0
  0
LWPOLYLINE
  5
25f
100
AcDbEntity
  8
0
 62
7
100
AcDbPolyline
 90
1
 70
1
 10
-18.269453
 20
36.774172
 30
0.0
  0
SPLINE
  5
260
100
AcDbEntity
  8
0
 62
7
100
AcDbSpline
 70
8
 71
3
 72
8
 73
4
 74
0
 40
0
 40
0
 40
0
 40
0
 40
1
 40
1
 40
1
 40
1
 10
-8.860869
 20
36.774172
 30
0.0
 10
-8.860869
 20
35.914941
 30
0.0
 10
-9.557414
 20
35.218396
 30
0.0
 10
-10.416646
 20
35.218396
 30
0.0
  0
SPLINE
  5
261
100
AcDbEntity
  8
0
 62
7
100
AcDbSpline
 70
8
 71
3
 72
8
 73
4
 74
0
 40
0
 40
0
 40
0
 40
0
 40
1
 40
1
 40
1
 40
1
 10
-10.416646
 20
35.218396
 30
0.0
 10
-11.275877
 20
35.218396
 30
0.0
 10
-11.972422
 20
35.914941
 30
0.0
 10
-11.972422
 20
36.774172
 30
0.0
  0
SPLINE
  5
262
100
AcDbEntity
  8
0
 62
7
100
AcDbSpline
 70
8
 71
3
 72
8
 73
4
 74
0
 40
0
 40
0
 40
0
 40
0
 40
1
 40
1
 40
1
 40
1
 10
-11.972422
 20
36.774172
 30
0.0
 10
-11.972422
 20
37.186790
 30
0.0
 10
-11.808510
 20
37.582508
 30
0.0
 10
-11.516746
 20
37.874272
 30
0.0
  0
SPLINE
  5
263
100
AcDbEntity
  8
0
 62
7
100
AcDbSpline
 70
8
 71
3
 72
8
 73
4
 74
0
 40
0
 40
0
 40
0
 40
0
 40
1
 40
1
 40
1
 40
1
 10
-11.516746
 20
37.874272
 30
0.0
 10
-11.224981
 20
38.166037
 30
0.0
 10
-10.829263
 20
38.329949
 30
0.0
 10
-10.416646
 20
38.329949
 30
0.0
  0
SPLINE
  5
264
100
AcDbEntity
  8
0
 62
7
100
AcDbSpline
 70
8
 71
3
 72
8
 73
4
 74
0
 40
0
 40
0
 40
0
 40
0
 40
1
 40
1
 40
1
 40
1
 10
-10.416646
 20
38.329949
 30
0.0
 10
-10.004028
 20
38.329949
 30
0.0
 10
-9.608310
 20
38.166037
 30
0.0
 10
-9.316545
 20
37.874272
 30
0.0
  0
SPLINE
  5
265
100
AcDbEntity
  8
0
 62
7
100
AcDbSpline
 70
8
 71
3
 72
8
 73
4
 74
0
 40
0
 40
0
 40
0
 40
0
 40
1
 40
1
 40
1
 40
1
 10
-9.316545
 20
37.874272
 30
0.0
 10
-9.024781
 20
37.582508
 30
0.0
 10
-8.860869
 20
37.186790
 30
0.0
 10
-8.860869
 20
36.774172
 30
0.0
  0
LWPOLYLINE
  5
266
100
AcDbEntity
  8
0
 62
7
100
AcDbPolyline
 90
1
 70
1
 10
-13.565162
 20
36.774172
 30
0.0
  0
LWPOLYLINE
  5
267
100
AcDbEntity
  8
0
 62
7
100
AcDbPolyline
 90
1
 70
1
 10
-8.860869
 20
36.774172
 30
0.0
  0
SPLINE
  5
268
100
AcDbEntity
  8
0
 62
7
100
AcDbSpline
 70
8
 71
3
 72
8
 73
4
 74
0
 40
0
 40
0
 40
0
 40
0
 40
1
 40
1
 40
1
 40
1
 10
14.381692
 20
36.538958
 30
0.0
 10
14.381692
 20
35.462599
 30
0.0
 10
13.509131
 20
34.590037
 30
0.0
 10
12.432771
 20
34.590037
 30
0.0
  0
SPLINE
  5
269
100
AcDbEntity
  8
0
 62
7
100
AcDbSpline
 70
8
 71
3
 72
8
 73
4
 74
0
 40
0
 40
0
 40
0
 40
0
 40
1
 40
1
 40
1
 40
1
 10
12.432771
 20
34.590037
 30
0.0
 10
11.356412
 20
34.590037
 30
0.0
 10
10.483851
 20
35.462599
 30
0.0
 10
10.483851
 20
36.538958
 30
0.0
  0
SPLINE
  5
26a
100
AcDbEntity
  8
0
 62
7
100
AcDbSpline
 70
8
 71
3
 72
8
 73
4
 74
0
 40
0
 40
0
 40
0
 40
0
 40
1
 40
1
 40
1
 40
1
 10
10.483851
 20
36.538958
 30
0.0
 10
10.483850
 20
37.055844
 30
0.0
 10
10.689183
 20
37.551559
 30
0.0
 10
11.054676
 20
37.917053
 30
0.0
  0
SPLINE
  5
26b
100
AcDbEntity
  8
0
 62
7
100
AcDbSpline
 70
8
 71
3
 72
8
 73
4
 74
0
 40
0
 40
0
 40
0
 40
0
 40
1
 40
1
 40
1
 40
1
 10
11.054676
 20
37.917053
 30
0.0
 10
11.420170
 20
38.282547
 30
0.0
 10
11.915885
 20
38.487879
 30
0.0
 10
12.432771
 20
38.487879
 30
0.0
  0
SPLINE
  5
26c
100
AcDbEntity
  8
0
 62
7
100
AcDbSpline
 70
8
 71
3
 72
8
 73
4
 74
0
 40
0
 40
0
 40
0
 40
0
 40
1
 40
1
 40
1
 40
1
 10
12.432771
 20
38.487879
 30
0.0
 10
12.949657
 20
38.487879
 30
0.0
 10
13.445373
 20
38.282547
 30
0.0
 10
13.810867
 20
37.917053
 30
0.0
  0
SPLINE
  5
26d
100
AcDbEntity
  8
0
 62
7
100
AcDbSpline
 70
8
 71
3
 72
8
 73
4
 74
0
 40
0
 40
0
 40
0
 40
0
 40
1
 40
1
 40
1
 40
1
 10
13.810867
 20
37.917053
 30
0.0
 10
14.176360
 20
37.551559
 30
0.0
 10
14.381692
 20
37.055844
 30
0.0
 10
14.381692
 20
36.538958
 30
0.0
  0
LWPOLYLINE
  5
26e
100
AcDbEntity
  8
0
 62
7
100
AcDbPolyline
 90
4
 70
1
 10
-3.971766
 20
38.353471
 30
0.0
 10
6.659933
 20
38.353471
 30
0.0
 10
6.659933
 20
34.993263
 30
0.0
 10
-3.971766
 20
34.993263
 30
0.0
  0
SPLINE
  5
26f
100
AcDbEntity
  8
0
 62
7
100
AcDbSpline
 70
8
 71
3
 72
8
 73
4
 74
0
 40
0
 40
0
 40
0
 40
0
 40
1
 40
1
 40
1
 40
1
 10
-20.094046
 20
31.834667
 30
0.0
 10
-20.094046
 20
31.727725
 30
0.0
 10
-20.136529
 20
31.625163
 30
0.0
 10
-20.212148
 20
31.549544
 30
0.0
  0
SPLINE
  5
270
100
AcDbEntity
  8
0
 62
7
100
AcDbSpline
 70
8
 71
3
 72
8
 73
4
 74
0
 40
0
 40
0
 40
0
 40
0
 40
1
 40
1
 40
1
 40
1
 10
-20.212148
 20
31.549544
 30
0.0
 10
-20.287767
 20
31.473924
 30
0.0
 10
-20.390329
 20
31.431442
 30
0.0
 10
-20.497271
 20
31.431442
 30
0.0
  0
SPLINE
  5
271
100
AcDbEntity
  8
0
 62
7
100
AcDbSpline
 70
8
 71
3
 72
8
 73
4
 74
0
 40
0
 40
0
 40
0
 40
0
 40
1
 40
1
 40
1
 40
1
 10
-20.497271
 20
31.431442
 30
0.0
 10
-20.604213
 20
31.431442
 30
0.0
 10
-20.706775
 20
31.473924
 30
0.0
 10
-20.782394
 20
31.549544
 30
0.0
  0
SPLINE
  5
272
100
AcDbEntity
  8
0
 62
7
100
AcDbSpline
 70
8
 71
3
 72
8
 73
4
 74
0
 40
0
 40
0
 40
0
 40
0
 40
1
 40
1
 40
1
 40
1
 10
-20.782394
 20
31.549544
 30
0.0
 10
-20.858014
 20
31.625163
 30
0.0
 10
-20.900496
 20
31.727725
 30
0.0
 10
-20.900496
 20
31.834667
 30
0.0
  0
SPLINE
  5
273
100
AcDbEntity
  8
0
 62
7
100
AcDbSpline
 70
8
 71
3
 72
8
 73
4
 74
0
 40
0
 40
0
 40
0
 40
0
 40
1
 40
1
 40
1
 40
1
 10
-20.900496
 20
31.834667
 30
0.0
 10
-20.900496
 20
31.941609
 30
0.0
 10
-20.858014
 20
32.044170
 30
0.0
 10
-20.782394
 20
32.119790
 30
0.0
  0
SPLINE
  5
274
100
AcDbEntity
  8
0
 62
7
100
AcDbSpline
 70
8
 71
3
 72
8
 73
4
 74
0
 40
0
 40
0
 40
0
 40
0
 40
1
 40
1
 40
1
 40
1
 10
-20.782394
 20
32.119790
 30
0.0
 10
-20.706775
 20
32.195409
 30
0.0
 10
-20.604213
 20
32.237892
 30
0.0
 10
-20.497271
 20
32.237892
 30
0.0
  0
SPLINE
  5
275
100
AcDbEntity
  8
0
 62
7
100
AcDbSpline
 70
8
 71
3
 72
8
 73
4
 74
0
 40
0
 40
0
 40
0
 40
0
 40
1
 40
1
 40
1
 40
1
 10
-20.497271
 20
32.237892
 30
0.0
 10
-20.390329
 20
32.237892
 30
0.0
 10
-20.287767
 20
32.195409
 30
0.0
 10
-20.212148
 20
32.119790
 30
0.0
  0
SPLINE
  5
276
100
AcDbEntity
  8
0
 62
7
100
AcDbSpline
 70
8
 71
3
 72
8
 73
4
 74
0
 40
0
 40
0
 40
0
 40
0
 40
1
 40
1
 40
1
 40
1
 10
-20.212148
 20
32.119790
 30
0.0
 10
-20.136529
 20
32.044170
 30
0.0
 10
-20.094046
 20
31.941609
 30
0.0
 10
-20.094046
 20
31.834667
 30
0.0
  0
LWPOLYLINE
  5
277
100
AcDbEntity
  8
0
 62
7
100
AcDbPolyline
 90
1
 70
1
 10
14.381692
 20
36.538958
 30
0.0
  0
SPLINE
  5
278
100
AcDbEntity
  8
0
 62
7
100
AcDbSpline
 70
8
 71
3
 72
8
 73
4
 74
0
 40
0
 40
0
 40
0
 40
0
 40
1
 40
1
 40
1
 40
1
 10
-20.094046
 20
19.065875
 30
0.0
 10
-20.094046
 20
18.958933
 30
0.0
 10
-20.136529
 20
18.856371
 30
0.0
 10
-20.212148
 20
18.780752
 30
0.0
  0
SPLINE
  5
279
100
AcDbEntity
  8
0
 62
7
100
AcDbSpline
 70
8
 71
3
 72
8
 73
4
 74
0
 40
0
 40
0
 40
0
 40
0
 40
1
 40
1
 40
1
 40
1
 10
-20.212148
 20
18.780752
 30
0.0
 10
-20.287767
 20
18.705132
 30
0.0
 10
-20.390329
 20
18.662650
 30
0.0
 10
-20.497271
 20
18.662650
 30
0.0
  0
SPLINE
  5
27a
100
AcDbEntity
  8
0
 62
7
100
AcDbSpline
 70
8
 71
3
 72
8
 73
4
 74
0
 40
0
 40
0
 40
0
 40
0
 40
1
 40
1
 40
1
 40
1
 10
-20.497271
 20
18.662650
 30
0.0
 10
-20.604213
 20
18.662650
 30
0.0
 10
-20.706775
 20
18.705132
 30
0.0
 10
-20.782394
 20
18.780752
 30
0.0
  0
SPLINE
  5
27b
100
AcDbEntity
  8
0
 62
7
100
AcDbSpline
 70
8
 71
3
 72
8
 73
4
 74
0
 40
0
 40
0
 40
0
 40
0
 40
1
 40
1
 40
1
 40
1
 10
-20.782394
 20
18.780752
 30
0.0
 10
-20.858014
 20
18.856371
 30
0.0
 10
-20.900496
 20
18.958933
 30
0.0
 10
-20.900496
 20
19.065875
 30
0.0
  0
SPLINE
  5
27c
100
AcDbEntity
  8
0
 62
7
100
AcDbSpline
 70
8
 71
3
 72
8
 73
4
 74
0
 40
0
 40
0
 40
0
 40
0
 40
1
 40
1
 40
1
 40
1
 10
-20.900496
 20
19.065875
 30
0.0
 10
-20.900496
 20
19.172817
 30
0.0
 10
-20.858014
 20
19.275379
 30
0.0
 10
-20.782394
 20
19.350998
 30
0.0
  0
SPLINE
  5
27d
100
AcDbEntity
  8
0
 62
7
100
AcDbSpline
 70
8
 71
3
 72
8
 73
4
 74
0
 40
0
 40
0
 40
0
 40
0
 40
1
 40
1
 40
1
 40
1
 10
-20.782394
 20
19.350998
 30
0.0
 10
-20.706775
 20
19.426617
 30
0.0
 10
-20.604213
 20
19.469100
 30
0.0
 10
-20.497271
 20
19.469100
 30
0.0
  0
SPLINE
  5
27e
100
AcDbEntity
  8
0
 62
7
100
AcDbSpline
 70
8
 71
3
 72
8
 73
4
 74
0
 40
0
 40
0
 40
0
 40
0
 40
1
 40
1
 40
1
 40
1
 10
-20.497271
 20
19.469100
 30
0.0
 10
-20.390329
 20
19.469100
 30
0.0
 10
-20.287767
 20
19.426617
 30
0.0
 10
-20.212148
 20
19.350998
 30
0.0
  0
SPLINE
  5
27f
100
AcDbEntity
  8
0
 62
7
100
AcDbSpline
 70
8
 71
3
 72
8
 73
4
 74
0
 40
0
 40
0
 40
0
 40
0
 40
1
 40
1
 40
1
 40
1
 10
-20.212148
 20
19.350998
 30
0.0
 10
-20.136529
 20
19.275379
 30
0.0
 10
-20.094046
 20
19.172817
 30
0.0
 10
-20.094046
 20
19.065875
 30
0.0
  0
LWPOLYLINE
  5
280
100
AcDbEntity
  8
0
 62
7
100
AcDbPolyline
 90
1
 70
1
 10
-20.094046
 20
31.834667
 30
0.0
  0
SPLINE
  5
281
100
AcDbEntity
  8
0
 62
7
100
AcDbSpline
 70
8
 71
3
 72
8
 73
4
 74
0
 40
0
 40
0
 40
0
 40
0
 40
1
 40
1
 40
1
 40
1
 10
21.572538
 20
33.178750
 30
0.0
 10
21.572538
 20
33.071808
 30
0.0
 10
21.530056
 20
32.969246
 30
0.0
 10
21.454436
 20
32.893627
 30
0.0
  0
SPLINE
  5
282
100
AcDbEntity
  8
0
 62
7
100
AcDbSpline
 70
8
 71
3
 72
8
 73
4
 74
0
 40
0
 40
0
 40
0
 40
0
 40
1
 40
1
 40
1
 40
1
 10
21.454436
 20
32.893627
 30
0.0
 10
21.378817
 20
32.818008
 30
0.0
 10
21.276255
 20
32.775525
 30
0.0
 10
21.169313
 20
32.775525
 30
0.0
  0
SPLINE
  5
283
100
AcDbEntity
  8
0
 62
7
100
AcDbSpline
 70
8
 71
3
 72
8
 73
4
 74
0
 40
0
 40
0
 40
0
 40
0
 40
1
 40
1
 40
1
 40
1
 10
21.169313
 20
32.775525
 30
0.0
 10
21.062371
 20
32.775525
 30
0.0
 10
20.959809
 20
32.818008
 30
0.0
 10
20.884190
 20
32.893627
 30
0.0
  0
SPLINE
  5
284
100
AcDbEntity
  8
0
 62
7
100
AcDbSpline
 70
8
 71
3
 72
8
 73
4
 74
0
 40
0
 40
0
 40
0
 40
0
 40
1
 40
1
 40
1
 40
1
 10
20.884190
 20
32.893627
 30
0.0
 10
20.808571
 20
32.969246
 30
0.0
 10
20.766088
 20
33.071808
 30
0.0
 10
20.766088
 20
33.178750
 30
0.0
  0
SPLINE
  5
285
100
AcDbEntity
  8
0
 62
7
100
AcDbSpline
 70
8
 71
3
 72
8
 73
4
 74
0
 40
0
 40
0
 40
0
 40
0
 40
1
 40
1
 40
1
 40
1
 10
20.766088
 20
33.178750
 30
0.0
 10
20.766088
 20
33.285692
 30
0.0
 10
20.808571
 20
33.388254
 30
0.0
 10
20.884190
 20
33.463873
 30
0.0
  0
SPLINE
  5
286
100
AcDbEntity
  8
0
 62
7
100
AcDbSpline
 70
8
 71
3
 72
8
 73
4
 74
0
 40
0
 40
0
 40
0
 40
0
 40
1
 40
1
 40
1
 40
1
 10
20.884190
 20
33.463873
 30
0.0
 10
20.959809
 20
33.539492
 30
0.0
 10
21.062371
 20
33.581975
 30
0.0
 10
21.169313
 20
33.581975
 30
0.0
  0
SPLINE
  5
287
100
AcDbEntity
  8
0
 62
7
100
AcDbSpline
 70
8
 71
3
 72
8
 73
4
 74
0
 40
0
 40
0
 40
0
 40
0
 40
1
 40
1
 40
1
 40
1
 10
21.169313
 20
33.581975
 30
0.0
 10
21.276255
 20
33.581975
 30
0.0
 10
21.378817
 20
33.539492
 30
0.0
 10
21.454436
 20
33.463873
 30
0.0
  0
SPLINE
  5
288
100
AcDbEntity
  8
0
 62
7
100
AcDbSpline
 70
8
 71
3
 72
8
 73
4
 74
0
 40
0
 40
0
 40
0
 40
0
 40
1
 40
1
 40
1
 40
1
 10
21.454436
 20
33.463873
 30
0.0
 10
21.530056
 20
33.388254
 30
0.0
 10
21.572538
 20
33.285692
 30
0.0
 10
21.572538
 20
33.178750
 30
0.0
  0
LWPOLYLINE
  5
289
100
AcDbEntity
  8
0
 62
7
100
AcDbPolyline
 90
1
 70
1
 10
-20.094046
 20
19.065875
 30
0.0
  0
SPLINE
  5
28a
100
AcDbEntity
  8
0
 62
7
100
AcDbSpline
 70
8
 71
3
 72
8
 73
4
 74
0
 40
0
 40
0
 40
0
 40
0
 40
1
 40
1
 40
1
 40
1
 10
21.572538
 20
18.393833
 30
0.0
 10
21.572538
 20
18.286891
 30
0.0
 10
21.530056
 20
18.184330
 30
0.0
 10
21.454436
 20
18.108710
 30
0.0
  0
SPLINE
  5
28b
100
AcDbEntity
  8
0
 62
7
100
AcDbSpline
 70
8
 71
3
 72
8
 73
4
 74
0
 40
0
 40
0
 40
0
 40
0
 40
1
 40
1
 40
1
 40
1
 10
21.454436
 20
18.108710
 30
0.0
 10
21.378817
 20
18.033091
 30
0.0
 10
21.276255
 20
17.990608
 30
0.0
 10
21.169313
 20
17.990608
 30
0.0
  0
SPLINE
  5
28c
100
AcDbEntity
  8
0
 62
7
100
AcDbSpline
 70
8
 71
3
 72
8
 73
4
 74
0
 40
0
 40
0
 40
0
 40
0
 40
1
 40
1
 40
1
 40
1
 10
21.169313
 20
17.990608
 30
0.0
 10
21.062371
 20
17.990608
 30
0.0
 10
20.959809
 20
18.033091
 30
0.0
 10
20.884190
 20
18.108710
 30
0.0
  0
SPLINE
  5
28d
100
AcDbEntity
  8
0
 62
7
100
AcDbSpline
 70
8
 71
3
 72
8
 73
4
 74
0
 40
0
 40
0
 40
0
 40
0
 40
1
 40
1
 40
1
 40
1
 10
20.884190
 20
18.108710
 30
0.0
 10
20.808571
 20
18.184330
 30
0.0
 10
20.766088
 20
18.286891
 30
0.0
 10
20.766088
 20
18.393833
 30
0.0
  0
SPLINE
  5
28e
100
AcDbEntity
  8
0
 62
7
100
AcDbSpline
 70
8
 71
3
 72
8
 73
4
 74
0
 40
0
 40
0
 40
0
 40
0
 40
1
 40
1
 40
1
 40
1
 10
20.766088
 20
18.393833
 30
0.0
 10
20.766088
 20
18.500775
 30
0.0
 10
20.808570
 20
18.603337
 30
0.0
 10
20.884190
 20
18.678957
 30
0.0
  0
SPLINE
  5
28f
100
AcDbEntity
  8
0
 62
7
100
AcDbSpline
 70
8
 71
3
 72
8
 73
4
 74
0
 40
0
 40
0
 40
0
 40
0
 40
1
 40
1
 40
1
 40
1
 10
20.884190
 20
18.678957
 30
0.0
 10
20.959809
 20
18.754576
 30
0.0
 10
21.062371
 20
18.797059
 30
0.0
 10
21.169313
 20
18.797059
 30
0.0
  0
SPLINE
  5
290
100
AcDbEntity
  8
0
 62
7
100
AcDbSpline
 70
8
 71
3
 72
8
 73
4
 74
0
 40
0
 40
0
 40
0
 40
0
 40
1
 40
1
 40
1
 40
1
 10
21.169313
 20
18.797059
 30
0.0
 10
21.276255
 20
18.797059
 30
0.0
 10
21.378817
 20
18.754576
 30
0.0
 10
21.454436
 20
18.678957
 30
0.0
  0
SPLINE
  5
291
100
AcDbEntity
  8
0
 62
7
100
AcDbSpline
 70
8
 71
3
 72
8
 73
4
 74
0
 40
0
 40
0
 40
0
 40
0
 40
1
 40
1
 40
1
 40
1
 10
21.454436
 20
18.678957
 30
0.0
 10
21.530056
 20
18.603337
 30
0.0
 10
21.572538
 20
18.500775
 30
0.0
 10
21.572538
 20
18.393833
 30
0.0
  0
LWPOLYLINE
  5
292
100
AcDbEntity
  8
0
 62
7
100
AcDbPolyline
 90
1
 70
1
 10
21.572538
 20
33.178750
 30
0.0
  0
LWPOLYLINE
  5
293
100
AcDbEntity
  8
0
 62
7
100
AcDbPolyline
 90
1
 70
1
 10
21.572538
 20
18.393833
 30
0.0
  0
ENDSEC
  0
SECTION
  2
OBJECTS
  0
DICTIONARY
  5
C
330
0
100
AcDbDictionary
  3
ACAD_GROUP
350
D
  3
ACAD_MLINESTYLE
350
17
  0
DICTIONARY
  5
D
330
C
100
AcDbDictionary
  0
DICTIONARY
  5
1A
330
C
100
AcDbDictionary
  0
DICTIONARY
  5
17
330
C
100
AcDbDictionary
  3
STANDARD
350
18
  0
DICTIONARY
  5
19
330
C
100
AcDbDictionary
  0
ENDSEC
  0
EOF
