G04 #@! TF.GenerationSoftware,KiCad,Pcbnew,(5.1.2)-1*
G04 #@! TF.CreationDate,2019-06-10T13:07:47+02:00*
G04 #@! TF.ProjectId,YASS_v3,59415353-5f76-4332-9e6b-696361645f70,rev?*
G04 #@! TF.SameCoordinates,Original*
G04 #@! TF.FileFunction,Legend,Bot*
G04 #@! TF.FilePolarity,Positive*
%FSLAX46Y46*%
G04 Gerber Fmt 4.6, Leading zero omitted, Abs format (unit mm)*
G04 Created by KiCad (PCBNEW (5.1.2)-1) date 2019-06-10 13:07:47*
%MOMM*%
%LPD*%
G04 APERTURE LIST*
%ADD10C,0.300000*%
%ADD11C,0.050000*%
%ADD12C,0.203200*%
%ADD13C,0.120000*%
%ADD14C,0.127000*%
%ADD15C,0.150000*%
G04 APERTURE END LIST*
D10*
X109410000Y-71798571D02*
X109410000Y-70298571D01*
X108767142Y-70441428D02*
X108695714Y-70370000D01*
X108552857Y-70298571D01*
X108195714Y-70298571D01*
X108052857Y-70370000D01*
X107981428Y-70441428D01*
X107910000Y-70584285D01*
X107910000Y-70727142D01*
X107981428Y-70941428D01*
X108838571Y-71798571D01*
X107910000Y-71798571D01*
X106410000Y-71655714D02*
X106481428Y-71727142D01*
X106695714Y-71798571D01*
X106838571Y-71798571D01*
X107052857Y-71727142D01*
X107195714Y-71584285D01*
X107267142Y-71441428D01*
X107338571Y-71155714D01*
X107338571Y-70941428D01*
X107267142Y-70655714D01*
X107195714Y-70512857D01*
X107052857Y-70370000D01*
X106838571Y-70298571D01*
X106695714Y-70298571D01*
X106481428Y-70370000D01*
X106410000Y-70441428D01*
X104624285Y-71012857D02*
X104124285Y-71012857D01*
X103910000Y-71798571D02*
X104624285Y-71798571D01*
X104624285Y-70298571D01*
X103910000Y-70298571D01*
X103410000Y-70298571D02*
X102410000Y-71798571D01*
X102410000Y-70298571D02*
X103410000Y-71798571D01*
X102052857Y-70298571D02*
X101195714Y-70298571D01*
X101624285Y-71798571D02*
X101624285Y-70298571D01*
X136814285Y-69258571D02*
X136814285Y-67758571D01*
X136242857Y-67758571D01*
X136100000Y-67830000D01*
X136028571Y-67901428D01*
X135957142Y-68044285D01*
X135957142Y-68258571D01*
X136028571Y-68401428D01*
X136100000Y-68472857D01*
X136242857Y-68544285D01*
X136814285Y-68544285D01*
X135028571Y-67758571D02*
X134742857Y-67758571D01*
X134600000Y-67830000D01*
X134457142Y-67972857D01*
X134385714Y-68258571D01*
X134385714Y-68758571D01*
X134457142Y-69044285D01*
X134600000Y-69187142D01*
X134742857Y-69258571D01*
X135028571Y-69258571D01*
X135171428Y-69187142D01*
X135314285Y-69044285D01*
X135385714Y-68758571D01*
X135385714Y-68258571D01*
X135314285Y-67972857D01*
X135171428Y-67830000D01*
X135028571Y-67758571D01*
X133885714Y-67758571D02*
X133528571Y-69258571D01*
X133242857Y-68187142D01*
X132957142Y-69258571D01*
X132600000Y-67758571D01*
X132028571Y-68472857D02*
X131528571Y-68472857D01*
X131314285Y-69258571D02*
X132028571Y-69258571D01*
X132028571Y-67758571D01*
X131314285Y-67758571D01*
X129814285Y-69258571D02*
X130314285Y-68544285D01*
X130671428Y-69258571D02*
X130671428Y-67758571D01*
X130100000Y-67758571D01*
X129957142Y-67830000D01*
X129885714Y-67901428D01*
X129814285Y-68044285D01*
X129814285Y-68258571D01*
X129885714Y-68401428D01*
X129957142Y-68472857D01*
X130100000Y-68544285D01*
X130671428Y-68544285D01*
X189249285Y-94428571D02*
X188963571Y-94428571D01*
X188820714Y-94500000D01*
X188677857Y-94642857D01*
X188606428Y-94928571D01*
X188606428Y-95428571D01*
X188677857Y-95714285D01*
X188820714Y-95857142D01*
X188963571Y-95928571D01*
X189249285Y-95928571D01*
X189392142Y-95857142D01*
X189535000Y-95714285D01*
X189606428Y-95428571D01*
X189606428Y-94928571D01*
X189535000Y-94642857D01*
X189392142Y-94500000D01*
X189249285Y-94428571D01*
X187963571Y-94428571D02*
X187963571Y-95642857D01*
X187892142Y-95785714D01*
X187820714Y-95857142D01*
X187677857Y-95928571D01*
X187392142Y-95928571D01*
X187249285Y-95857142D01*
X187177857Y-95785714D01*
X187106428Y-95642857D01*
X187106428Y-94428571D01*
X186606428Y-94428571D02*
X185749285Y-94428571D01*
X186177857Y-95928571D02*
X186177857Y-94428571D01*
X184106428Y-95142857D02*
X183606428Y-95142857D01*
X183392142Y-95928571D02*
X184106428Y-95928571D01*
X184106428Y-94428571D01*
X183392142Y-94428571D01*
X182892142Y-94428571D02*
X181892142Y-95928571D01*
X181892142Y-94428571D02*
X182892142Y-95928571D01*
X181535000Y-94428571D02*
X180677857Y-94428571D01*
X181106428Y-95928571D02*
X181106428Y-94428571D01*
X223388571Y-51478571D02*
X223388571Y-49978571D01*
X222888571Y-51050000D01*
X222388571Y-49978571D01*
X222388571Y-51478571D01*
X221674285Y-51478571D02*
X221674285Y-49978571D01*
X220960000Y-51478571D02*
X220960000Y-49978571D01*
X220602857Y-49978571D01*
X220388571Y-50050000D01*
X220245714Y-50192857D01*
X220174285Y-50335714D01*
X220102857Y-50621428D01*
X220102857Y-50835714D01*
X220174285Y-51121428D01*
X220245714Y-51264285D01*
X220388571Y-51407142D01*
X220602857Y-51478571D01*
X220960000Y-51478571D01*
X219460000Y-51478571D02*
X219460000Y-49978571D01*
X217602857Y-51478571D02*
X217602857Y-49978571D01*
X216888571Y-51478571D02*
X216888571Y-49978571D01*
X216031428Y-51478571D01*
X216031428Y-49978571D01*
X195178571Y-51478571D02*
X195178571Y-49978571D01*
X194678571Y-51050000D01*
X194178571Y-49978571D01*
X194178571Y-51478571D01*
X193464285Y-51478571D02*
X193464285Y-49978571D01*
X192750000Y-51478571D02*
X192750000Y-49978571D01*
X192392857Y-49978571D01*
X192178571Y-50050000D01*
X192035714Y-50192857D01*
X191964285Y-50335714D01*
X191892857Y-50621428D01*
X191892857Y-50835714D01*
X191964285Y-51121428D01*
X192035714Y-51264285D01*
X192178571Y-51407142D01*
X192392857Y-51478571D01*
X192750000Y-51478571D01*
X191250000Y-51478571D02*
X191250000Y-49978571D01*
X189107142Y-49978571D02*
X188821428Y-49978571D01*
X188678571Y-50050000D01*
X188535714Y-50192857D01*
X188464285Y-50478571D01*
X188464285Y-50978571D01*
X188535714Y-51264285D01*
X188678571Y-51407142D01*
X188821428Y-51478571D01*
X189107142Y-51478571D01*
X189250000Y-51407142D01*
X189392857Y-51264285D01*
X189464285Y-50978571D01*
X189464285Y-50478571D01*
X189392857Y-50192857D01*
X189250000Y-50050000D01*
X189107142Y-49978571D01*
X187821428Y-49978571D02*
X187821428Y-51192857D01*
X187750000Y-51335714D01*
X187678571Y-51407142D01*
X187535714Y-51478571D01*
X187250000Y-51478571D01*
X187107142Y-51407142D01*
X187035714Y-51335714D01*
X186964285Y-51192857D01*
X186964285Y-49978571D01*
X186464285Y-49978571D02*
X185607142Y-49978571D01*
X186035714Y-51478571D02*
X186035714Y-49978571D01*
D11*
X68580000Y-154940000D02*
X68580000Y-48260000D01*
X243840000Y-154940000D02*
X68580000Y-154940000D01*
X68580000Y-48260000D02*
X243840000Y-48260000D01*
X243840000Y-48260000D02*
X243840000Y-154940000D01*
D12*
X216634060Y-94345760D02*
X216634060Y-98694240D01*
X216634060Y-98694240D02*
X205005940Y-98694240D01*
X205005940Y-98694240D02*
X205005940Y-94345760D01*
X205005940Y-94345760D02*
X216634060Y-94345760D01*
D13*
X183550000Y-67270000D02*
X183550000Y-69890000D01*
X183550000Y-69890000D02*
X177130000Y-69890000D01*
X177130000Y-69890000D02*
X177130000Y-67270000D01*
X177130000Y-67270000D02*
X183550000Y-67270000D01*
X184440000Y-68580000D02*
X183550000Y-68580000D01*
X176240000Y-68580000D02*
X177130000Y-68580000D01*
X183550000Y-54570000D02*
X183550000Y-57190000D01*
X183550000Y-57190000D02*
X177130000Y-57190000D01*
X177130000Y-57190000D02*
X177130000Y-54570000D01*
X177130000Y-54570000D02*
X183550000Y-54570000D01*
X184440000Y-55880000D02*
X183550000Y-55880000D01*
X176240000Y-55880000D02*
X177130000Y-55880000D01*
X160721522Y-72456522D02*
G75*
G02X165160000Y-74295000I1838478J-1838478D01*
G01*
X160721522Y-76133478D02*
G75*
G03X165160000Y-74295000I1838478J1838478D01*
G01*
X160710000Y-76095000D02*
X160710000Y-72495000D01*
X150561522Y-72456522D02*
G75*
G02X155000000Y-74295000I1838478J-1838478D01*
G01*
X150561522Y-76133478D02*
G75*
G03X155000000Y-74295000I1838478J1838478D01*
G01*
X150550000Y-76095000D02*
X150550000Y-72495000D01*
D12*
X153670000Y-128270000D02*
X133350000Y-128270000D01*
X133350000Y-123190000D02*
X153670000Y-123190000D01*
X153670000Y-128270000D02*
X153670000Y-123190000D01*
X133350000Y-128270000D02*
X133350000Y-126746000D01*
X133350000Y-123190000D02*
X133350000Y-124714000D01*
D14*
X132240020Y-122555000D02*
X132252720Y-122661680D01*
X132252720Y-122661680D02*
X132288280Y-122763280D01*
X132288280Y-122763280D02*
X132344160Y-122852180D01*
X132344160Y-122852180D02*
X132420360Y-122928380D01*
X132420360Y-122928380D02*
X132509260Y-122984260D01*
X132509260Y-122984260D02*
X132610860Y-123019820D01*
X132610860Y-123019820D02*
X132715000Y-123032520D01*
X132715000Y-123032520D02*
X132821680Y-123019820D01*
X132821680Y-123019820D02*
X132923280Y-122984260D01*
X132923280Y-122984260D02*
X133012180Y-122928380D01*
X133012180Y-122928380D02*
X133088380Y-122852180D01*
X133088380Y-122852180D02*
X133144260Y-122763280D01*
X133144260Y-122763280D02*
X133179820Y-122661680D01*
X133179820Y-122661680D02*
X133192520Y-122555000D01*
X133192520Y-122555000D02*
X133179820Y-122450860D01*
X133179820Y-122450860D02*
X133144260Y-122349260D01*
X133144260Y-122349260D02*
X133088380Y-122260360D01*
X133088380Y-122260360D02*
X133012180Y-122184160D01*
X133012180Y-122184160D02*
X132923280Y-122128280D01*
X132923280Y-122128280D02*
X132821680Y-122092720D01*
X132821680Y-122092720D02*
X132715000Y-122080020D01*
X132715000Y-122080020D02*
X132610860Y-122092720D01*
X132610860Y-122092720D02*
X132509260Y-122128280D01*
X132509260Y-122128280D02*
X132420360Y-122184160D01*
X132420360Y-122184160D02*
X132344160Y-122260360D01*
X132344160Y-122260360D02*
X132288280Y-122349260D01*
X132288280Y-122349260D02*
X132252720Y-122450860D01*
X132252720Y-122450860D02*
X132240020Y-122555000D01*
D12*
X133350000Y-124714000D02*
G75*
G02X133350000Y-126746000I0J-1016000D01*
G01*
X120650000Y-128270000D02*
X100330000Y-128270000D01*
X100330000Y-123190000D02*
X120650000Y-123190000D01*
X120650000Y-128270000D02*
X120650000Y-123190000D01*
X100330000Y-128270000D02*
X100330000Y-126746000D01*
X100330000Y-123190000D02*
X100330000Y-124714000D01*
D14*
X99220020Y-122555000D02*
X99232720Y-122661680D01*
X99232720Y-122661680D02*
X99268280Y-122763280D01*
X99268280Y-122763280D02*
X99324160Y-122852180D01*
X99324160Y-122852180D02*
X99400360Y-122928380D01*
X99400360Y-122928380D02*
X99489260Y-122984260D01*
X99489260Y-122984260D02*
X99590860Y-123019820D01*
X99590860Y-123019820D02*
X99695000Y-123032520D01*
X99695000Y-123032520D02*
X99801680Y-123019820D01*
X99801680Y-123019820D02*
X99903280Y-122984260D01*
X99903280Y-122984260D02*
X99992180Y-122928380D01*
X99992180Y-122928380D02*
X100068380Y-122852180D01*
X100068380Y-122852180D02*
X100124260Y-122763280D01*
X100124260Y-122763280D02*
X100159820Y-122661680D01*
X100159820Y-122661680D02*
X100172520Y-122555000D01*
X100172520Y-122555000D02*
X100159820Y-122450860D01*
X100159820Y-122450860D02*
X100124260Y-122349260D01*
X100124260Y-122349260D02*
X100068380Y-122260360D01*
X100068380Y-122260360D02*
X99992180Y-122184160D01*
X99992180Y-122184160D02*
X99903280Y-122128280D01*
X99903280Y-122128280D02*
X99801680Y-122092720D01*
X99801680Y-122092720D02*
X99695000Y-122080020D01*
X99695000Y-122080020D02*
X99590860Y-122092720D01*
X99590860Y-122092720D02*
X99489260Y-122128280D01*
X99489260Y-122128280D02*
X99400360Y-122184160D01*
X99400360Y-122184160D02*
X99324160Y-122260360D01*
X99324160Y-122260360D02*
X99268280Y-122349260D01*
X99268280Y-122349260D02*
X99232720Y-122450860D01*
X99232720Y-122450860D02*
X99220020Y-122555000D01*
D12*
X100330000Y-124714000D02*
G75*
G02X100330000Y-126746000I0J-1016000D01*
G01*
D13*
X155641522Y-72456522D02*
G75*
G02X160080000Y-74295000I1838478J-1838478D01*
G01*
X155641522Y-76133478D02*
G75*
G03X160080000Y-74295000I1838478J1838478D01*
G01*
X155630000Y-76095000D02*
X155630000Y-72495000D01*
D12*
X195580000Y-88900000D02*
X175260000Y-88900000D01*
X175260000Y-83820000D02*
X195580000Y-83820000D01*
X195580000Y-88900000D02*
X195580000Y-83820000D01*
X175260000Y-88900000D02*
X175260000Y-87376000D01*
X175260000Y-83820000D02*
X175260000Y-85344000D01*
D14*
X174150020Y-83185000D02*
X174162720Y-83291680D01*
X174162720Y-83291680D02*
X174198280Y-83393280D01*
X174198280Y-83393280D02*
X174254160Y-83482180D01*
X174254160Y-83482180D02*
X174330360Y-83558380D01*
X174330360Y-83558380D02*
X174419260Y-83614260D01*
X174419260Y-83614260D02*
X174520860Y-83649820D01*
X174520860Y-83649820D02*
X174625000Y-83662520D01*
X174625000Y-83662520D02*
X174731680Y-83649820D01*
X174731680Y-83649820D02*
X174833280Y-83614260D01*
X174833280Y-83614260D02*
X174922180Y-83558380D01*
X174922180Y-83558380D02*
X174998380Y-83482180D01*
X174998380Y-83482180D02*
X175054260Y-83393280D01*
X175054260Y-83393280D02*
X175089820Y-83291680D01*
X175089820Y-83291680D02*
X175102520Y-83185000D01*
X175102520Y-83185000D02*
X175089820Y-83080860D01*
X175089820Y-83080860D02*
X175054260Y-82979260D01*
X175054260Y-82979260D02*
X174998380Y-82890360D01*
X174998380Y-82890360D02*
X174922180Y-82814160D01*
X174922180Y-82814160D02*
X174833280Y-82758280D01*
X174833280Y-82758280D02*
X174731680Y-82722720D01*
X174731680Y-82722720D02*
X174625000Y-82710020D01*
X174625000Y-82710020D02*
X174520860Y-82722720D01*
X174520860Y-82722720D02*
X174419260Y-82758280D01*
X174419260Y-82758280D02*
X174330360Y-82814160D01*
X174330360Y-82814160D02*
X174254160Y-82890360D01*
X174254160Y-82890360D02*
X174198280Y-82979260D01*
X174198280Y-82979260D02*
X174162720Y-83080860D01*
X174162720Y-83080860D02*
X174150020Y-83185000D01*
D12*
X175260000Y-85344000D02*
G75*
G02X175260000Y-87376000I0J-1016000D01*
G01*
D13*
X153075000Y-149895000D02*
X150455000Y-149895000D01*
X150455000Y-149895000D02*
X150455000Y-143475000D01*
X150455000Y-143475000D02*
X153075000Y-143475000D01*
X153075000Y-143475000D02*
X153075000Y-149895000D01*
X151765000Y-150785000D02*
X151765000Y-149895000D01*
X151765000Y-142585000D02*
X151765000Y-143475000D01*
X130810000Y-90170000D02*
X133350000Y-90170000D01*
X133350000Y-90170000D02*
X133350000Y-92840000D01*
X130810000Y-92840000D02*
X92580000Y-92840000D01*
X136020000Y-92840000D02*
X133350000Y-92840000D01*
X133350000Y-77470000D02*
X133350000Y-74800000D01*
X133350000Y-77470000D02*
X95250000Y-77470000D01*
X95250000Y-77470000D02*
X95250000Y-74800000D01*
X130810000Y-90170000D02*
X130810000Y-92840000D01*
X130810000Y-90170000D02*
X95250000Y-90170000D01*
X95250000Y-90170000D02*
X95250000Y-92840000D01*
X92580000Y-92840000D02*
X92580000Y-74800000D01*
X92580000Y-74800000D02*
X136020000Y-74800000D01*
X136020000Y-74800000D02*
X136020000Y-92840000D01*
X219750000Y-69250000D02*
X217130000Y-69250000D01*
X217130000Y-69250000D02*
X217130000Y-62830000D01*
X217130000Y-62830000D02*
X219750000Y-62830000D01*
X219750000Y-62830000D02*
X219750000Y-69250000D01*
X218440000Y-70140000D02*
X218440000Y-69250000D01*
X218440000Y-61940000D02*
X218440000Y-62830000D01*
X126405000Y-149895000D02*
X123785000Y-149895000D01*
X123785000Y-149895000D02*
X123785000Y-143475000D01*
X123785000Y-143475000D02*
X126405000Y-143475000D01*
X126405000Y-143475000D02*
X126405000Y-149895000D01*
X125095000Y-150785000D02*
X125095000Y-149895000D01*
X125095000Y-142585000D02*
X125095000Y-143475000D01*
D12*
X199390000Y-123190000D02*
X219710000Y-123190000D01*
X219710000Y-128270000D02*
X199390000Y-128270000D01*
X199390000Y-123190000D02*
X199390000Y-128270000D01*
X219710000Y-123190000D02*
X219710000Y-124714000D01*
X219710000Y-128270000D02*
X219710000Y-126746000D01*
D14*
X220819980Y-128905000D02*
X220807280Y-128798320D01*
X220807280Y-128798320D02*
X220771720Y-128696720D01*
X220771720Y-128696720D02*
X220715840Y-128607820D01*
X220715840Y-128607820D02*
X220639640Y-128531620D01*
X220639640Y-128531620D02*
X220550740Y-128475740D01*
X220550740Y-128475740D02*
X220449140Y-128440180D01*
X220449140Y-128440180D02*
X220345000Y-128427480D01*
X220345000Y-128427480D02*
X220238320Y-128440180D01*
X220238320Y-128440180D02*
X220136720Y-128475740D01*
X220136720Y-128475740D02*
X220047820Y-128531620D01*
X220047820Y-128531620D02*
X219971620Y-128607820D01*
X219971620Y-128607820D02*
X219915740Y-128696720D01*
X219915740Y-128696720D02*
X219880180Y-128798320D01*
X219880180Y-128798320D02*
X219867480Y-128905000D01*
X219867480Y-128905000D02*
X219880180Y-129009140D01*
X219880180Y-129009140D02*
X219915740Y-129110740D01*
X219915740Y-129110740D02*
X219971620Y-129199640D01*
X219971620Y-129199640D02*
X220047820Y-129275840D01*
X220047820Y-129275840D02*
X220136720Y-129331720D01*
X220136720Y-129331720D02*
X220238320Y-129367280D01*
X220238320Y-129367280D02*
X220345000Y-129379980D01*
X220345000Y-129379980D02*
X220449140Y-129367280D01*
X220449140Y-129367280D02*
X220550740Y-129331720D01*
X220550740Y-129331720D02*
X220639640Y-129275840D01*
X220639640Y-129275840D02*
X220715840Y-129199640D01*
X220715840Y-129199640D02*
X220771720Y-129110740D01*
X220771720Y-129110740D02*
X220807280Y-129009140D01*
X220807280Y-129009140D02*
X220819980Y-128905000D01*
D12*
X219710000Y-126746000D02*
G75*
G02X219710000Y-124714000I0J1016000D01*
G01*
D13*
X188635000Y-149895000D02*
X186015000Y-149895000D01*
X186015000Y-149895000D02*
X186015000Y-143475000D01*
X186015000Y-143475000D02*
X188635000Y-143475000D01*
X188635000Y-143475000D02*
X188635000Y-149895000D01*
X187325000Y-150785000D02*
X187325000Y-149895000D01*
X187325000Y-142585000D02*
X187325000Y-143475000D01*
X177130000Y-54650000D02*
X177130000Y-52030000D01*
X177130000Y-52030000D02*
X183550000Y-52030000D01*
X183550000Y-52030000D02*
X183550000Y-54650000D01*
X183550000Y-54650000D02*
X177130000Y-54650000D01*
X176240000Y-53340000D02*
X177130000Y-53340000D01*
X184440000Y-53340000D02*
X183550000Y-53340000D01*
D12*
X186690000Y-128270000D02*
X166370000Y-128270000D01*
X166370000Y-123190000D02*
X186690000Y-123190000D01*
X186690000Y-128270000D02*
X186690000Y-123190000D01*
X166370000Y-128270000D02*
X166370000Y-126746000D01*
X166370000Y-123190000D02*
X166370000Y-124714000D01*
D14*
X165260020Y-122555000D02*
X165272720Y-122661680D01*
X165272720Y-122661680D02*
X165308280Y-122763280D01*
X165308280Y-122763280D02*
X165364160Y-122852180D01*
X165364160Y-122852180D02*
X165440360Y-122928380D01*
X165440360Y-122928380D02*
X165529260Y-122984260D01*
X165529260Y-122984260D02*
X165630860Y-123019820D01*
X165630860Y-123019820D02*
X165735000Y-123032520D01*
X165735000Y-123032520D02*
X165841680Y-123019820D01*
X165841680Y-123019820D02*
X165943280Y-122984260D01*
X165943280Y-122984260D02*
X166032180Y-122928380D01*
X166032180Y-122928380D02*
X166108380Y-122852180D01*
X166108380Y-122852180D02*
X166164260Y-122763280D01*
X166164260Y-122763280D02*
X166199820Y-122661680D01*
X166199820Y-122661680D02*
X166212520Y-122555000D01*
X166212520Y-122555000D02*
X166199820Y-122450860D01*
X166199820Y-122450860D02*
X166164260Y-122349260D01*
X166164260Y-122349260D02*
X166108380Y-122260360D01*
X166108380Y-122260360D02*
X166032180Y-122184160D01*
X166032180Y-122184160D02*
X165943280Y-122128280D01*
X165943280Y-122128280D02*
X165841680Y-122092720D01*
X165841680Y-122092720D02*
X165735000Y-122080020D01*
X165735000Y-122080020D02*
X165630860Y-122092720D01*
X165630860Y-122092720D02*
X165529260Y-122128280D01*
X165529260Y-122128280D02*
X165440360Y-122184160D01*
X165440360Y-122184160D02*
X165364160Y-122260360D01*
X165364160Y-122260360D02*
X165308280Y-122349260D01*
X165308280Y-122349260D02*
X165272720Y-122450860D01*
X165272720Y-122450860D02*
X165260020Y-122555000D01*
D12*
X166370000Y-124714000D02*
G75*
G02X166370000Y-126746000I0J-1016000D01*
G01*
D13*
X90845000Y-149895000D02*
X88225000Y-149895000D01*
X88225000Y-149895000D02*
X88225000Y-143475000D01*
X88225000Y-143475000D02*
X90845000Y-143475000D01*
X90845000Y-143475000D02*
X90845000Y-149895000D01*
X89535000Y-150785000D02*
X89535000Y-149895000D01*
X89535000Y-142585000D02*
X89535000Y-143475000D01*
X129814000Y-123560000D02*
X129800000Y-123560000D01*
X131820000Y-123560000D02*
X131806000Y-123560000D01*
X129814000Y-127980000D02*
X129800000Y-127980000D01*
X131820000Y-127980000D02*
X131806000Y-127980000D01*
X129800000Y-127980000D02*
X129800000Y-123560000D01*
X131820000Y-127980000D02*
X131820000Y-123560000D01*
X131710000Y-57424000D02*
X131710000Y-57410000D01*
X131710000Y-59430000D02*
X131710000Y-59416000D01*
X127290000Y-57424000D02*
X127290000Y-57410000D01*
X127290000Y-59430000D02*
X127290000Y-59416000D01*
X127290000Y-57410000D02*
X131710000Y-57410000D01*
X127290000Y-59430000D02*
X131710000Y-59430000D01*
X162834000Y-123560000D02*
X162820000Y-123560000D01*
X164840000Y-123560000D02*
X164826000Y-123560000D01*
X162834000Y-127980000D02*
X162820000Y-127980000D01*
X164840000Y-127980000D02*
X164826000Y-127980000D01*
X162820000Y-127980000D02*
X162820000Y-123560000D01*
X164840000Y-127980000D02*
X164840000Y-123560000D01*
X82205000Y-93980000D02*
X81315000Y-93980000D01*
X74005000Y-93980000D02*
X74895000Y-93980000D01*
X81315000Y-95290000D02*
X74895000Y-95290000D01*
X81315000Y-92670000D02*
X81315000Y-95290000D01*
X74895000Y-92670000D02*
X81315000Y-92670000D01*
X74895000Y-95290000D02*
X74895000Y-92670000D01*
X165801522Y-72456522D02*
G75*
G02X170240000Y-74295000I1838478J-1838478D01*
G01*
X165801522Y-76133478D02*
G75*
G03X170240000Y-74295000I1838478J1838478D01*
G01*
X165790000Y-76095000D02*
X165790000Y-72495000D01*
D15*
X126746000Y-50292000D02*
X137414000Y-50292000D01*
X126746000Y-50292000D02*
X126746000Y-55118000D01*
X137414000Y-50292000D02*
X137414000Y-55118000D01*
X126746000Y-55118000D02*
X137414000Y-55118000D01*
X137414000Y-51689000D02*
X126746000Y-51689000D01*
X133858000Y-51562000D02*
X133858000Y-50292000D01*
X130302000Y-51562000D02*
X130302000Y-50292000D01*
X126746000Y-50546000D02*
X137414000Y-50546000D01*
X136906000Y-51689000D02*
X136906000Y-55118000D01*
X127254000Y-51689000D02*
X127254000Y-55118000D01*
D13*
X85485000Y-113665000D02*
G75*
G03X85485000Y-113665000I-6100000J0D01*
G01*
X223246000Y-127900000D02*
X223260000Y-127900000D01*
X221240000Y-127900000D02*
X221254000Y-127900000D01*
X223246000Y-123480000D02*
X223260000Y-123480000D01*
X221240000Y-123480000D02*
X221254000Y-123480000D01*
X223260000Y-123480000D02*
X223260000Y-127900000D01*
X221240000Y-123480000D02*
X221240000Y-127900000D01*
D12*
X189865000Y-59690000D02*
X191135000Y-59690000D01*
X191770000Y-53975000D02*
X191770000Y-52705000D01*
X191135000Y-52070000D02*
X191770000Y-52705000D01*
X189230000Y-52705000D02*
X189865000Y-52070000D01*
X189865000Y-52070000D02*
X191135000Y-52070000D01*
X191770000Y-55245000D02*
X191135000Y-54610000D01*
X191770000Y-56515000D02*
X191770000Y-55245000D01*
X191135000Y-57150000D02*
X191770000Y-56515000D01*
X189230000Y-56515000D02*
X189865000Y-57150000D01*
X189230000Y-55245000D02*
X189230000Y-56515000D01*
X189865000Y-54610000D02*
X189230000Y-55245000D01*
X191135000Y-54610000D02*
X191770000Y-53975000D01*
X189230000Y-53975000D02*
X189865000Y-54610000D01*
X189230000Y-52705000D02*
X189230000Y-53975000D01*
X191770000Y-57785000D02*
X191135000Y-57150000D01*
X191770000Y-59055000D02*
X191770000Y-57785000D01*
X191135000Y-59690000D02*
X191770000Y-59055000D01*
X189230000Y-59055000D02*
X189865000Y-59690000D01*
X189230000Y-57785000D02*
X189230000Y-59055000D01*
X189865000Y-57150000D02*
X189230000Y-57785000D01*
D13*
X98800000Y-127980000D02*
X98800000Y-123560000D01*
X96780000Y-127980000D02*
X96780000Y-123560000D01*
X98800000Y-127980000D02*
X98786000Y-127980000D01*
X96794000Y-127980000D02*
X96780000Y-127980000D01*
X98800000Y-123560000D02*
X98786000Y-123560000D01*
X96794000Y-123560000D02*
X96780000Y-123560000D01*
D12*
X131445000Y-67310000D02*
X132715000Y-67310000D01*
X132715000Y-67310000D02*
X133350000Y-66675000D01*
X133350000Y-65405000D02*
X132715000Y-64770000D01*
X133350000Y-66675000D02*
X133985000Y-67310000D01*
X133985000Y-67310000D02*
X135255000Y-67310000D01*
X135255000Y-67310000D02*
X135890000Y-66675000D01*
X135890000Y-65405000D02*
X135255000Y-64770000D01*
X135255000Y-64770000D02*
X133985000Y-64770000D01*
X133985000Y-64770000D02*
X133350000Y-65405000D01*
X130810000Y-66675000D02*
X130810000Y-65405000D01*
X131445000Y-67310000D02*
X130810000Y-66675000D01*
X130810000Y-65405000D02*
X131445000Y-64770000D01*
X132715000Y-64770000D02*
X131445000Y-64770000D01*
X135890000Y-66675000D02*
X135890000Y-65405000D01*
D13*
X209660000Y-85150000D02*
X208010000Y-85150000D01*
X209660000Y-74870000D02*
X209660000Y-85150000D01*
X204360000Y-74870000D02*
X209660000Y-74870000D01*
X204360000Y-85150000D02*
X204360000Y-74870000D01*
X206010000Y-85150000D02*
X204360000Y-85150000D01*
X208010000Y-85150000D02*
G75*
G03X206010000Y-85150000I-1000000J0D01*
G01*
D12*
X217805000Y-54610000D02*
X219075000Y-54610000D01*
X219075000Y-54610000D02*
X219710000Y-53975000D01*
X219710000Y-52705000D02*
X219075000Y-52070000D01*
X219710000Y-53975000D02*
X220345000Y-54610000D01*
X220345000Y-54610000D02*
X221615000Y-54610000D01*
X221615000Y-54610000D02*
X222250000Y-53975000D01*
X222250000Y-52705000D02*
X221615000Y-52070000D01*
X221615000Y-52070000D02*
X220345000Y-52070000D01*
X220345000Y-52070000D02*
X219710000Y-52705000D01*
X217170000Y-53975000D02*
X217170000Y-52705000D01*
X217805000Y-54610000D02*
X217170000Y-53975000D01*
X217170000Y-52705000D02*
X217805000Y-52070000D01*
X219075000Y-52070000D02*
X217805000Y-52070000D01*
X222250000Y-53975000D02*
X222250000Y-52705000D01*
X118745000Y-72390000D02*
X120015000Y-72390000D01*
X120015000Y-72390000D02*
X120650000Y-71755000D01*
X120650000Y-70485000D02*
X120015000Y-69850000D01*
X115570000Y-71755000D02*
X116205000Y-72390000D01*
X116205000Y-72390000D02*
X117475000Y-72390000D01*
X117475000Y-72390000D02*
X118110000Y-71755000D01*
X118110000Y-70485000D02*
X117475000Y-69850000D01*
X117475000Y-69850000D02*
X116205000Y-69850000D01*
X116205000Y-69850000D02*
X115570000Y-70485000D01*
X118745000Y-72390000D02*
X118110000Y-71755000D01*
X118110000Y-70485000D02*
X118745000Y-69850000D01*
X120015000Y-69850000D02*
X118745000Y-69850000D01*
X111125000Y-72390000D02*
X112395000Y-72390000D01*
X112395000Y-72390000D02*
X113030000Y-71755000D01*
X113030000Y-70485000D02*
X112395000Y-69850000D01*
X113030000Y-71755000D02*
X113665000Y-72390000D01*
X113665000Y-72390000D02*
X114935000Y-72390000D01*
X114935000Y-72390000D02*
X115570000Y-71755000D01*
X115570000Y-70485000D02*
X114935000Y-69850000D01*
X114935000Y-69850000D02*
X113665000Y-69850000D01*
X113665000Y-69850000D02*
X113030000Y-70485000D01*
X110490000Y-71755000D02*
X110490000Y-70485000D01*
X111125000Y-72390000D02*
X110490000Y-71755000D01*
X110490000Y-70485000D02*
X111125000Y-69850000D01*
X112395000Y-69850000D02*
X111125000Y-69850000D01*
X120650000Y-71755000D02*
X120650000Y-70485000D01*
D13*
X173730000Y-88610000D02*
X173730000Y-84190000D01*
X171710000Y-88610000D02*
X171710000Y-84190000D01*
X173730000Y-88610000D02*
X173716000Y-88610000D01*
X171724000Y-88610000D02*
X171710000Y-88610000D01*
X173730000Y-84190000D02*
X173716000Y-84190000D01*
X171724000Y-84190000D02*
X171710000Y-84190000D01*
X209260000Y-86620000D02*
X204840000Y-86620000D01*
X209260000Y-88640000D02*
X204840000Y-88640000D01*
X209260000Y-86620000D02*
X209260000Y-86634000D01*
X209260000Y-88626000D02*
X209260000Y-88640000D01*
X204840000Y-86620000D02*
X204840000Y-86634000D01*
X204840000Y-88626000D02*
X204840000Y-88640000D01*
X71821522Y-101031522D02*
G75*
G02X76260000Y-102870000I1838478J-1838478D01*
G01*
X71821522Y-104708478D02*
G75*
G03X76260000Y-102870000I1838478J1838478D01*
G01*
X71810000Y-104670000D02*
X71810000Y-101070000D01*
X219920000Y-63980000D02*
X222040000Y-63980000D01*
X222040000Y-63980000D02*
X222040000Y-68100000D01*
X222040000Y-68100000D02*
X219920000Y-68100000D01*
X219920000Y-68100000D02*
X219920000Y-63980000D01*
X220980000Y-61940000D02*
X220980000Y-63980000D01*
X220980000Y-70140000D02*
X220980000Y-68100000D01*
X219920000Y-64640000D02*
X222040000Y-64640000D01*
X238795000Y-104735000D02*
X238795000Y-107355000D01*
X238795000Y-107355000D02*
X232375000Y-107355000D01*
X232375000Y-107355000D02*
X232375000Y-104735000D01*
X232375000Y-104735000D02*
X238795000Y-104735000D01*
X239685000Y-106045000D02*
X238795000Y-106045000D01*
X231485000Y-106045000D02*
X232375000Y-106045000D01*
X224190000Y-74890000D02*
X224190000Y-77510000D01*
X224190000Y-77510000D02*
X217770000Y-77510000D01*
X217770000Y-77510000D02*
X217770000Y-74890000D01*
X217770000Y-74890000D02*
X224190000Y-74890000D01*
X225080000Y-76200000D02*
X224190000Y-76200000D01*
X216880000Y-76200000D02*
X217770000Y-76200000D01*
X217210000Y-87030000D02*
X214590000Y-87030000D01*
X214590000Y-87030000D02*
X214590000Y-80610000D01*
X214590000Y-80610000D02*
X217210000Y-80610000D01*
X217210000Y-80610000D02*
X217210000Y-87030000D01*
X215900000Y-87920000D02*
X215900000Y-87030000D01*
X215900000Y-79720000D02*
X215900000Y-80610000D01*
X183550000Y-59650000D02*
X183550000Y-62270000D01*
X183550000Y-62270000D02*
X177130000Y-62270000D01*
X177130000Y-62270000D02*
X177130000Y-59650000D01*
X177130000Y-59650000D02*
X183550000Y-59650000D01*
X184440000Y-60960000D02*
X183550000Y-60960000D01*
X176240000Y-60960000D02*
X177130000Y-60960000D01*
X108625000Y-66075000D02*
X106005000Y-66075000D01*
X106005000Y-66075000D02*
X106005000Y-59655000D01*
X106005000Y-59655000D02*
X108625000Y-59655000D01*
X108625000Y-59655000D02*
X108625000Y-66075000D01*
X107315000Y-66965000D02*
X107315000Y-66075000D01*
X107315000Y-58765000D02*
X107315000Y-59655000D01*
X183550000Y-57110000D02*
X183550000Y-59730000D01*
X183550000Y-59730000D02*
X177130000Y-59730000D01*
X177130000Y-59730000D02*
X177130000Y-57110000D01*
X177130000Y-57110000D02*
X183550000Y-57110000D01*
X184440000Y-58420000D02*
X183550000Y-58420000D01*
X176240000Y-58420000D02*
X177130000Y-58420000D01*
X183550000Y-62190000D02*
X183550000Y-64810000D01*
X183550000Y-64810000D02*
X177130000Y-64810000D01*
X177130000Y-64810000D02*
X177130000Y-62190000D01*
X177130000Y-62190000D02*
X183550000Y-62190000D01*
X184440000Y-63500000D02*
X183550000Y-63500000D01*
X176240000Y-63500000D02*
X177130000Y-63500000D01*
X147106000Y-88046000D02*
X144486000Y-88046000D01*
X144486000Y-88046000D02*
X144486000Y-81626000D01*
X144486000Y-81626000D02*
X147106000Y-81626000D01*
X147106000Y-81626000D02*
X147106000Y-88046000D01*
X145796000Y-88936000D02*
X145796000Y-88046000D01*
X145796000Y-80736000D02*
X145796000Y-81626000D01*
X183550000Y-64730000D02*
X183550000Y-67350000D01*
X183550000Y-67350000D02*
X177130000Y-67350000D01*
X177130000Y-67350000D02*
X177130000Y-64730000D01*
X177130000Y-64730000D02*
X183550000Y-64730000D01*
X184440000Y-66040000D02*
X183550000Y-66040000D01*
X176240000Y-66040000D02*
X177130000Y-66040000D01*
X224195000Y-149895000D02*
X221575000Y-149895000D01*
X221575000Y-149895000D02*
X221575000Y-143475000D01*
X221575000Y-143475000D02*
X224195000Y-143475000D01*
X224195000Y-143475000D02*
X224195000Y-149895000D01*
X222885000Y-150785000D02*
X222885000Y-149895000D01*
X222885000Y-142585000D02*
X222885000Y-143475000D01*
X151678000Y-88046000D02*
X149058000Y-88046000D01*
X149058000Y-88046000D02*
X149058000Y-81626000D01*
X149058000Y-81626000D02*
X151678000Y-81626000D01*
X151678000Y-81626000D02*
X151678000Y-88046000D01*
X150368000Y-88936000D02*
X150368000Y-88046000D01*
X150368000Y-80736000D02*
X150368000Y-81626000D01*
X87665000Y-69810000D02*
X87665000Y-72430000D01*
X87665000Y-72430000D02*
X81245000Y-72430000D01*
X81245000Y-72430000D02*
X81245000Y-69810000D01*
X81245000Y-69810000D02*
X87665000Y-69810000D01*
X88555000Y-71120000D02*
X87665000Y-71120000D01*
X80355000Y-71120000D02*
X81245000Y-71120000D01*
X232375000Y-100370000D02*
X232375000Y-97750000D01*
X232375000Y-97750000D02*
X238795000Y-97750000D01*
X238795000Y-97750000D02*
X238795000Y-100370000D01*
X238795000Y-100370000D02*
X232375000Y-100370000D01*
X231485000Y-99060000D02*
X232375000Y-99060000D01*
X239685000Y-99060000D02*
X238795000Y-99060000D01*
X241975000Y-94015000D02*
X239355000Y-94015000D01*
X239355000Y-94015000D02*
X239355000Y-87595000D01*
X239355000Y-87595000D02*
X241975000Y-87595000D01*
X241975000Y-87595000D02*
X241975000Y-94015000D01*
X240665000Y-94905000D02*
X240665000Y-94015000D01*
X240665000Y-86705000D02*
X240665000Y-87595000D01*
X90845000Y-66075000D02*
X88225000Y-66075000D01*
X88225000Y-66075000D02*
X88225000Y-59655000D01*
X88225000Y-59655000D02*
X90845000Y-59655000D01*
X90845000Y-59655000D02*
X90845000Y-66075000D01*
X89535000Y-66965000D02*
X89535000Y-66075000D01*
X89535000Y-58765000D02*
X89535000Y-59655000D01*
X155615000Y-88046000D02*
X152995000Y-88046000D01*
X152995000Y-88046000D02*
X152995000Y-81626000D01*
X152995000Y-81626000D02*
X155615000Y-81626000D01*
X155615000Y-81626000D02*
X155615000Y-88046000D01*
X154305000Y-88936000D02*
X154305000Y-88046000D01*
X154305000Y-80736000D02*
X154305000Y-81626000D01*
X163870000Y-88046000D02*
X161250000Y-88046000D01*
X161250000Y-88046000D02*
X161250000Y-81626000D01*
X161250000Y-81626000D02*
X163870000Y-81626000D01*
X163870000Y-81626000D02*
X163870000Y-88046000D01*
X162560000Y-88936000D02*
X162560000Y-88046000D01*
X162560000Y-80736000D02*
X162560000Y-81626000D01*
X167934000Y-88046000D02*
X165314000Y-88046000D01*
X165314000Y-88046000D02*
X165314000Y-81626000D01*
X165314000Y-81626000D02*
X167934000Y-81626000D01*
X167934000Y-81626000D02*
X167934000Y-88046000D01*
X166624000Y-88936000D02*
X166624000Y-88046000D01*
X166624000Y-80736000D02*
X166624000Y-81626000D01*
X159806000Y-88046000D02*
X157186000Y-88046000D01*
X157186000Y-88046000D02*
X157186000Y-81626000D01*
X157186000Y-81626000D02*
X159806000Y-81626000D01*
X159806000Y-81626000D02*
X159806000Y-88046000D01*
X158496000Y-88936000D02*
X158496000Y-88046000D01*
X158496000Y-80736000D02*
X158496000Y-81626000D01*
X206415000Y-149895000D02*
X203795000Y-149895000D01*
X203795000Y-149895000D02*
X203795000Y-143475000D01*
X203795000Y-143475000D02*
X206415000Y-143475000D01*
X206415000Y-143475000D02*
X206415000Y-149895000D01*
X205105000Y-150785000D02*
X205105000Y-149895000D01*
X205105000Y-142585000D02*
X205105000Y-143475000D01*
X170855000Y-149895000D02*
X168235000Y-149895000D01*
X168235000Y-149895000D02*
X168235000Y-143475000D01*
X168235000Y-143475000D02*
X170855000Y-143475000D01*
X170855000Y-143475000D02*
X170855000Y-149895000D01*
X169545000Y-150785000D02*
X169545000Y-149895000D01*
X169545000Y-142585000D02*
X169545000Y-143475000D01*
X143042000Y-88046000D02*
X140422000Y-88046000D01*
X140422000Y-88046000D02*
X140422000Y-81626000D01*
X140422000Y-81626000D02*
X143042000Y-81626000D01*
X143042000Y-81626000D02*
X143042000Y-88046000D01*
X141732000Y-88936000D02*
X141732000Y-88046000D01*
X141732000Y-80736000D02*
X141732000Y-81626000D01*
D12*
X201930000Y-52705000D02*
X201930000Y-53975000D01*
X201295000Y-52070000D02*
X201930000Y-52705000D01*
X200025000Y-52070000D02*
X201295000Y-52070000D01*
X199390000Y-52705000D02*
X200025000Y-52070000D01*
X199390000Y-53975000D02*
X199390000Y-52705000D01*
X200025000Y-54610000D02*
X199390000Y-53975000D01*
X201295000Y-54610000D02*
X200025000Y-54610000D01*
X201930000Y-53975000D02*
X201295000Y-54610000D01*
X197866000Y-53975000D02*
X197231000Y-54610000D01*
X197231000Y-54610000D02*
X195961000Y-54610000D01*
X195961000Y-54610000D02*
X195326000Y-53975000D01*
X195326000Y-53975000D02*
X195326000Y-52705000D01*
X195326000Y-52705000D02*
X195961000Y-52070000D01*
X195961000Y-52070000D02*
X197231000Y-52070000D01*
X197231000Y-52070000D02*
X197866000Y-52705000D01*
X197866000Y-52705000D02*
X197866000Y-53975000D01*
X231394000Y-52705000D02*
X231394000Y-53975000D01*
X230759000Y-52070000D02*
X231394000Y-52705000D01*
X229489000Y-52070000D02*
X230759000Y-52070000D01*
X228854000Y-52705000D02*
X229489000Y-52070000D01*
X228854000Y-53975000D02*
X228854000Y-52705000D01*
X229489000Y-54610000D02*
X228854000Y-53975000D01*
X230759000Y-54610000D02*
X229489000Y-54610000D01*
X231394000Y-53975000D02*
X230759000Y-54610000D01*
X235458000Y-53975000D02*
X234823000Y-54610000D01*
X234823000Y-54610000D02*
X233553000Y-54610000D01*
X233553000Y-54610000D02*
X232918000Y-53975000D01*
X232918000Y-53975000D02*
X232918000Y-52705000D01*
X232918000Y-52705000D02*
X233553000Y-52070000D01*
X233553000Y-52070000D02*
X234823000Y-52070000D01*
X234823000Y-52070000D02*
X235458000Y-52705000D01*
X235458000Y-52705000D02*
X235458000Y-53975000D01*
X195199000Y-93218000D02*
X193929000Y-93218000D01*
X193929000Y-93218000D02*
X193294000Y-93853000D01*
X193294000Y-95123000D02*
X193929000Y-95758000D01*
X193294000Y-93853000D02*
X192659000Y-93218000D01*
X192659000Y-93218000D02*
X191389000Y-93218000D01*
X191389000Y-93218000D02*
X190754000Y-93853000D01*
X190754000Y-95123000D02*
X191389000Y-95758000D01*
X191389000Y-95758000D02*
X192659000Y-95758000D01*
X192659000Y-95758000D02*
X193294000Y-95123000D01*
X198374000Y-93853000D02*
X197739000Y-93218000D01*
X197739000Y-93218000D02*
X196469000Y-93218000D01*
X196469000Y-93218000D02*
X195834000Y-93853000D01*
X195834000Y-95123000D02*
X196469000Y-95758000D01*
X196469000Y-95758000D02*
X197739000Y-95758000D01*
X197739000Y-95758000D02*
X198374000Y-95123000D01*
X195199000Y-93218000D02*
X195834000Y-93853000D01*
X195834000Y-95123000D02*
X195199000Y-95758000D01*
X193929000Y-95758000D02*
X195199000Y-95758000D01*
X202819000Y-93218000D02*
X201549000Y-93218000D01*
X201549000Y-93218000D02*
X200914000Y-93853000D01*
X200914000Y-95123000D02*
X201549000Y-95758000D01*
X200914000Y-93853000D02*
X200279000Y-93218000D01*
X200279000Y-93218000D02*
X199009000Y-93218000D01*
X199009000Y-93218000D02*
X198374000Y-93853000D01*
X198374000Y-95123000D02*
X199009000Y-95758000D01*
X199009000Y-95758000D02*
X200279000Y-95758000D01*
X200279000Y-95758000D02*
X200914000Y-95123000D01*
X203454000Y-93853000D02*
X203454000Y-95123000D01*
X202819000Y-93218000D02*
X203454000Y-93853000D01*
X203454000Y-95123000D02*
X202819000Y-95758000D01*
X201549000Y-95758000D02*
X202819000Y-95758000D01*
X190754000Y-93853000D02*
X190754000Y-95123000D01*
D14*
X221335600Y-97013485D02*
X221161428Y-97071542D01*
X220871142Y-97071542D01*
X220755028Y-97013485D01*
X220696971Y-96955428D01*
X220638914Y-96839314D01*
X220638914Y-96723200D01*
X220696971Y-96607085D01*
X220755028Y-96549028D01*
X220871142Y-96490971D01*
X221103371Y-96432914D01*
X221219485Y-96374857D01*
X221277542Y-96316800D01*
X221335600Y-96200685D01*
X221335600Y-96084571D01*
X221277542Y-95968457D01*
X221219485Y-95910400D01*
X221103371Y-95852342D01*
X220813085Y-95852342D01*
X220638914Y-95910400D01*
X220232514Y-95852342D02*
X219942228Y-97071542D01*
X219710000Y-96200685D01*
X219477771Y-97071542D01*
X219187485Y-95852342D01*
X218781085Y-95968457D02*
X218723028Y-95910400D01*
X218606914Y-95852342D01*
X218316628Y-95852342D01*
X218200514Y-95910400D01*
X218142457Y-95968457D01*
X218084400Y-96084571D01*
X218084400Y-96200685D01*
X218142457Y-96374857D01*
X218839142Y-97071542D01*
X218084400Y-97071542D01*
D15*
X180982857Y-69032380D02*
X181316190Y-68556190D01*
X181554285Y-69032380D02*
X181554285Y-68032380D01*
X181173333Y-68032380D01*
X181078095Y-68080000D01*
X181030476Y-68127619D01*
X180982857Y-68222857D01*
X180982857Y-68365714D01*
X181030476Y-68460952D01*
X181078095Y-68508571D01*
X181173333Y-68556190D01*
X181554285Y-68556190D01*
X180125714Y-68365714D02*
X180125714Y-69032380D01*
X180363809Y-67984761D02*
X180601904Y-68699047D01*
X179982857Y-68699047D01*
X179459047Y-68460952D02*
X179554285Y-68413333D01*
X179601904Y-68365714D01*
X179649523Y-68270476D01*
X179649523Y-68222857D01*
X179601904Y-68127619D01*
X179554285Y-68080000D01*
X179459047Y-68032380D01*
X179268571Y-68032380D01*
X179173333Y-68080000D01*
X179125714Y-68127619D01*
X179078095Y-68222857D01*
X179078095Y-68270476D01*
X179125714Y-68365714D01*
X179173333Y-68413333D01*
X179268571Y-68460952D01*
X179459047Y-68460952D01*
X179554285Y-68508571D01*
X179601904Y-68556190D01*
X179649523Y-68651428D01*
X179649523Y-68841904D01*
X179601904Y-68937142D01*
X179554285Y-68984761D01*
X179459047Y-69032380D01*
X179268571Y-69032380D01*
X179173333Y-68984761D01*
X179125714Y-68937142D01*
X179078095Y-68841904D01*
X179078095Y-68651428D01*
X179125714Y-68556190D01*
X179173333Y-68508571D01*
X179268571Y-68460952D01*
X180982857Y-56332380D02*
X181316190Y-55856190D01*
X181554285Y-56332380D02*
X181554285Y-55332380D01*
X181173333Y-55332380D01*
X181078095Y-55380000D01*
X181030476Y-55427619D01*
X180982857Y-55522857D01*
X180982857Y-55665714D01*
X181030476Y-55760952D01*
X181078095Y-55808571D01*
X181173333Y-55856190D01*
X181554285Y-55856190D01*
X180078095Y-55332380D02*
X180554285Y-55332380D01*
X180601904Y-55808571D01*
X180554285Y-55760952D01*
X180459047Y-55713333D01*
X180220952Y-55713333D01*
X180125714Y-55760952D01*
X180078095Y-55808571D01*
X180030476Y-55903809D01*
X180030476Y-56141904D01*
X180078095Y-56237142D01*
X180125714Y-56284761D01*
X180220952Y-56332380D01*
X180459047Y-56332380D01*
X180554285Y-56284761D01*
X180601904Y-56237142D01*
X179078095Y-56332380D02*
X179649523Y-56332380D01*
X179363809Y-56332380D02*
X179363809Y-55332380D01*
X179459047Y-55475238D01*
X179554285Y-55570476D01*
X179649523Y-55618095D01*
X163321904Y-70572380D02*
X162750476Y-70572380D01*
X163036190Y-71572380D02*
X163036190Y-70572380D01*
X162512380Y-70572380D02*
X161893333Y-70572380D01*
X162226666Y-70953333D01*
X162083809Y-70953333D01*
X161988571Y-71000952D01*
X161940952Y-71048571D01*
X161893333Y-71143809D01*
X161893333Y-71381904D01*
X161940952Y-71477142D01*
X161988571Y-71524761D01*
X162083809Y-71572380D01*
X162369523Y-71572380D01*
X162464761Y-71524761D01*
X162512380Y-71477142D01*
X153161904Y-70572380D02*
X152590476Y-70572380D01*
X152876190Y-71572380D02*
X152876190Y-70572380D01*
X151733333Y-71572380D02*
X152304761Y-71572380D01*
X152019047Y-71572380D02*
X152019047Y-70572380D01*
X152114285Y-70715238D01*
X152209523Y-70810476D01*
X152304761Y-70858095D01*
D14*
X154272342Y-124801085D02*
X155259314Y-124801085D01*
X155375428Y-124859142D01*
X155433485Y-124917200D01*
X155491542Y-125033314D01*
X155491542Y-125265542D01*
X155433485Y-125381657D01*
X155375428Y-125439714D01*
X155259314Y-125497771D01*
X154272342Y-125497771D01*
X154678742Y-126600857D02*
X155491542Y-126600857D01*
X154214285Y-126310571D02*
X155085142Y-126020285D01*
X155085142Y-126775028D01*
X146238685Y-125062342D02*
X145425885Y-125062342D01*
X145948400Y-126281542D01*
X144438914Y-125468742D02*
X144438914Y-126281542D01*
X144729200Y-125004285D02*
X145019485Y-125875142D01*
X144264742Y-125875142D01*
X143219714Y-125062342D02*
X143800285Y-125062342D01*
X143858342Y-125642914D01*
X143800285Y-125584857D01*
X143684171Y-125526800D01*
X143393885Y-125526800D01*
X143277771Y-125584857D01*
X143219714Y-125642914D01*
X143161657Y-125759028D01*
X143161657Y-126049314D01*
X143219714Y-126165428D01*
X143277771Y-126223485D01*
X143393885Y-126281542D01*
X143684171Y-126281542D01*
X143800285Y-126223485D01*
X143858342Y-126165428D01*
X142581085Y-126281542D02*
X142348857Y-126281542D01*
X142232742Y-126223485D01*
X142174685Y-126165428D01*
X142058571Y-125991257D01*
X142000514Y-125759028D01*
X142000514Y-125294571D01*
X142058571Y-125178457D01*
X142116628Y-125120400D01*
X142232742Y-125062342D01*
X142464971Y-125062342D01*
X142581085Y-125120400D01*
X142639142Y-125178457D01*
X142697200Y-125294571D01*
X142697200Y-125584857D01*
X142639142Y-125700971D01*
X142581085Y-125759028D01*
X142464971Y-125817085D01*
X142232742Y-125817085D01*
X142116628Y-125759028D01*
X142058571Y-125700971D01*
X142000514Y-125584857D01*
X140897428Y-125062342D02*
X141478000Y-125062342D01*
X141536057Y-125642914D01*
X141478000Y-125584857D01*
X141361885Y-125526800D01*
X141071600Y-125526800D01*
X140955485Y-125584857D01*
X140897428Y-125642914D01*
X140839371Y-125759028D01*
X140839371Y-126049314D01*
X140897428Y-126165428D01*
X140955485Y-126223485D01*
X141071600Y-126281542D01*
X141361885Y-126281542D01*
X141478000Y-126223485D01*
X141536057Y-126165428D01*
X122587657Y-126658914D02*
X121600685Y-126658914D01*
X121484571Y-126600857D01*
X121426514Y-126542800D01*
X121368457Y-126426685D01*
X121368457Y-126194457D01*
X121426514Y-126078342D01*
X121484571Y-126020285D01*
X121600685Y-125962228D01*
X122587657Y-125962228D01*
X122587657Y-124801085D02*
X122587657Y-125381657D01*
X122007085Y-125439714D01*
X122065142Y-125381657D01*
X122123200Y-125265542D01*
X122123200Y-124975257D01*
X122065142Y-124859142D01*
X122007085Y-124801085D01*
X121890971Y-124743028D01*
X121600685Y-124743028D01*
X121484571Y-124801085D01*
X121426514Y-124859142D01*
X121368457Y-124975257D01*
X121368457Y-125265542D01*
X121426514Y-125381657D01*
X121484571Y-125439714D01*
X113218685Y-125062342D02*
X112405885Y-125062342D01*
X112928400Y-126281542D01*
X111418914Y-125468742D02*
X111418914Y-126281542D01*
X111709200Y-125004285D02*
X111999485Y-125875142D01*
X111244742Y-125875142D01*
X110199714Y-125062342D02*
X110780285Y-125062342D01*
X110838342Y-125642914D01*
X110780285Y-125584857D01*
X110664171Y-125526800D01*
X110373885Y-125526800D01*
X110257771Y-125584857D01*
X110199714Y-125642914D01*
X110141657Y-125759028D01*
X110141657Y-126049314D01*
X110199714Y-126165428D01*
X110257771Y-126223485D01*
X110373885Y-126281542D01*
X110664171Y-126281542D01*
X110780285Y-126223485D01*
X110838342Y-126165428D01*
X109561085Y-126281542D02*
X109328857Y-126281542D01*
X109212742Y-126223485D01*
X109154685Y-126165428D01*
X109038571Y-125991257D01*
X108980514Y-125759028D01*
X108980514Y-125294571D01*
X109038571Y-125178457D01*
X109096628Y-125120400D01*
X109212742Y-125062342D01*
X109444971Y-125062342D01*
X109561085Y-125120400D01*
X109619142Y-125178457D01*
X109677200Y-125294571D01*
X109677200Y-125584857D01*
X109619142Y-125700971D01*
X109561085Y-125759028D01*
X109444971Y-125817085D01*
X109212742Y-125817085D01*
X109096628Y-125759028D01*
X109038571Y-125700971D01*
X108980514Y-125584857D01*
X107877428Y-125062342D02*
X108458000Y-125062342D01*
X108516057Y-125642914D01*
X108458000Y-125584857D01*
X108341885Y-125526800D01*
X108051600Y-125526800D01*
X107935485Y-125584857D01*
X107877428Y-125642914D01*
X107819371Y-125759028D01*
X107819371Y-126049314D01*
X107877428Y-126165428D01*
X107935485Y-126223485D01*
X108051600Y-126281542D01*
X108341885Y-126281542D01*
X108458000Y-126223485D01*
X108516057Y-126165428D01*
D15*
X158241904Y-70572380D02*
X157670476Y-70572380D01*
X157956190Y-71572380D02*
X157956190Y-70572380D01*
X157384761Y-70667619D02*
X157337142Y-70620000D01*
X157241904Y-70572380D01*
X157003809Y-70572380D01*
X156908571Y-70620000D01*
X156860952Y-70667619D01*
X156813333Y-70762857D01*
X156813333Y-70858095D01*
X156860952Y-71000952D01*
X157432380Y-71572380D01*
X156813333Y-71572380D01*
D14*
X196182342Y-85431085D02*
X197169314Y-85431085D01*
X197285428Y-85489142D01*
X197343485Y-85547200D01*
X197401542Y-85663314D01*
X197401542Y-85895542D01*
X197343485Y-86011657D01*
X197285428Y-86069714D01*
X197169314Y-86127771D01*
X196182342Y-86127771D01*
X196182342Y-86592228D02*
X196182342Y-87405028D01*
X197401542Y-86882514D01*
X188148685Y-85692342D02*
X187335885Y-85692342D01*
X187858400Y-86911542D01*
X186348914Y-86098742D02*
X186348914Y-86911542D01*
X186639200Y-85634285D02*
X186929485Y-86505142D01*
X186174742Y-86505142D01*
X185129714Y-85692342D02*
X185710285Y-85692342D01*
X185768342Y-86272914D01*
X185710285Y-86214857D01*
X185594171Y-86156800D01*
X185303885Y-86156800D01*
X185187771Y-86214857D01*
X185129714Y-86272914D01*
X185071657Y-86389028D01*
X185071657Y-86679314D01*
X185129714Y-86795428D01*
X185187771Y-86853485D01*
X185303885Y-86911542D01*
X185594171Y-86911542D01*
X185710285Y-86853485D01*
X185768342Y-86795428D01*
X184491085Y-86911542D02*
X184258857Y-86911542D01*
X184142742Y-86853485D01*
X184084685Y-86795428D01*
X183968571Y-86621257D01*
X183910514Y-86389028D01*
X183910514Y-85924571D01*
X183968571Y-85808457D01*
X184026628Y-85750400D01*
X184142742Y-85692342D01*
X184374971Y-85692342D01*
X184491085Y-85750400D01*
X184549142Y-85808457D01*
X184607200Y-85924571D01*
X184607200Y-86214857D01*
X184549142Y-86330971D01*
X184491085Y-86389028D01*
X184374971Y-86447085D01*
X184142742Y-86447085D01*
X184026628Y-86389028D01*
X183968571Y-86330971D01*
X183910514Y-86214857D01*
X182807428Y-85692342D02*
X183388000Y-85692342D01*
X183446057Y-86272914D01*
X183388000Y-86214857D01*
X183271885Y-86156800D01*
X182981600Y-86156800D01*
X182865485Y-86214857D01*
X182807428Y-86272914D01*
X182749371Y-86389028D01*
X182749371Y-86679314D01*
X182807428Y-86795428D01*
X182865485Y-86853485D01*
X182981600Y-86911542D01*
X183271885Y-86911542D01*
X183388000Y-86853485D01*
X183446057Y-86795428D01*
D15*
X152217380Y-146042142D02*
X151741190Y-145708809D01*
X152217380Y-145470714D02*
X151217380Y-145470714D01*
X151217380Y-145851666D01*
X151265000Y-145946904D01*
X151312619Y-145994523D01*
X151407857Y-146042142D01*
X151550714Y-146042142D01*
X151645952Y-145994523D01*
X151693571Y-145946904D01*
X151741190Y-145851666D01*
X151741190Y-145470714D01*
X151312619Y-146423095D02*
X151265000Y-146470714D01*
X151217380Y-146565952D01*
X151217380Y-146804047D01*
X151265000Y-146899285D01*
X151312619Y-146946904D01*
X151407857Y-146994523D01*
X151503095Y-146994523D01*
X151645952Y-146946904D01*
X152217380Y-146375476D01*
X152217380Y-146994523D01*
X152217380Y-147946904D02*
X152217380Y-147375476D01*
X152217380Y-147661190D02*
X151217380Y-147661190D01*
X151360238Y-147565952D01*
X151455476Y-147470714D01*
X151503095Y-147375476D01*
X136492342Y-82891085D02*
X137479314Y-82891085D01*
X137595428Y-82949142D01*
X137653485Y-83007200D01*
X137711542Y-83123314D01*
X137711542Y-83355542D01*
X137653485Y-83471657D01*
X137595428Y-83529714D01*
X137479314Y-83587771D01*
X136492342Y-83587771D01*
X137711542Y-84806971D02*
X137711542Y-84110285D01*
X137711542Y-84458628D02*
X136492342Y-84458628D01*
X136666514Y-84342514D01*
X136782628Y-84226400D01*
X136840685Y-84110285D01*
X218892380Y-65397142D02*
X218416190Y-65063809D01*
X218892380Y-64825714D02*
X217892380Y-64825714D01*
X217892380Y-65206666D01*
X217940000Y-65301904D01*
X217987619Y-65349523D01*
X218082857Y-65397142D01*
X218225714Y-65397142D01*
X218320952Y-65349523D01*
X218368571Y-65301904D01*
X218416190Y-65206666D01*
X218416190Y-64825714D01*
X217892380Y-66301904D02*
X217892380Y-65825714D01*
X218368571Y-65778095D01*
X218320952Y-65825714D01*
X218273333Y-65920952D01*
X218273333Y-66159047D01*
X218320952Y-66254285D01*
X218368571Y-66301904D01*
X218463809Y-66349523D01*
X218701904Y-66349523D01*
X218797142Y-66301904D01*
X218844761Y-66254285D01*
X218892380Y-66159047D01*
X218892380Y-65920952D01*
X218844761Y-65825714D01*
X218797142Y-65778095D01*
X217892380Y-66682857D02*
X217892380Y-67301904D01*
X218273333Y-66968571D01*
X218273333Y-67111428D01*
X218320952Y-67206666D01*
X218368571Y-67254285D01*
X218463809Y-67301904D01*
X218701904Y-67301904D01*
X218797142Y-67254285D01*
X218844761Y-67206666D01*
X218892380Y-67111428D01*
X218892380Y-66825714D01*
X218844761Y-66730476D01*
X218797142Y-66682857D01*
X125547380Y-146042142D02*
X125071190Y-145708809D01*
X125547380Y-145470714D02*
X124547380Y-145470714D01*
X124547380Y-145851666D01*
X124595000Y-145946904D01*
X124642619Y-145994523D01*
X124737857Y-146042142D01*
X124880714Y-146042142D01*
X124975952Y-145994523D01*
X125023571Y-145946904D01*
X125071190Y-145851666D01*
X125071190Y-145470714D01*
X124642619Y-146423095D02*
X124595000Y-146470714D01*
X124547380Y-146565952D01*
X124547380Y-146804047D01*
X124595000Y-146899285D01*
X124642619Y-146946904D01*
X124737857Y-146994523D01*
X124833095Y-146994523D01*
X124975952Y-146946904D01*
X125547380Y-146375476D01*
X125547380Y-146994523D01*
X124547380Y-147613571D02*
X124547380Y-147708809D01*
X124595000Y-147804047D01*
X124642619Y-147851666D01*
X124737857Y-147899285D01*
X124928333Y-147946904D01*
X125166428Y-147946904D01*
X125356904Y-147899285D01*
X125452142Y-147851666D01*
X125499761Y-147804047D01*
X125547380Y-147708809D01*
X125547380Y-147613571D01*
X125499761Y-147518333D01*
X125452142Y-147470714D01*
X125356904Y-147423095D01*
X125166428Y-147375476D01*
X124928333Y-147375476D01*
X124737857Y-147423095D01*
X124642619Y-147470714D01*
X124595000Y-147518333D01*
X124547380Y-147613571D01*
D14*
X197452342Y-124801085D02*
X198439314Y-124801085D01*
X198555428Y-124859142D01*
X198613485Y-124917200D01*
X198671542Y-125033314D01*
X198671542Y-125265542D01*
X198613485Y-125381657D01*
X198555428Y-125439714D01*
X198439314Y-125497771D01*
X197452342Y-125497771D01*
X197452342Y-125962228D02*
X197452342Y-126716971D01*
X197916800Y-126310571D01*
X197916800Y-126484742D01*
X197974857Y-126600857D01*
X198032914Y-126658914D01*
X198149028Y-126716971D01*
X198439314Y-126716971D01*
X198555428Y-126658914D01*
X198613485Y-126600857D01*
X198671542Y-126484742D01*
X198671542Y-126136400D01*
X198613485Y-126020285D01*
X198555428Y-125962228D01*
X212278685Y-125062342D02*
X211465885Y-125062342D01*
X211988400Y-126281542D01*
X210478914Y-125468742D02*
X210478914Y-126281542D01*
X210769200Y-125004285D02*
X211059485Y-125875142D01*
X210304742Y-125875142D01*
X209259714Y-125062342D02*
X209840285Y-125062342D01*
X209898342Y-125642914D01*
X209840285Y-125584857D01*
X209724171Y-125526800D01*
X209433885Y-125526800D01*
X209317771Y-125584857D01*
X209259714Y-125642914D01*
X209201657Y-125759028D01*
X209201657Y-126049314D01*
X209259714Y-126165428D01*
X209317771Y-126223485D01*
X209433885Y-126281542D01*
X209724171Y-126281542D01*
X209840285Y-126223485D01*
X209898342Y-126165428D01*
X208621085Y-126281542D02*
X208388857Y-126281542D01*
X208272742Y-126223485D01*
X208214685Y-126165428D01*
X208098571Y-125991257D01*
X208040514Y-125759028D01*
X208040514Y-125294571D01*
X208098571Y-125178457D01*
X208156628Y-125120400D01*
X208272742Y-125062342D01*
X208504971Y-125062342D01*
X208621085Y-125120400D01*
X208679142Y-125178457D01*
X208737200Y-125294571D01*
X208737200Y-125584857D01*
X208679142Y-125700971D01*
X208621085Y-125759028D01*
X208504971Y-125817085D01*
X208272742Y-125817085D01*
X208156628Y-125759028D01*
X208098571Y-125700971D01*
X208040514Y-125584857D01*
X206937428Y-125062342D02*
X207518000Y-125062342D01*
X207576057Y-125642914D01*
X207518000Y-125584857D01*
X207401885Y-125526800D01*
X207111600Y-125526800D01*
X206995485Y-125584857D01*
X206937428Y-125642914D01*
X206879371Y-125759028D01*
X206879371Y-126049314D01*
X206937428Y-126165428D01*
X206995485Y-126223485D01*
X207111600Y-126281542D01*
X207401885Y-126281542D01*
X207518000Y-126223485D01*
X207576057Y-126165428D01*
D15*
X187777380Y-146042142D02*
X187301190Y-145708809D01*
X187777380Y-145470714D02*
X186777380Y-145470714D01*
X186777380Y-145851666D01*
X186825000Y-145946904D01*
X186872619Y-145994523D01*
X186967857Y-146042142D01*
X187110714Y-146042142D01*
X187205952Y-145994523D01*
X187253571Y-145946904D01*
X187301190Y-145851666D01*
X187301190Y-145470714D01*
X186872619Y-146423095D02*
X186825000Y-146470714D01*
X186777380Y-146565952D01*
X186777380Y-146804047D01*
X186825000Y-146899285D01*
X186872619Y-146946904D01*
X186967857Y-146994523D01*
X187063095Y-146994523D01*
X187205952Y-146946904D01*
X187777380Y-146375476D01*
X187777380Y-146994523D01*
X186777380Y-147327857D02*
X186777380Y-147946904D01*
X187158333Y-147613571D01*
X187158333Y-147756428D01*
X187205952Y-147851666D01*
X187253571Y-147899285D01*
X187348809Y-147946904D01*
X187586904Y-147946904D01*
X187682142Y-147899285D01*
X187729761Y-147851666D01*
X187777380Y-147756428D01*
X187777380Y-147470714D01*
X187729761Y-147375476D01*
X187682142Y-147327857D01*
X180982857Y-53792380D02*
X181316190Y-53316190D01*
X181554285Y-53792380D02*
X181554285Y-52792380D01*
X181173333Y-52792380D01*
X181078095Y-52840000D01*
X181030476Y-52887619D01*
X180982857Y-52982857D01*
X180982857Y-53125714D01*
X181030476Y-53220952D01*
X181078095Y-53268571D01*
X181173333Y-53316190D01*
X181554285Y-53316190D01*
X180078095Y-52792380D02*
X180554285Y-52792380D01*
X180601904Y-53268571D01*
X180554285Y-53220952D01*
X180459047Y-53173333D01*
X180220952Y-53173333D01*
X180125714Y-53220952D01*
X180078095Y-53268571D01*
X180030476Y-53363809D01*
X180030476Y-53601904D01*
X180078095Y-53697142D01*
X180125714Y-53744761D01*
X180220952Y-53792380D01*
X180459047Y-53792380D01*
X180554285Y-53744761D01*
X180601904Y-53697142D01*
X179649523Y-52887619D02*
X179601904Y-52840000D01*
X179506666Y-52792380D01*
X179268571Y-52792380D01*
X179173333Y-52840000D01*
X179125714Y-52887619D01*
X179078095Y-52982857D01*
X179078095Y-53078095D01*
X179125714Y-53220952D01*
X179697142Y-53792380D01*
X179078095Y-53792380D01*
D14*
X188627657Y-126658914D02*
X187640685Y-126658914D01*
X187524571Y-126600857D01*
X187466514Y-126542800D01*
X187408457Y-126426685D01*
X187408457Y-126194457D01*
X187466514Y-126078342D01*
X187524571Y-126020285D01*
X187640685Y-125962228D01*
X188627657Y-125962228D01*
X188627657Y-124859142D02*
X188627657Y-125091371D01*
X188569600Y-125207485D01*
X188511542Y-125265542D01*
X188337371Y-125381657D01*
X188105142Y-125439714D01*
X187640685Y-125439714D01*
X187524571Y-125381657D01*
X187466514Y-125323600D01*
X187408457Y-125207485D01*
X187408457Y-124975257D01*
X187466514Y-124859142D01*
X187524571Y-124801085D01*
X187640685Y-124743028D01*
X187930971Y-124743028D01*
X188047085Y-124801085D01*
X188105142Y-124859142D01*
X188163200Y-124975257D01*
X188163200Y-125207485D01*
X188105142Y-125323600D01*
X188047085Y-125381657D01*
X187930971Y-125439714D01*
X179258685Y-125062342D02*
X178445885Y-125062342D01*
X178968400Y-126281542D01*
X177458914Y-125468742D02*
X177458914Y-126281542D01*
X177749200Y-125004285D02*
X178039485Y-125875142D01*
X177284742Y-125875142D01*
X176239714Y-125062342D02*
X176820285Y-125062342D01*
X176878342Y-125642914D01*
X176820285Y-125584857D01*
X176704171Y-125526800D01*
X176413885Y-125526800D01*
X176297771Y-125584857D01*
X176239714Y-125642914D01*
X176181657Y-125759028D01*
X176181657Y-126049314D01*
X176239714Y-126165428D01*
X176297771Y-126223485D01*
X176413885Y-126281542D01*
X176704171Y-126281542D01*
X176820285Y-126223485D01*
X176878342Y-126165428D01*
X175601085Y-126281542D02*
X175368857Y-126281542D01*
X175252742Y-126223485D01*
X175194685Y-126165428D01*
X175078571Y-125991257D01*
X175020514Y-125759028D01*
X175020514Y-125294571D01*
X175078571Y-125178457D01*
X175136628Y-125120400D01*
X175252742Y-125062342D01*
X175484971Y-125062342D01*
X175601085Y-125120400D01*
X175659142Y-125178457D01*
X175717200Y-125294571D01*
X175717200Y-125584857D01*
X175659142Y-125700971D01*
X175601085Y-125759028D01*
X175484971Y-125817085D01*
X175252742Y-125817085D01*
X175136628Y-125759028D01*
X175078571Y-125700971D01*
X175020514Y-125584857D01*
X173917428Y-125062342D02*
X174498000Y-125062342D01*
X174556057Y-125642914D01*
X174498000Y-125584857D01*
X174381885Y-125526800D01*
X174091600Y-125526800D01*
X173975485Y-125584857D01*
X173917428Y-125642914D01*
X173859371Y-125759028D01*
X173859371Y-126049314D01*
X173917428Y-126165428D01*
X173975485Y-126223485D01*
X174091600Y-126281542D01*
X174381885Y-126281542D01*
X174498000Y-126223485D01*
X174556057Y-126165428D01*
D15*
X89987380Y-146042142D02*
X89511190Y-145708809D01*
X89987380Y-145470714D02*
X88987380Y-145470714D01*
X88987380Y-145851666D01*
X89035000Y-145946904D01*
X89082619Y-145994523D01*
X89177857Y-146042142D01*
X89320714Y-146042142D01*
X89415952Y-145994523D01*
X89463571Y-145946904D01*
X89511190Y-145851666D01*
X89511190Y-145470714D01*
X89987380Y-146994523D02*
X89987380Y-146423095D01*
X89987380Y-146708809D02*
X88987380Y-146708809D01*
X89130238Y-146613571D01*
X89225476Y-146518333D01*
X89273095Y-146423095D01*
X88987380Y-147327857D02*
X88987380Y-147994523D01*
X89987380Y-147565952D01*
X131167142Y-125103333D02*
X131214761Y-125055714D01*
X131262380Y-124912857D01*
X131262380Y-124817619D01*
X131214761Y-124674761D01*
X131119523Y-124579523D01*
X131024285Y-124531904D01*
X130833809Y-124484285D01*
X130690952Y-124484285D01*
X130500476Y-124531904D01*
X130405238Y-124579523D01*
X130310000Y-124674761D01*
X130262380Y-124817619D01*
X130262380Y-124912857D01*
X130310000Y-125055714D01*
X130357619Y-125103333D01*
X131262380Y-125531904D02*
X130262380Y-125531904D01*
X130262380Y-125770000D01*
X130310000Y-125912857D01*
X130405238Y-126008095D01*
X130500476Y-126055714D01*
X130690952Y-126103333D01*
X130833809Y-126103333D01*
X131024285Y-126055714D01*
X131119523Y-126008095D01*
X131214761Y-125912857D01*
X131262380Y-125770000D01*
X131262380Y-125531904D01*
X130595714Y-126960476D02*
X131262380Y-126960476D01*
X130214761Y-126722380D02*
X130929047Y-126484285D01*
X130929047Y-127103333D01*
X130206666Y-58777142D02*
X130254285Y-58824761D01*
X130397142Y-58872380D01*
X130492380Y-58872380D01*
X130635238Y-58824761D01*
X130730476Y-58729523D01*
X130778095Y-58634285D01*
X130825714Y-58443809D01*
X130825714Y-58300952D01*
X130778095Y-58110476D01*
X130730476Y-58015238D01*
X130635238Y-57920000D01*
X130492380Y-57872380D01*
X130397142Y-57872380D01*
X130254285Y-57920000D01*
X130206666Y-57967619D01*
X129778095Y-58872380D02*
X129778095Y-57872380D01*
X129540000Y-57872380D01*
X129397142Y-57920000D01*
X129301904Y-58015238D01*
X129254285Y-58110476D01*
X129206666Y-58300952D01*
X129206666Y-58443809D01*
X129254285Y-58634285D01*
X129301904Y-58729523D01*
X129397142Y-58824761D01*
X129540000Y-58872380D01*
X129778095Y-58872380D01*
X128730476Y-58872380D02*
X128540000Y-58872380D01*
X128444761Y-58824761D01*
X128397142Y-58777142D01*
X128301904Y-58634285D01*
X128254285Y-58443809D01*
X128254285Y-58062857D01*
X128301904Y-57967619D01*
X128349523Y-57920000D01*
X128444761Y-57872380D01*
X128635238Y-57872380D01*
X128730476Y-57920000D01*
X128778095Y-57967619D01*
X128825714Y-58062857D01*
X128825714Y-58300952D01*
X128778095Y-58396190D01*
X128730476Y-58443809D01*
X128635238Y-58491428D01*
X128444761Y-58491428D01*
X128349523Y-58443809D01*
X128301904Y-58396190D01*
X128254285Y-58300952D01*
X164187142Y-125103333D02*
X164234761Y-125055714D01*
X164282380Y-124912857D01*
X164282380Y-124817619D01*
X164234761Y-124674761D01*
X164139523Y-124579523D01*
X164044285Y-124531904D01*
X163853809Y-124484285D01*
X163710952Y-124484285D01*
X163520476Y-124531904D01*
X163425238Y-124579523D01*
X163330000Y-124674761D01*
X163282380Y-124817619D01*
X163282380Y-124912857D01*
X163330000Y-125055714D01*
X163377619Y-125103333D01*
X164282380Y-125531904D02*
X163282380Y-125531904D01*
X163282380Y-125770000D01*
X163330000Y-125912857D01*
X163425238Y-126008095D01*
X163520476Y-126055714D01*
X163710952Y-126103333D01*
X163853809Y-126103333D01*
X164044285Y-126055714D01*
X164139523Y-126008095D01*
X164234761Y-125912857D01*
X164282380Y-125770000D01*
X164282380Y-125531904D01*
X163282380Y-126960476D02*
X163282380Y-126770000D01*
X163330000Y-126674761D01*
X163377619Y-126627142D01*
X163520476Y-126531904D01*
X163710952Y-126484285D01*
X164091904Y-126484285D01*
X164187142Y-126531904D01*
X164234761Y-126579523D01*
X164282380Y-126674761D01*
X164282380Y-126865238D01*
X164234761Y-126960476D01*
X164187142Y-127008095D01*
X164091904Y-127055714D01*
X163853809Y-127055714D01*
X163758571Y-127008095D01*
X163710952Y-126960476D01*
X163663333Y-126865238D01*
X163663333Y-126674761D01*
X163710952Y-126579523D01*
X163758571Y-126531904D01*
X163853809Y-126484285D01*
X78747857Y-94432380D02*
X79081190Y-93956190D01*
X79319285Y-94432380D02*
X79319285Y-93432380D01*
X78938333Y-93432380D01*
X78843095Y-93480000D01*
X78795476Y-93527619D01*
X78747857Y-93622857D01*
X78747857Y-93765714D01*
X78795476Y-93860952D01*
X78843095Y-93908571D01*
X78938333Y-93956190D01*
X79319285Y-93956190D01*
X77843095Y-93432380D02*
X78319285Y-93432380D01*
X78366904Y-93908571D01*
X78319285Y-93860952D01*
X78224047Y-93813333D01*
X77985952Y-93813333D01*
X77890714Y-93860952D01*
X77843095Y-93908571D01*
X77795476Y-94003809D01*
X77795476Y-94241904D01*
X77843095Y-94337142D01*
X77890714Y-94384761D01*
X77985952Y-94432380D01*
X78224047Y-94432380D01*
X78319285Y-94384761D01*
X78366904Y-94337142D01*
X76938333Y-93432380D02*
X77128809Y-93432380D01*
X77224047Y-93480000D01*
X77271666Y-93527619D01*
X77366904Y-93670476D01*
X77414523Y-93860952D01*
X77414523Y-94241904D01*
X77366904Y-94337142D01*
X77319285Y-94384761D01*
X77224047Y-94432380D01*
X77033571Y-94432380D01*
X76938333Y-94384761D01*
X76890714Y-94337142D01*
X76843095Y-94241904D01*
X76843095Y-94003809D01*
X76890714Y-93908571D01*
X76938333Y-93860952D01*
X77033571Y-93813333D01*
X77224047Y-93813333D01*
X77319285Y-93860952D01*
X77366904Y-93908571D01*
X77414523Y-94003809D01*
X168401904Y-70572380D02*
X167830476Y-70572380D01*
X168116190Y-71572380D02*
X168116190Y-70572380D01*
X167068571Y-70905714D02*
X167068571Y-71572380D01*
X167306666Y-70524761D02*
X167544761Y-71239047D01*
X166925714Y-71239047D01*
X140628914Y-52672342D02*
X140628914Y-53659314D01*
X140570857Y-53775428D01*
X140512800Y-53833485D01*
X140396685Y-53891542D01*
X140164457Y-53891542D01*
X140048342Y-53833485D01*
X139990285Y-53775428D01*
X139932228Y-53659314D01*
X139932228Y-52672342D01*
X139293600Y-53891542D02*
X139061371Y-53891542D01*
X138945257Y-53833485D01*
X138887200Y-53775428D01*
X138771085Y-53601257D01*
X138713028Y-53369028D01*
X138713028Y-52904571D01*
X138771085Y-52788457D01*
X138829142Y-52730400D01*
X138945257Y-52672342D01*
X139177485Y-52672342D01*
X139293600Y-52730400D01*
X139351657Y-52788457D01*
X139409714Y-52904571D01*
X139409714Y-53194857D01*
X139351657Y-53310971D01*
X139293600Y-53369028D01*
X139177485Y-53427085D01*
X138945257Y-53427085D01*
X138829142Y-53369028D01*
X138771085Y-53310971D01*
X138713028Y-53194857D01*
X86222114Y-107862914D02*
X86047942Y-107920971D01*
X85989885Y-107979028D01*
X85931828Y-108095142D01*
X85931828Y-108269314D01*
X85989885Y-108385428D01*
X86047942Y-108443485D01*
X86164057Y-108501542D01*
X86628514Y-108501542D01*
X86628514Y-107282342D01*
X86222114Y-107282342D01*
X86106000Y-107340400D01*
X86047942Y-107398457D01*
X85989885Y-107514571D01*
X85989885Y-107630685D01*
X86047942Y-107746800D01*
X86106000Y-107804857D01*
X86222114Y-107862914D01*
X86628514Y-107862914D01*
X85409314Y-107282342D02*
X85409314Y-108269314D01*
X85351257Y-108385428D01*
X85293200Y-108443485D01*
X85177085Y-108501542D01*
X84944857Y-108501542D01*
X84828742Y-108443485D01*
X84770685Y-108385428D01*
X84712628Y-108269314D01*
X84712628Y-107282342D01*
X83493428Y-108501542D02*
X84190114Y-108501542D01*
X83841771Y-108501542D02*
X83841771Y-107282342D01*
X83957885Y-107456514D01*
X84074000Y-107572628D01*
X84190114Y-107630685D01*
X222607142Y-125063333D02*
X222654761Y-125015714D01*
X222702380Y-124872857D01*
X222702380Y-124777619D01*
X222654761Y-124634761D01*
X222559523Y-124539523D01*
X222464285Y-124491904D01*
X222273809Y-124444285D01*
X222130952Y-124444285D01*
X221940476Y-124491904D01*
X221845238Y-124539523D01*
X221750000Y-124634761D01*
X221702380Y-124777619D01*
X221702380Y-124872857D01*
X221750000Y-125015714D01*
X221797619Y-125063333D01*
X222702380Y-125491904D02*
X221702380Y-125491904D01*
X221702380Y-125730000D01*
X221750000Y-125872857D01*
X221845238Y-125968095D01*
X221940476Y-126015714D01*
X222130952Y-126063333D01*
X222273809Y-126063333D01*
X222464285Y-126015714D01*
X222559523Y-125968095D01*
X222654761Y-125872857D01*
X222702380Y-125730000D01*
X222702380Y-125491904D01*
X221702380Y-126396666D02*
X221702380Y-127015714D01*
X222083333Y-126682380D01*
X222083333Y-126825238D01*
X222130952Y-126920476D01*
X222178571Y-126968095D01*
X222273809Y-127015714D01*
X222511904Y-127015714D01*
X222607142Y-126968095D01*
X222654761Y-126920476D01*
X222702380Y-126825238D01*
X222702380Y-126539523D01*
X222654761Y-126444285D01*
X222607142Y-126396666D01*
D14*
X189832342Y-60553600D02*
X190703200Y-60553600D01*
X190877371Y-60495542D01*
X190993485Y-60379428D01*
X191051542Y-60205257D01*
X191051542Y-60089142D01*
X191051542Y-61772800D02*
X191051542Y-61076114D01*
X191051542Y-61424457D02*
X189832342Y-61424457D01*
X190006514Y-61308342D01*
X190122628Y-61192228D01*
X190180685Y-61076114D01*
D15*
X98147142Y-125103333D02*
X98194761Y-125055714D01*
X98242380Y-124912857D01*
X98242380Y-124817619D01*
X98194761Y-124674761D01*
X98099523Y-124579523D01*
X98004285Y-124531904D01*
X97813809Y-124484285D01*
X97670952Y-124484285D01*
X97480476Y-124531904D01*
X97385238Y-124579523D01*
X97290000Y-124674761D01*
X97242380Y-124817619D01*
X97242380Y-124912857D01*
X97290000Y-125055714D01*
X97337619Y-125103333D01*
X98242380Y-125531904D02*
X97242380Y-125531904D01*
X97242380Y-125770000D01*
X97290000Y-125912857D01*
X97385238Y-126008095D01*
X97480476Y-126055714D01*
X97670952Y-126103333D01*
X97813809Y-126103333D01*
X98004285Y-126055714D01*
X98099523Y-126008095D01*
X98194761Y-125912857D01*
X98242380Y-125770000D01*
X98242380Y-125531904D01*
X97242380Y-127008095D02*
X97242380Y-126531904D01*
X97718571Y-126484285D01*
X97670952Y-126531904D01*
X97623333Y-126627142D01*
X97623333Y-126865238D01*
X97670952Y-126960476D01*
X97718571Y-127008095D01*
X97813809Y-127055714D01*
X98051904Y-127055714D01*
X98147142Y-127008095D01*
X98194761Y-126960476D01*
X98242380Y-126865238D01*
X98242380Y-126627142D01*
X98194761Y-126531904D01*
X98147142Y-126484285D01*
D14*
X133756400Y-62832342D02*
X133756400Y-63703200D01*
X133814457Y-63877371D01*
X133930571Y-63993485D01*
X134104742Y-64051542D01*
X134220857Y-64051542D01*
X133291942Y-62832342D02*
X132537200Y-62832342D01*
X132943600Y-63296800D01*
X132769428Y-63296800D01*
X132653314Y-63354857D01*
X132595257Y-63412914D01*
X132537200Y-63529028D01*
X132537200Y-63819314D01*
X132595257Y-63935428D01*
X132653314Y-63993485D01*
X132769428Y-64051542D01*
X133117771Y-64051542D01*
X133233885Y-63993485D01*
X133291942Y-63935428D01*
D15*
X207771904Y-73112380D02*
X207771904Y-73921904D01*
X207724285Y-74017142D01*
X207676666Y-74064761D01*
X207581428Y-74112380D01*
X207390952Y-74112380D01*
X207295714Y-74064761D01*
X207248095Y-74017142D01*
X207200476Y-73921904D01*
X207200476Y-73112380D01*
X206581428Y-73540952D02*
X206676666Y-73493333D01*
X206724285Y-73445714D01*
X206771904Y-73350476D01*
X206771904Y-73302857D01*
X206724285Y-73207619D01*
X206676666Y-73160000D01*
X206581428Y-73112380D01*
X206390952Y-73112380D01*
X206295714Y-73160000D01*
X206248095Y-73207619D01*
X206200476Y-73302857D01*
X206200476Y-73350476D01*
X206248095Y-73445714D01*
X206295714Y-73493333D01*
X206390952Y-73540952D01*
X206581428Y-73540952D01*
X206676666Y-73588571D01*
X206724285Y-73636190D01*
X206771904Y-73731428D01*
X206771904Y-73921904D01*
X206724285Y-74017142D01*
X206676666Y-74064761D01*
X206581428Y-74112380D01*
X206390952Y-74112380D01*
X206295714Y-74064761D01*
X206248095Y-74017142D01*
X206200476Y-73921904D01*
X206200476Y-73731428D01*
X206248095Y-73636190D01*
X206295714Y-73588571D01*
X206390952Y-73540952D01*
D14*
X216306400Y-52672342D02*
X216306400Y-53543200D01*
X216364457Y-53717371D01*
X216480571Y-53833485D01*
X216654742Y-53891542D01*
X216770857Y-53891542D01*
X215783885Y-52788457D02*
X215725828Y-52730400D01*
X215609714Y-52672342D01*
X215319428Y-52672342D01*
X215203314Y-52730400D01*
X215145257Y-52788457D01*
X215087200Y-52904571D01*
X215087200Y-53020685D01*
X215145257Y-53194857D01*
X215841942Y-53891542D01*
X215087200Y-53891542D01*
X122326400Y-70452342D02*
X122326400Y-71323200D01*
X122384457Y-71497371D01*
X122500571Y-71613485D01*
X122674742Y-71671542D01*
X122790857Y-71671542D01*
X121223314Y-70858742D02*
X121223314Y-71671542D01*
X121513600Y-70394285D02*
X121803885Y-71265142D01*
X121049142Y-71265142D01*
D15*
X173077142Y-85733333D02*
X173124761Y-85685714D01*
X173172380Y-85542857D01*
X173172380Y-85447619D01*
X173124761Y-85304761D01*
X173029523Y-85209523D01*
X172934285Y-85161904D01*
X172743809Y-85114285D01*
X172600952Y-85114285D01*
X172410476Y-85161904D01*
X172315238Y-85209523D01*
X172220000Y-85304761D01*
X172172380Y-85447619D01*
X172172380Y-85542857D01*
X172220000Y-85685714D01*
X172267619Y-85733333D01*
X173172380Y-86161904D02*
X172172380Y-86161904D01*
X172172380Y-86400000D01*
X172220000Y-86542857D01*
X172315238Y-86638095D01*
X172410476Y-86685714D01*
X172600952Y-86733333D01*
X172743809Y-86733333D01*
X172934285Y-86685714D01*
X173029523Y-86638095D01*
X173124761Y-86542857D01*
X173172380Y-86400000D01*
X173172380Y-86161904D01*
X172172380Y-87066666D02*
X172172380Y-87733333D01*
X173172380Y-87304761D01*
X207716666Y-87987142D02*
X207764285Y-88034761D01*
X207907142Y-88082380D01*
X208002380Y-88082380D01*
X208145238Y-88034761D01*
X208240476Y-87939523D01*
X208288095Y-87844285D01*
X208335714Y-87653809D01*
X208335714Y-87510952D01*
X208288095Y-87320476D01*
X208240476Y-87225238D01*
X208145238Y-87130000D01*
X208002380Y-87082380D01*
X207907142Y-87082380D01*
X207764285Y-87130000D01*
X207716666Y-87177619D01*
X207288095Y-88082380D02*
X207288095Y-87082380D01*
X207050000Y-87082380D01*
X206907142Y-87130000D01*
X206811904Y-87225238D01*
X206764285Y-87320476D01*
X206716666Y-87510952D01*
X206716666Y-87653809D01*
X206764285Y-87844285D01*
X206811904Y-87939523D01*
X206907142Y-88034761D01*
X207050000Y-88082380D01*
X207288095Y-88082380D01*
X206145238Y-87510952D02*
X206240476Y-87463333D01*
X206288095Y-87415714D01*
X206335714Y-87320476D01*
X206335714Y-87272857D01*
X206288095Y-87177619D01*
X206240476Y-87130000D01*
X206145238Y-87082380D01*
X205954761Y-87082380D01*
X205859523Y-87130000D01*
X205811904Y-87177619D01*
X205764285Y-87272857D01*
X205764285Y-87320476D01*
X205811904Y-87415714D01*
X205859523Y-87463333D01*
X205954761Y-87510952D01*
X206145238Y-87510952D01*
X206240476Y-87558571D01*
X206288095Y-87606190D01*
X206335714Y-87701428D01*
X206335714Y-87891904D01*
X206288095Y-87987142D01*
X206240476Y-88034761D01*
X206145238Y-88082380D01*
X205954761Y-88082380D01*
X205859523Y-88034761D01*
X205811904Y-87987142D01*
X205764285Y-87891904D01*
X205764285Y-87701428D01*
X205811904Y-87606190D01*
X205859523Y-87558571D01*
X205954761Y-87510952D01*
X74421904Y-98512380D02*
X73850476Y-98512380D01*
X74136190Y-99512380D02*
X74136190Y-98512380D01*
X73040952Y-98512380D02*
X73517142Y-98512380D01*
X73564761Y-98988571D01*
X73517142Y-98940952D01*
X73421904Y-98893333D01*
X73183809Y-98893333D01*
X73088571Y-98940952D01*
X73040952Y-98988571D01*
X72993333Y-99083809D01*
X72993333Y-99321904D01*
X73040952Y-99417142D01*
X73088571Y-99464761D01*
X73183809Y-99512380D01*
X73421904Y-99512380D01*
X73517142Y-99464761D01*
X73564761Y-99417142D01*
X221432380Y-64825714D02*
X220432380Y-64825714D01*
X220432380Y-65063809D01*
X220480000Y-65206666D01*
X220575238Y-65301904D01*
X220670476Y-65349523D01*
X220860952Y-65397142D01*
X221003809Y-65397142D01*
X221194285Y-65349523D01*
X221289523Y-65301904D01*
X221384761Y-65206666D01*
X221432380Y-65063809D01*
X221432380Y-64825714D01*
X220432380Y-66301904D02*
X220432380Y-65825714D01*
X220908571Y-65778095D01*
X220860952Y-65825714D01*
X220813333Y-65920952D01*
X220813333Y-66159047D01*
X220860952Y-66254285D01*
X220908571Y-66301904D01*
X221003809Y-66349523D01*
X221241904Y-66349523D01*
X221337142Y-66301904D01*
X221384761Y-66254285D01*
X221432380Y-66159047D01*
X221432380Y-65920952D01*
X221384761Y-65825714D01*
X221337142Y-65778095D01*
X221432380Y-67301904D02*
X221432380Y-66730476D01*
X221432380Y-67016190D02*
X220432380Y-67016190D01*
X220575238Y-66920952D01*
X220670476Y-66825714D01*
X220718095Y-66730476D01*
X236227857Y-106497380D02*
X236561190Y-106021190D01*
X236799285Y-106497380D02*
X236799285Y-105497380D01*
X236418333Y-105497380D01*
X236323095Y-105545000D01*
X236275476Y-105592619D01*
X236227857Y-105687857D01*
X236227857Y-105830714D01*
X236275476Y-105925952D01*
X236323095Y-105973571D01*
X236418333Y-106021190D01*
X236799285Y-106021190D01*
X235894523Y-105497380D02*
X235275476Y-105497380D01*
X235608809Y-105878333D01*
X235465952Y-105878333D01*
X235370714Y-105925952D01*
X235323095Y-105973571D01*
X235275476Y-106068809D01*
X235275476Y-106306904D01*
X235323095Y-106402142D01*
X235370714Y-106449761D01*
X235465952Y-106497380D01*
X235751666Y-106497380D01*
X235846904Y-106449761D01*
X235894523Y-106402142D01*
X234656428Y-105497380D02*
X234561190Y-105497380D01*
X234465952Y-105545000D01*
X234418333Y-105592619D01*
X234370714Y-105687857D01*
X234323095Y-105878333D01*
X234323095Y-106116428D01*
X234370714Y-106306904D01*
X234418333Y-106402142D01*
X234465952Y-106449761D01*
X234561190Y-106497380D01*
X234656428Y-106497380D01*
X234751666Y-106449761D01*
X234799285Y-106402142D01*
X234846904Y-106306904D01*
X234894523Y-106116428D01*
X234894523Y-105878333D01*
X234846904Y-105687857D01*
X234799285Y-105592619D01*
X234751666Y-105545000D01*
X234656428Y-105497380D01*
X221622857Y-76652380D02*
X221956190Y-76176190D01*
X222194285Y-76652380D02*
X222194285Y-75652380D01*
X221813333Y-75652380D01*
X221718095Y-75700000D01*
X221670476Y-75747619D01*
X221622857Y-75842857D01*
X221622857Y-75985714D01*
X221670476Y-76080952D01*
X221718095Y-76128571D01*
X221813333Y-76176190D01*
X222194285Y-76176190D01*
X220718095Y-75652380D02*
X221194285Y-75652380D01*
X221241904Y-76128571D01*
X221194285Y-76080952D01*
X221099047Y-76033333D01*
X220860952Y-76033333D01*
X220765714Y-76080952D01*
X220718095Y-76128571D01*
X220670476Y-76223809D01*
X220670476Y-76461904D01*
X220718095Y-76557142D01*
X220765714Y-76604761D01*
X220860952Y-76652380D01*
X221099047Y-76652380D01*
X221194285Y-76604761D01*
X221241904Y-76557142D01*
X219813333Y-75985714D02*
X219813333Y-76652380D01*
X220051428Y-75604761D02*
X220289523Y-76319047D01*
X219670476Y-76319047D01*
X216352380Y-83177142D02*
X215876190Y-82843809D01*
X216352380Y-82605714D02*
X215352380Y-82605714D01*
X215352380Y-82986666D01*
X215400000Y-83081904D01*
X215447619Y-83129523D01*
X215542857Y-83177142D01*
X215685714Y-83177142D01*
X215780952Y-83129523D01*
X215828571Y-83081904D01*
X215876190Y-82986666D01*
X215876190Y-82605714D01*
X215352380Y-84081904D02*
X215352380Y-83605714D01*
X215828571Y-83558095D01*
X215780952Y-83605714D01*
X215733333Y-83700952D01*
X215733333Y-83939047D01*
X215780952Y-84034285D01*
X215828571Y-84081904D01*
X215923809Y-84129523D01*
X216161904Y-84129523D01*
X216257142Y-84081904D01*
X216304761Y-84034285D01*
X216352380Y-83939047D01*
X216352380Y-83700952D01*
X216304761Y-83605714D01*
X216257142Y-83558095D01*
X215352380Y-85034285D02*
X215352380Y-84558095D01*
X215828571Y-84510476D01*
X215780952Y-84558095D01*
X215733333Y-84653333D01*
X215733333Y-84891428D01*
X215780952Y-84986666D01*
X215828571Y-85034285D01*
X215923809Y-85081904D01*
X216161904Y-85081904D01*
X216257142Y-85034285D01*
X216304761Y-84986666D01*
X216352380Y-84891428D01*
X216352380Y-84653333D01*
X216304761Y-84558095D01*
X216257142Y-84510476D01*
X180982857Y-61412380D02*
X181316190Y-60936190D01*
X181554285Y-61412380D02*
X181554285Y-60412380D01*
X181173333Y-60412380D01*
X181078095Y-60460000D01*
X181030476Y-60507619D01*
X180982857Y-60602857D01*
X180982857Y-60745714D01*
X181030476Y-60840952D01*
X181078095Y-60888571D01*
X181173333Y-60936190D01*
X181554285Y-60936190D01*
X180125714Y-60745714D02*
X180125714Y-61412380D01*
X180363809Y-60364761D02*
X180601904Y-61079047D01*
X179982857Y-61079047D01*
X179173333Y-60412380D02*
X179363809Y-60412380D01*
X179459047Y-60460000D01*
X179506666Y-60507619D01*
X179601904Y-60650476D01*
X179649523Y-60840952D01*
X179649523Y-61221904D01*
X179601904Y-61317142D01*
X179554285Y-61364761D01*
X179459047Y-61412380D01*
X179268571Y-61412380D01*
X179173333Y-61364761D01*
X179125714Y-61317142D01*
X179078095Y-61221904D01*
X179078095Y-60983809D01*
X179125714Y-60888571D01*
X179173333Y-60840952D01*
X179268571Y-60793333D01*
X179459047Y-60793333D01*
X179554285Y-60840952D01*
X179601904Y-60888571D01*
X179649523Y-60983809D01*
X107767380Y-62222142D02*
X107291190Y-61888809D01*
X107767380Y-61650714D02*
X106767380Y-61650714D01*
X106767380Y-62031666D01*
X106815000Y-62126904D01*
X106862619Y-62174523D01*
X106957857Y-62222142D01*
X107100714Y-62222142D01*
X107195952Y-62174523D01*
X107243571Y-62126904D01*
X107291190Y-62031666D01*
X107291190Y-61650714D01*
X106862619Y-62603095D02*
X106815000Y-62650714D01*
X106767380Y-62745952D01*
X106767380Y-62984047D01*
X106815000Y-63079285D01*
X106862619Y-63126904D01*
X106957857Y-63174523D01*
X107053095Y-63174523D01*
X107195952Y-63126904D01*
X107767380Y-62555476D01*
X107767380Y-63174523D01*
X107195952Y-63745952D02*
X107148333Y-63650714D01*
X107100714Y-63603095D01*
X107005476Y-63555476D01*
X106957857Y-63555476D01*
X106862619Y-63603095D01*
X106815000Y-63650714D01*
X106767380Y-63745952D01*
X106767380Y-63936428D01*
X106815000Y-64031666D01*
X106862619Y-64079285D01*
X106957857Y-64126904D01*
X107005476Y-64126904D01*
X107100714Y-64079285D01*
X107148333Y-64031666D01*
X107195952Y-63936428D01*
X107195952Y-63745952D01*
X107243571Y-63650714D01*
X107291190Y-63603095D01*
X107386428Y-63555476D01*
X107576904Y-63555476D01*
X107672142Y-63603095D01*
X107719761Y-63650714D01*
X107767380Y-63745952D01*
X107767380Y-63936428D01*
X107719761Y-64031666D01*
X107672142Y-64079285D01*
X107576904Y-64126904D01*
X107386428Y-64126904D01*
X107291190Y-64079285D01*
X107243571Y-64031666D01*
X107195952Y-63936428D01*
X180982857Y-58872380D02*
X181316190Y-58396190D01*
X181554285Y-58872380D02*
X181554285Y-57872380D01*
X181173333Y-57872380D01*
X181078095Y-57920000D01*
X181030476Y-57967619D01*
X180982857Y-58062857D01*
X180982857Y-58205714D01*
X181030476Y-58300952D01*
X181078095Y-58348571D01*
X181173333Y-58396190D01*
X181554285Y-58396190D01*
X180125714Y-58205714D02*
X180125714Y-58872380D01*
X180363809Y-57824761D02*
X180601904Y-58539047D01*
X179982857Y-58539047D01*
X179078095Y-58872380D02*
X179649523Y-58872380D01*
X179363809Y-58872380D02*
X179363809Y-57872380D01*
X179459047Y-58015238D01*
X179554285Y-58110476D01*
X179649523Y-58158095D01*
X180982857Y-63952380D02*
X181316190Y-63476190D01*
X181554285Y-63952380D02*
X181554285Y-62952380D01*
X181173333Y-62952380D01*
X181078095Y-63000000D01*
X181030476Y-63047619D01*
X180982857Y-63142857D01*
X180982857Y-63285714D01*
X181030476Y-63380952D01*
X181078095Y-63428571D01*
X181173333Y-63476190D01*
X181554285Y-63476190D01*
X180125714Y-63285714D02*
X180125714Y-63952380D01*
X180363809Y-62904761D02*
X180601904Y-63619047D01*
X179982857Y-63619047D01*
X179697142Y-62952380D02*
X179078095Y-62952380D01*
X179411428Y-63333333D01*
X179268571Y-63333333D01*
X179173333Y-63380952D01*
X179125714Y-63428571D01*
X179078095Y-63523809D01*
X179078095Y-63761904D01*
X179125714Y-63857142D01*
X179173333Y-63904761D01*
X179268571Y-63952380D01*
X179554285Y-63952380D01*
X179649523Y-63904761D01*
X179697142Y-63857142D01*
X146248380Y-84193142D02*
X145772190Y-83859809D01*
X146248380Y-83621714D02*
X145248380Y-83621714D01*
X145248380Y-84002666D01*
X145296000Y-84097904D01*
X145343619Y-84145523D01*
X145438857Y-84193142D01*
X145581714Y-84193142D01*
X145676952Y-84145523D01*
X145724571Y-84097904D01*
X145772190Y-84002666D01*
X145772190Y-83621714D01*
X145581714Y-85050285D02*
X146248380Y-85050285D01*
X145200761Y-84812190D02*
X145915047Y-84574095D01*
X145915047Y-85193142D01*
X145581714Y-86002666D02*
X146248380Y-86002666D01*
X145200761Y-85764571D02*
X145915047Y-85526476D01*
X145915047Y-86145523D01*
X180982857Y-66492380D02*
X181316190Y-66016190D01*
X181554285Y-66492380D02*
X181554285Y-65492380D01*
X181173333Y-65492380D01*
X181078095Y-65540000D01*
X181030476Y-65587619D01*
X180982857Y-65682857D01*
X180982857Y-65825714D01*
X181030476Y-65920952D01*
X181078095Y-65968571D01*
X181173333Y-66016190D01*
X181554285Y-66016190D01*
X180125714Y-65825714D02*
X180125714Y-66492380D01*
X180363809Y-65444761D02*
X180601904Y-66159047D01*
X179982857Y-66159047D01*
X179697142Y-65492380D02*
X179030476Y-65492380D01*
X179459047Y-66492380D01*
X223337380Y-146042142D02*
X222861190Y-145708809D01*
X223337380Y-145470714D02*
X222337380Y-145470714D01*
X222337380Y-145851666D01*
X222385000Y-145946904D01*
X222432619Y-145994523D01*
X222527857Y-146042142D01*
X222670714Y-146042142D01*
X222765952Y-145994523D01*
X222813571Y-145946904D01*
X222861190Y-145851666D01*
X222861190Y-145470714D01*
X222432619Y-146423095D02*
X222385000Y-146470714D01*
X222337380Y-146565952D01*
X222337380Y-146804047D01*
X222385000Y-146899285D01*
X222432619Y-146946904D01*
X222527857Y-146994523D01*
X222623095Y-146994523D01*
X222765952Y-146946904D01*
X223337380Y-146375476D01*
X223337380Y-146994523D01*
X222337380Y-147899285D02*
X222337380Y-147423095D01*
X222813571Y-147375476D01*
X222765952Y-147423095D01*
X222718333Y-147518333D01*
X222718333Y-147756428D01*
X222765952Y-147851666D01*
X222813571Y-147899285D01*
X222908809Y-147946904D01*
X223146904Y-147946904D01*
X223242142Y-147899285D01*
X223289761Y-147851666D01*
X223337380Y-147756428D01*
X223337380Y-147518333D01*
X223289761Y-147423095D01*
X223242142Y-147375476D01*
X150820380Y-84193142D02*
X150344190Y-83859809D01*
X150820380Y-83621714D02*
X149820380Y-83621714D01*
X149820380Y-84002666D01*
X149868000Y-84097904D01*
X149915619Y-84145523D01*
X150010857Y-84193142D01*
X150153714Y-84193142D01*
X150248952Y-84145523D01*
X150296571Y-84097904D01*
X150344190Y-84002666D01*
X150344190Y-83621714D01*
X150153714Y-85050285D02*
X150820380Y-85050285D01*
X149772761Y-84812190D02*
X150487047Y-84574095D01*
X150487047Y-85193142D01*
X149820380Y-86050285D02*
X149820380Y-85574095D01*
X150296571Y-85526476D01*
X150248952Y-85574095D01*
X150201333Y-85669333D01*
X150201333Y-85907428D01*
X150248952Y-86002666D01*
X150296571Y-86050285D01*
X150391809Y-86097904D01*
X150629904Y-86097904D01*
X150725142Y-86050285D01*
X150772761Y-86002666D01*
X150820380Y-85907428D01*
X150820380Y-85669333D01*
X150772761Y-85574095D01*
X150725142Y-85526476D01*
X85097857Y-71572380D02*
X85431190Y-71096190D01*
X85669285Y-71572380D02*
X85669285Y-70572380D01*
X85288333Y-70572380D01*
X85193095Y-70620000D01*
X85145476Y-70667619D01*
X85097857Y-70762857D01*
X85097857Y-70905714D01*
X85145476Y-71000952D01*
X85193095Y-71048571D01*
X85288333Y-71096190D01*
X85669285Y-71096190D01*
X84716904Y-70667619D02*
X84669285Y-70620000D01*
X84574047Y-70572380D01*
X84335952Y-70572380D01*
X84240714Y-70620000D01*
X84193095Y-70667619D01*
X84145476Y-70762857D01*
X84145476Y-70858095D01*
X84193095Y-71000952D01*
X84764523Y-71572380D01*
X84145476Y-71572380D01*
X83288333Y-70572380D02*
X83478809Y-70572380D01*
X83574047Y-70620000D01*
X83621666Y-70667619D01*
X83716904Y-70810476D01*
X83764523Y-71000952D01*
X83764523Y-71381904D01*
X83716904Y-71477142D01*
X83669285Y-71524761D01*
X83574047Y-71572380D01*
X83383571Y-71572380D01*
X83288333Y-71524761D01*
X83240714Y-71477142D01*
X83193095Y-71381904D01*
X83193095Y-71143809D01*
X83240714Y-71048571D01*
X83288333Y-71000952D01*
X83383571Y-70953333D01*
X83574047Y-70953333D01*
X83669285Y-71000952D01*
X83716904Y-71048571D01*
X83764523Y-71143809D01*
X235751666Y-99512380D02*
X236085000Y-99036190D01*
X236323095Y-99512380D02*
X236323095Y-98512380D01*
X235942142Y-98512380D01*
X235846904Y-98560000D01*
X235799285Y-98607619D01*
X235751666Y-98702857D01*
X235751666Y-98845714D01*
X235799285Y-98940952D01*
X235846904Y-98988571D01*
X235942142Y-99036190D01*
X236323095Y-99036190D01*
X234799285Y-99512380D02*
X235370714Y-99512380D01*
X235085000Y-99512380D02*
X235085000Y-98512380D01*
X235180238Y-98655238D01*
X235275476Y-98750476D01*
X235370714Y-98798095D01*
X241117380Y-90162142D02*
X240641190Y-89828809D01*
X241117380Y-89590714D02*
X240117380Y-89590714D01*
X240117380Y-89971666D01*
X240165000Y-90066904D01*
X240212619Y-90114523D01*
X240307857Y-90162142D01*
X240450714Y-90162142D01*
X240545952Y-90114523D01*
X240593571Y-90066904D01*
X240641190Y-89971666D01*
X240641190Y-89590714D01*
X240117380Y-90495476D02*
X240117380Y-91114523D01*
X240498333Y-90781190D01*
X240498333Y-90924047D01*
X240545952Y-91019285D01*
X240593571Y-91066904D01*
X240688809Y-91114523D01*
X240926904Y-91114523D01*
X241022142Y-91066904D01*
X241069761Y-91019285D01*
X241117380Y-90924047D01*
X241117380Y-90638333D01*
X241069761Y-90543095D01*
X241022142Y-90495476D01*
X241117380Y-92066904D02*
X241117380Y-91495476D01*
X241117380Y-91781190D02*
X240117380Y-91781190D01*
X240260238Y-91685952D01*
X240355476Y-91590714D01*
X240403095Y-91495476D01*
X89987380Y-62222142D02*
X89511190Y-61888809D01*
X89987380Y-61650714D02*
X88987380Y-61650714D01*
X88987380Y-62031666D01*
X89035000Y-62126904D01*
X89082619Y-62174523D01*
X89177857Y-62222142D01*
X89320714Y-62222142D01*
X89415952Y-62174523D01*
X89463571Y-62126904D01*
X89511190Y-62031666D01*
X89511190Y-61650714D01*
X89082619Y-62603095D02*
X89035000Y-62650714D01*
X88987380Y-62745952D01*
X88987380Y-62984047D01*
X89035000Y-63079285D01*
X89082619Y-63126904D01*
X89177857Y-63174523D01*
X89273095Y-63174523D01*
X89415952Y-63126904D01*
X89987380Y-62555476D01*
X89987380Y-63174523D01*
X88987380Y-63507857D02*
X88987380Y-64174523D01*
X89987380Y-63745952D01*
X154757380Y-84669333D02*
X154281190Y-84336000D01*
X154757380Y-84097904D02*
X153757380Y-84097904D01*
X153757380Y-84478857D01*
X153805000Y-84574095D01*
X153852619Y-84621714D01*
X153947857Y-84669333D01*
X154090714Y-84669333D01*
X154185952Y-84621714D01*
X154233571Y-84574095D01*
X154281190Y-84478857D01*
X154281190Y-84097904D01*
X153852619Y-85050285D02*
X153805000Y-85097904D01*
X153757380Y-85193142D01*
X153757380Y-85431238D01*
X153805000Y-85526476D01*
X153852619Y-85574095D01*
X153947857Y-85621714D01*
X154043095Y-85621714D01*
X154185952Y-85574095D01*
X154757380Y-85002666D01*
X154757380Y-85621714D01*
X163012380Y-84669333D02*
X162536190Y-84336000D01*
X163012380Y-84097904D02*
X162012380Y-84097904D01*
X162012380Y-84478857D01*
X162060000Y-84574095D01*
X162107619Y-84621714D01*
X162202857Y-84669333D01*
X162345714Y-84669333D01*
X162440952Y-84621714D01*
X162488571Y-84574095D01*
X162536190Y-84478857D01*
X162536190Y-84097904D01*
X162345714Y-85526476D02*
X163012380Y-85526476D01*
X161964761Y-85288380D02*
X162679047Y-85050285D01*
X162679047Y-85669333D01*
X167076380Y-84669333D02*
X166600190Y-84336000D01*
X167076380Y-84097904D02*
X166076380Y-84097904D01*
X166076380Y-84478857D01*
X166124000Y-84574095D01*
X166171619Y-84621714D01*
X166266857Y-84669333D01*
X166409714Y-84669333D01*
X166504952Y-84621714D01*
X166552571Y-84574095D01*
X166600190Y-84478857D01*
X166600190Y-84097904D01*
X166076380Y-85574095D02*
X166076380Y-85097904D01*
X166552571Y-85050285D01*
X166504952Y-85097904D01*
X166457333Y-85193142D01*
X166457333Y-85431238D01*
X166504952Y-85526476D01*
X166552571Y-85574095D01*
X166647809Y-85621714D01*
X166885904Y-85621714D01*
X166981142Y-85574095D01*
X167028761Y-85526476D01*
X167076380Y-85431238D01*
X167076380Y-85193142D01*
X167028761Y-85097904D01*
X166981142Y-85050285D01*
X158948380Y-84669333D02*
X158472190Y-84336000D01*
X158948380Y-84097904D02*
X157948380Y-84097904D01*
X157948380Y-84478857D01*
X157996000Y-84574095D01*
X158043619Y-84621714D01*
X158138857Y-84669333D01*
X158281714Y-84669333D01*
X158376952Y-84621714D01*
X158424571Y-84574095D01*
X158472190Y-84478857D01*
X158472190Y-84097904D01*
X157948380Y-85002666D02*
X157948380Y-85621714D01*
X158329333Y-85288380D01*
X158329333Y-85431238D01*
X158376952Y-85526476D01*
X158424571Y-85574095D01*
X158519809Y-85621714D01*
X158757904Y-85621714D01*
X158853142Y-85574095D01*
X158900761Y-85526476D01*
X158948380Y-85431238D01*
X158948380Y-85145523D01*
X158900761Y-85050285D01*
X158853142Y-85002666D01*
X205557380Y-146042142D02*
X205081190Y-145708809D01*
X205557380Y-145470714D02*
X204557380Y-145470714D01*
X204557380Y-145851666D01*
X204605000Y-145946904D01*
X204652619Y-145994523D01*
X204747857Y-146042142D01*
X204890714Y-146042142D01*
X204985952Y-145994523D01*
X205033571Y-145946904D01*
X205081190Y-145851666D01*
X205081190Y-145470714D01*
X204652619Y-146423095D02*
X204605000Y-146470714D01*
X204557380Y-146565952D01*
X204557380Y-146804047D01*
X204605000Y-146899285D01*
X204652619Y-146946904D01*
X204747857Y-146994523D01*
X204843095Y-146994523D01*
X204985952Y-146946904D01*
X205557380Y-146375476D01*
X205557380Y-146994523D01*
X204890714Y-147851666D02*
X205557380Y-147851666D01*
X204509761Y-147613571D02*
X205224047Y-147375476D01*
X205224047Y-147994523D01*
X169997380Y-146042142D02*
X169521190Y-145708809D01*
X169997380Y-145470714D02*
X168997380Y-145470714D01*
X168997380Y-145851666D01*
X169045000Y-145946904D01*
X169092619Y-145994523D01*
X169187857Y-146042142D01*
X169330714Y-146042142D01*
X169425952Y-145994523D01*
X169473571Y-145946904D01*
X169521190Y-145851666D01*
X169521190Y-145470714D01*
X169092619Y-146423095D02*
X169045000Y-146470714D01*
X168997380Y-146565952D01*
X168997380Y-146804047D01*
X169045000Y-146899285D01*
X169092619Y-146946904D01*
X169187857Y-146994523D01*
X169283095Y-146994523D01*
X169425952Y-146946904D01*
X169997380Y-146375476D01*
X169997380Y-146994523D01*
X169092619Y-147375476D02*
X169045000Y-147423095D01*
X168997380Y-147518333D01*
X168997380Y-147756428D01*
X169045000Y-147851666D01*
X169092619Y-147899285D01*
X169187857Y-147946904D01*
X169283095Y-147946904D01*
X169425952Y-147899285D01*
X169997380Y-147327857D01*
X169997380Y-147946904D01*
X142184380Y-84193142D02*
X141708190Y-83859809D01*
X142184380Y-83621714D02*
X141184380Y-83621714D01*
X141184380Y-84002666D01*
X141232000Y-84097904D01*
X141279619Y-84145523D01*
X141374857Y-84193142D01*
X141517714Y-84193142D01*
X141612952Y-84145523D01*
X141660571Y-84097904D01*
X141708190Y-84002666D01*
X141708190Y-83621714D01*
X141517714Y-85050285D02*
X142184380Y-85050285D01*
X141136761Y-84812190D02*
X141851047Y-84574095D01*
X141851047Y-85193142D01*
X141279619Y-85526476D02*
X141232000Y-85574095D01*
X141184380Y-85669333D01*
X141184380Y-85907428D01*
X141232000Y-86002666D01*
X141279619Y-86050285D01*
X141374857Y-86097904D01*
X141470095Y-86097904D01*
X141612952Y-86050285D01*
X142184380Y-85478857D01*
X142184380Y-86097904D01*
D14*
X202198514Y-55212342D02*
X201501828Y-55212342D01*
X201850171Y-56431542D02*
X201850171Y-55212342D01*
X201095428Y-56431542D02*
X201095428Y-55212342D01*
X200630971Y-55212342D01*
X200514857Y-55270400D01*
X200456800Y-55328457D01*
X200398742Y-55444571D01*
X200398742Y-55618742D01*
X200456800Y-55734857D01*
X200514857Y-55792914D01*
X200630971Y-55850971D01*
X201095428Y-55850971D01*
X199237600Y-56431542D02*
X199934285Y-56431542D01*
X199585942Y-56431542D02*
X199585942Y-55212342D01*
X199702057Y-55386514D01*
X199818171Y-55502628D01*
X199934285Y-55560685D01*
X198388514Y-55212342D02*
X197691828Y-55212342D01*
X198040171Y-56431542D02*
X198040171Y-55212342D01*
X197285428Y-56431542D02*
X197285428Y-55212342D01*
X196820971Y-55212342D01*
X196704857Y-55270400D01*
X196646800Y-55328457D01*
X196588742Y-55444571D01*
X196588742Y-55618742D01*
X196646800Y-55734857D01*
X196704857Y-55792914D01*
X196820971Y-55850971D01*
X197285428Y-55850971D01*
X196124285Y-55328457D02*
X196066228Y-55270400D01*
X195950114Y-55212342D01*
X195659828Y-55212342D01*
X195543714Y-55270400D01*
X195485657Y-55328457D01*
X195427600Y-55444571D01*
X195427600Y-55560685D01*
X195485657Y-55734857D01*
X196182342Y-56431542D01*
X195427600Y-56431542D01*
X231408514Y-55212342D02*
X230711828Y-55212342D01*
X231060171Y-56431542D02*
X231060171Y-55212342D01*
X230305428Y-56431542D02*
X230305428Y-55212342D01*
X229840971Y-55212342D01*
X229724857Y-55270400D01*
X229666800Y-55328457D01*
X229608742Y-55444571D01*
X229608742Y-55618742D01*
X229666800Y-55734857D01*
X229724857Y-55792914D01*
X229840971Y-55850971D01*
X230305428Y-55850971D01*
X229202342Y-55212342D02*
X228447600Y-55212342D01*
X228854000Y-55676800D01*
X228679828Y-55676800D01*
X228563714Y-55734857D01*
X228505657Y-55792914D01*
X228447600Y-55909028D01*
X228447600Y-56199314D01*
X228505657Y-56315428D01*
X228563714Y-56373485D01*
X228679828Y-56431542D01*
X229028171Y-56431542D01*
X229144285Y-56373485D01*
X229202342Y-56315428D01*
X235218514Y-55212342D02*
X234521828Y-55212342D01*
X234870171Y-56431542D02*
X234870171Y-55212342D01*
X234115428Y-56431542D02*
X234115428Y-55212342D01*
X233650971Y-55212342D01*
X233534857Y-55270400D01*
X233476800Y-55328457D01*
X233418742Y-55444571D01*
X233418742Y-55618742D01*
X233476800Y-55734857D01*
X233534857Y-55792914D01*
X233650971Y-55850971D01*
X234115428Y-55850971D01*
X232373714Y-55618742D02*
X232373714Y-56431542D01*
X232664000Y-55154285D02*
X232954285Y-56025142D01*
X232199542Y-56025142D01*
X199796400Y-90772342D02*
X199796400Y-91643200D01*
X199854457Y-91817371D01*
X199970571Y-91933485D01*
X200144742Y-91991542D01*
X200260857Y-91991542D01*
X198635257Y-90772342D02*
X199215828Y-90772342D01*
X199273885Y-91352914D01*
X199215828Y-91294857D01*
X199099714Y-91236800D01*
X198809428Y-91236800D01*
X198693314Y-91294857D01*
X198635257Y-91352914D01*
X198577200Y-91469028D01*
X198577200Y-91759314D01*
X198635257Y-91875428D01*
X198693314Y-91933485D01*
X198809428Y-91991542D01*
X199099714Y-91991542D01*
X199215828Y-91933485D01*
X199273885Y-91875428D01*
M02*
