<?xml version="1.0" encoding="utf-8" ?>
<svg baseProfile="tiny" height="100%" version="1.2" width="100%" xmlns="http://www.w3.org/2000/svg" xmlns:ev="http://www.w3.org/2001/xml-events" xmlns:xlink="http://www.w3.org/1999/xlink"><defs /><rect fill="none" height="132.08" rx="3.81" ry="3.81" stroke="black" stroke-width="0.1" width="198.12" x="-99.06" y="-66.04" /><circle cx="-75.565" cy="0.635" fill="none" r="1.524" stroke="black" stroke-width="0.1" /><circle cx="-66.675" cy="0.635" fill="none" r="1.524" stroke="black" stroke-width="0.1" /><circle cx="-57.785" cy="0.635" fill="none" r="1.524" stroke="black" stroke-width="0.1" /><circle cx="-48.895" cy="0.635" fill="none" r="1.524" stroke="black" stroke-width="0.1" /><circle cx="-40.005" cy="0.635" fill="none" r="1.524" stroke="black" stroke-width="0.1" /><circle cx="-31.115" cy="0.635" fill="none" r="1.524" stroke="black" stroke-width="0.1" /><circle cx="-22.225" cy="0.635" fill="none" r="1.524" stroke="black" stroke-width="0.1" /><circle cx="-13.335" cy="0.635" fill="none" r="1.524" stroke="black" stroke-width="0.1" /><circle cx="-4.445" cy="0.635" fill="none" r="1.524" stroke="black" stroke-width="0.1" /><circle cx="4.445" cy="0.635" fill="none" r="1.524" stroke="black" stroke-width="0.1" /><circle cx="13.335" cy="0.635" fill="none" r="1.524" stroke="black" stroke-width="0.1" /><circle cx="22.225" cy="0.635" fill="none" r="1.524" stroke="black" stroke-width="0.1" /><circle cx="31.115" cy="0.635" fill="none" r="1.524" stroke="black" stroke-width="0.1" /><circle cx="40.005" cy="0.635" fill="none" r="1.524" stroke="black" stroke-width="0.1" /><circle cx="48.895" cy="0.635" fill="none" r="1.524" stroke="black" stroke-width="0.1" /><circle cx="57.785" cy="0.635" fill="none" r="1.524" stroke="black" stroke-width="0.1" /><circle cx="-75.565" cy="35.56" fill="none" r="1.524" stroke="black" stroke-width="0.1" /><circle cx="-22.225" cy="35.56" fill="none" r="1.524" stroke="black" stroke-width="0.1" /><circle cx="4.445" cy="35.56" fill="none" r="1.524" stroke="black" stroke-width="0.1" /><circle cx="22.225" cy="35.56" fill="none" r="1.524" stroke="black" stroke-width="0.1" /><circle cx="40.005" cy="35.56" fill="none" r="1.524" stroke="black" stroke-width="0.1" /><circle cx="57.785" cy="35.56" fill="none" r="1.524" stroke="black" stroke-width="0.1" /><circle cx="75.565" cy="35.56" fill="none" r="1.524" stroke="black" stroke-width="0.1" /><circle cx="75.565" cy="7.62" fill="none" r="1.524" stroke="black" stroke-width="0.1" /><circle cx="75.565" cy="-20.32" fill="none" r="1.524" stroke="black" stroke-width="0.1" /><circle cx="-75.565" cy="-48.26" fill="none" r="1.524" stroke="black" stroke-width="0.1" /><circle cx="-57.785" cy="-48.26" fill="none" r="1.524" stroke="black" stroke-width="0.1" /><circle cx="-40.005" cy="-48.26" fill="none" r="1.524" stroke="black" stroke-width="0.1" /><circle cx="-74.93" cy="44.831" fill="none" r="5.8801" stroke="black" stroke-width="0.1" /><circle cx="-57.15" cy="44.831" fill="none" r="5.8801" stroke="black" stroke-width="0.1" /><circle cx="-39.37" cy="44.831" fill="none" r="5.8801" stroke="black" stroke-width="0.1" /><circle cx="-21.59" cy="44.831" fill="none" r="5.8801" stroke="black" stroke-width="0.1" /><circle cx="5.08" cy="44.831" fill="none" r="5.8801" stroke="black" stroke-width="0.1" /><circle cx="22.86" cy="44.831" fill="none" r="5.8801" stroke="black" stroke-width="0.1" /><circle cx="40.64" cy="44.831" fill="none" r="5.8801" stroke="black" stroke-width="0.1" /><circle cx="58.42" cy="44.831" fill="none" r="5.8801" stroke="black" stroke-width="0.1" /><circle cx="76.2" cy="44.831" fill="none" r="5.8801" stroke="black" stroke-width="0.1" /><circle cx="76.2" cy="16.891" fill="none" r="5.8801" stroke="black" stroke-width="0.1" /><circle cx="76.2" cy="-11.049" fill="none" r="5.8801" stroke="black" stroke-width="0.1" /><circle cx="76.2" cy="-38.989" fill="none" r="5.8801" stroke="black" stroke-width="0.1" /><circle cx="-74.93" cy="-38.989" fill="none" r="5.8801" stroke="black" stroke-width="0.1" /><circle cx="-57.15" cy="-38.989" fill="none" r="5.8801" stroke="black" stroke-width="0.1" /><circle cx="-39.37" cy="-38.989" fill="none" r="5.8801" stroke="black" stroke-width="0.1" /><rect fill="none" height="12.7" rx="0.0" ry="0.0" stroke="black" stroke-width="0.1" width="40.1828" x="-15.0114" y="-44.958" /><circle cx="46.99" cy="-38.1" fill="none" r="7.366" stroke="black" stroke-width="0.1" /><circle cx="-77.47" cy="-20.32" fill="none" r="2.794" stroke="black" stroke-width="0.1" /><circle cx="-77.47" cy="27.94" fill="none" r="2.794" stroke="black" stroke-width="0.1" /><circle cx="80.01" cy="-25.4" fill="none" r="2.794" stroke="black" stroke-width="0.1" /><circle cx="80.01" cy="30.48" fill="none" r="2.794" stroke="black" stroke-width="0.1" /></svg>