M48
; DRILL file {KiCad (5.1.2)-1} date 10/06/2019 11:55:59
; FORMAT={-:-/ absolute / inch / decimal}
; #@! TF.CreationDate,2019-06-10T11:55:59+02:00
; #@! TF.GenerationSoftware,Kicad,Pcbnew,(5.1.2)-1
; #@! TF.FileFunction,Plated,1,2,PTH
FMAT,2
INCH
T1C0.0157
T2C0.0236
T3C0.0314
T4C0.0315
T5C0.0320
T6C0.0394
T7C0.0400
T8C0.0433
T9C0.0450
T10C0.0900
%
G90
G05
T1
X2.825Y-4.7
X3.275Y-4.9
X3.35Y-3.15
X3.35Y-5.175
X3.4Y-5.275
X3.5Y-3.45
X3.525Y-4.2
X3.55Y-3.725
X3.575Y-5.225
X3.6Y-4.425
X3.625Y-2.55
X3.625Y-3.15
X3.675Y-3.675
X4.0Y-3.85
X4.0Y-4.125
X4.0Y-4.525
X4.05Y-4.35
X4.1Y-3.775
X4.2Y-3.85
X4.225Y-5.225
X4.3Y-4.425
X4.3Y-4.875
X4.32Y-3.2
X4.325Y-5.275
X4.4Y-4.125
X4.4Y-3.325
X4.5Y-4.225
X4.5Y-4.475
X4.55Y-4.425
X4.6Y-4.6
X4.775Y-4.85
X4.775Y-5.275
X4.8Y-1.95
X4.825Y-2.2
X4.925Y-5.125
X4.975Y-5.425
X5.0Y-4.275
X5.0Y-5.325
X5.05Y-3.825
X5.1Y-5.125
X5.15Y-4.475
X5.225Y-4.175
X5.25Y-4.575
X5.275Y-3.075
X5.3Y-4.65
X5.325Y-2.825
X5.325Y-5.175
X5.4Y-2.475
X5.425Y-4.25
X5.425Y-4.65
X5.45Y-2.275
X5.45Y-2.7
X5.45Y-3.525
X5.475Y-3.4
X5.475Y-4.175
X5.475Y-4.3
X5.475Y-4.575
X5.5Y-4.1
X5.5177Y-3.0
X5.525Y-3.85
X5.625Y-5.4
X5.675Y-4.45
X5.7Y-4.925
X5.7Y-5.85
X5.9Y-4.975
X5.925Y-5.225
X6.025Y-5.425
X6.05Y-4.15
X6.125Y-5.325
X6.2Y-4.55
X6.325Y-4.925
X6.375Y-4.35
X6.375Y-4.65
X6.375Y-5.05
X6.45Y-4.15
X6.45Y-5.225
X6.55Y-5.575
X6.6Y-4.575
X6.8Y-2.9
X6.8Y-5.275
X6.875Y-3.475
X6.9Y-4.9
X7.025Y-5.275
X7.05Y-4.5
X7.15Y-4.55
X7.25Y-4.6
X7.275Y-4.4
X7.325Y-2.025
X7.45Y-2.65
X7.55Y-2.8
X7.575Y-4.45
X7.65Y-2.9
X7.675Y-4.35
X7.725Y-3.1
X7.725Y-4.4
X7.775Y-4.5
X7.8Y-3.025
X7.8Y-4.65
X7.875Y-4.35
X7.9Y-5.5
X7.925Y-4.4
X8.125Y-3.85
X8.125Y-4.45
X8.3Y-5.0
X8.325Y-4.1
X8.325Y-4.375
X8.475Y-4.5
X8.525Y-4.4
X8.725Y-4.3
X8.8Y-5.35
X8.825Y-3.45
X9.0Y-5.3
X9.125Y-3.375
X9.475Y-4.85
T2
X6.2Y-2.875
X6.2Y-2.925
X6.2Y-2.975
X2.9Y-4.0
X2.9Y-4.05
X2.9Y-4.1
X6.4Y-2.875
X6.4Y-2.925
X6.4Y-2.975
X6.6Y-2.875
X6.6Y-2.925
X6.6Y-2.975
X6.0Y-2.875
X6.0Y-2.925
X6.0Y-2.975
T3
X6.0Y-2.3
X6.0Y-2.7
X6.1Y-2.3
X6.1Y-2.7
X6.2Y-2.3
X6.2Y-2.7
X6.3Y-2.3
X6.3Y-2.7
X6.4Y-2.3
X6.4Y-2.7
X6.5Y-2.3
X6.5Y-2.7
X6.6Y-2.3
X6.6Y-2.7
X6.7Y-2.3
X6.7Y-2.7
T4
X6.075Y-3.14
X6.075Y-3.54
X6.9Y-2.5
X7.3Y-2.5
X3.525Y-2.275
X3.525Y-2.675
X3.8Y-3.0
X3.8Y-3.6
X3.9Y-3.0
X3.9Y-3.6
X4.0Y-3.0
X4.0Y-3.6
X4.1Y-3.0
X4.1Y-3.6
X4.2Y-3.0
X4.2Y-3.6
X4.3Y-3.0
X4.3Y-3.6
X4.4Y-3.0
X4.4Y-3.6
X4.5Y-3.0
X4.5Y-3.6
X4.6Y-3.0
X4.6Y-3.6
X4.7Y-3.0
X4.7Y-3.6
X4.8Y-3.0
X4.8Y-3.6
X4.9Y-3.0
X4.9Y-3.6
X5.0Y-3.0
X5.0Y-3.6
X5.1Y-3.0
X5.1Y-3.6
X5.2Y-3.0
X5.2Y-3.6
X8.075Y-5.575
X8.075Y-5.975
X7.375Y-5.575
X7.375Y-5.975
X8.5Y-3.0
X8.9Y-3.0
X6.9Y-2.4
X7.3Y-2.4
X6.8Y-3.3031
X6.8Y-3.5
X8.7Y-2.4
X8.7Y-2.8
X6.45Y-4.8531
X6.45Y-5.05
X9.075Y-4.175
X9.475Y-4.175
X4.225Y-2.275
X4.225Y-2.675
X8.775Y-5.575
X8.775Y-5.975
X5.74Y-3.14
X5.74Y-3.54
X3.125Y-2.8
X3.525Y-2.8
X6.9Y-2.6
X7.3Y-2.6
X6.9Y-2.7
X7.3Y-2.7
X5.58Y-3.14
X5.58Y-3.54
X8.0Y-3.0
X8.0Y-3.1
X8.0Y-3.2
X8.0Y-3.3
X8.3Y-3.0
X8.3Y-3.1
X8.3Y-3.2
X8.3Y-3.3
X2.875Y-3.7
X3.275Y-3.7
X5.92Y-3.14
X5.92Y-3.54
X5.0Y-2.3
X5.1969Y-2.3
X4.925Y-5.575
X4.925Y-5.975
X9.475Y-3.375
X9.475Y-3.775
X6.675Y-5.575
X6.675Y-5.975
X8.5Y-3.1
X8.5Y-3.5
X9.075Y-3.9
X9.475Y-3.9
X8.75Y-4.85
X8.75Y-5.0469
X5.15Y-4.8531
X5.15Y-5.05
X6.24Y-3.14
X6.24Y-3.54
X3.525Y-5.575
X3.525Y-5.975
X6.9Y-2.2
X7.3Y-2.2
X6.4Y-3.14
X6.4Y-3.54
X8.0531Y-3.45
X8.25Y-3.45
X8.6Y-2.4
X8.6Y-2.8
X3.85Y-4.8531
X3.85Y-5.05
X6.9Y-2.1
X7.3Y-2.1
X6.9Y-2.3
X7.3Y-2.3
X5.975Y-5.575
X5.975Y-5.975
X6.56Y-3.14
X6.56Y-3.54
T5
X9.075Y-5.425
X9.175Y-5.425
X3.825Y-2.125
X3.925Y-2.125
X5.225Y-5.425
X5.325Y-5.425
X6.275Y-4.025
X6.375Y-4.025
X4.525Y-4.025
X4.625Y-4.025
X3.125Y-5.425
X3.225Y-5.425
X6.275Y-5.425
X6.375Y-5.425
X8.025Y-4.025
X8.125Y-4.025
X4.875Y-4.025
X4.975Y-4.025
X8.375Y-5.425
X8.475Y-5.425
X7.325Y-4.025
X7.425Y-4.025
X3.125Y-4.025
X3.225Y-4.025
X5.3Y-4.8
X5.3Y-5.1
X5.4Y-4.8
X5.4Y-5.1
X5.5Y-4.8
X5.5Y-5.1
X5.6Y-4.8
X5.6Y-5.1
X5.7Y-4.8
X5.7Y-5.1
X5.8Y-4.8
X5.8Y-5.1
X5.9Y-4.8
X5.9Y-5.1
X6.0Y-4.8
X6.0Y-5.1
X7.675Y-5.425
X7.775Y-5.425
X6.6Y-4.8
X6.6Y-5.1
X6.7Y-4.8
X6.7Y-5.1
X6.8Y-4.8
X6.8Y-5.1
X6.9Y-4.8
X6.9Y-5.1
X7.0Y-4.8
X7.0Y-5.1
X7.1Y-4.8
X7.1Y-5.1
X7.2Y-4.8
X7.2Y-5.1
X7.3Y-4.8
X7.3Y-5.1
X5.575Y-4.025
X5.675Y-4.025
X6.625Y-4.025
X6.725Y-4.025
X5.925Y-4.025
X6.025Y-4.025
X8.375Y-4.025
X8.475Y-4.025
X3.475Y-4.025
X3.575Y-4.025
X9.075Y-3.225
X9.175Y-3.225
X9.075Y-4.325
X9.175Y-4.325
X4.0Y-4.8
X4.0Y-5.1
X4.1Y-4.8
X4.1Y-5.1
X4.2Y-4.8
X4.2Y-5.1
X4.3Y-4.8
X4.3Y-5.1
X4.4Y-4.8
X4.4Y-5.1
X4.5Y-4.8
X4.5Y-5.1
X4.6Y-4.8
X4.6Y-5.1
X4.7Y-4.8
X4.7Y-5.1
X5.225Y-4.025
X5.325Y-4.025
X6.975Y-5.425
X7.075Y-5.425
X7.9Y-4.8
X7.9Y-5.1
X8.0Y-4.8
X8.0Y-5.1
X8.1Y-4.8
X8.1Y-5.1
X8.2Y-4.8
X8.2Y-5.1
X8.3Y-4.8
X8.3Y-5.1
X8.4Y-4.8
X8.4Y-5.1
X8.5Y-4.8
X8.5Y-5.1
X8.6Y-4.8
X8.6Y-5.1
X4.525Y-2.125
X4.625Y-2.125
X6.975Y-4.025
X7.075Y-4.025
X3.825Y-4.025
X3.925Y-4.025
X6.95Y-3.25
X6.95Y-3.55
X7.05Y-3.25
X7.05Y-3.55
X7.15Y-3.25
X7.15Y-3.55
X7.25Y-3.25
X7.25Y-3.55
X7.35Y-3.25
X7.35Y-3.55
X7.45Y-3.25
X7.45Y-3.55
X7.55Y-3.25
X7.55Y-3.55
X7.65Y-3.25
X7.65Y-3.55
X7.675Y-4.025
X7.775Y-4.025
X3.125Y-2.125
X3.225Y-2.125
X4.175Y-4.025
X4.275Y-4.025
T6
X2.9758Y-4.475
X3.275Y-4.475
T7
X7.9Y-2.1
X9.06Y-2.1
X8.2Y-3.8
X8.3Y-3.8
X8.4Y-3.8
X7.74Y-2.1
X8.6Y-2.1
X8.7Y-2.1
X7.56Y-3.72
X7.66Y-3.72
X7.76Y-3.72
X7.86Y-3.72
X7.96Y-3.72
X7.5Y-2.1
X7.5Y-2.2
X7.5Y-2.3
X9.22Y-2.1
X4.4Y-2.8
X4.5Y-2.8
X4.6Y-2.8
X4.7Y-2.8
X7.705Y-2.4
X7.705Y-2.5
X7.705Y-2.6
X8.275Y-2.4
X8.275Y-2.6
X5.2Y-2.6
X5.3Y-2.6
T8
X8.3Y-5.675
X8.3Y-5.8522
X8.5559Y-5.675
X8.5559Y-5.8522
X4.45Y-2.375
X4.45Y-2.5522
X4.7059Y-2.375
X4.7059Y-2.5522
X5.15Y-5.675
X5.15Y-5.8522
X5.4059Y-5.675
X5.4059Y-5.8522
X6.9Y-5.675
X6.9Y-5.8522
X7.1559Y-5.675
X7.1559Y-5.8522
X9.0Y-2.375
X9.0Y-2.5522
X9.2559Y-2.375
X9.2559Y-2.5522
X9.0Y-4.575
X9.0Y-4.7522
X9.2559Y-4.575
X9.2559Y-4.7522
X3.75Y-5.675
X3.75Y-5.8522
X4.0059Y-5.675
X4.0059Y-5.8522
X9.0Y-5.675
X9.0Y-5.8522
X9.2559Y-5.675
X9.2559Y-5.8522
X3.75Y-2.375
X3.75Y-2.5522
X4.0059Y-2.375
X4.0059Y-2.5522
X4.45Y-5.675
X4.45Y-5.8522
X4.7059Y-5.675
X4.7059Y-5.8522
X7.6Y-5.675
X7.6Y-5.8522
X7.8559Y-5.675
X7.8559Y-5.8522
X9.0Y-3.475
X9.0Y-3.6522
X9.2559Y-3.475
X9.2559Y-3.6522
X6.2Y-5.675
X6.2Y-5.8522
X6.4559Y-5.675
X6.4559Y-5.8522
X3.05Y-2.375
X3.05Y-2.5522
X3.3059Y-2.375
X3.3059Y-2.5522
X3.05Y-5.675
X3.05Y-5.8522
X3.3059Y-5.675
X3.3059Y-5.8522
T9
X5.1Y-2.1
X5.2Y-2.1
X5.3Y-2.1
T10
X8.0Y-2.24
X8.0Y-2.76
T0
M30
