<?xml version="1.0" encoding="utf-8" ?>
<svg baseProfile="tiny" height="100%" version="1.2" width="100%" xmlns="http://www.w3.org/2000/svg" xmlns:ev="http://www.w3.org/2001/xml-events" xmlns:xlink="http://www.w3.org/1999/xlink"><defs /><rect fill="none" height="132.08" rx="0.0" ry="0.0" stroke="red" stroke-width="0.01" width="198.12" x="-99.06" y="-66.04" /><text font-size="12.7" text-anchor="middle" x="5.08" y="-52.07">YASS</text><text font-size="3.048" text-anchor="middle" x="63.5" y="-57.404">Yet Another Step Sequencer</text><text font-size="3.048" text-anchor="middle" x="63.5" y="-53.594">c. MMXIX</text><circle cx="-75.565" cy="0.635" fill="none" r="1.524" stroke="red" stroke-width="0.01" /><circle cx="-66.675" cy="0.635" fill="none" r="1.524" stroke="red" stroke-width="0.01" /><circle cx="-57.785" cy="0.635" fill="none" r="1.524" stroke="red" stroke-width="0.01" /><circle cx="-48.895" cy="0.635" fill="none" r="1.524" stroke="red" stroke-width="0.01" /><circle cx="-40.005" cy="0.635" fill="none" r="1.524" stroke="red" stroke-width="0.01" /><circle cx="-31.115" cy="0.635" fill="none" r="1.524" stroke="red" stroke-width="0.01" /><circle cx="-22.225" cy="0.635" fill="none" r="1.524" stroke="red" stroke-width="0.01" /><circle cx="-13.335" cy="0.635" fill="none" r="1.524" stroke="red" stroke-width="0.01" /><circle cx="-4.445" cy="0.635" fill="none" r="1.524" stroke="red" stroke-width="0.01" /><circle cx="4.445" cy="0.635" fill="none" r="1.524" stroke="red" stroke-width="0.01" /><circle cx="13.335" cy="0.635" fill="none" r="1.524" stroke="red" stroke-width="0.01" /><circle cx="22.225" cy="0.635" fill="none" r="1.524" stroke="red" stroke-width="0.01" /><circle cx="31.115" cy="0.635" fill="none" r="1.524" stroke="red" stroke-width="0.01" /><circle cx="40.005" cy="0.635" fill="none" r="1.524" stroke="red" stroke-width="0.01" /><circle cx="48.895" cy="0.635" fill="none" r="1.524" stroke="red" stroke-width="0.01" /><circle cx="57.785" cy="0.635" fill="none" r="1.524" stroke="red" stroke-width="0.01" /><circle cx="-75.565" cy="35.56" fill="none" r="1.524" stroke="red" stroke-width="0.01" /><circle cx="-22.225" cy="35.56" fill="none" r="1.524" stroke="red" stroke-width="0.01" /><circle cx="4.445" cy="35.56" fill="none" r="1.524" stroke="red" stroke-width="0.01" /><circle cx="22.225" cy="35.56" fill="none" r="1.524" stroke="red" stroke-width="0.01" /><circle cx="40.005" cy="35.56" fill="none" r="1.524" stroke="red" stroke-width="0.01" /><circle cx="57.785" cy="35.56" fill="none" r="1.524" stroke="red" stroke-width="0.01" /><circle cx="75.565" cy="35.56" fill="none" r="1.524" stroke="red" stroke-width="0.01" /><circle cx="75.565" cy="7.62" fill="none" r="1.524" stroke="red" stroke-width="0.01" /><circle cx="75.565" cy="-20.32" fill="none" r="1.524" stroke="red" stroke-width="0.01" /><circle cx="-75.565" cy="-48.26" fill="none" r="1.524" stroke="red" stroke-width="0.01" /><circle cx="-57.785" cy="-48.26" fill="none" r="1.524" stroke="red" stroke-width="0.01" /><circle cx="-40.005" cy="-48.26" fill="none" r="1.524" stroke="red" stroke-width="0.01" /><circle cx="-74.93" cy="44.831" fill="none" r="5.8801" stroke="red" stroke-width="0.01" /><text font-size="4.064" text-anchor="middle" x="-74.93" y="55.499">PLAY</text><circle cx="-57.15" cy="44.831" fill="none" r="5.8801" stroke="red" stroke-width="0.01" /><text font-size="4.064" text-anchor="middle" x="-57.15" y="55.499">STOP</text><circle cx="-39.37" cy="44.831" fill="none" r="5.8801" stroke="red" stroke-width="0.01" /><text font-size="4.064" text-anchor="middle" x="-39.37" y="55.499">CONT</text><circle cx="-21.59" cy="44.831" fill="none" r="5.8801" stroke="red" stroke-width="0.01" /><text font-size="4.064" text-anchor="middle" x="-21.59" y="55.499">REC.</text><circle cx="5.08" cy="44.831" fill="none" r="5.8801" stroke="red" stroke-width="0.01" /><text font-size="4.064" text-anchor="middle" x="5.08" y="55.499">1</text><circle cx="22.86" cy="44.831" fill="none" r="5.8801" stroke="red" stroke-width="0.01" /><text font-size="4.064" text-anchor="middle" x="22.86" y="55.499">2</text><circle cx="40.64" cy="44.831" fill="none" r="5.8801" stroke="red" stroke-width="0.01" /><text font-size="4.064" text-anchor="middle" x="40.64" y="55.499">3</text><circle cx="58.42" cy="44.831" fill="none" r="5.8801" stroke="red" stroke-width="0.01" /><text font-size="4.064" text-anchor="middle" x="58.42" y="55.499">4</text><circle cx="76.2" cy="44.831" fill="none" r="5.8801" stroke="red" stroke-width="0.01" /><text font-size="4.064" text-anchor="middle" x="76.2" y="55.499">5</text><circle cx="76.2" cy="16.891" fill="none" r="5.8801" stroke="red" stroke-width="0.01" /><text font-size="4.064" text-anchor="middle" x="76.2" y="27.559">SEQ.</text><circle cx="76.2" cy="-11.049" fill="none" r="5.8801" stroke="red" stroke-width="0.01" /><text font-size="4.064" text-anchor="middle" x="76.2" y="-0.381">GLOB</text><circle cx="76.2" cy="-38.989" fill="none" r="5.8801" stroke="red" stroke-width="0.01" /><text font-size="4.064" text-anchor="middle" x="76.2" y="-28.321">OK</text><circle cx="-74.93" cy="-38.989" fill="none" r="5.8801" stroke="red" stroke-width="0.01" /><text font-size="4.064" text-anchor="middle" x="-74.93" y="-28.321">REST</text><circle cx="-57.15" cy="-38.989" fill="none" r="5.8801" stroke="red" stroke-width="0.01" /><text font-size="4.064" text-anchor="middle" x="-57.15" y="-28.321">TIE</text><circle cx="-39.37" cy="-38.989" fill="none" r="5.8801" stroke="red" stroke-width="0.01" /><text font-size="4.064" text-anchor="middle" x="-39.37" y="-28.321">LAST</text><rect fill="none" height="12.7" rx="0.0" ry="0.0" stroke="red" stroke-width="0.01" width="40.1828" x="-15.0114" y="-44.958" /><circle cx="46.99" cy="-38.1" fill="none" r="7.2644" stroke="red" stroke-width="0.01" /></svg>