<?xml version="1.0" encoding="utf-8" ?>
<svg baseProfile="tiny" height="100%" version="1.2" width="100%" xmlns="http://www.w3.org/2000/svg" xmlns:ev="http://www.w3.org/2001/xml-events" xmlns:xlink="http://www.w3.org/1999/xlink"><defs /><rect fill="none" height="132.08" rx="0.0" ry="0.0" stroke="black" stroke-width="0.1" width="198.12" x="-99.06" y="-66.04" /><circle cx="-93.98" cy="60.96" fill="none" r="1.5494" stroke="black" stroke-width="0.1" /><circle cx="-93.98" cy="20.32" fill="none" r="1.5494" stroke="black" stroke-width="0.1" /><circle cx="-93.98" cy="-20.32" fill="none" r="1.5494" stroke="black" stroke-width="0.1" /><circle cx="-93.98" cy="-60.96" fill="none" r="1.5494" stroke="black" stroke-width="0.1" /><circle cx="-31.3266666667" cy="60.96" fill="none" r="1.5494" stroke="black" stroke-width="0.1" /><circle cx="-31.3266666667" cy="-60.96" fill="none" r="1.5494" stroke="black" stroke-width="0.1" /><circle cx="31.3266666667" cy="60.96" fill="none" r="1.5494" stroke="black" stroke-width="0.1" /><circle cx="31.3266666667" cy="-60.96" fill="none" r="1.5494" stroke="black" stroke-width="0.1" /><circle cx="93.98" cy="60.96" fill="none" r="1.5494" stroke="black" stroke-width="0.1" /><circle cx="93.98" cy="20.32" fill="none" r="1.5494" stroke="black" stroke-width="0.1" /><circle cx="93.98" cy="-20.32" fill="none" r="1.5494" stroke="black" stroke-width="0.1" /><circle cx="93.98" cy="-60.96" fill="none" r="1.5494" stroke="black" stroke-width="0.1" /><text font-size="12.7" text-anchor="middle" x="5.08" y="-52.07">YASS</text><text font-size="3.048" text-anchor="middle" x="63.5" y="-57.404">Yet Another Step Sequencer</text><text font-size="3.048" text-anchor="middle" x="63.5" y="-53.594">c. MMXIX</text><circle cx="-75.565" cy="0.635" fill="none" r="1.524" stroke="black" stroke-width="0.1" /><circle cx="-66.675" cy="0.635" fill="none" r="1.524" stroke="black" stroke-width="0.1" /><circle cx="-57.785" cy="0.635" fill="none" r="1.524" stroke="black" stroke-width="0.1" /><circle cx="-48.895" cy="0.635" fill="none" r="1.524" stroke="black" stroke-width="0.1" /><circle cx="-40.005" cy="0.635" fill="none" r="1.524" stroke="black" stroke-width="0.1" /><circle cx="-31.115" cy="0.635" fill="none" r="1.524" stroke="black" stroke-width="0.1" /><circle cx="-22.225" cy="0.635" fill="none" r="1.524" stroke="black" stroke-width="0.1" /><circle cx="-13.335" cy="0.635" fill="none" r="1.524" stroke="black" stroke-width="0.1" /><circle cx="-4.445" cy="0.635" fill="none" r="1.524" stroke="black" stroke-width="0.1" /><circle cx="4.445" cy="0.635" fill="none" r="1.524" stroke="black" stroke-width="0.1" /><circle cx="13.335" cy="0.635" fill="none" r="1.524" stroke="black" stroke-width="0.1" /><circle cx="22.225" cy="0.635" fill="none" r="1.524" stroke="black" stroke-width="0.1" /><circle cx="31.115" cy="0.635" fill="none" r="1.524" stroke="black" stroke-width="0.1" /><circle cx="40.005" cy="0.635" fill="none" r="1.524" stroke="black" stroke-width="0.1" /><circle cx="48.895" cy="0.635" fill="none" r="1.524" stroke="black" stroke-width="0.1" /><circle cx="57.785" cy="0.635" fill="none" r="1.524" stroke="black" stroke-width="0.1" /><circle cx="-75.565" cy="35.56" fill="none" r="1.524" stroke="black" stroke-width="0.1" /><circle cx="-22.225" cy="35.56" fill="none" r="1.524" stroke="black" stroke-width="0.1" /><circle cx="4.445" cy="35.56" fill="none" r="1.524" stroke="black" stroke-width="0.1" /><circle cx="22.225" cy="35.56" fill="none" r="1.524" stroke="black" stroke-width="0.1" /><circle cx="40.005" cy="35.56" fill="none" r="1.524" stroke="black" stroke-width="0.1" /><circle cx="57.785" cy="35.56" fill="none" r="1.524" stroke="black" stroke-width="0.1" /><circle cx="75.565" cy="35.56" fill="none" r="1.524" stroke="black" stroke-width="0.1" /><circle cx="75.565" cy="7.62" fill="none" r="1.524" stroke="black" stroke-width="0.1" /><circle cx="75.565" cy="-20.32" fill="none" r="1.524" stroke="black" stroke-width="0.1" /><circle cx="-75.565" cy="-48.26" fill="none" r="1.524" stroke="black" stroke-width="0.1" /><circle cx="-57.785" cy="-48.26" fill="none" r="1.524" stroke="black" stroke-width="0.1" /><circle cx="-40.005" cy="-48.26" fill="none" r="1.524" stroke="black" stroke-width="0.1" /><circle cx="-74.93" cy="44.831" fill="none" r="6.35" stroke="black" stroke-width="0.1" /><text font-size="4.064" text-anchor="middle" x="-74.93" y="55.499">PLAY</text><circle cx="-57.15" cy="44.831" fill="none" r="6.35" stroke="black" stroke-width="0.1" /><text font-size="4.064" text-anchor="middle" x="-57.15" y="55.499">STOP</text><circle cx="-39.37" cy="44.831" fill="none" r="6.35" stroke="black" stroke-width="0.1" /><text font-size="4.064" text-anchor="middle" x="-39.37" y="55.499">CONT</text><circle cx="-21.59" cy="44.831" fill="none" r="6.35" stroke="black" stroke-width="0.1" /><text font-size="4.064" text-anchor="middle" x="-21.59" y="55.499">REC.</text><circle cx="5.08" cy="44.831" fill="none" r="6.35" stroke="black" stroke-width="0.1" /><text font-size="4.064" text-anchor="middle" x="5.08" y="55.499">1</text><circle cx="22.86" cy="44.831" fill="none" r="6.35" stroke="black" stroke-width="0.1" /><text font-size="4.064" text-anchor="middle" x="22.86" y="55.499">2</text><circle cx="40.64" cy="44.831" fill="none" r="6.35" stroke="black" stroke-width="0.1" /><text font-size="4.064" text-anchor="middle" x="40.64" y="55.499">3</text><circle cx="58.42" cy="44.831" fill="none" r="6.35" stroke="black" stroke-width="0.1" /><text font-size="4.064" text-anchor="middle" x="58.42" y="55.499">4</text><circle cx="76.2" cy="44.831" fill="none" r="6.35" stroke="black" stroke-width="0.1" /><text font-size="4.064" text-anchor="middle" x="76.2" y="55.499">5</text><circle cx="76.2" cy="16.891" fill="none" r="6.35" stroke="black" stroke-width="0.1" /><text font-size="4.064" text-anchor="middle" x="76.2" y="27.559">SEQ.</text><circle cx="76.2" cy="-11.049" fill="none" r="6.35" stroke="black" stroke-width="0.1" /><text font-size="4.064" text-anchor="middle" x="76.2" y="-0.381">GLOB</text><circle cx="76.2" cy="-38.989" fill="none" r="6.35" stroke="black" stroke-width="0.1" /><text font-size="4.064" text-anchor="middle" x="76.2" y="-28.321">OK</text><circle cx="-74.93" cy="-38.989" fill="none" r="6.35" stroke="black" stroke-width="0.1" /><text font-size="4.064" text-anchor="middle" x="-74.93" y="-28.321">REST</text><circle cx="-57.15" cy="-38.989" fill="none" r="6.35" stroke="black" stroke-width="0.1" /><text font-size="4.064" text-anchor="middle" x="-57.15" y="-28.321">TIE</text><circle cx="-39.37" cy="-38.989" fill="none" r="6.35" stroke="black" stroke-width="0.1" /><text font-size="4.064" text-anchor="middle" x="-39.37" y="-28.321">LAST</text><rect fill="none" height="12.7" rx="0.0" ry="0.0" stroke="black" stroke-width="0.1" width="40.1828" x="-15.0114" y="-44.958" /><circle cx="46.99" cy="-38.1" fill="none" r="7.2644" stroke="black" stroke-width="0.1" /><rect fill="none" height="52.4002" rx="0.0" ry="0.0" stroke="black" stroke-width="0.1" width="198.12" x="-99.06" y="-118.4402" /><circle cx="-93.98" cy="-76.2" fill="none" r="1.5494" stroke="black" stroke-width="0.1" /><circle cx="-93.98" cy="-92.2401" fill="none" r="1.5494" stroke="black" stroke-width="0.1" /><circle cx="-93.98" cy="-108.2802" fill="none" r="1.5494" stroke="black" stroke-width="0.1" /><circle cx="-31.3266666667" cy="-76.2" fill="none" r="1.5494" stroke="black" stroke-width="0.1" /><circle cx="-31.3266666667" cy="-108.2802" fill="none" r="1.5494" stroke="black" stroke-width="0.1" /><circle cx="31.3266666667" cy="-76.2" fill="none" r="1.5494" stroke="black" stroke-width="0.1" /><circle cx="31.3266666667" cy="-108.2802" fill="none" r="1.5494" stroke="black" stroke-width="0.1" /><circle cx="93.98" cy="-76.2" fill="none" r="1.5494" stroke="black" stroke-width="0.1" /><circle cx="93.98" cy="-92.2401" fill="none" r="1.5494" stroke="black" stroke-width="0.1" /><circle cx="93.98" cy="-108.2802" fill="none" r="1.5494" stroke="black" stroke-width="0.1" /><circle cx="0.0" cy="-92.2401" fill="none" r="7.62" stroke="black" stroke-width="0.1" /><circle cx="-10.922" cy="-92.2401" fill="none" r="1.6002" stroke="black" stroke-width="0.1" /><circle cx="10.922" cy="-92.2401" fill="none" r="1.6002" stroke="black" stroke-width="0.1" /><text font-size="4.064" text-anchor="middle" x="0.0" y="-103.1621">MIDI IN</text><circle cx="49.53" cy="-92.2401" fill="none" r="7.62" stroke="black" stroke-width="0.1" /><circle cx="38.608" cy="-92.2401" fill="none" r="1.6002" stroke="black" stroke-width="0.1" /><circle cx="60.452" cy="-92.2401" fill="none" r="1.6002" stroke="black" stroke-width="0.1" /><text font-size="4.064" text-anchor="middle" x="49.53" y="-103.1621">MIDI OUT</text><circle cx="-49.53" cy="-92.2401" fill="none" r="5.461" stroke="black" stroke-width="0.1" /><text font-size="4.064" text-anchor="middle" x="-49.53" y="-103.1621">POWER</text><rect fill="none" height="52.4002" rx="0.0" ry="0.0" stroke="black" stroke-width="0.1" width="198.12" x="-99.06" y="66.04" /><circle cx="-93.98" cy="108.2802" fill="none" r="1.5494" stroke="black" stroke-width="0.1" /><circle cx="-93.98" cy="92.2401" fill="none" r="1.5494" stroke="black" stroke-width="0.1" /><circle cx="-93.98" cy="76.2" fill="none" r="1.5494" stroke="black" stroke-width="0.1" /><circle cx="-31.3266666667" cy="108.2802" fill="none" r="1.5494" stroke="black" stroke-width="0.1" /><circle cx="-31.3266666667" cy="76.2" fill="none" r="1.5494" stroke="black" stroke-width="0.1" /><circle cx="31.3266666667" cy="108.2802" fill="none" r="1.5494" stroke="black" stroke-width="0.1" /><circle cx="31.3266666667" cy="76.2" fill="none" r="1.5494" stroke="black" stroke-width="0.1" /><circle cx="93.98" cy="108.2802" fill="none" r="1.5494" stroke="black" stroke-width="0.1" /><circle cx="93.98" cy="92.2401" fill="none" r="1.5494" stroke="black" stroke-width="0.1" /><circle cx="93.98" cy="76.2" fill="none" r="1.5494" stroke="black" stroke-width="0.1" /><rect fill="none" height="142.24" rx="0.0" ry="0.0" stroke="black" stroke-width="0.1" width="52.4002" x="-151.4602" y="-71.12" /><circle cx="-141.3002" cy="66.04" fill="none" r="1.5494" stroke="black" stroke-width="0.1" /><circle cx="-141.3002" cy="22.0133333333" fill="none" r="1.5494" stroke="black" stroke-width="0.1" /><circle cx="-141.3002" cy="-22.0133333333" fill="none" r="1.5494" stroke="black" stroke-width="0.1" /><circle cx="-141.3002" cy="-66.04" fill="none" r="1.5494" stroke="black" stroke-width="0.1" /><circle cx="-125.2601" cy="66.04" fill="none" r="1.5494" stroke="black" stroke-width="0.1" /><circle cx="-125.2601" cy="-66.04" fill="none" r="1.5494" stroke="black" stroke-width="0.1" /><circle cx="-109.22" cy="66.04" fill="none" r="1.5494" stroke="black" stroke-width="0.1" /><circle cx="-109.22" cy="22.0133333333" fill="none" r="1.5494" stroke="black" stroke-width="0.1" /><circle cx="-109.22" cy="-22.0133333333" fill="none" r="1.5494" stroke="black" stroke-width="0.1" /><circle cx="-109.22" cy="-66.04" fill="none" r="1.5494" stroke="black" stroke-width="0.1" /><rect fill="none" height="142.24" rx="0.0" ry="0.0" stroke="black" stroke-width="0.1" width="52.4002" x="99.06" y="-71.12" /><circle cx="109.22" cy="66.04" fill="none" r="1.5494" stroke="black" stroke-width="0.1" /><circle cx="109.22" cy="22.0133333333" fill="none" r="1.5494" stroke="black" stroke-width="0.1" /><circle cx="109.22" cy="-22.0133333333" fill="none" r="1.5494" stroke="black" stroke-width="0.1" /><circle cx="109.22" cy="-66.04" fill="none" r="1.5494" stroke="black" stroke-width="0.1" /><circle cx="125.2601" cy="66.04" fill="none" r="1.5494" stroke="black" stroke-width="0.1" /><circle cx="125.2601" cy="-66.04" fill="none" r="1.5494" stroke="black" stroke-width="0.1" /><circle cx="141.3002" cy="66.04" fill="none" r="1.5494" stroke="black" stroke-width="0.1" /><circle cx="141.3002" cy="22.0133333333" fill="none" r="1.5494" stroke="black" stroke-width="0.1" /><circle cx="141.3002" cy="-22.0133333333" fill="none" r="1.5494" stroke="black" stroke-width="0.1" /><circle cx="141.3002" cy="-66.04" fill="none" r="1.5494" stroke="black" stroke-width="0.1" /><rect fill="none" height="198.12" rx="0.0" ry="0.0" stroke="black" stroke-width="0.1" width="132.08" x="-283.5402" y="-99.06" /><circle cx="-278.4602" cy="93.98" fill="none" r="1.5494" stroke="black" stroke-width="0.1" /><circle cx="-278.4602" cy="31.3266666667" fill="none" r="1.5494" stroke="black" stroke-width="0.1" /><circle cx="-278.4602" cy="-31.3266666667" fill="none" r="1.5494" stroke="black" stroke-width="0.1" /><circle cx="-278.4602" cy="-93.98" fill="none" r="1.5494" stroke="black" stroke-width="0.1" /><circle cx="-237.8202" cy="93.98" fill="none" r="1.5494" stroke="black" stroke-width="0.1" /><circle cx="-237.8202" cy="-93.98" fill="none" r="1.5494" stroke="black" stroke-width="0.1" /><circle cx="-197.1802" cy="93.98" fill="none" r="1.5494" stroke="black" stroke-width="0.1" /><circle cx="-197.1802" cy="-93.98" fill="none" r="1.5494" stroke="black" stroke-width="0.1" /><circle cx="-156.5402" cy="93.98" fill="none" r="1.5494" stroke="black" stroke-width="0.1" /><circle cx="-156.5402" cy="31.3266666667" fill="none" r="1.5494" stroke="black" stroke-width="0.1" /><circle cx="-156.5402" cy="-31.3266666667" fill="none" r="1.5494" stroke="black" stroke-width="0.1" /><circle cx="-156.5402" cy="-93.98" fill="none" r="1.5494" stroke="black" stroke-width="0.1" /></svg>